<?xml version="1.0" encoding="utf-8" standalone="no"?>
<!DOCTYPE svg PUBLIC "-//W3C//DTD SVG 1.1//EN"
  "http://www.w3.org/Graphics/SVG/1.1/DTD/svg11.dtd">
<svg xmlns:xlink="http://www.w3.org/1999/xlink" width="1000.098125pt" height="388.844525pt" viewBox="0 0 1000.098125 388.844525" xmlns="http://www.w3.org/2000/svg" version="1.1">
 <metadata>
  <rdf:RDF xmlns:dc="http://purl.org/dc/elements/1.1/" xmlns:cc="http://creativecommons.org/ns#" xmlns:rdf="http://www.w3.org/1999/02/22-rdf-syntax-ns#">
   <cc:Work>
    <dc:type rdf:resource="http://purl.org/dc/dcmitype/StillImage"/>
    <dc:date>2023-02-14T10:05:15.925018</dc:date>
    <dc:format>image/svg+xml</dc:format>
    <dc:creator>
     <cc:Agent>
      <dc:title>Matplotlib v3.5.3, https://matplotlib.org/</dc:title>
     </cc:Agent>
    </dc:creator>
   </cc:Work>
  </rdf:RDF>
 </metadata>
 <defs>
  <style type="text/css">*{stroke-linejoin: round; stroke-linecap: butt}</style>
 </defs>
 <g id="figure_1">
  <g id="axes_1">
   <g id="patch_1">
    <path d="M 58.418125 353.2239 
L 985.263125 353.2239 
L 985.263125 35.2559 
L 58.418125 35.2559 
z
" style="fill: #ffffff"/>
   </g>
   <g id="matplotlib.axis_1">
    <g id="xtick_1">
     <g id="text_1">
      <!-- 0 -->
      <g transform="translate(55.873125 366.30265)scale(0.08 -0.08)">
       <defs>
        <path id="DejaVuSans-30" d="M 2034 4250 
Q 1547 4250 1301 3770 
Q 1056 3291 1056 2328 
Q 1056 1369 1301 889 
Q 1547 409 2034 409 
Q 2525 409 2770 889 
Q 3016 1369 3016 2328 
Q 3016 3291 2770 3770 
Q 2525 4250 2034 4250 
z
M 2034 4750 
Q 2819 4750 3233 4129 
Q 3647 3509 3647 2328 
Q 3647 1150 3233 529 
Q 2819 -91 2034 -91 
Q 1250 -91 836 529 
Q 422 1150 422 2328 
Q 422 3509 836 4129 
Q 1250 4750 2034 4750 
z
" transform="scale(0.015625)"/>
       </defs>
       <use xlink:href="#DejaVuSans-30"/>
      </g>
     </g>
    </g>
    <g id="xtick_2">
     <g id="text_2">
      <!-- 20 -->
      <g transform="translate(238.697125 366.30265)scale(0.08 -0.08)">
       <defs>
        <path id="DejaVuSans-32" d="M 1228 531 
L 3431 531 
L 3431 0 
L 469 0 
L 469 531 
Q 828 903 1448 1529 
Q 2069 2156 2228 2338 
Q 2531 2678 2651 2914 
Q 2772 3150 2772 3378 
Q 2772 3750 2511 3984 
Q 2250 4219 1831 4219 
Q 1534 4219 1204 4116 
Q 875 4013 500 3803 
L 500 4441 
Q 881 4594 1212 4672 
Q 1544 4750 1819 4750 
Q 2544 4750 2975 4387 
Q 3406 4025 3406 3419 
Q 3406 3131 3298 2873 
Q 3191 2616 2906 2266 
Q 2828 2175 2409 1742 
Q 1991 1309 1228 531 
z
" transform="scale(0.015625)"/>
       </defs>
       <use xlink:href="#DejaVuSans-32"/>
       <use xlink:href="#DejaVuSans-30" x="63.623047"/>
      </g>
     </g>
    </g>
    <g id="xtick_3">
     <g id="text_3">
      <!-- 40 -->
      <g transform="translate(424.066125 366.30265)scale(0.08 -0.08)">
       <defs>
        <path id="DejaVuSans-34" d="M 2419 4116 
L 825 1625 
L 2419 1625 
L 2419 4116 
z
M 2253 4666 
L 3047 4666 
L 3047 1625 
L 3713 1625 
L 3713 1100 
L 3047 1100 
L 3047 0 
L 2419 0 
L 2419 1100 
L 313 1100 
L 313 1709 
L 2253 4666 
z
" transform="scale(0.015625)"/>
       </defs>
       <use xlink:href="#DejaVuSans-34"/>
       <use xlink:href="#DejaVuSans-30" x="63.623047"/>
      </g>
     </g>
    </g>
    <g id="xtick_4">
     <g id="text_4">
      <!-- 60 -->
      <g transform="translate(609.435125 366.30265)scale(0.08 -0.08)">
       <defs>
        <path id="DejaVuSans-36" d="M 2113 2584 
Q 1688 2584 1439 2293 
Q 1191 2003 1191 1497 
Q 1191 994 1439 701 
Q 1688 409 2113 409 
Q 2538 409 2786 701 
Q 3034 994 3034 1497 
Q 3034 2003 2786 2293 
Q 2538 2584 2113 2584 
z
M 3366 4563 
L 3366 3988 
Q 3128 4100 2886 4159 
Q 2644 4219 2406 4219 
Q 1781 4219 1451 3797 
Q 1122 3375 1075 2522 
Q 1259 2794 1537 2939 
Q 1816 3084 2150 3084 
Q 2853 3084 3261 2657 
Q 3669 2231 3669 1497 
Q 3669 778 3244 343 
Q 2819 -91 2113 -91 
Q 1303 -91 875 529 
Q 447 1150 447 2328 
Q 447 3434 972 4092 
Q 1497 4750 2381 4750 
Q 2619 4750 2861 4703 
Q 3103 4656 3366 4563 
z
" transform="scale(0.015625)"/>
       </defs>
       <use xlink:href="#DejaVuSans-36"/>
       <use xlink:href="#DejaVuSans-30" x="63.623047"/>
      </g>
     </g>
    </g>
    <g id="xtick_5">
     <g id="text_5">
      <!-- 80 -->
      <g transform="translate(794.804125 366.30265)scale(0.08 -0.08)">
       <defs>
        <path id="DejaVuSans-38" d="M 2034 2216 
Q 1584 2216 1326 1975 
Q 1069 1734 1069 1313 
Q 1069 891 1326 650 
Q 1584 409 2034 409 
Q 2484 409 2743 651 
Q 3003 894 3003 1313 
Q 3003 1734 2745 1975 
Q 2488 2216 2034 2216 
z
M 1403 2484 
Q 997 2584 770 2862 
Q 544 3141 544 3541 
Q 544 4100 942 4425 
Q 1341 4750 2034 4750 
Q 2731 4750 3128 4425 
Q 3525 4100 3525 3541 
Q 3525 3141 3298 2862 
Q 3072 2584 2669 2484 
Q 3125 2378 3379 2068 
Q 3634 1759 3634 1313 
Q 3634 634 3220 271 
Q 2806 -91 2034 -91 
Q 1263 -91 848 271 
Q 434 634 434 1313 
Q 434 1759 690 2068 
Q 947 2378 1403 2484 
z
M 1172 3481 
Q 1172 3119 1398 2916 
Q 1625 2713 2034 2713 
Q 2441 2713 2670 2916 
Q 2900 3119 2900 3481 
Q 2900 3844 2670 4047 
Q 2441 4250 2034 4250 
Q 1625 4250 1398 4047 
Q 1172 3844 1172 3481 
z
" transform="scale(0.015625)"/>
       </defs>
       <use xlink:href="#DejaVuSans-38"/>
       <use xlink:href="#DejaVuSans-30" x="63.623047"/>
      </g>
     </g>
    </g>
    <g id="xtick_6">
     <g id="text_6">
      <!-- 100 -->
      <g transform="translate(977.628125 366.30265)scale(0.08 -0.08)">
       <defs>
        <path id="DejaVuSans-31" d="M 794 531 
L 1825 531 
L 1825 4091 
L 703 3866 
L 703 4441 
L 1819 4666 
L 2450 4666 
L 2450 531 
L 3481 531 
L 3481 0 
L 794 0 
L 794 531 
z
" transform="scale(0.015625)"/>
       </defs>
       <use xlink:href="#DejaVuSans-31"/>
       <use xlink:href="#DejaVuSans-30" x="63.623047"/>
       <use xlink:href="#DejaVuSans-30" x="127.246094"/>
      </g>
     </g>
    </g>
    <g id="text_7">
     <!-- Percent of reads -->
     <g transform="translate(481.172656 379.564837)scale(0.1 -0.1)">
      <defs>
       <path id="DejaVuSans-50" d="M 1259 4147 
L 1259 2394 
L 2053 2394 
Q 2494 2394 2734 2622 
Q 2975 2850 2975 3272 
Q 2975 3691 2734 3919 
Q 2494 4147 2053 4147 
L 1259 4147 
z
M 628 4666 
L 2053 4666 
Q 2838 4666 3239 4311 
Q 3641 3956 3641 3272 
Q 3641 2581 3239 2228 
Q 2838 1875 2053 1875 
L 1259 1875 
L 1259 0 
L 628 0 
L 628 4666 
z
" transform="scale(0.015625)"/>
       <path id="DejaVuSans-65" d="M 3597 1894 
L 3597 1613 
L 953 1613 
Q 991 1019 1311 708 
Q 1631 397 2203 397 
Q 2534 397 2845 478 
Q 3156 559 3463 722 
L 3463 178 
Q 3153 47 2828 -22 
Q 2503 -91 2169 -91 
Q 1331 -91 842 396 
Q 353 884 353 1716 
Q 353 2575 817 3079 
Q 1281 3584 2069 3584 
Q 2775 3584 3186 3129 
Q 3597 2675 3597 1894 
z
M 3022 2063 
Q 3016 2534 2758 2815 
Q 2500 3097 2075 3097 
Q 1594 3097 1305 2825 
Q 1016 2553 972 2059 
L 3022 2063 
z
" transform="scale(0.015625)"/>
       <path id="DejaVuSans-72" d="M 2631 2963 
Q 2534 3019 2420 3045 
Q 2306 3072 2169 3072 
Q 1681 3072 1420 2755 
Q 1159 2438 1159 1844 
L 1159 0 
L 581 0 
L 581 3500 
L 1159 3500 
L 1159 2956 
Q 1341 3275 1631 3429 
Q 1922 3584 2338 3584 
Q 2397 3584 2469 3576 
Q 2541 3569 2628 3553 
L 2631 2963 
z
" transform="scale(0.015625)"/>
       <path id="DejaVuSans-63" d="M 3122 3366 
L 3122 2828 
Q 2878 2963 2633 3030 
Q 2388 3097 2138 3097 
Q 1578 3097 1268 2742 
Q 959 2388 959 1747 
Q 959 1106 1268 751 
Q 1578 397 2138 397 
Q 2388 397 2633 464 
Q 2878 531 3122 666 
L 3122 134 
Q 2881 22 2623 -34 
Q 2366 -91 2075 -91 
Q 1284 -91 818 406 
Q 353 903 353 1747 
Q 353 2603 823 3093 
Q 1294 3584 2113 3584 
Q 2378 3584 2631 3529 
Q 2884 3475 3122 3366 
z
" transform="scale(0.015625)"/>
       <path id="DejaVuSans-6e" d="M 3513 2113 
L 3513 0 
L 2938 0 
L 2938 2094 
Q 2938 2591 2744 2837 
Q 2550 3084 2163 3084 
Q 1697 3084 1428 2787 
Q 1159 2491 1159 1978 
L 1159 0 
L 581 0 
L 581 3500 
L 1159 3500 
L 1159 2956 
Q 1366 3272 1645 3428 
Q 1925 3584 2291 3584 
Q 2894 3584 3203 3211 
Q 3513 2838 3513 2113 
z
" transform="scale(0.015625)"/>
       <path id="DejaVuSans-74" d="M 1172 4494 
L 1172 3500 
L 2356 3500 
L 2356 3053 
L 1172 3053 
L 1172 1153 
Q 1172 725 1289 603 
Q 1406 481 1766 481 
L 2356 481 
L 2356 0 
L 1766 0 
Q 1100 0 847 248 
Q 594 497 594 1153 
L 594 3053 
L 172 3053 
L 172 3500 
L 594 3500 
L 594 4494 
L 1172 4494 
z
" transform="scale(0.015625)"/>
       <path id="DejaVuSans-20" transform="scale(0.015625)"/>
       <path id="DejaVuSans-6f" d="M 1959 3097 
Q 1497 3097 1228 2736 
Q 959 2375 959 1747 
Q 959 1119 1226 758 
Q 1494 397 1959 397 
Q 2419 397 2687 759 
Q 2956 1122 2956 1747 
Q 2956 2369 2687 2733 
Q 2419 3097 1959 3097 
z
M 1959 3584 
Q 2709 3584 3137 3096 
Q 3566 2609 3566 1747 
Q 3566 888 3137 398 
Q 2709 -91 1959 -91 
Q 1206 -91 779 398 
Q 353 888 353 1747 
Q 353 2609 779 3096 
Q 1206 3584 1959 3584 
z
" transform="scale(0.015625)"/>
       <path id="DejaVuSans-66" d="M 2375 4863 
L 2375 4384 
L 1825 4384 
Q 1516 4384 1395 4259 
Q 1275 4134 1275 3809 
L 1275 3500 
L 2222 3500 
L 2222 3053 
L 1275 3053 
L 1275 0 
L 697 0 
L 697 3053 
L 147 3053 
L 147 3500 
L 697 3500 
L 697 3744 
Q 697 4328 969 4595 
Q 1241 4863 1831 4863 
L 2375 4863 
z
" transform="scale(0.015625)"/>
       <path id="DejaVuSans-61" d="M 2194 1759 
Q 1497 1759 1228 1600 
Q 959 1441 959 1056 
Q 959 750 1161 570 
Q 1363 391 1709 391 
Q 2188 391 2477 730 
Q 2766 1069 2766 1631 
L 2766 1759 
L 2194 1759 
z
M 3341 1997 
L 3341 0 
L 2766 0 
L 2766 531 
Q 2569 213 2275 61 
Q 1981 -91 1556 -91 
Q 1019 -91 701 211 
Q 384 513 384 1019 
Q 384 1609 779 1909 
Q 1175 2209 1959 2209 
L 2766 2209 
L 2766 2266 
Q 2766 2663 2505 2880 
Q 2244 3097 1772 3097 
Q 1472 3097 1187 3025 
Q 903 2953 641 2809 
L 641 3341 
Q 956 3463 1253 3523 
Q 1550 3584 1831 3584 
Q 2591 3584 2966 3190 
Q 3341 2797 3341 1997 
z
" transform="scale(0.015625)"/>
       <path id="DejaVuSans-64" d="M 2906 2969 
L 2906 4863 
L 3481 4863 
L 3481 0 
L 2906 0 
L 2906 525 
Q 2725 213 2448 61 
Q 2172 -91 1784 -91 
Q 1150 -91 751 415 
Q 353 922 353 1747 
Q 353 2572 751 3078 
Q 1150 3584 1784 3584 
Q 2172 3584 2448 3432 
Q 2725 3281 2906 2969 
z
M 947 1747 
Q 947 1113 1208 752 
Q 1469 391 1925 391 
Q 2381 391 2643 752 
Q 2906 1113 2906 1747 
Q 2906 2381 2643 2742 
Q 2381 3103 1925 3103 
Q 1469 3103 1208 2742 
Q 947 2381 947 1747 
z
" transform="scale(0.015625)"/>
       <path id="DejaVuSans-73" d="M 2834 3397 
L 2834 2853 
Q 2591 2978 2328 3040 
Q 2066 3103 1784 3103 
Q 1356 3103 1142 2972 
Q 928 2841 928 2578 
Q 928 2378 1081 2264 
Q 1234 2150 1697 2047 
L 1894 2003 
Q 2506 1872 2764 1633 
Q 3022 1394 3022 966 
Q 3022 478 2636 193 
Q 2250 -91 1575 -91 
Q 1294 -91 989 -36 
Q 684 19 347 128 
L 347 722 
Q 666 556 975 473 
Q 1284 391 1588 391 
Q 1994 391 2212 530 
Q 2431 669 2431 922 
Q 2431 1156 2273 1281 
Q 2116 1406 1581 1522 
L 1381 1569 
Q 847 1681 609 1914 
Q 372 2147 372 2553 
Q 372 3047 722 3315 
Q 1072 3584 1716 3584 
Q 2034 3584 2315 3537 
Q 2597 3491 2834 3397 
z
" transform="scale(0.015625)"/>
      </defs>
      <use xlink:href="#DejaVuSans-50"/>
      <use xlink:href="#DejaVuSans-65" x="56.677734"/>
      <use xlink:href="#DejaVuSans-72" x="118.201172"/>
      <use xlink:href="#DejaVuSans-63" x="157.064453"/>
      <use xlink:href="#DejaVuSans-65" x="212.044922"/>
      <use xlink:href="#DejaVuSans-6e" x="273.568359"/>
      <use xlink:href="#DejaVuSans-74" x="336.947266"/>
      <use xlink:href="#DejaVuSans-20" x="376.15625"/>
      <use xlink:href="#DejaVuSans-6f" x="407.943359"/>
      <use xlink:href="#DejaVuSans-66" x="469.125"/>
      <use xlink:href="#DejaVuSans-20" x="504.330078"/>
      <use xlink:href="#DejaVuSans-72" x="536.117188"/>
      <use xlink:href="#DejaVuSans-65" x="574.980469"/>
      <use xlink:href="#DejaVuSans-61" x="636.503906"/>
      <use xlink:href="#DejaVuSans-64" x="697.783203"/>
      <use xlink:href="#DejaVuSans-73" x="761.259766"/>
     </g>
    </g>
   </g>
   <g id="matplotlib.axis_2">
    <g id="ytick_1">
     <g id="line2d_1">
      <path d="M 58.418125 353.2239 
L 985.263125 353.2239 
" clip-path="url(#p4e1094d903)" style="fill: none; stroke: #dedede; stroke-linecap: square"/>
     </g>
     <g id="text_8">
      <!-- 0 -->
      <g transform="translate(46.328125 356.263275)scale(0.08 -0.08)">
       <use xlink:href="#DejaVuSans-30"/>
      </g>
     </g>
    </g>
    <g id="ytick_2">
     <g id="line2d_2">
      <path d="M 58.418125 310.241907 
L 985.263125 310.241907 
" clip-path="url(#p4e1094d903)" style="fill: none; stroke: #dedede; stroke-linecap: square"/>
     </g>
     <g id="text_9">
      <!-- 20000 -->
      <g transform="translate(25.968125 313.281282)scale(0.08 -0.08)">
       <use xlink:href="#DejaVuSans-32"/>
       <use xlink:href="#DejaVuSans-30" x="63.623047"/>
       <use xlink:href="#DejaVuSans-30" x="127.246094"/>
       <use xlink:href="#DejaVuSans-30" x="190.869141"/>
       <use xlink:href="#DejaVuSans-30" x="254.492188"/>
      </g>
     </g>
    </g>
    <g id="ytick_3">
     <g id="line2d_3">
      <path d="M 58.418125 267.259913 
L 985.263125 267.259913 
" clip-path="url(#p4e1094d903)" style="fill: none; stroke: #dedede; stroke-linecap: square"/>
     </g>
     <g id="text_10">
      <!-- 40000 -->
      <g transform="translate(25.968125 270.299288)scale(0.08 -0.08)">
       <use xlink:href="#DejaVuSans-34"/>
       <use xlink:href="#DejaVuSans-30" x="63.623047"/>
       <use xlink:href="#DejaVuSans-30" x="127.246094"/>
       <use xlink:href="#DejaVuSans-30" x="190.869141"/>
       <use xlink:href="#DejaVuSans-30" x="254.492188"/>
      </g>
     </g>
    </g>
    <g id="ytick_4">
     <g id="line2d_4">
      <path d="M 58.418125 224.27792 
L 985.263125 224.27792 
" clip-path="url(#p4e1094d903)" style="fill: none; stroke: #dedede; stroke-linecap: square"/>
     </g>
     <g id="text_11">
      <!-- 60000 -->
      <g transform="translate(25.968125 227.317295)scale(0.08 -0.08)">
       <use xlink:href="#DejaVuSans-36"/>
       <use xlink:href="#DejaVuSans-30" x="63.623047"/>
       <use xlink:href="#DejaVuSans-30" x="127.246094"/>
       <use xlink:href="#DejaVuSans-30" x="190.869141"/>
       <use xlink:href="#DejaVuSans-30" x="254.492188"/>
      </g>
     </g>
    </g>
    <g id="ytick_5">
     <g id="line2d_5">
      <path d="M 58.418125 181.295926 
L 985.263125 181.295926 
" clip-path="url(#p4e1094d903)" style="fill: none; stroke: #dedede; stroke-linecap: square"/>
     </g>
     <g id="text_12">
      <!-- 80000 -->
      <g transform="translate(25.968125 184.335301)scale(0.08 -0.08)">
       <use xlink:href="#DejaVuSans-38"/>
       <use xlink:href="#DejaVuSans-30" x="63.623047"/>
       <use xlink:href="#DejaVuSans-30" x="127.246094"/>
       <use xlink:href="#DejaVuSans-30" x="190.869141"/>
       <use xlink:href="#DejaVuSans-30" x="254.492188"/>
      </g>
     </g>
    </g>
    <g id="ytick_6">
     <g id="line2d_6">
      <path d="M 58.418125 138.313933 
L 985.263125 138.313933 
" clip-path="url(#p4e1094d903)" style="fill: none; stroke: #dedede; stroke-linecap: square"/>
     </g>
     <g id="text_13">
      <!-- 100000 -->
      <g transform="translate(20.878125 141.353308)scale(0.08 -0.08)">
       <use xlink:href="#DejaVuSans-31"/>
       <use xlink:href="#DejaVuSans-30" x="63.623047"/>
       <use xlink:href="#DejaVuSans-30" x="127.246094"/>
       <use xlink:href="#DejaVuSans-30" x="190.869141"/>
       <use xlink:href="#DejaVuSans-30" x="254.492188"/>
       <use xlink:href="#DejaVuSans-30" x="318.115234"/>
      </g>
     </g>
    </g>
    <g id="ytick_7">
     <g id="line2d_7">
      <path d="M 58.418125 95.33194 
L 985.263125 95.33194 
" clip-path="url(#p4e1094d903)" style="fill: none; stroke: #dedede; stroke-linecap: square"/>
     </g>
     <g id="text_14">
      <!-- 120000 -->
      <g transform="translate(20.878125 98.371315)scale(0.08 -0.08)">
       <use xlink:href="#DejaVuSans-31"/>
       <use xlink:href="#DejaVuSans-32" x="63.623047"/>
       <use xlink:href="#DejaVuSans-30" x="127.246094"/>
       <use xlink:href="#DejaVuSans-30" x="190.869141"/>
       <use xlink:href="#DejaVuSans-30" x="254.492188"/>
       <use xlink:href="#DejaVuSans-30" x="318.115234"/>
      </g>
     </g>
    </g>
    <g id="ytick_8">
     <g id="line2d_8">
      <path d="M 58.418125 52.349946 
L 985.263125 52.349946 
" clip-path="url(#p4e1094d903)" style="fill: none; stroke: #dedede; stroke-linecap: square"/>
     </g>
     <g id="text_15">
      <!-- 140000 -->
      <g transform="translate(20.878125 55.389321)scale(0.08 -0.08)">
       <use xlink:href="#DejaVuSans-31"/>
       <use xlink:href="#DejaVuSans-34" x="63.623047"/>
       <use xlink:href="#DejaVuSans-30" x="127.246094"/>
       <use xlink:href="#DejaVuSans-30" x="190.869141"/>
       <use xlink:href="#DejaVuSans-30" x="254.492188"/>
       <use xlink:href="#DejaVuSans-30" x="318.115234"/>
      </g>
     </g>
    </g>
    <g id="text_16">
     <!-- Number of Junctions -->
     <g transform="translate(14.798438 245.067244)rotate(-90)scale(0.1 -0.1)">
      <defs>
       <path id="DejaVuSans-4e" d="M 628 4666 
L 1478 4666 
L 3547 763 
L 3547 4666 
L 4159 4666 
L 4159 0 
L 3309 0 
L 1241 3903 
L 1241 0 
L 628 0 
L 628 4666 
z
" transform="scale(0.015625)"/>
       <path id="DejaVuSans-75" d="M 544 1381 
L 544 3500 
L 1119 3500 
L 1119 1403 
Q 1119 906 1312 657 
Q 1506 409 1894 409 
Q 2359 409 2629 706 
Q 2900 1003 2900 1516 
L 2900 3500 
L 3475 3500 
L 3475 0 
L 2900 0 
L 2900 538 
Q 2691 219 2414 64 
Q 2138 -91 1772 -91 
Q 1169 -91 856 284 
Q 544 659 544 1381 
z
M 1991 3584 
L 1991 3584 
z
" transform="scale(0.015625)"/>
       <path id="DejaVuSans-6d" d="M 3328 2828 
Q 3544 3216 3844 3400 
Q 4144 3584 4550 3584 
Q 5097 3584 5394 3201 
Q 5691 2819 5691 2113 
L 5691 0 
L 5113 0 
L 5113 2094 
Q 5113 2597 4934 2840 
Q 4756 3084 4391 3084 
Q 3944 3084 3684 2787 
Q 3425 2491 3425 1978 
L 3425 0 
L 2847 0 
L 2847 2094 
Q 2847 2600 2669 2842 
Q 2491 3084 2119 3084 
Q 1678 3084 1418 2786 
Q 1159 2488 1159 1978 
L 1159 0 
L 581 0 
L 581 3500 
L 1159 3500 
L 1159 2956 
Q 1356 3278 1631 3431 
Q 1906 3584 2284 3584 
Q 2666 3584 2933 3390 
Q 3200 3197 3328 2828 
z
" transform="scale(0.015625)"/>
       <path id="DejaVuSans-62" d="M 3116 1747 
Q 3116 2381 2855 2742 
Q 2594 3103 2138 3103 
Q 1681 3103 1420 2742 
Q 1159 2381 1159 1747 
Q 1159 1113 1420 752 
Q 1681 391 2138 391 
Q 2594 391 2855 752 
Q 3116 1113 3116 1747 
z
M 1159 2969 
Q 1341 3281 1617 3432 
Q 1894 3584 2278 3584 
Q 2916 3584 3314 3078 
Q 3713 2572 3713 1747 
Q 3713 922 3314 415 
Q 2916 -91 2278 -91 
Q 1894 -91 1617 61 
Q 1341 213 1159 525 
L 1159 0 
L 581 0 
L 581 4863 
L 1159 4863 
L 1159 2969 
z
" transform="scale(0.015625)"/>
       <path id="DejaVuSans-4a" d="M 628 4666 
L 1259 4666 
L 1259 325 
Q 1259 -519 939 -900 
Q 619 -1281 -91 -1281 
L -331 -1281 
L -331 -750 
L -134 -750 
Q 284 -750 456 -515 
Q 628 -281 628 325 
L 628 4666 
z
" transform="scale(0.015625)"/>
       <path id="DejaVuSans-69" d="M 603 3500 
L 1178 3500 
L 1178 0 
L 603 0 
L 603 3500 
z
M 603 4863 
L 1178 4863 
L 1178 4134 
L 603 4134 
L 603 4863 
z
" transform="scale(0.015625)"/>
      </defs>
      <use xlink:href="#DejaVuSans-4e"/>
      <use xlink:href="#DejaVuSans-75" x="74.804688"/>
      <use xlink:href="#DejaVuSans-6d" x="138.183594"/>
      <use xlink:href="#DejaVuSans-62" x="235.595703"/>
      <use xlink:href="#DejaVuSans-65" x="299.072266"/>
      <use xlink:href="#DejaVuSans-72" x="360.595703"/>
      <use xlink:href="#DejaVuSans-20" x="401.708984"/>
      <use xlink:href="#DejaVuSans-6f" x="433.496094"/>
      <use xlink:href="#DejaVuSans-66" x="494.677734"/>
      <use xlink:href="#DejaVuSans-20" x="529.882812"/>
      <use xlink:href="#DejaVuSans-4a" x="561.669922"/>
      <use xlink:href="#DejaVuSans-75" x="591.162109"/>
      <use xlink:href="#DejaVuSans-6e" x="654.541016"/>
      <use xlink:href="#DejaVuSans-63" x="717.919922"/>
      <use xlink:href="#DejaVuSans-74" x="772.900391"/>
      <use xlink:href="#DejaVuSans-69" x="812.109375"/>
      <use xlink:href="#DejaVuSans-6f" x="839.892578"/>
      <use xlink:href="#DejaVuSans-6e" x="901.074219"/>
      <use xlink:href="#DejaVuSans-73" x="964.453125"/>
     </g>
    </g>
   </g>
   <g id="line2d_9">
    <path d="M 104.760375 241.513699 
L 151.102625 209.036505 
L 197.444875 188.845714 
L 243.787125 173.973944 
L 290.129375 162.312929 
L 336.471625 152.987986 
L 382.813875 144.756934 
L 429.156125 137.974375 
L 475.498375 131.746284 
L 521.840625 126.465947 
L 568.182875 121.437053 
L 614.525125 117.14745 
L 660.867375 113.175914 
L 707.209625 109.561129 
L 753.551875 106.135464 
L 799.894125 103.002076 
L 846.236375 100.059959 
L 892.578625 97.414417 
L 938.920875 95.016022 
L 985.263125 92.70574 
" clip-path="url(#p4e1094d903)" style="fill: none; stroke: #7cb5ec; stroke-linecap: square"/>
   </g>
   <g id="line2d_10">
    <path d="M 104.760375 243.462933 
L 151.102625 211.209245 
L 197.444875 190.767009 
L 243.787125 175.77274 
L 290.129375 163.776466 
L 336.471625 153.74017 
L 382.813875 145.098641 
L 429.156125 137.587537 
L 475.498375 130.964012 
L 521.840625 125.084075 
L 568.182875 119.724221 
L 614.525125 115.069271 
L 660.867375 110.695853 
L 707.209625 106.763001 
L 753.551875 102.847341 
L 799.894125 99.340011 
L 846.236375 96.097019 
L 892.578625 93.142007 
L 938.920875 90.128969 
L 985.263125 87.442595 
" clip-path="url(#p4e1094d903)" style="fill: none; stroke: #434348; stroke-linecap: square"/>
   </g>
   <g id="line2d_11">
    <path d="M 104.760375 236.254852 
L 151.102625 202.236754 
L 197.444875 181.132595 
L 243.787125 165.562368 
L 290.129375 152.891276 
L 336.471625 142.405819 
L 382.813875 133.362407 
L 429.156125 125.666481 
L 475.498375 118.694802 
L 521.840625 112.559123 
L 568.182875 107.001551 
L 614.525125 102.153182 
L 660.867375 97.356392 
L 707.209625 92.871221 
L 753.551875 88.764291 
L 799.894125 84.977577 
L 846.236375 81.470247 
L 892.578625 78.087564 
L 938.920875 75.080973 
L 985.263125 72.186136 
" clip-path="url(#p4e1094d903)" style="fill: none; stroke: #90ed7d; stroke-linecap: square"/>
   </g>
   <g id="line2d_12">
    <path d="M 104.760375 232.358535 
L 151.102625 199.434328 
L 197.444875 178.287187 
L 243.787125 162.648189 
L 290.129375 149.998588 
L 336.471625 139.973038 
L 382.813875 130.96831 
L 429.156125 123.246595 
L 475.498375 116.210443 
L 521.840625 110.066167 
L 568.182875 104.437675 
L 614.525125 99.092864 
L 660.867375 94.457256 
L 707.209625 90.159057 
L 753.551875 85.938225 
L 799.894125 82.209537 
L 846.236375 78.708654 
L 892.578625 75.493601 
L 938.920875 72.2721 
L 985.263125 69.353623 
" clip-path="url(#p4e1094d903)" style="fill: none; stroke: #f7a35c; stroke-linecap: square"/>
   </g>
   <g id="line2d_13">
    <path d="M 104.760375 245.171467 
L 151.102625 215.509593 
L 197.444875 196.2773 
L 243.787125 182.245828 
L 290.129375 171.053317 
L 336.471625 161.704734 
L 382.813875 153.355482 
L 429.156125 146.046394 
L 475.498375 139.407825 
L 521.840625 133.514993 
L 568.182875 128.395838 
L 614.525125 123.745186 
L 660.867375 119.337383 
L 707.209625 115.290628 
L 753.551875 111.37282 
L 799.894125 107.725797 
L 846.236375 104.405438 
L 892.578625 101.340822 
L 938.920875 98.375065 
L 985.263125 95.456587 
" clip-path="url(#p4e1094d903)" style="fill: none; stroke: #8085e9; stroke-linecap: square"/>
   </g>
   <g id="line2d_14">
    <path d="M 104.760375 229.407821 
L 151.102625 195.449897 
L 197.444875 173.890129 
L 243.787125 158.143676 
L 290.129375 145.448944 
L 336.471625 134.840988 
L 382.813875 125.677227 
L 429.156125 117.725558 
L 475.498375 110.586249 
L 521.840625 104.111012 
L 568.182875 98.282653 
L 614.525125 92.987272 
L 660.867375 88.199078 
L 707.209625 83.636539 
L 753.551875 79.394216 
L 799.894125 75.598906 
L 846.236375 72.031401 
L 892.578625 68.54771 
L 938.920875 65.199413 
L 985.263125 62.216463 
" clip-path="url(#p4e1094d903)" style="fill: none; stroke: #f15c80; stroke-linecap: square"/>
   </g>
   <g id="line2d_15">
    <path d="M 104.760375 239.50644 
L 151.102625 205.733339 
L 197.444875 184.622733 
L 243.787125 169.061102 
L 290.129375 156.665095 
L 336.471625 146.686825 
L 382.813875 138.275249 
L 429.156125 131.000547 
L 475.498375 124.38132 
L 521.840625 118.602391 
L 568.182875 113.30486 
L 614.525125 108.465088 
L 660.867375 103.825182 
L 707.209625 99.817111 
L 753.551875 96.163641 
L 799.894125 92.75302 
L 846.236375 89.348846 
L 892.578625 86.387387 
L 938.920875 83.417331 
L 985.263125 80.518196 
" clip-path="url(#p4e1094d903)" style="fill: none; stroke: #e4d354; stroke-linecap: square"/>
   </g>
   <g id="line2d_16">
    <path d="M 104.760375 235.203943 
L 151.102625 201.774697 
L 197.444875 180.707073 
L 243.787125 165.601052 
L 290.129375 153.297456 
L 336.471625 143.112873 
L 382.813875 134.563754 
L 429.156125 126.859232 
L 475.498375 120.255048 
L 521.840625 114.452479 
L 568.182875 109.178589 
L 614.525125 104.383947 
L 660.867375 99.918118 
L 707.209625 95.714479 
L 753.551875 91.86974 
L 799.894125 88.31298 
L 846.236375 84.958236 
L 892.578625 81.930154 
L 938.920875 79.104088 
L 985.263125 76.439204 
" clip-path="url(#p4e1094d903)" style="fill: none; stroke: #2b908f; stroke-linecap: square"/>
   </g>
   <g id="line2d_17">
    <path d="M 104.760375 234.002596 
L 151.102625 201.299746 
L 197.444875 181.145489 
L 243.787125 166.497226 
L 290.129375 155.31761 
L 336.471625 145.885211 
L 382.813875 138.144154 
L 429.156125 131.009143 
L 475.498375 124.946533 
L 521.840625 119.485671 
L 568.182875 114.553487 
L 614.525125 110.107 
L 660.867375 106.019412 
L 707.209625 102.226251 
L 753.551875 98.852165 
L 799.894125 95.607024 
L 846.236375 92.598285 
L 892.578625 89.86463 
L 938.920875 87.206194 
L 985.263125 84.653063 
" clip-path="url(#p4e1094d903)" style="fill: none; stroke: #f45b5b; stroke-linecap: square"/>
   </g>
   <g id="line2d_18">
    <path d="M 104.760375 235.977618 
L 151.102625 204.51265 
L 197.444875 184.96229 
L 243.787125 170.859898 
L 290.129375 159.770544 
L 336.471625 150.669107 
L 382.813875 142.85713 
L 429.156125 135.797337 
L 475.498375 129.457493 
L 521.840625 124.033166 
L 568.182875 119.030062 
L 614.525125 114.47397 
L 660.867375 110.336954 
L 707.209625 106.509407 
L 753.551875 102.956945 
L 799.894125 99.546324 
L 846.236375 96.421533 
L 892.578625 93.586871 
L 938.920875 90.84247 
L 985.263125 88.224867 
" clip-path="url(#p4e1094d903)" style="fill: none; stroke: #91e8e1; stroke-linecap: square"/>
   </g>
   <g id="line2d_19">
    <path d="M 104.760375 247.445214 
L 151.102625 217.106374 
L 197.444875 198.598328 
L 243.787125 184.725889 
L 290.129375 173.636535 
L 336.471625 164.584527 
L 382.813875 156.839172 
L 429.156125 149.949159 
L 475.498375 143.766199 
L 521.840625 138.578272 
L 568.182875 133.583765 
L 614.525125 129.214645 
L 660.867375 125.204425 
L 707.209625 121.574596 
L 753.551875 118.084458 
L 799.894125 114.645898 
L 846.236375 111.641457 
L 892.578625 108.918548 
L 938.920875 106.165551 
L 985.263125 103.535053 
" clip-path="url(#p4e1094d903)" style="fill: none; stroke: #7cb5ec; stroke-linecap: square"/>
   </g>
   <g id="line2d_20">
    <path d="M 104.760375 236.171037 
L 151.102625 201.048301 
L 197.444875 179.464893 
L 243.787125 163.733484 
L 290.129375 150.916253 
L 336.471625 140.35128 
L 382.813875 131.391683 
L 429.156125 123.588302 
L 475.498375 116.584386 
L 521.840625 110.592696 
L 568.182875 104.989994 
L 614.525125 99.814962 
L 660.867375 95.458737 
L 707.209625 91.220712 
L 753.551875 87.28571 
L 799.894125 83.670925 
L 846.236375 80.1507 
L 892.578625 77.055996 
L 938.920875 74.055853 
L 985.263125 71.154568 
" clip-path="url(#p4e1094d903)" style="fill: none; stroke: #434348; stroke-linecap: square"/>
   </g>
   <g id="line2d_21">
    <path d="M 104.760375 235.446791 
L 151.102625 201.761803 
L 197.444875 180.1655 
L 243.787125 164.227777 
L 290.129375 151.59322 
L 336.471625 141.277541 
L 382.813875 132.320094 
L 429.156125 124.435047 
L 475.498375 117.237713 
L 521.840625 110.803308 
L 568.182875 105.133983 
L 614.525125 99.840751 
L 660.867375 95.215888 
L 707.209625 90.932733 
L 753.551875 86.812909 
L 799.894125 82.94238 
L 846.236375 79.387769 
L 892.578625 76.039472 
L 938.920875 72.897488 
L 985.263125 69.944625 
" clip-path="url(#p4e1094d903)" style="fill: none; stroke: #90ed7d; stroke-linecap: square"/>
   </g>
   <g id="line2d_22">
    <path d="M 104.760375 235.59078 
L 151.102625 201.914389 
L 197.444875 181.396934 
L 243.787125 166.262974 
L 290.129375 154.466566 
L 336.471625 144.535577 
L 382.813875 136.233605 
L 429.156125 128.98684 
L 475.498375 122.702873 
L 521.840625 117.098021 
L 568.182875 112.060531 
L 614.525125 107.633386 
L 660.867375 103.393212 
L 707.209625 99.707507 
L 753.551875 96.137852 
L 799.894125 92.84758 
L 846.236375 89.716342 
L 892.578625 86.769927 
L 938.920875 83.988992 
L 985.263125 81.590596 
" clip-path="url(#p4e1094d903)" style="fill: none; stroke: #f7a35c; stroke-linecap: square"/>
   </g>
   <g id="line2d_23">
    <path d="M 104.760375 228.234412 
L 151.102625 194.306576 
L 197.444875 173.445265 
L 243.787125 158.309156 
L 290.129375 146.302136 
L 336.471625 136.773029 
L 382.813875 128.421627 
L 429.156125 120.979295 
L 475.498375 114.405199 
L 521.840625 108.613376 
L 568.182875 103.298652 
L 614.525125 98.635106 
L 660.867375 94.261688 
L 707.209625 90.163355 
L 753.551875 86.228353 
L 799.894125 82.759707 
L 846.236375 79.501671 
L 892.578625 76.499379 
L 938.920875 73.68191 
L 985.263125 71.066455 
" clip-path="url(#p4e1094d903)" style="fill: none; stroke: #8085e9; stroke-linecap: square"/>
   </g>
   <g id="line2d_24">
    <path d="M 104.760375 233.018308 
L 151.102625 197.760179 
L 197.444875 175.504103 
L 243.787125 159.482565 
L 290.129375 146.53209 
L 336.471625 136.201368 
L 382.813875 127.310543 
L 429.156125 119.722072 
L 475.498375 112.969601 
L 521.840625 106.98006 
L 568.182875 101.400997 
L 614.525125 96.47741 
L 660.867375 91.843951 
L 707.209625 87.760661 
L 753.551875 83.774082 
L 799.894125 80.172191 
L 846.236375 76.826042 
L 892.578625 73.626033 
L 938.920875 70.765581 
L 985.263125 67.88149 
" clip-path="url(#p4e1094d903)" style="fill: none; stroke: #f15c80; stroke-linecap: square"/>
   </g>
   <g id="line2d_25">
    <path d="M 104.760375 228.086124 
L 151.102625 193.249219 
L 197.444875 170.92867 
L 243.787125 154.724458 
L 290.129375 141.761089 
L 336.471625 130.89739 
L 382.813875 121.709989 
L 429.156125 113.700295 
L 475.498375 106.320286 
L 521.840625 99.888031 
L 568.182875 94.044629 
L 614.525125 88.693371 
L 660.867375 83.965351 
L 707.209625 79.645661 
L 753.551875 75.538732 
L 799.894125 71.517766 
L 846.236375 67.887937 
L 892.578625 64.453676 
L 938.920875 61.303095 
L 985.263125 58.296505 
" clip-path="url(#p4e1094d903)" style="fill: none; stroke: #e4d354; stroke-linecap: square"/>
   </g>
   <g id="line2d_26">
    <path d="M 104.760375 233.340673 
L 151.102625 198.153464 
L 197.444875 175.817871 
L 243.787125 159.695326 
L 290.129375 146.562178 
L 336.471625 135.842468 
L 382.813875 126.897916 
L 429.156125 119.315892 
L 475.498375 112.451668 
L 521.840625 106.210682 
L 568.182875 100.509121 
L 614.525125 95.389965 
L 660.867375 90.687735 
L 707.209625 86.37879 
L 753.551875 82.347079 
L 799.894125 78.697908 
L 846.236375 75.426978 
L 892.578625 72.222671 
L 938.920875 69.319237 
L 985.263125 66.497469 
" clip-path="url(#p4e1094d903)" style="fill: none; stroke: #2b908f; stroke-linecap: square"/>
   </g>
   <g id="line2d_27">
    <path d="M 104.760375 249.989748 
L 151.102625 217.806981 
L 197.444875 197.547418 
L 243.787125 183.051741 
L 290.129375 171.614232 
L 336.471625 161.969073 
L 382.813875 154.376304 
L 429.156125 147.398177 
L 475.498375 141.531135 
L 521.840625 136.252946 
L 568.182875 131.664619 
L 614.525125 127.379314 
L 660.867375 123.272384 
L 707.209625 119.808036 
L 753.551875 116.678947 
L 799.894125 113.588541 
L 846.236375 110.717344 
L 892.578625 108.035268 
L 938.920875 105.699196 
L 985.263125 103.281459 
" clip-path="url(#p4e1094d903)" style="fill: none; stroke: #f45b5b; stroke-linecap: square"/>
   </g>
   <g id="line2d_28">
    <path d="M 104.760375 234.567809 
L 151.102625 199.771736 
L 197.444875 178.261398 
L 243.787125 162.209772 
L 290.129375 149.525786 
L 336.471625 139.063969 
L 382.813875 130.201082 
L 429.156125 122.545989 
L 475.498375 115.73979 
L 521.840625 109.528892 
L 568.182875 103.75641 
L 614.525125 98.675939 
L 660.867375 93.980156 
L 707.209625 89.647571 
L 753.551875 85.547089 
L 799.894125 81.771121 
L 846.236375 78.201466 
L 892.578625 74.848871 
L 938.920875 71.6768 
L 985.263125 68.809901 
" clip-path="url(#p4e1094d903)" style="fill: none; stroke: #91e8e1; stroke-linecap: square"/>
   </g>
   <g id="line2d_29">
    <path d="M 104.760375 232.199501 
L 151.102625 197.940703 
L 197.444875 176.574354 
L 243.787125 161.150266 
L 290.129375 148.84882 
L 336.471625 138.629851 
L 382.813875 129.898059 
L 429.156125 122.326781 
L 475.498375 115.769877 
L 521.840625 109.741653 
L 568.182875 104.409737 
L 614.525125 99.307774 
L 660.867375 94.63778 
L 707.209625 90.429843 
L 753.551875 86.479798 
L 799.894125 82.819881 
L 846.236375 79.596232 
L 892.578625 76.600387 
L 938.920875 73.72919 
L 985.263125 70.883782 
" clip-path="url(#p4e1094d903)" style="fill: none; stroke: #7cb5ec; stroke-linecap: square"/>
   </g>
   <g id="line2d_30">
    <path d="M 104.760375 233.080632 
L 151.102625 200.233793 
L 197.444875 179.961336 
L 243.787125 165.014347 
L 290.129375 153.488726 
L 336.471625 143.684533 
L 382.813875 135.270808 
L 429.156125 127.98536 
L 475.498375 121.510123 
L 521.840625 115.636633 
L 568.182875 110.360594 
L 614.525125 105.611083 
L 660.867375 101.183938 
L 707.209625 97.077009 
L 753.551875 93.324681 
L 799.894125 89.963489 
L 846.236375 86.759181 
L 892.578625 83.739696 
L 938.920875 80.859902 
L 985.263125 78.300325 
" clip-path="url(#p4e1094d903)" style="fill: none; stroke: #434348; stroke-linecap: square"/>
   </g>
   <g id="line2d_31">
    <path d="M 104.760375 241.805977 
L 151.102625 209.365317 
L 197.444875 189.621539 
L 243.787125 174.837882 
L 290.129375 163.374584 
L 336.471625 153.660654 
L 382.813875 145.356533 
L 429.156125 138.169943 
L 475.498375 131.937554 
L 521.840625 126.311211 
L 568.182875 121.243634 
L 614.525125 116.698289 
L 660.867375 112.294783 
L 707.209625 108.222239 
L 753.551875 104.431228 
L 799.894125 101.196833 
L 846.236375 98.035507 
L 892.578625 95.3083 
L 938.920875 92.495128 
L 985.263125 89.907612 
" clip-path="url(#p4e1094d903)" style="fill: none; stroke: #90ed7d; stroke-linecap: square"/>
   </g>
   <g id="line2d_32">
    <path d="M 104.760375 238.904692 
L 151.102625 206.975518 
L 197.444875 186.34846 
L 243.787125 170.943713 
L 290.129375 159.046298 
L 336.471625 148.883205 
L 382.813875 140.499567 
L 429.156125 133.052937 
L 475.498375 126.53042 
L 521.840625 120.710658 
L 568.182875 115.402381 
L 614.525125 110.635678 
L 660.867375 106.161253 
L 707.209625 102.004894 
L 753.551875 98.134366 
L 799.894125 94.442212 
L 846.236375 91.171283 
L 892.578625 88.048641 
L 938.920875 85.179593 
L 985.263125 82.276159 
" clip-path="url(#p4e1094d903)" style="fill: none; stroke: #f7a35c; stroke-linecap: square"/>
   </g>
   <g id="line2d_33">
    <path d="M 104.760375 236.798574 
L 151.102625 204.271951 
L 197.444875 183.971556 
L 243.787125 169.08904 
L 290.129375 157.294781 
L 336.471625 147.933303 
L 382.813875 140.005274 
L 429.156125 132.9025 
L 475.498375 126.74318 
L 521.840625 121.426308 
L 568.182875 116.605877 
L 614.525125 112.35066 
L 660.867375 108.512368 
L 707.209625 105.011485 
L 753.551875 101.643845 
L 799.894125 98.579229 
L 846.236375 95.852022 
L 892.578625 93.328979 
L 938.920875 90.945627 
L 985.263125 88.650389 
" clip-path="url(#p4e1094d903)" style="fill: none; stroke: #8085e9; stroke-linecap: square"/>
   </g>
   <g id="line2d_34">
    <path d="M 104.760375 227.123328 
L 151.102625 192.752777 
L 197.444875 171.137132 
L 243.787125 155.225198 
L 290.129375 141.68587 
L 336.471625 130.594367 
L 382.813875 121.125434 
L 429.156125 113.031925 
L 475.498375 105.430559 
L 521.840625 98.682386 
L 568.182875 92.542408 
L 614.525125 86.92896 
L 660.867375 81.599193 
L 707.209625 76.705693 
L 753.551875 72.370959 
L 799.894125 68.300564 
L 846.236375 64.436483 
L 892.578625 60.804504 
L 938.920875 57.445462 
L 985.263125 54.344311 
" clip-path="url(#p4e1094d903)" style="fill: none; stroke: #f15c80; stroke-linecap: square"/>
   </g>
   <g id="line2d_35">
    <path d="M 104.760375 226.876181 
L 151.102625 193.290052 
L 197.444875 172.039754 
L 243.787125 156.005322 
L 290.129375 143.403001 
L 336.471625 132.577986 
L 382.813875 123.538873 
L 429.156125 115.744088 
L 475.498375 108.690743 
L 521.840625 102.522827 
L 568.182875 96.660083 
L 614.525125 91.613997 
L 660.867375 86.920364 
L 707.209625 82.589928 
L 753.551875 78.330412 
L 799.894125 74.489971 
L 846.236375 70.903124 
L 892.578625 67.541932 
L 938.920875 64.485912 
L 985.263125 61.612566 
" clip-path="url(#p4e1094d903)" style="fill: none; stroke: #e4d354; stroke-linecap: square"/>
   </g>
   <g id="line2d_36">
    <path d="M 104.760375 239.091664 
L 151.102625 206.547848 
L 197.444875 185.888552 
L 243.787125 170.752443 
L 290.129375 158.584241 
L 336.471625 148.167555 
L 382.813875 139.592647 
L 429.156125 131.928958 
L 475.498375 124.995962 
L 521.840625 118.658267 
L 568.182875 113.190958 
L 614.525125 108.129828 
L 660.867375 103.408256 
L 707.209625 98.903743 
L 753.551875 94.764577 
L 799.894125 90.952074 
L 846.236375 87.195448 
L 892.578625 83.973948 
L 938.920875 80.948016 
L 985.263125 77.982258 
" clip-path="url(#p4e1094d903)" style="fill: none; stroke: #2b908f; stroke-linecap: square"/>
   </g>
   <g id="line2d_37">
    <path d="M 104.760375 247.008947 
L 151.102625 216.259629 
L 197.444875 197.2315 
L 243.787125 182.729376 
L 290.129375 171.115641 
L 336.471625 161.268467 
L 382.813875 152.904171 
L 429.156125 145.610126 
L 475.498375 139.25309 
L 521.840625 133.525739 
L 568.182875 128.211015 
L 614.525125 123.16278 
L 660.867375 118.662566 
L 707.209625 114.45033 
L 753.551875 110.624933 
L 799.894125 107.018744 
L 846.236375 103.696236 
L 892.578625 100.496226 
L 938.920875 97.629327 
L 985.263125 94.833349 
" clip-path="url(#p4e1094d903)" style="fill: none; stroke: #f45b5b; stroke-linecap: square"/>
   </g>
   <g id="line2d_38">
    <path d="M 104.760375 241.060239 
L 151.102625 208.054366 
L 197.444875 187.380028 
L 243.787125 172.076289 
L 290.129375 159.59002 
L 336.471625 149.353858 
L 382.813875 140.716626 
L 429.156125 133.409688 
L 475.498375 126.811952 
L 521.840625 120.938462 
L 568.182875 115.703255 
L 614.525125 110.820501 
L 660.867375 106.45353 
L 707.209625 102.51638 
L 753.551875 98.884401 
L 799.894125 95.452289 
L 846.236375 92.342542 
L 892.578625 89.376784 
L 938.920875 86.606595 
L 985.263125 83.94601 
" clip-path="url(#p4e1094d903)" style="fill: none; stroke: #91e8e1; stroke-linecap: square"/>
   </g>
   <g id="line2d_39">
    <path d="M 104.760375 230.69943 
L 151.102625 195.742174 
L 197.444875 173.630088 
L 243.787125 157.862144 
L 290.129375 145.489777 
L 336.471625 135.464227 
L 382.813875 126.775417 
L 429.156125 119.171902 
L 475.498375 112.711709 
L 521.840625 106.775895 
L 568.182875 101.592267 
L 614.525125 96.769687 
L 660.867375 92.256578 
L 707.209625 88.340918 
L 753.551875 84.749773 
L 799.894125 81.201609 
L 846.236375 77.939276 
L 892.578625 74.878958 
L 938.920875 72.121663 
L 985.263125 69.441736 
" clip-path="url(#p4e1094d903)" style="fill: none; stroke: #7cb5ec; stroke-linecap: square"/>
   </g>
   <g id="line2d_40">
    <path d="M 104.760375 241.601812 
L 151.102625 209.098829 
L 197.444875 188.652295 
L 243.787125 173.670921 
L 290.129375 161.509166 
L 336.471625 151.380459 
L 382.813875 142.515423 
L 429.156125 134.744278 
L 475.498375 128.077771 
L 521.840625 122.000117 
L 568.182875 116.539255 
L 614.525125 111.359925 
L 660.867375 106.672739 
L 707.209625 102.428267 
L 753.551875 98.430941 
L 799.894125 94.85269 
L 846.236375 91.470008 
L 892.578625 88.291489 
L 938.920875 85.345073 
L 985.263125 82.521156 
" clip-path="url(#p4e1094d903)" style="fill: none; stroke: #434348; stroke-linecap: square"/>
   </g>
   <g id="line2d_41">
    <path d="M 104.760375 238.38461 
L 151.102625 204.286995 
L 197.444875 183.122661 
L 243.787125 167.114018 
L 290.129375 154.52889 
L 336.471625 144.234703 
L 382.813875 135.283702 
L 429.156125 127.428743 
L 475.498375 120.388293 
L 521.840625 113.999019 
L 568.182875 108.465088 
L 614.525125 103.107382 
L 660.867375 98.344977 
L 707.209625 93.975858 
L 753.551875 90.051602 
L 799.894125 86.357299 
L 846.236375 82.716725 
L 892.578625 79.392067 
L 938.920875 76.327451 
L 985.263125 73.391781 
" clip-path="url(#p4e1094d903)" style="fill: none; stroke: #90ed7d; stroke-linecap: square"/>
   </g>
   <g id="line2d_42">
    <path d="M 104.760375 243.187848 
L 151.102625 210.28943 
L 197.444875 189.191719 
L 243.787125 173.385091 
L 290.129375 160.673166 
L 336.471625 150.23284 
L 382.813875 141.124955 
L 429.156125 133.30868 
L 475.498375 126.429412 
L 521.840625 120.242154 
L 568.182875 114.534145 
L 614.525125 109.43863 
L 660.867375 104.695567 
L 707.209625 100.455393 
L 753.551875 96.320525 
L 799.894125 92.568197 
L 846.236375 89.140383 
L 892.578625 85.837217 
L 938.920875 82.890802 
L 985.263125 80.088376 
" clip-path="url(#p4e1094d903)" style="fill: none; stroke: #f7a35c; stroke-linecap: square"/>
   </g>
   <g id="line2d_43">
    <path d="M 104.760375 241.146203 
L 151.102625 208.04577 
L 197.444875 186.986742 
L 243.787125 171.448752 
L 290.129375 159.32783 
L 336.471625 149.190526 
L 382.813875 140.63711 
L 429.156125 133.145348 
L 475.498375 126.377833 
L 521.840625 120.536581 
L 568.182875 114.987605 
L 614.525125 110.016738 
L 660.867375 105.273675 
L 707.209625 101.151702 
L 753.551875 97.229595 
L 799.894125 93.68358 
L 846.236375 90.262214 
L 892.578625 87.139572 
L 938.920875 84.08785 
L 985.263125 81.289722 
" clip-path="url(#p4e1094d903)" style="fill: none; stroke: #8085e9; stroke-linecap: square"/>
   </g>
   <g id="line2d_44">
    <path d="M 104.760375 235.083593 
L 151.102625 201.705926 
L 197.444875 180.517952 
L 243.787125 165.005751 
L 290.129375 152.590402 
L 336.471625 142.515423 
L 382.813875 133.504248 
L 429.156125 125.632096 
L 475.498375 118.875327 
L 521.840625 112.82776 
L 568.182875 107.272337 
L 614.525125 102.247742 
L 660.867375 97.55196 
L 707.209625 93.197884 
L 753.551875 89.187664 
L 799.894125 85.469721 
L 846.236375 82.024714 
L 892.578625 78.78817 
L 938.920875 75.80522 
L 985.263125 73.017838 
" clip-path="url(#p4e1094d903)" style="fill: none; stroke: #f15c80; stroke-linecap: square"/>
   </g>
   <g id="line2d_45">
    <path d="M 104.760375 229.143481 
L 151.102625 193.232026 
L 197.444875 170.986695 
L 243.787125 155.130638 
L 290.129375 142.588492 
L 336.471625 132.375971 
L 382.813875 123.390585 
L 429.156125 115.64523 
L 475.498375 108.972275 
L 521.840625 102.744184 
L 568.182875 97.257533 
L 614.525125 92.359735 
L 660.867375 87.653207 
L 707.209625 83.548426 
L 753.551875 79.622021 
L 799.894125 76.028726 
L 846.236375 72.540738 
L 892.578625 69.43314 
L 938.920875 66.413654 
L 985.263125 63.637018 
" clip-path="url(#p4e1094d903)" style="fill: none; stroke: #e4d354; stroke-linecap: square"/>
   </g>
   <g id="line2d_46">
    <path d="M 104.760375 228.135554 
L 151.102625 192.929003 
L 197.444875 171.137132 
L 243.787125 154.997394 
L 290.129375 142.081305 
L 336.471625 131.570058 
L 382.813875 122.765197 
L 429.156125 114.869405 
L 475.498375 107.904173 
L 521.840625 101.785686 
L 568.182875 96.236711 
L 614.525125 91.035889 
L 660.867375 86.389536 
L 707.209625 81.91511 
L 753.551875 78.018793 
L 799.894125 74.427647 
L 846.236375 71.036368 
L 892.578625 67.733202 
L 938.920875 64.713717 
L 985.263125 61.799537 
" clip-path="url(#p4e1094d903)" style="fill: none; stroke: #2b908f; stroke-linecap: square"/>
   </g>
   <g id="line2d_47">
    <path d="M 104.760375 242.194964 
L 151.102625 210.338859 
L 197.444875 189.806361 
L 243.787125 174.571394 
L 290.129375 162.529988 
L 336.471625 152.530227 
L 382.813875 143.839268 
L 429.156125 136.366849 
L 475.498375 129.754069 
L 521.840625 123.801063 
L 568.182875 118.396077 
L 614.525125 113.412315 
L 660.867375 108.862671 
L 707.209625 104.607454 
L 753.551875 100.644514 
L 799.894125 97.029728 
L 846.236375 93.505205 
L 892.578625 90.283705 
L 938.920875 87.23843 
L 985.263125 84.442452 
" clip-path="url(#p4e1094d903)" style="fill: none; stroke: #f45b5b; stroke-linecap: square"/>
   </g>
   <g id="line2d_48">
    <path d="M 104.760375 227.959328 
L 151.102625 192.185414 
L 197.444875 169.970171 
L 243.787125 153.374824 
L 290.129375 140.396411 
L 336.471625 129.317802 
L 382.813875 120.143295 
L 429.156125 111.912244 
L 475.498375 104.867495 
L 521.840625 98.675939 
L 568.182875 93.045298 
L 614.525125 87.9068 
L 660.867375 83.148694 
L 707.209625 78.897774 
L 753.551875 74.876809 
L 799.894125 71.083648 
L 846.236375 67.662281 
L 892.578625 64.408544 
L 938.920875 61.346077 
L 985.263125 58.49852 
" clip-path="url(#p4e1094d903)" style="fill: none; stroke: #91e8e1; stroke-linecap: square"/>
   </g>
   <g id="line2d_49">
    <path d="M 104.760375 233.256858 
L 151.102625 199.425731 
L 197.444875 177.949778 
L 243.787125 162.416086 
L 290.129375 150.187709 
L 336.471625 140.144966 
L 382.813875 131.617338 
L 429.156125 124.073999 
L 475.498375 117.493455 
L 521.840625 111.65865 
L 568.182875 106.466425 
L 614.525125 101.474066 
L 660.867375 97.119991 
L 707.209625 93.060341 
L 753.551875 89.344548 
L 799.894125 85.886647 
L 846.236375 82.630761 
L 892.578625 79.510268 
L 938.920875 76.645518 
L 985.263125 73.952696 
" clip-path="url(#p4e1094d903)" style="fill: none; stroke: #7cb5ec; stroke-linecap: square"/>
   </g>
   <g id="line2d_50">
    <path d="M 104.760375 233.076334 
L 151.102625 199.920024 
L 197.444875 179.553007 
L 243.787125 164.545844 
L 290.129375 152.598999 
L 336.471625 142.915155 
L 382.813875 134.282222 
L 429.156125 126.925854 
L 475.498375 120.420529 
L 521.840625 114.446032 
L 568.182875 108.995915 
L 614.525125 104.007855 
L 660.867375 99.398036 
L 707.209625 95.183652 
L 753.551875 91.308825 
L 799.894125 87.683294 
L 846.236375 84.369382 
L 892.578625 81.263933 
L 938.920875 78.308921 
L 985.263125 75.51939 
" clip-path="url(#p4e1094d903)" style="fill: none; stroke: #434348; stroke-linecap: square"/>
   </g>
   <g id="line2d_51">
    <path d="M 104.760375 232.077003 
L 151.102625 199.892086 
L 197.444875 179.580945 
L 243.787125 164.773648 
L 290.129375 153.037415 
L 336.471625 143.284801 
L 382.813875 134.823795 
L 429.156125 127.426594 
L 475.498375 120.889033 
L 521.840625 115.163831 
L 568.182875 109.877046 
L 614.525125 105.146878 
L 660.867375 100.758416 
L 707.209625 96.746047 
L 753.551875 92.838984 
L 799.894125 89.275777 
L 846.236375 85.985505 
L 892.578625 82.845671 
L 938.920875 80.00671 
L 985.263125 77.081785 
" clip-path="url(#p4e1094d903)" style="fill: none; stroke: #90ed7d; stroke-linecap: square"/>
   </g>
   <g id="line2d_52">
    <path d="M 104.760375 228.395595 
L 151.102625 193.565136 
L 197.444875 171.869975 
L 243.787125 155.631378 
L 290.129375 142.71314 
L 336.471625 131.885976 
L 382.813875 122.793135 
L 429.156125 114.585724 
L 475.498375 107.487247 
L 521.840625 101.050694 
L 568.182875 95.409307 
L 614.525125 90.027962 
L 660.867375 85.069989 
L 707.209625 80.479512 
L 753.551875 76.396222 
L 799.894125 72.55793 
L 846.236375 68.861479 
L 892.578625 65.463752 
L 938.920875 62.31962 
L 985.263125 59.375353 
" clip-path="url(#p4e1094d903)" style="fill: none; stroke: #f7a35c; stroke-linecap: square"/>
   </g>
   <g id="line2d_53">
    <path d="M 104.760375 223.433324 
L 151.102625 188.796284 
L 197.444875 167.092527 
L 243.787125 150.982876 
L 290.129375 138.2731 
L 336.471625 127.725319 
L 382.813875 118.864581 
L 429.156125 110.96664 
L 475.498375 104.095968 
L 521.840625 97.749677 
L 568.182875 92.172763 
L 614.525125 86.961196 
L 660.867375 82.27401 
L 707.209625 77.926381 
L 753.551875 73.905416 
L 799.894125 70.202517 
L 846.236375 66.61567 
L 892.578625 63.351187 
L 938.920875 60.400474 
L 985.263125 57.486294 
" clip-path="url(#p4e1094d903)" style="fill: none; stroke: #8085e9; stroke-linecap: square"/>
   </g>
   <g id="line2d_54">
    <path d="M 104.760375 232.633619 
L 151.102625 197.871932 
L 197.444875 175.633049 
L 243.787125 159.057043 
L 290.129375 145.668152 
L 336.471625 134.372484 
L 382.813875 124.649957 
L 429.156125 116.494124 
L 475.498375 109.221571 
L 521.840625 102.765675 
L 568.182875 96.801924 
L 614.525125 91.32172 
L 660.867375 86.267037 
L 707.209625 81.556211 
L 753.551875 77.307441 
L 799.894125 73.187617 
L 846.236375 69.463227 
L 892.578625 66.020369 
L 938.920875 62.708607 
L 985.263125 59.6225 
" clip-path="url(#p4e1094d903)" style="fill: none; stroke: #f15c80; stroke-linecap: square"/>
   </g>
   <g id="line2d_55">
    <path d="M 104.760375 231.023944 
L 151.102625 195.598185 
L 197.444875 173.471055 
L 243.787125 157.316272 
L 290.129375 144.116502 
L 336.471625 133.168988 
L 382.813875 123.685012 
L 429.156125 115.492644 
L 475.498375 108.439299 
L 521.840625 102.056472 
L 568.182875 96.445173 
L 614.525125 91.147643 
L 660.867375 86.380939 
L 707.209625 81.951645 
L 753.551875 77.728664 
L 799.894125 73.909714 
L 846.236375 70.443216 
L 892.578625 67.131454 
L 938.920875 63.897059 
L 985.263125 61.017265 
" clip-path="url(#p4e1094d903)" style="fill: none; stroke: #e4d354; stroke-linecap: square"/>
   </g>
   <g id="line2d_56">
    <path d="M 104.760375 234.572107 
L 151.102625 200.734533 
L 197.444875 179.123187 
L 243.787125 163.084456 
L 290.129375 150.052315 
L 336.471625 139.319712 
L 382.813875 130.319282 
L 429.156125 122.131213 
L 475.498375 114.944623 
L 521.840625 108.525262 
L 568.182875 102.61094 
L 614.525125 97.300515 
L 660.867375 92.497277 
L 707.209625 88.117412 
L 753.551875 83.797722 
L 799.894125 79.686494 
L 846.236375 75.944912 
L 892.578625 72.547185 
L 938.920875 69.465376 
L 985.263125 66.359927 
" clip-path="url(#p4e1094d903)" style="fill: none; stroke: #2b908f; stroke-linecap: square"/>
   </g>
   <g id="line2d_57">
    <path d="M 104.760375 249.944617 
L 151.102625 219.062055 
L 197.444875 199.874893 
L 243.787125 185.364172 
L 290.129375 173.754736 
L 336.471625 164.290101 
L 382.813875 156.134267 
L 429.156125 148.812285 
L 475.498375 142.483186 
L 521.840625 136.81816 
L 568.182875 131.860187 
L 614.525125 127.00752 
L 660.867375 122.561032 
L 707.209625 118.456252 
L 753.551875 114.830721 
L 799.894125 111.432994 
L 846.236375 108.162065 
L 892.578625 105.333849 
L 938.920875 102.559362 
L 985.263125 99.8429 
" clip-path="url(#p4e1094d903)" style="fill: none; stroke: #f45b5b; stroke-linecap: square"/>
   </g>
   <g id="line2d_58">
    <path d="M 104.760375 243.026665 
L 151.102625 210.938458 
L 197.444875 191.031348 
L 243.787125 175.847959 
L 290.129375 164.33953 
L 336.471625 154.556828 
L 382.813875 146.155998 
L 429.156125 138.958663 
L 475.498375 132.363076 
L 521.840625 126.429412 
L 568.182875 121.028724 
L 614.525125 116.320047 
L 660.867375 112.105663 
L 707.209625 108.121232 
L 753.551875 104.263598 
L 799.894125 100.943239 
L 846.236375 97.616433 
L 892.578625 94.360547 
L 938.920875 91.457113 
L 985.263125 88.811571 
" clip-path="url(#p4e1094d903)" style="fill: none; stroke: #91e8e1; stroke-linecap: square"/>
   </g>
   <g id="line2d_59">
    <path d="M 104.760375 256.329592 
L 151.102625 227.535955 
L 197.444875 209.113873 
L 243.787125 195.363933 
L 290.129375 184.180018 
L 336.471625 175.155949 
L 382.813875 167.455725 
L 429.156125 160.791366 
L 475.498375 154.81472 
L 521.840625 149.300131 
L 568.182875 144.378692 
L 614.525125 139.654971 
L 660.867375 135.485718 
L 707.209625 131.617338 
L 753.551875 127.869309 
L 799.894125 124.514564 
L 846.236375 121.406966 
L 892.578625 118.475594 
L 938.920875 115.653826 
L 985.263125 113.04267 
" clip-path="url(#p4e1094d903)" style="fill: none; stroke: #7cb5ec; stroke-linecap: square"/>
   </g>
   <g id="line2d_60">
    <path d="M 104.760375 258.068214 
L 151.102625 229.586196 
L 197.444875 211.254376 
L 243.787125 197.738688 
L 290.129375 186.718105 
L 336.471625 177.567238 
L 382.813875 169.656403 
L 429.156125 162.863099 
L 475.498375 156.942329 
L 521.840625 151.442783 
L 568.182875 146.306435 
L 614.525125 141.791176 
L 660.867375 137.679949 
L 707.209625 133.796526 
L 753.551875 130.136609 
L 799.894125 126.809802 
L 846.236375 123.687161 
L 892.578625 120.861095 
L 938.920875 118.153229 
L 985.263125 115.679615 
" clip-path="url(#p4e1094d903)" style="fill: none; stroke: #434348; stroke-linecap: square"/>
   </g>
   <g id="line2d_61">
    <path d="M 104.760375 235.279161 
L 151.102625 202.428023 
L 197.444875 181.783772 
L 243.787125 166.578892 
L 290.129375 154.339769 
L 336.471625 144.279834 
L 382.813875 135.86181 
L 429.156125 128.243252 
L 475.498375 121.568148 
L 521.840625 115.492644 
L 568.182875 109.857704 
L 614.525125 104.869644 
L 660.867375 100.270571 
L 707.209625 96.00031 
L 753.551875 92.200701 
L 799.894125 88.631047 
L 846.236375 85.25696 
L 892.578625 82.016118 
L 938.920875 78.775276 
L 985.263125 75.89978 
" clip-path="url(#p4e1094d903)" style="fill: none; stroke: #90ed7d; stroke-linecap: square"/>
   </g>
   <g id="line2d_62">
    <path d="M 104.760375 237.284271 
L 151.102625 203.096393 
L 197.444875 181.968595 
L 243.787125 166.55955 
L 290.129375 154.273147 
L 336.471625 143.942425 
L 382.813875 135.137564 
L 429.156125 127.912291 
L 475.498375 121.069557 
L 521.840625 114.983307 
L 568.182875 109.634198 
L 614.525125 104.815916 
L 660.867375 100.494077 
L 707.209625 96.363507 
L 753.551875 92.411313 
L 799.894125 88.867448 
L 846.236375 85.596518 
L 892.578625 82.579182 
L 938.920875 79.598381 
L 985.263125 76.937796 
" clip-path="url(#p4e1094d903)" style="fill: none; stroke: #f7a35c; stroke-linecap: square"/>
   </g>
   <g id="line2d_63">
    <path d="M 104.760375 238.378163 
L 151.102625 205.028434 
L 197.444875 184.334753 
L 243.787125 169.224434 
L 290.129375 156.957373 
L 336.471625 146.970506 
L 382.813875 138.019506 
L 429.156125 130.474017 
L 475.498375 123.525978 
L 521.840625 117.366659 
L 568.182875 111.845621 
L 614.525125 106.879052 
L 660.867375 102.269233 
L 707.209625 98.069893 
L 753.551875 94.072567 
L 799.894125 90.406203 
L 846.236375 87.017073 
L 892.578625 83.845002 
L 938.920875 80.801877 
L 985.263125 78.081117 
" clip-path="url(#p4e1094d903)" style="fill: none; stroke: #8085e9; stroke-linecap: square"/>
   </g>
   <g id="line2d_64">
    <path d="M 104.760375 243.772403 
L 151.102625 210.897625 
L 197.444875 190.032017 
L 243.787125 174.354334 
L 290.129375 162.022801 
L 336.471625 151.724315 
L 382.813875 143.080636 
L 429.156125 135.451332 
L 475.498375 128.625792 
L 521.840625 122.292395 
L 568.182875 116.741271 
L 614.525125 111.68229 
L 660.867375 106.760852 
L 707.209625 102.585151 
L 753.551875 98.55344 
L 799.894125 94.644228 
L 846.236375 91.293781 
L 892.578625 88.070132 
L 938.920875 84.990472 
L 985.263125 82.03546 
" clip-path="url(#p4e1094d903)" style="fill: none; stroke: #f15c80; stroke-linecap: square"/>
   </g>
   <g id="line2d_65">
    <path d="M 104.760375 245.964485 
L 151.102625 214.811136 
L 197.444875 194.779378 
L 243.787125 179.967783 
L 290.129375 168.446459 
L 336.471625 158.283367 
L 382.813875 149.908326 
L 429.156125 142.485335 
L 475.498375 136.012247 
L 521.840625 130.046347 
L 568.182875 124.684343 
L 614.525125 119.863912 
L 660.867375 115.387338 
L 707.209625 111.134269 
L 753.551875 107.304574 
L 799.894125 103.775752 
L 846.236375 100.713285 
L 892.578625 97.524021 
L 938.920875 94.661421 
L 985.263125 91.96645 
" clip-path="url(#p4e1094d903)" style="fill: none; stroke: #e4d354; stroke-linecap: square"/>
   </g>
   <g id="line2d_66">
    <path d="M 104.760375 236.983397 
L 151.102625 204.893041 
L 197.444875 184.96444 
L 243.787125 170.032495 
L 290.129375 158.291964 
L 336.471625 148.244923 
L 382.813875 139.829048 
L 429.156125 132.612372 
L 475.498375 126.352044 
L 521.840625 120.734298 
L 568.182875 115.529178 
L 614.525125 110.891421 
L 660.867375 106.679186 
L 707.209625 102.722693 
L 753.551875 99.12725 
L 799.894125 95.632814 
L 846.236375 92.445699 
L 892.578625 89.656167 
L 938.920875 87.051459 
L 985.263125 84.491881 
" clip-path="url(#p4e1094d903)" style="fill: none; stroke: #2b908f; stroke-linecap: square"/>
   </g>
   <g id="line2d_67">
    <path d="M 104.760375 224.931246 
L 151.102625 188.963914 
L 197.444875 166.658409 
L 243.787125 150.583143 
L 290.129375 137.770211 
L 336.471625 127.145062 
L 382.813875 118.535769 
L 429.156125 111.048306 
L 475.498375 104.426929 
L 521.840625 98.418047 
L 568.182875 93.13556 
L 614.525125 88.009957 
L 660.867375 83.531233 
L 707.209625 79.226587 
L 753.551875 75.409786 
L 799.894125 71.861622 
L 846.236375 68.605736 
L 892.578625 65.590549 
L 938.920875 62.695712 
L 985.263125 60.05017 
" clip-path="url(#p4e1094d903)" style="fill: none; stroke: #f45b5b; stroke-linecap: square"/>
   </g>
   <g id="line2d_68">
    <path d="M 104.760375 233.622205 
L 151.102625 198.948631 
L 197.444875 176.524925 
L 243.787125 160.125146 
L 290.129375 147.357344 
L 336.471625 136.644083 
L 382.813875 127.239622 
L 429.156125 118.976334 
L 475.498375 111.72957 
L 521.840625 105.254333 
L 568.182875 99.516237 
L 614.525125 94.255241 
L 660.867375 89.479941 
L 707.209625 84.908806 
L 753.551875 80.692273 
L 799.894125 76.810999 
L 846.236375 73.140336 
L 892.578625 69.800636 
L 938.920875 66.675845 
L 985.263125 63.684298 
" clip-path="url(#p4e1094d903)" style="fill: none; stroke: #91e8e1; stroke-linecap: square"/>
   </g>
   <g id="line2d_69">
    <path d="M 104.760375 240.41336 
L 151.102625 208.606685 
L 197.444875 188.486814 
L 243.787125 173.370047 
L 290.129375 161.195397 
L 336.471625 151.636202 
L 382.813875 143.340677 
L 429.156125 136.124 
L 475.498375 129.646614 
L 521.840625 123.891325 
L 568.182875 118.434761 
L 614.525125 113.683102 
L 660.867375 109.417139 
L 707.209625 105.396173 
L 753.551875 101.714766 
L 799.894125 98.173049 
L 846.236375 95.007426 
L 892.578625 92.000835 
L 938.920875 89.179067 
L 985.263125 86.477649 
" clip-path="url(#p4e1094d903)" style="fill: none; stroke: #7cb5ec; stroke-linecap: square"/>
   </g>
   <g id="line2d_70">
    <path d="M 104.760375 236.52349 
L 151.102625 202.155088 
L 197.444875 180.453479 
L 243.787125 164.5308 
L 290.129375 152.124047 
L 336.471625 142.010384 
L 382.813875 133.276443 
L 429.156125 125.778235 
L 475.498375 119.219182 
L 521.840625 113.248984 
L 568.182875 107.992286 
L 614.525125 103.045058 
L 660.867375 98.637255 
L 707.209625 94.270284 
L 753.551875 90.419098 
L 799.894125 86.653875 
L 846.236375 83.318472 
L 892.578625 80.075481 
L 938.920875 77.073189 
L 985.263125 74.167606 
" clip-path="url(#p4e1094d903)" style="fill: none; stroke: #434348; stroke-linecap: square"/>
   </g>
   <g id="line2d_71">
    <path d="M 104.760375 237.342297 
L 151.102625 203.193103 
L 197.444875 181.803114 
L 243.787125 166.030871 
L 290.129375 153.639163 
L 336.471625 143.433088 
L 382.813875 134.720638 
L 429.156125 127.173 
L 475.498375 120.407635 
L 521.840625 114.639451 
L 568.182875 109.139905 
L 614.525125 104.171187 
L 660.867375 99.595753 
L 707.209625 95.441544 
L 753.551875 91.742943 
L 799.894125 88.158245 
L 846.236375 84.824991 
L 892.578625 81.805506 
L 938.920875 78.93216 
L 985.263125 76.065261 
" clip-path="url(#p4e1094d903)" style="fill: none; stroke: #90ed7d; stroke-linecap: square"/>
   </g>
   <g id="line2d_72">
    <path d="M 104.760375 235.502667 
L 151.102625 202.275437 
L 197.444875 181.841798 
L 243.787125 166.553103 
L 290.129375 154.234463 
L 336.471625 144.092862 
L 382.813875 135.69633 
L 429.156125 128.05628 
L 475.498375 121.379028 
L 521.840625 115.292777 
L 568.182875 109.750249 
L 614.525125 104.794425 
L 660.867375 100.405964 
L 707.209625 96.275394 
L 753.551875 92.445699 
L 799.894125 88.654687 
L 846.236375 85.325732 
L 892.578625 82.168704 
L 938.920875 79.168561 
L 985.263125 76.346793 
" clip-path="url(#p4e1094d903)" style="fill: none; stroke: #f7a35c; stroke-linecap: square"/>
   </g>
   <g id="line2d_73">
    <path d="M 104.760375 237.711942 
L 151.102625 203.981823 
L 197.444875 182.621921 
L 243.787125 166.864722 
L 290.129375 154.363409 
L 336.471625 144.019793 
L 382.813875 135.371816 
L 429.156125 127.671591 
L 475.498375 120.91912 
L 521.840625 114.890896 
L 568.182875 109.421437 
L 614.525125 104.439824 
L 660.867375 100.029872 
L 707.209625 95.836978 
L 753.551875 91.934213 
L 799.894125 88.233463 
L 846.236375 84.8035 
L 892.578625 81.657218 
L 938.920875 78.4787 
L 985.263125 75.680572 
" clip-path="url(#p4e1094d903)" style="fill: none; stroke: #8085e9; stroke-linecap: square"/>
   </g>
   <g id="line2d_74">
    <path d="M 104.760375 236.923222 
L 151.102625 204.093576 
L 197.444875 183.814671 
L 243.787125 168.523827 
L 290.129375 156.712375 
L 336.471625 146.43753 
L 382.813875 137.793851 
L 429.156125 130.304239 
L 475.498375 123.646328 
L 521.840625 117.656787 
L 568.182875 112.034742 
L 614.525125 106.949972 
L 660.867375 102.387434 
L 707.209625 98.207435 
L 753.551875 94.216557 
L 799.894125 90.505062 
L 846.236375 87.098739 
L 892.578625 83.840704 
L 938.920875 80.804026 
L 985.263125 77.788839 
" clip-path="url(#p4e1094d903)" style="fill: none; stroke: #f15c80; stroke-linecap: square"/>
   </g>
   <g id="line2d_75">
    <path d="M 104.760375 238.691931 
L 151.102625 205.015539 
L 197.444875 184.195062 
L 243.787125 168.878429 
L 290.129375 156.935882 
L 336.471625 147.112347 
L 382.813875 138.627702 
L 429.156125 131.095107 
L 475.498375 124.54895 
L 521.840625 118.679758 
L 568.182875 113.405868 
L 614.525125 108.499473 
L 660.867375 104.076626 
L 707.209625 99.952504 
L 753.551875 96.230263 
L 799.894125 92.679951 
L 846.236375 89.492836 
L 892.578625 86.391685 
L 938.920875 83.595706 
L 985.263125 81.08126 
" clip-path="url(#p4e1094d903)" style="fill: none; stroke: #e4d354; stroke-linecap: square"/>
   </g>
   <g id="line2d_76">
    <path d="M 104.760375 245.483086 
L 151.102625 213.300319 
L 197.444875 192.931152 
L 243.787125 177.896051 
L 290.129375 165.912671 
L 336.471625 156.089136 
L 382.813875 147.778568 
L 429.156125 140.303999 
L 475.498375 133.69122 
L 521.840625 127.86501 
L 568.182875 122.460025 
L 614.525125 117.757795 
L 660.867375 113.392973 
L 707.209625 109.419288 
L 753.551875 105.750775 
L 799.894125 102.312215 
L 846.236375 99.032689 
L 892.578625 96.122808 
L 938.920875 93.266655 
L 985.263125 90.457782 
" clip-path="url(#p4e1094d903)" style="fill: none; stroke: #2b908f; stroke-linecap: square"/>
   </g>
   <g id="line2d_77">
    <path d="M 104.760375 237.959088 
L 151.102625 205.090758 
L 197.444875 183.616954 
L 243.787125 167.941421 
L 290.129375 155.605589 
L 336.471625 145.496224 
L 382.813875 136.669872 
L 429.156125 128.982542 
L 475.498375 122.234369 
L 521.840625 116.081497 
L 568.182875 110.594845 
L 614.525125 105.772266 
L 660.867375 101.22692 
L 707.209625 97.152227 
L 753.551875 93.298891 
L 799.894125 89.662615 
L 846.236375 86.241248 
L 892.578625 83.112159 
L 938.920875 80.129209 
L 985.263125 77.318186 
" clip-path="url(#p4e1094d903)" style="fill: none; stroke: #f45b5b; stroke-linecap: square"/>
   </g>
   <g id="line2d_78">
    <path d="M 104.760375 245.758171 
L 151.102625 216.289716 
L 197.444875 197.697855 
L 243.787125 183.672831 
L 290.129375 172.564134 
L 336.471625 163.320857 
L 382.813875 155.470196 
L 429.156125 148.25137 
L 475.498375 141.939464 
L 521.840625 136.177728 
L 568.182875 131.069318 
L 614.525125 126.341299 
L 660.867375 121.808848 
L 707.209625 117.69762 
L 753.551875 114.009765 
L 799.894125 110.530372 
L 846.236375 107.306723 
L 892.578625 104.175485 
L 938.920875 101.342971 
L 985.263125 98.665193 
" clip-path="url(#p4e1094d903)" style="fill: none; stroke: #91e8e1; stroke-linecap: square"/>
   </g>
   <g id="line2d_79">
    <path d="M 104.760375 231.090566 
L 151.102625 195.924848 
L 197.444875 173.827805 
L 243.787125 157.844951 
L 290.129375 145.418857 
L 336.471625 135.214931 
L 382.813875 126.485288 
L 429.156125 118.875327 
L 475.498375 112.122855 
L 521.840625 105.954939 
L 568.182875 100.393069 
L 614.525125 95.405009 
L 660.867375 90.861812 
L 707.209625 86.61734 
L 753.551875 82.742514 
L 799.894125 79.239481 
L 846.236375 75.80522 
L 892.578625 72.817971 
L 938.920875 69.912389 
L 985.263125 67.185181 
" clip-path="url(#p4e1094d903)" style="fill: none; stroke: #7cb5ec; stroke-linecap: square"/>
   </g>
   <g id="line2d_80">
    <path d="M 104.760375 236.800724 
L 151.102625 204.054892 
L 197.444875 183.079679 
L 243.787125 167.72866 
L 290.129375 155.324057 
L 336.471625 145.274867 
L 382.813875 136.652679 
L 429.156125 129.319951 
L 475.498375 122.842564 
L 521.840625 116.900304 
L 568.182875 111.549046 
L 614.525125 106.713571 
L 660.867375 102.368092 
L 707.209625 98.205286 
L 753.551875 94.416423 
L 799.894125 90.8919 
L 846.236375 87.575839 
L 892.578625 84.58859 
L 938.920875 81.693753 
L 985.263125 78.882731 
" clip-path="url(#p4e1094d903)" style="fill: none; stroke: #434348; stroke-linecap: square"/>
   </g>
   <g id="line2d_81">
    <path d="M 104.760375 222.257766 
L 151.102625 185.677941 
L 197.444875 162.852353 
L 243.787125 146.443977 
L 290.129375 133.478459 
L 336.471625 122.922081 
L 382.813875 113.812048 
L 429.156125 105.798055 
L 475.498375 98.88655 
L 521.840625 92.643416 
L 568.182875 86.946153 
L 614.525125 81.93875 
L 660.867375 77.298844 
L 707.209625 73.159678 
L 753.551875 69.177397 
L 799.894125 65.627084 
L 846.236375 62.377645 
L 892.578625 59.237811 
L 938.920875 56.336526 
L 985.263125 53.566337 
" clip-path="url(#p4e1094d903)" style="fill: none; stroke: #90ed7d; stroke-linecap: square"/>
   </g>
   <g id="line2d_82">
    <path d="M 104.760375 242.186367 
L 151.102625 208.537914 
L 197.444875 187.210249 
L 243.787125 171.422963 
L 290.129375 159.078534 
L 336.471625 149.0143 
L 382.813875 140.407156 
L 429.156125 132.747765 
L 475.498375 126.208055 
L 521.840625 120.151892 
L 568.182875 114.768397 
L 614.525125 109.842661 
L 660.867375 105.316657 
L 707.209625 101.353717 
L 753.551875 97.680906 
L 799.894125 94.001647 
L 846.236375 90.687735 
L 892.578625 87.489875 
L 938.920875 84.483284 
L 985.263125 81.70235 
" clip-path="url(#p4e1094d903)" style="fill: none; stroke: #f7a35c; stroke-linecap: square"/>
   </g>
   <g id="line2d_83">
    <path d="M 104.760375 241.60611 
L 151.102625 208.469143 
L 197.444875 187.311256 
L 243.787125 171.627127 
L 290.129375 159.510503 
L 336.471625 149.001406 
L 382.813875 140.303999 
L 429.156125 132.244876 
L 475.498375 125.320476 
L 521.840625 118.993527 
L 568.182875 113.197405 
L 614.525125 107.850445 
L 660.867375 103.206241 
L 707.209625 99.045584 
L 753.551875 94.816156 
L 799.894125 91.016547 
L 846.236375 87.532857 
L 892.578625 84.390873 
L 938.920875 81.354195 
L 985.263125 78.259492 
" clip-path="url(#p4e1094d903)" style="fill: none; stroke: #8085e9; stroke-linecap: square"/>
   </g>
   <g id="line2d_84">
    <path d="M 104.760375 234.610791 
L 151.102625 200.781813 
L 197.444875 179.204852 
L 243.787125 163.649669 
L 290.129375 151.137611 
L 336.471625 140.860616 
L 382.813875 132.146017 
L 429.156125 124.144919 
L 475.498375 117.484859 
L 521.840625 111.424398 
L 568.182875 105.916255 
L 614.525125 100.771311 
L 660.867375 96.202325 
L 707.209625 91.874038 
L 753.551875 88.055088 
L 799.894125 84.266225 
L 846.236375 80.872797 
L 892.578625 77.662042 
L 938.920875 74.713477 
L 985.263125 71.904604 
" clip-path="url(#p4e1094d903)" style="fill: none; stroke: #f15c80; stroke-linecap: square"/>
   </g>
   <g id="line2d_85">
    <path d="M 104.760375 236.177485 
L 151.102625 201.950923 
L 197.444875 180.199886 
L 243.787125 163.729186 
L 290.129375 150.802351 
L 336.471625 139.674313 
L 382.813875 130.104372 
L 429.156125 121.843233 
L 475.498375 114.411646 
L 521.840625 107.770929 
L 568.182875 101.779239 
L 614.525125 96.217369 
L 660.867375 91.164835 
L 707.209625 86.374492 
L 753.551875 81.889321 
L 799.894125 77.932829 
L 846.236375 74.184799 
L 892.578625 70.494795 
L 938.920875 67.167988 
L 985.263125 63.922848 
" clip-path="url(#p4e1094d903)" style="fill: none; stroke: #e4d354; stroke-linecap: square"/>
   </g>
   <g id="line2d_86">
    <path d="M 104.760375 241.015108 
L 151.102625 208.984927 
L 197.444875 188.731811 
L 243.787125 173.413029 
L 290.129375 161.229783 
L 336.471625 151.279451 
L 382.813875 142.930199 
L 429.156125 134.93125 
L 475.498375 128.114306 
L 521.840625 121.879768 
L 568.182875 116.464037 
L 614.525125 111.235277 
L 660.867375 106.722168 
L 707.209625 102.329408 
L 753.551875 98.233224 
L 799.894125 94.143488 
L 846.236375 90.614666 
L 892.578625 87.242728 
L 938.920875 83.96965 
L 985.263125 80.932972 
" clip-path="url(#p4e1094d903)" style="fill: none; stroke: #2b908f; stroke-linecap: square"/>
   </g>
   <g id="line2d_87">
    <path d="M 104.760375 239.007849 
L 151.102625 205.572156 
L 197.444875 184.371288 
L 243.787125 169.076146 
L 290.129375 156.845619 
L 336.471625 146.598712 
L 382.813875 137.841131 
L 429.156125 130.269853 
L 475.498375 123.71295 
L 521.840625 117.60091 
L 568.182875 112.25395 
L 614.525125 107.371196 
L 660.867375 103.025716 
L 707.209625 98.757604 
L 753.551875 95.106284 
L 799.894125 91.58391 
L 846.236375 88.33662 
L 892.578625 85.25696 
L 938.920875 82.340632 
L 985.263125 79.643512 
" clip-path="url(#p4e1094d903)" style="fill: none; stroke: #f45b5b; stroke-linecap: square"/>
   </g>
   <g id="line2d_88">
    <path d="M 104.760375 229.304664 
L 151.102625 194.577362 
L 197.444875 173.114304 
L 243.787125 156.918689 
L 290.129375 144.309921 
L 336.471625 133.585914 
L 382.813875 124.441495 
L 429.156125 116.59943 
L 475.498375 109.307535 
L 521.840625 103.124575 
L 568.182875 97.132885 
L 614.525125 91.82246 
L 660.867375 86.866636 
L 707.209625 82.456684 
L 753.551875 78.235852 
L 799.894125 74.419051 
L 846.236375 70.892378 
L 892.578625 67.513993 
L 938.920875 64.273151 
L 985.263125 61.296648 
" clip-path="url(#p4e1094d903)" style="fill: none; stroke: #91e8e1; stroke-linecap: square"/>
   </g>
   <g id="line2d_89">
    <path d="M 104.760375 216.620678 
L 151.102625 179.800153 
L 197.444875 157.05838 
L 243.787125 140.420051 
L 290.129375 127.368568 
L 336.471625 116.872366 
L 382.813875 107.644132 
L 429.156125 99.701059 
L 475.498375 93.004465 
L 521.840625 86.909618 
L 568.182875 81.306915 
L 614.525125 76.370433 
L 660.867375 71.711185 
L 707.209625 67.494652 
L 753.551875 63.471537 
L 799.894125 59.71706 
L 846.236375 56.20758 
L 892.578625 53.031211 
L 938.920875 50.046111 
L 985.263125 47.067459 
" clip-path="url(#p4e1094d903)" style="fill: none; stroke: #7cb5ec; stroke-linecap: square"/>
   </g>
   <g id="line2d_90">
    <path d="M 104.760375 248.7927 
L 151.102625 216.850631 
L 197.444875 196.825321 
L 243.787125 182.250127 
L 290.129375 170.225914 
L 336.471625 160.42602 
L 382.813875 151.769446 
L 429.156125 144.50334 
L 475.498375 137.946437 
L 521.840625 131.896721 
L 568.182875 126.453052 
L 614.525125 121.39622 
L 660.867375 117.00561 
L 707.209625 112.823462 
L 753.551875 108.935741 
L 799.894125 105.35749 
L 846.236375 101.931825 
L 892.578625 98.710324 
L 938.920875 95.720927 
L 985.263125 92.931395 
" clip-path="url(#p4e1094d903)" style="fill: none; stroke: #434348; stroke-linecap: square"/>
   </g>
   <g id="line2d_91">
    <path d="M 104.760375 242.760177 
L 151.102625 209.915487 
L 197.444875 188.755451 
L 243.787125 173.107857 
L 290.129375 160.780621 
L 336.471625 150.198454 
L 382.813875 141.47096 
L 429.156125 133.648238 
L 475.498375 126.751777 
L 521.840625 120.390442 
L 568.182875 114.725415 
L 614.525125 109.475165 
L 660.867375 104.813767 
L 707.209625 100.519866 
L 753.551875 96.346315 
L 799.894125 92.529514 
L 846.236375 89.07591 
L 892.578625 85.693228 
L 938.920875 82.577033 
L 985.263125 79.602679 
" clip-path="url(#p4e1094d903)" style="fill: none; stroke: #90ed7d; stroke-linecap: square"/>
   </g>
   <g id="line2d_92">
    <path d="M 104.760375 252.901778 
L 151.102625 222.399607 
L 197.444875 203.388671 
L 243.787125 189.056325 
L 290.129375 177.61022 
L 336.471625 168.274532 
L 382.813875 160.640929 
L 429.156125 153.722978 
L 475.498375 147.406774 
L 521.840625 141.70951 
L 568.182875 136.381892 
L 614.525125 131.681811 
L 660.867375 127.347077 
L 707.209625 123.538873 
L 753.551875 119.82093 
L 799.894125 116.386669 
L 846.236375 113.208151 
L 892.578625 110.17792 
L 938.920875 107.274486 
L 985.263125 104.52149 
" clip-path="url(#p4e1094d903)" style="fill: none; stroke: #f7a35c; stroke-linecap: square"/>
   </g>
   <g id="line2d_93">
    <path d="M 104.760375 241.571725 
L 151.102625 208.731333 
L 197.444875 187.483184 
L 243.787125 172.248217 
L 290.129375 159.9962 
L 336.471625 149.628943 
L 382.813875 140.888554 
L 429.156125 133.106665 
L 475.498375 126.345597 
L 521.840625 120.242154 
L 568.182875 114.650197 
L 614.525125 109.586918 
L 660.867375 104.90403 
L 707.209625 100.595085 
L 753.551875 96.400042 
L 799.894125 92.596136 
L 846.236375 89.041525 
L 892.578625 85.882348 
L 938.920875 82.598524 
L 985.263125 79.727327 
" clip-path="url(#p4e1094d903)" style="fill: none; stroke: #8085e9; stroke-linecap: square"/>
   </g>
   <g id="line2d_94">
    <path d="M 104.760375 263.215308 
L 151.102625 234.189567 
L 197.444875 215.855598 
L 243.787125 201.867108 
L 290.129375 190.509117 
L 336.471625 181.106806 
L 382.813875 172.938078 
L 429.156125 166.007231 
L 475.498375 159.858657 
L 521.840625 154.543934 
L 568.182875 149.510742 
L 614.525125 144.98044 
L 660.867375 140.839125 
L 707.209625 137.03307 
L 753.551875 133.42688 
L 799.894125 129.988321 
L 846.236375 126.854934 
L 892.578625 123.947202 
L 938.920875 121.275871 
L 985.263125 118.705548 
" clip-path="url(#p4e1094d903)" style="fill: none; stroke: #f15c80; stroke-linecap: square"/>
   </g>
   <g id="line2d_95">
    <path d="M 104.760375 235.074997 
L 151.102625 202.290481 
L 197.444875 181.715001 
L 243.787125 166.417709 
L 290.129375 154.16999 
L 336.471625 144.155186 
L 382.813875 135.704926 
L 429.156125 128.22391 
L 475.498375 121.694945 
L 521.840625 115.782772 
L 568.182875 110.414321 
L 614.525125 105.35749 
L 660.867375 100.923897 
L 707.209625 96.866397 
L 753.551875 92.970079 
L 799.894125 89.29297 
L 846.236375 86.058575 
L 892.578625 82.77475 
L 938.920875 79.748818 
L 985.263125 76.95069 
" clip-path="url(#p4e1094d903)" style="fill: none; stroke: #e4d354; stroke-linecap: square"/>
   </g>
   <g id="line2d_96">
    <path d="M 104.760375 234.595747 
L 151.102625 200.487386 
L 197.444875 179.290816 
L 243.787125 163.634625 
L 290.129375 150.677703 
L 336.471625 140.252421 
L 382.813875 131.462603 
L 429.156125 123.506636 
L 475.498375 116.50487 
L 521.840625 110.403576 
L 568.182875 104.848153 
L 614.525125 99.709656 
L 660.867375 95.033215 
L 707.209625 90.827427 
L 753.551875 86.961196 
L 799.894125 83.260447 
L 846.236375 79.781054 
L 892.578625 76.559554 
L 938.920875 73.447658 
L 985.263125 70.610846 
" clip-path="url(#p4e1094d903)" style="fill: none; stroke: #2b908f; stroke-linecap: square"/>
   </g>
   <g id="line2d_97">
    <path d="M 104.760375 233.779089 
L 151.102625 198.95078 
L 197.444875 177.008473 
L 243.787125 160.774174 
L 290.129375 147.866681 
L 336.471625 137.088946 
L 382.813875 128.004702 
L 429.156125 120.10891 
L 475.498375 112.978197 
L 521.840625 106.496512 
L 568.182875 100.900257 
L 614.525125 95.647857 
L 660.867375 91.022995 
L 707.209625 86.503438 
L 753.551875 82.289054 
L 799.894125 78.405631 
L 846.236375 74.737117 
L 892.578625 71.363031 
L 938.920875 68.206004 
L 985.263125 65.309017 
" clip-path="url(#p4e1094d903)" style="fill: none; stroke: #f45b5b; stroke-linecap: square"/>
   </g>
   <g id="line2d_98">
    <path d="M 104.760375 249.663085 
L 151.102625 218.909469 
L 197.444875 199.470862 
L 243.787125 185.020316 
L 290.129375 173.367898 
L 336.471625 163.797957 
L 382.813875 155.67436 
L 429.156125 148.700532 
L 475.498375 142.349942 
L 521.840625 136.803116 
L 568.182875 131.582953 
L 614.525125 126.95809 
L 660.867375 122.68568 
L 707.209625 118.578751 
L 753.551875 114.871554 
L 799.894125 111.304048 
L 846.236375 108.179257 
L 892.578625 105.032976 
L 938.920875 102.174673 
L 985.263125 99.529131 
" clip-path="url(#p4e1094d903)" style="fill: none; stroke: #91e8e1; stroke-linecap: square"/>
   </g>
   <g id="line2d_99">
    <path d="M 104.760375 242.869781 
L 151.102625 212.221471 
L 197.444875 192.681856 
L 243.787125 178.102364 
L 290.129375 166.477884 
L 336.471625 156.84347 
L 382.813875 148.399658 
L 429.156125 141.023948 
L 475.498375 134.290818 
L 521.840625 128.253997 
L 568.182875 122.713619 
L 614.525125 117.712664 
L 660.867375 113.268325 
L 707.209625 108.991617 
L 753.551875 104.989994 
L 799.894125 101.282797 
L 846.236375 97.678756 
L 892.578625 94.321863 
L 938.920875 91.244352 
L 985.263125 88.405391 
" clip-path="url(#p4e1094d903)" style="fill: none; stroke: #7cb5ec; stroke-linecap: square"/>
   </g>
   <g id="line2d_100">
    <path d="M 104.760375 225.689878 
L 151.102625 189.456058 
L 197.444875 167.369761 
L 243.787125 151.305241 
L 290.129375 138.412792 
L 336.471625 128.101411 
L 382.813875 119.543697 
L 429.156125 111.860665 
L 475.498375 105.194158 
L 521.840625 99.43672 
L 568.182875 94.167128 
L 614.525125 89.342399 
L 660.867375 84.930297 
L 707.209625 80.847008 
L 753.551875 77.21288 
L 799.894125 73.643226 
L 846.236375 70.228306 
L 892.578625 67.122857 
L 938.920875 64.191485 
L 985.263125 61.494365 
" clip-path="url(#p4e1094d903)" style="fill: none; stroke: #434348; stroke-linecap: square"/>
   </g>
   <g id="line2d_101">
    <path d="M 104.760375 237.393875 
L 151.102625 204.164496 
L 197.444875 182.759463 
L 243.787125 166.853977 
L 290.129375 154.423584 
L 336.471625 144.015494 
L 382.813875 135.135415 
L 429.156125 127.463129 
L 475.498375 120.502195 
L 521.840625 114.26121 
L 568.182875 108.615525 
L 614.525125 103.68549 
L 660.867375 99.180977 
L 707.209625 94.872032 
L 753.551875 90.762954 
L 799.894125 86.950451 
L 846.236375 83.486102 
L 892.578625 80.135656 
L 938.920875 77.096829 
L 985.263125 74.30085 
" clip-path="url(#p4e1094d903)" style="fill: none; stroke: #90ed7d; stroke-linecap: square"/>
   </g>
   <g id="line2d_102">
    <path d="M 104.760375 247.524731 
L 151.102625 216.508925 
L 197.444875 196.498657 
L 243.787125 181.944955 
L 290.129375 169.882058 
L 336.471625 159.948919 
L 382.813875 151.305241 
L 429.156125 143.74041 
L 475.498375 137.134077 
L 521.840625 131.181071 
L 568.182875 125.793278 
L 614.525125 120.882586 
L 660.867375 116.397415 
L 707.209625 112.08847 
L 753.551875 108.147021 
L 799.894125 104.540832 
L 846.236375 100.96473 
L 892.578625 97.659415 
L 938.920875 94.452958 
L 985.263125 91.611848 
" clip-path="url(#p4e1094d903)" style="fill: none; stroke: #f7a35c; stroke-linecap: square"/>
   </g>
   <g id="line2d_103">
    <path d="M 104.760375 246.398603 
L 151.102625 214.862714 
L 197.444875 195.164067 
L 243.787125 180.793037 
L 290.129375 168.925709 
L 336.471625 159.246164 
L 382.813875 150.843184 
L 429.156125 143.398703 
L 475.498375 136.949255 
L 521.840625 131.129493 
L 568.182875 125.849155 
L 614.525125 120.929866 
L 660.867375 116.399564 
L 707.209625 112.346362 
L 753.551875 108.553201 
L 799.894125 105.02223 
L 846.236375 101.817922 
L 892.578625 98.845718 
L 938.920875 95.968073 
L 985.263125 93.215076 
" clip-path="url(#p4e1094d903)" style="fill: none; stroke: #8085e9; stroke-linecap: square"/>
   </g>
   <g id="line2d_104">
    <path d="M 104.760375 240.293011 
L 151.102625 207.119508 
L 197.444875 186.421529 
L 243.787125 171.220947 
L 290.129375 159.211778 
L 336.471625 149.317323 
L 382.813875 141.04329 
L 429.156125 133.747096 
L 475.498375 127.525453 
L 521.840625 121.550956 
L 568.182875 116.406011 
L 614.525125 111.772552 
L 660.867375 107.416327 
L 707.209625 103.438344 
L 753.551875 99.903075 
L 799.894125 96.483857 
L 846.236375 93.309637 
L 892.578625 90.277257 
L 938.920875 87.556497 
L 985.263125 84.814246 
" clip-path="url(#p4e1094d903)" style="fill: none; stroke: #f15c80; stroke-linecap: square"/>
   </g>
   <g id="line2d_105">
    <path d="M 104.760375 238.683335 
L 151.102625 207.848053 
L 197.444875 187.839935 
L 243.787125 173.163733 
L 290.129375 161.5457 
L 336.471625 151.696377 
L 382.813875 143.527649 
L 429.156125 136.293779 
L 475.498375 129.928146 
L 521.840625 124.220137 
L 568.182875 119.088087 
L 614.525125 114.286999 
L 660.867375 109.954414 
L 707.209625 105.937746 
L 753.551875 102.310066 
L 799.894125 98.938129 
L 846.236375 95.624217 
L 892.578625 92.806748 
L 938.920875 89.916208 
L 985.263125 87.26207 
" clip-path="url(#p4e1094d903)" style="fill: none; stroke: #e4d354; stroke-linecap: square"/>
   </g>
   <g id="line2d_106">
    <path d="M 104.760375 244.537482 
L 151.102625 213.192864 
L 197.444875 193.659697 
L 243.787125 179.045819 
L 290.129375 167.503005 
L 336.471625 158.173763 
L 382.813875 149.865344 
L 429.156125 142.526168 
L 475.498375 136.065975 
L 521.840625 130.310686 
L 568.182875 125.258153 
L 614.525125 120.678421 
L 660.867375 116.410309 
L 707.209625 112.35066 
L 753.551875 108.57899 
L 799.894125 105.314508 
L 846.236375 102.249891 
L 892.578625 99.176679 
L 938.920875 96.258202 
L 985.263125 93.505205 
" clip-path="url(#p4e1094d903)" style="fill: none; stroke: #2b908f; stroke-linecap: square"/>
   </g>
   <g id="line2d_107">
    <path d="M 104.760375 228.245158 
L 151.102625 192.5787 
L 197.444875 170.101266 
L 243.787125 153.787451 
L 290.129375 140.983115 
L 336.471625 130.553534 
L 382.813875 121.733629 
L 429.156125 113.773364 
L 475.498375 106.756553 
L 521.840625 100.584339 
L 568.182875 94.87633 
L 614.525125 89.845288 
L 660.867375 85.170996 
L 707.209625 80.814771 
L 753.551875 76.815297 
L 799.894125 72.972707 
L 846.236375 69.542744 
L 892.578625 66.355629 
L 938.920875 63.501624 
L 985.263125 60.596042 
" clip-path="url(#p4e1094d903)" style="fill: none; stroke: #f45b5b; stroke-linecap: square"/>
   </g>
   <g id="line2d_108">
    <path d="M 104.760375 228.255903 
L 151.102625 194.650432 
L 197.444875 173.713903 
L 243.787125 158.453146 
L 290.129375 146.261304 
L 336.471625 136.199219 
L 382.813875 127.43519 
L 429.156125 119.91764 
L 475.498375 113.416613 
L 521.840625 107.452862 
L 568.182875 102.299321 
L 614.525125 97.40797 
L 660.867375 93.006614 
L 707.209625 88.901833 
L 753.551875 85.080734 
L 799.894125 81.575553 
L 846.236375 78.235852 
L 892.578625 75.158341 
L 938.920875 72.306486 
L 985.263125 69.48042 
" clip-path="url(#p4e1094d903)" style="fill: none; stroke: #91e8e1; stroke-linecap: square"/>
   </g>
   <g id="line2d_109">
    <path d="M 104.760375 231.827707 
L 151.102625 198.654204 
L 197.444875 177.496318 
L 243.787125 161.818636 
L 290.129375 149.461313 
L 336.471625 138.801779 
L 382.813875 129.949637 
L 429.156125 122.37621 
L 475.498375 115.696808 
L 521.840625 109.767442 
L 568.182875 104.220616 
L 614.525125 99.116504 
L 660.867375 94.508834 
L 707.209625 90.238573 
L 753.551875 86.264888 
L 799.894125 82.639357 
L 846.236375 79.254525 
L 892.578625 76.022279 
L 938.920875 72.91683 
L 985.263125 69.970414 
" clip-path="url(#p4e1094d903)" style="fill: none; stroke: #7cb5ec; stroke-linecap: square"/>
   </g>
   <g id="line2d_110">
    <path d="M 104.760375 220.706116 
L 151.102625 186.03684 
L 197.444875 163.606687 
L 243.787125 147.131689 
L 290.129375 133.886788 
L 336.471625 122.487963 
L 382.813875 112.821313 
L 429.156125 104.287238 
L 475.498375 96.758942 
L 521.840625 90.120373 
L 568.182875 83.761187 
L 614.525125 78.162782 
L 660.867375 73.06082 
L 707.209625 68.367186 
L 753.551875 64.008812 
L 799.894125 59.964206 
L 846.236375 56.173195 
L 892.578625 52.599242 
L 938.920875 49.253094 
L 985.263125 46.11111 
" clip-path="url(#p4e1094d903)" style="fill: none; stroke: #434348; stroke-linecap: square"/>
   </g>
   <g id="line2d_111">
    <path d="M 104.760375 230.60272 
L 151.102625 196.32673 
L 197.444875 174.850777 
L 243.787125 159.514801 
L 290.129375 147.08226 
L 336.471625 136.590355 
L 382.813875 127.843519 
L 429.156125 119.96492 
L 475.498375 113.115739 
L 521.840625 106.982209 
L 568.182875 101.381655 
L 614.525125 96.217369 
L 660.867375 91.676321 
L 707.209625 87.251325 
L 753.551875 83.206719 
L 799.894125 79.404962 
L 846.236375 75.893333 
L 892.578625 72.603062 
L 938.920875 69.581427 
L 985.263125 66.703783 
" clip-path="url(#p4e1094d903)" style="fill: none; stroke: #90ed7d; stroke-linecap: square"/>
   </g>
   <g id="line2d_112">
    <path d="M 104.760375 231.9631 
L 151.102625 197.194966 
L 197.444875 175.710416 
L 243.787125 160.060673 
L 290.129375 147.589447 
L 336.471625 137.166314 
L 382.813875 128.376496 
L 429.156125 121.035172 
L 475.498375 114.514803 
L 521.840625 108.594034 
L 568.182875 103.403958 
L 614.525125 98.426643 
L 660.867375 93.915683 
L 707.209625 89.899016 
L 753.551875 86.271335 
L 799.894125 82.950976 
L 846.236375 79.67145 
L 892.578625 76.602536 
L 938.920875 73.845241 
L 985.263125 71.257725 
" clip-path="url(#p4e1094d903)" style="fill: none; stroke: #f7a35c; stroke-linecap: square"/>
   </g>
   <g id="line2d_113">
    <path d="M 58.418125 353.2239 
L 985.263125 353.2239 
" clip-path="url(#p4e1094d903)" style="fill: none; stroke: #dedede; stroke-width: 2; stroke-linecap: square"/>
   </g>
   <g id="text_17">
    <!-- RSeQC: Junction Saturation -->
    <g transform="translate(412.691875 19.3575)scale(0.16 -0.16)">
     <defs>
      <path id="DejaVuSans-52" d="M 2841 2188 
Q 3044 2119 3236 1894 
Q 3428 1669 3622 1275 
L 4263 0 
L 3584 0 
L 2988 1197 
Q 2756 1666 2539 1819 
Q 2322 1972 1947 1972 
L 1259 1972 
L 1259 0 
L 628 0 
L 628 4666 
L 2053 4666 
Q 2853 4666 3247 4331 
Q 3641 3997 3641 3322 
Q 3641 2881 3436 2590 
Q 3231 2300 2841 2188 
z
M 1259 4147 
L 1259 2491 
L 2053 2491 
Q 2509 2491 2742 2702 
Q 2975 2913 2975 3322 
Q 2975 3731 2742 3939 
Q 2509 4147 2053 4147 
L 1259 4147 
z
" transform="scale(0.015625)"/>
      <path id="DejaVuSans-53" d="M 3425 4513 
L 3425 3897 
Q 3066 4069 2747 4153 
Q 2428 4238 2131 4238 
Q 1616 4238 1336 4038 
Q 1056 3838 1056 3469 
Q 1056 3159 1242 3001 
Q 1428 2844 1947 2747 
L 2328 2669 
Q 3034 2534 3370 2195 
Q 3706 1856 3706 1288 
Q 3706 609 3251 259 
Q 2797 -91 1919 -91 
Q 1588 -91 1214 -16 
Q 841 59 441 206 
L 441 856 
Q 825 641 1194 531 
Q 1563 422 1919 422 
Q 2459 422 2753 634 
Q 3047 847 3047 1241 
Q 3047 1584 2836 1778 
Q 2625 1972 2144 2069 
L 1759 2144 
Q 1053 2284 737 2584 
Q 422 2884 422 3419 
Q 422 4038 858 4394 
Q 1294 4750 2059 4750 
Q 2388 4750 2728 4690 
Q 3069 4631 3425 4513 
z
" transform="scale(0.015625)"/>
      <path id="DejaVuSans-51" d="M 2522 4238 
Q 1834 4238 1429 3725 
Q 1025 3213 1025 2328 
Q 1025 1447 1429 934 
Q 1834 422 2522 422 
Q 3209 422 3611 934 
Q 4013 1447 4013 2328 
Q 4013 3213 3611 3725 
Q 3209 4238 2522 4238 
z
M 3406 84 
L 4238 -825 
L 3475 -825 
L 2784 -78 
Q 2681 -84 2626 -87 
Q 2572 -91 2522 -91 
Q 1538 -91 948 567 
Q 359 1225 359 2328 
Q 359 3434 948 4092 
Q 1538 4750 2522 4750 
Q 3503 4750 4090 4092 
Q 4678 3434 4678 2328 
Q 4678 1516 4351 937 
Q 4025 359 3406 84 
z
" transform="scale(0.015625)"/>
      <path id="DejaVuSans-43" d="M 4122 4306 
L 4122 3641 
Q 3803 3938 3442 4084 
Q 3081 4231 2675 4231 
Q 1875 4231 1450 3742 
Q 1025 3253 1025 2328 
Q 1025 1406 1450 917 
Q 1875 428 2675 428 
Q 3081 428 3442 575 
Q 3803 722 4122 1019 
L 4122 359 
Q 3791 134 3420 21 
Q 3050 -91 2638 -91 
Q 1578 -91 968 557 
Q 359 1206 359 2328 
Q 359 3453 968 4101 
Q 1578 4750 2638 4750 
Q 3056 4750 3426 4639 
Q 3797 4528 4122 4306 
z
" transform="scale(0.015625)"/>
      <path id="DejaVuSans-3a" d="M 750 794 
L 1409 794 
L 1409 0 
L 750 0 
L 750 794 
z
M 750 3309 
L 1409 3309 
L 1409 2516 
L 750 2516 
L 750 3309 
z
" transform="scale(0.015625)"/>
     </defs>
     <use xlink:href="#DejaVuSans-52"/>
     <use xlink:href="#DejaVuSans-53" x="69.482422"/>
     <use xlink:href="#DejaVuSans-65" x="132.958984"/>
     <use xlink:href="#DejaVuSans-51" x="194.482422"/>
     <use xlink:href="#DejaVuSans-43" x="273.193359"/>
     <use xlink:href="#DejaVuSans-3a" x="343.017578"/>
     <use xlink:href="#DejaVuSans-20" x="376.708984"/>
     <use xlink:href="#DejaVuSans-4a" x="408.496094"/>
     <use xlink:href="#DejaVuSans-75" x="437.988281"/>
     <use xlink:href="#DejaVuSans-6e" x="501.367188"/>
     <use xlink:href="#DejaVuSans-63" x="564.746094"/>
     <use xlink:href="#DejaVuSans-74" x="619.726562"/>
     <use xlink:href="#DejaVuSans-69" x="658.935547"/>
     <use xlink:href="#DejaVuSans-6f" x="686.71875"/>
     <use xlink:href="#DejaVuSans-6e" x="747.900391"/>
     <use xlink:href="#DejaVuSans-20" x="811.279297"/>
     <use xlink:href="#DejaVuSans-53" x="843.066406"/>
     <use xlink:href="#DejaVuSans-61" x="906.542969"/>
     <use xlink:href="#DejaVuSans-74" x="967.822266"/>
     <use xlink:href="#DejaVuSans-75" x="1007.03125"/>
     <use xlink:href="#DejaVuSans-72" x="1070.410156"/>
     <use xlink:href="#DejaVuSans-61" x="1111.523438"/>
     <use xlink:href="#DejaVuSans-74" x="1172.802734"/>
     <use xlink:href="#DejaVuSans-69" x="1212.011719"/>
     <use xlink:href="#DejaVuSans-6f" x="1239.794922"/>
     <use xlink:href="#DejaVuSans-6e" x="1300.976562"/>
    </g>
   </g>
  </g>
 </g>
 <defs>
  <clipPath id="p4e1094d903">
   <rect x="58.418125" y="35.2559" width="926.845" height="317.968"/>
  </clipPath>
 </defs>
</svg>
