<?xml version="1.0" encoding="utf-8" standalone="no"?>
<!DOCTYPE svg PUBLIC "-//W3C//DTD SVG 1.1//EN"
  "http://www.w3.org/Graphics/SVG/1.1/DTD/svg11.dtd">
<svg xmlns:xlink="http://www.w3.org/1999/xlink" width="1000.098125pt" height="388.844525pt" viewBox="0 0 1000.098125 388.844525" xmlns="http://www.w3.org/2000/svg" version="1.1">
 <metadata>
  <rdf:RDF xmlns:dc="http://purl.org/dc/elements/1.1/" xmlns:cc="http://creativecommons.org/ns#" xmlns:rdf="http://www.w3.org/1999/02/22-rdf-syntax-ns#">
   <cc:Work>
    <dc:type rdf:resource="http://purl.org/dc/dcmitype/StillImage"/>
    <dc:date>2023-02-14T10:05:16.522513</dc:date>
    <dc:format>image/svg+xml</dc:format>
    <dc:creator>
     <cc:Agent>
      <dc:title>Matplotlib v3.5.3, https://matplotlib.org/</dc:title>
     </cc:Agent>
    </dc:creator>
   </cc:Work>
  </rdf:RDF>
 </metadata>
 <defs>
  <style type="text/css">*{stroke-linejoin: round; stroke-linecap: butt}</style>
 </defs>
 <g id="figure_1">
  <g id="axes_1">
   <g id="patch_1">
    <path d="M 58.418125 353.2239 
L 985.263125 353.2239 
L 985.263125 35.2559 
L 58.418125 35.2559 
z
" style="fill: #ffffff"/>
   </g>
   <g id="matplotlib.axis_1">
    <g id="xtick_1">
     <g id="text_1">
      <!-- 0 -->
      <g transform="translate(55.873125 366.30265)scale(0.08 -0.08)">
       <defs>
        <path id="DejaVuSans-30" d="M 2034 4250 
Q 1547 4250 1301 3770 
Q 1056 3291 1056 2328 
Q 1056 1369 1301 889 
Q 1547 409 2034 409 
Q 2525 409 2770 889 
Q 3016 1369 3016 2328 
Q 3016 3291 2770 3770 
Q 2525 4250 2034 4250 
z
M 2034 4750 
Q 2819 4750 3233 4129 
Q 3647 3509 3647 2328 
Q 3647 1150 3233 529 
Q 2819 -91 2034 -91 
Q 1250 -91 836 529 
Q 422 1150 422 2328 
Q 422 3509 836 4129 
Q 1250 4750 2034 4750 
z
" transform="scale(0.015625)"/>
       </defs>
       <use xlink:href="#DejaVuSans-30"/>
      </g>
     </g>
    </g>
    <g id="xtick_2">
     <g id="text_2">
      <!-- 20 -->
      <g transform="translate(238.697125 366.30265)scale(0.08 -0.08)">
       <defs>
        <path id="DejaVuSans-32" d="M 1228 531 
L 3431 531 
L 3431 0 
L 469 0 
L 469 531 
Q 828 903 1448 1529 
Q 2069 2156 2228 2338 
Q 2531 2678 2651 2914 
Q 2772 3150 2772 3378 
Q 2772 3750 2511 3984 
Q 2250 4219 1831 4219 
Q 1534 4219 1204 4116 
Q 875 4013 500 3803 
L 500 4441 
Q 881 4594 1212 4672 
Q 1544 4750 1819 4750 
Q 2544 4750 2975 4387 
Q 3406 4025 3406 3419 
Q 3406 3131 3298 2873 
Q 3191 2616 2906 2266 
Q 2828 2175 2409 1742 
Q 1991 1309 1228 531 
z
" transform="scale(0.015625)"/>
       </defs>
       <use xlink:href="#DejaVuSans-32"/>
       <use xlink:href="#DejaVuSans-30" x="63.623047"/>
      </g>
     </g>
    </g>
    <g id="xtick_3">
     <g id="text_3">
      <!-- 40 -->
      <g transform="translate(424.066125 366.30265)scale(0.08 -0.08)">
       <defs>
        <path id="DejaVuSans-34" d="M 2419 4116 
L 825 1625 
L 2419 1625 
L 2419 4116 
z
M 2253 4666 
L 3047 4666 
L 3047 1625 
L 3713 1625 
L 3713 1100 
L 3047 1100 
L 3047 0 
L 2419 0 
L 2419 1100 
L 313 1100 
L 313 1709 
L 2253 4666 
z
" transform="scale(0.015625)"/>
       </defs>
       <use xlink:href="#DejaVuSans-34"/>
       <use xlink:href="#DejaVuSans-30" x="63.623047"/>
      </g>
     </g>
    </g>
    <g id="xtick_4">
     <g id="text_4">
      <!-- 60 -->
      <g transform="translate(609.435125 366.30265)scale(0.08 -0.08)">
       <defs>
        <path id="DejaVuSans-36" d="M 2113 2584 
Q 1688 2584 1439 2293 
Q 1191 2003 1191 1497 
Q 1191 994 1439 701 
Q 1688 409 2113 409 
Q 2538 409 2786 701 
Q 3034 994 3034 1497 
Q 3034 2003 2786 2293 
Q 2538 2584 2113 2584 
z
M 3366 4563 
L 3366 3988 
Q 3128 4100 2886 4159 
Q 2644 4219 2406 4219 
Q 1781 4219 1451 3797 
Q 1122 3375 1075 2522 
Q 1259 2794 1537 2939 
Q 1816 3084 2150 3084 
Q 2853 3084 3261 2657 
Q 3669 2231 3669 1497 
Q 3669 778 3244 343 
Q 2819 -91 2113 -91 
Q 1303 -91 875 529 
Q 447 1150 447 2328 
Q 447 3434 972 4092 
Q 1497 4750 2381 4750 
Q 2619 4750 2861 4703 
Q 3103 4656 3366 4563 
z
" transform="scale(0.015625)"/>
       </defs>
       <use xlink:href="#DejaVuSans-36"/>
       <use xlink:href="#DejaVuSans-30" x="63.623047"/>
      </g>
     </g>
    </g>
    <g id="xtick_5">
     <g id="text_5">
      <!-- 80 -->
      <g transform="translate(794.804125 366.30265)scale(0.08 -0.08)">
       <defs>
        <path id="DejaVuSans-38" d="M 2034 2216 
Q 1584 2216 1326 1975 
Q 1069 1734 1069 1313 
Q 1069 891 1326 650 
Q 1584 409 2034 409 
Q 2484 409 2743 651 
Q 3003 894 3003 1313 
Q 3003 1734 2745 1975 
Q 2488 2216 2034 2216 
z
M 1403 2484 
Q 997 2584 770 2862 
Q 544 3141 544 3541 
Q 544 4100 942 4425 
Q 1341 4750 2034 4750 
Q 2731 4750 3128 4425 
Q 3525 4100 3525 3541 
Q 3525 3141 3298 2862 
Q 3072 2584 2669 2484 
Q 3125 2378 3379 2068 
Q 3634 1759 3634 1313 
Q 3634 634 3220 271 
Q 2806 -91 2034 -91 
Q 1263 -91 848 271 
Q 434 634 434 1313 
Q 434 1759 690 2068 
Q 947 2378 1403 2484 
z
M 1172 3481 
Q 1172 3119 1398 2916 
Q 1625 2713 2034 2713 
Q 2441 2713 2670 2916 
Q 2900 3119 2900 3481 
Q 2900 3844 2670 4047 
Q 2441 4250 2034 4250 
Q 1625 4250 1398 4047 
Q 1172 3844 1172 3481 
z
" transform="scale(0.015625)"/>
       </defs>
       <use xlink:href="#DejaVuSans-38"/>
       <use xlink:href="#DejaVuSans-30" x="63.623047"/>
      </g>
     </g>
    </g>
    <g id="xtick_6">
     <g id="text_6">
      <!-- 100 -->
      <g transform="translate(977.628125 366.30265)scale(0.08 -0.08)">
       <defs>
        <path id="DejaVuSans-31" d="M 794 531 
L 1825 531 
L 1825 4091 
L 703 3866 
L 703 4441 
L 1819 4666 
L 2450 4666 
L 2450 531 
L 3481 531 
L 3481 0 
L 794 0 
L 794 531 
z
" transform="scale(0.015625)"/>
       </defs>
       <use xlink:href="#DejaVuSans-31"/>
       <use xlink:href="#DejaVuSans-30" x="63.623047"/>
       <use xlink:href="#DejaVuSans-30" x="127.246094"/>
      </g>
     </g>
    </g>
    <g id="text_7">
     <!-- Percent of reads -->
     <g transform="translate(481.172656 379.564837)scale(0.1 -0.1)">
      <defs>
       <path id="DejaVuSans-50" d="M 1259 4147 
L 1259 2394 
L 2053 2394 
Q 2494 2394 2734 2622 
Q 2975 2850 2975 3272 
Q 2975 3691 2734 3919 
Q 2494 4147 2053 4147 
L 1259 4147 
z
M 628 4666 
L 2053 4666 
Q 2838 4666 3239 4311 
Q 3641 3956 3641 3272 
Q 3641 2581 3239 2228 
Q 2838 1875 2053 1875 
L 1259 1875 
L 1259 0 
L 628 0 
L 628 4666 
z
" transform="scale(0.015625)"/>
       <path id="DejaVuSans-65" d="M 3597 1894 
L 3597 1613 
L 953 1613 
Q 991 1019 1311 708 
Q 1631 397 2203 397 
Q 2534 397 2845 478 
Q 3156 559 3463 722 
L 3463 178 
Q 3153 47 2828 -22 
Q 2503 -91 2169 -91 
Q 1331 -91 842 396 
Q 353 884 353 1716 
Q 353 2575 817 3079 
Q 1281 3584 2069 3584 
Q 2775 3584 3186 3129 
Q 3597 2675 3597 1894 
z
M 3022 2063 
Q 3016 2534 2758 2815 
Q 2500 3097 2075 3097 
Q 1594 3097 1305 2825 
Q 1016 2553 972 2059 
L 3022 2063 
z
" transform="scale(0.015625)"/>
       <path id="DejaVuSans-72" d="M 2631 2963 
Q 2534 3019 2420 3045 
Q 2306 3072 2169 3072 
Q 1681 3072 1420 2755 
Q 1159 2438 1159 1844 
L 1159 0 
L 581 0 
L 581 3500 
L 1159 3500 
L 1159 2956 
Q 1341 3275 1631 3429 
Q 1922 3584 2338 3584 
Q 2397 3584 2469 3576 
Q 2541 3569 2628 3553 
L 2631 2963 
z
" transform="scale(0.015625)"/>
       <path id="DejaVuSans-63" d="M 3122 3366 
L 3122 2828 
Q 2878 2963 2633 3030 
Q 2388 3097 2138 3097 
Q 1578 3097 1268 2742 
Q 959 2388 959 1747 
Q 959 1106 1268 751 
Q 1578 397 2138 397 
Q 2388 397 2633 464 
Q 2878 531 3122 666 
L 3122 134 
Q 2881 22 2623 -34 
Q 2366 -91 2075 -91 
Q 1284 -91 818 406 
Q 353 903 353 1747 
Q 353 2603 823 3093 
Q 1294 3584 2113 3584 
Q 2378 3584 2631 3529 
Q 2884 3475 3122 3366 
z
" transform="scale(0.015625)"/>
       <path id="DejaVuSans-6e" d="M 3513 2113 
L 3513 0 
L 2938 0 
L 2938 2094 
Q 2938 2591 2744 2837 
Q 2550 3084 2163 3084 
Q 1697 3084 1428 2787 
Q 1159 2491 1159 1978 
L 1159 0 
L 581 0 
L 581 3500 
L 1159 3500 
L 1159 2956 
Q 1366 3272 1645 3428 
Q 1925 3584 2291 3584 
Q 2894 3584 3203 3211 
Q 3513 2838 3513 2113 
z
" transform="scale(0.015625)"/>
       <path id="DejaVuSans-74" d="M 1172 4494 
L 1172 3500 
L 2356 3500 
L 2356 3053 
L 1172 3053 
L 1172 1153 
Q 1172 725 1289 603 
Q 1406 481 1766 481 
L 2356 481 
L 2356 0 
L 1766 0 
Q 1100 0 847 248 
Q 594 497 594 1153 
L 594 3053 
L 172 3053 
L 172 3500 
L 594 3500 
L 594 4494 
L 1172 4494 
z
" transform="scale(0.015625)"/>
       <path id="DejaVuSans-20" transform="scale(0.015625)"/>
       <path id="DejaVuSans-6f" d="M 1959 3097 
Q 1497 3097 1228 2736 
Q 959 2375 959 1747 
Q 959 1119 1226 758 
Q 1494 397 1959 397 
Q 2419 397 2687 759 
Q 2956 1122 2956 1747 
Q 2956 2369 2687 2733 
Q 2419 3097 1959 3097 
z
M 1959 3584 
Q 2709 3584 3137 3096 
Q 3566 2609 3566 1747 
Q 3566 888 3137 398 
Q 2709 -91 1959 -91 
Q 1206 -91 779 398 
Q 353 888 353 1747 
Q 353 2609 779 3096 
Q 1206 3584 1959 3584 
z
" transform="scale(0.015625)"/>
       <path id="DejaVuSans-66" d="M 2375 4863 
L 2375 4384 
L 1825 4384 
Q 1516 4384 1395 4259 
Q 1275 4134 1275 3809 
L 1275 3500 
L 2222 3500 
L 2222 3053 
L 1275 3053 
L 1275 0 
L 697 0 
L 697 3053 
L 147 3053 
L 147 3500 
L 697 3500 
L 697 3744 
Q 697 4328 969 4595 
Q 1241 4863 1831 4863 
L 2375 4863 
z
" transform="scale(0.015625)"/>
       <path id="DejaVuSans-61" d="M 2194 1759 
Q 1497 1759 1228 1600 
Q 959 1441 959 1056 
Q 959 750 1161 570 
Q 1363 391 1709 391 
Q 2188 391 2477 730 
Q 2766 1069 2766 1631 
L 2766 1759 
L 2194 1759 
z
M 3341 1997 
L 3341 0 
L 2766 0 
L 2766 531 
Q 2569 213 2275 61 
Q 1981 -91 1556 -91 
Q 1019 -91 701 211 
Q 384 513 384 1019 
Q 384 1609 779 1909 
Q 1175 2209 1959 2209 
L 2766 2209 
L 2766 2266 
Q 2766 2663 2505 2880 
Q 2244 3097 1772 3097 
Q 1472 3097 1187 3025 
Q 903 2953 641 2809 
L 641 3341 
Q 956 3463 1253 3523 
Q 1550 3584 1831 3584 
Q 2591 3584 2966 3190 
Q 3341 2797 3341 1997 
z
" transform="scale(0.015625)"/>
       <path id="DejaVuSans-64" d="M 2906 2969 
L 2906 4863 
L 3481 4863 
L 3481 0 
L 2906 0 
L 2906 525 
Q 2725 213 2448 61 
Q 2172 -91 1784 -91 
Q 1150 -91 751 415 
Q 353 922 353 1747 
Q 353 2572 751 3078 
Q 1150 3584 1784 3584 
Q 2172 3584 2448 3432 
Q 2725 3281 2906 2969 
z
M 947 1747 
Q 947 1113 1208 752 
Q 1469 391 1925 391 
Q 2381 391 2643 752 
Q 2906 1113 2906 1747 
Q 2906 2381 2643 2742 
Q 2381 3103 1925 3103 
Q 1469 3103 1208 2742 
Q 947 2381 947 1747 
z
" transform="scale(0.015625)"/>
       <path id="DejaVuSans-73" d="M 2834 3397 
L 2834 2853 
Q 2591 2978 2328 3040 
Q 2066 3103 1784 3103 
Q 1356 3103 1142 2972 
Q 928 2841 928 2578 
Q 928 2378 1081 2264 
Q 1234 2150 1697 2047 
L 1894 2003 
Q 2506 1872 2764 1633 
Q 3022 1394 3022 966 
Q 3022 478 2636 193 
Q 2250 -91 1575 -91 
Q 1294 -91 989 -36 
Q 684 19 347 128 
L 347 722 
Q 666 556 975 473 
Q 1284 391 1588 391 
Q 1994 391 2212 530 
Q 2431 669 2431 922 
Q 2431 1156 2273 1281 
Q 2116 1406 1581 1522 
L 1381 1569 
Q 847 1681 609 1914 
Q 372 2147 372 2553 
Q 372 3047 722 3315 
Q 1072 3584 1716 3584 
Q 2034 3584 2315 3537 
Q 2597 3491 2834 3397 
z
" transform="scale(0.015625)"/>
      </defs>
      <use xlink:href="#DejaVuSans-50"/>
      <use xlink:href="#DejaVuSans-65" x="56.677734"/>
      <use xlink:href="#DejaVuSans-72" x="118.201172"/>
      <use xlink:href="#DejaVuSans-63" x="157.064453"/>
      <use xlink:href="#DejaVuSans-65" x="212.044922"/>
      <use xlink:href="#DejaVuSans-6e" x="273.568359"/>
      <use xlink:href="#DejaVuSans-74" x="336.947266"/>
      <use xlink:href="#DejaVuSans-20" x="376.15625"/>
      <use xlink:href="#DejaVuSans-6f" x="407.943359"/>
      <use xlink:href="#DejaVuSans-66" x="469.125"/>
      <use xlink:href="#DejaVuSans-20" x="504.330078"/>
      <use xlink:href="#DejaVuSans-72" x="536.117188"/>
      <use xlink:href="#DejaVuSans-65" x="574.980469"/>
      <use xlink:href="#DejaVuSans-61" x="636.503906"/>
      <use xlink:href="#DejaVuSans-64" x="697.783203"/>
      <use xlink:href="#DejaVuSans-73" x="761.259766"/>
     </g>
    </g>
   </g>
   <g id="matplotlib.axis_2">
    <g id="ytick_1">
     <g id="line2d_1">
      <path d="M 58.418125 353.2239 
L 985.263125 353.2239 
" clip-path="url(#p051fa0bb76)" style="fill: none; stroke: #dedede; stroke-linecap: square"/>
     </g>
     <g id="text_8">
      <!-- 0 -->
      <g transform="translate(46.328125 356.263275)scale(0.08 -0.08)">
       <use xlink:href="#DejaVuSans-30"/>
      </g>
     </g>
    </g>
    <g id="ytick_2">
     <g id="line2d_2">
      <path d="M 58.418125 294.270138 
L 985.263125 294.270138 
" clip-path="url(#p051fa0bb76)" style="fill: none; stroke: #dedede; stroke-linecap: square"/>
     </g>
     <g id="text_9">
      <!-- 20000 -->
      <g transform="translate(25.968125 297.309513)scale(0.08 -0.08)">
       <use xlink:href="#DejaVuSans-32"/>
       <use xlink:href="#DejaVuSans-30" x="63.623047"/>
       <use xlink:href="#DejaVuSans-30" x="127.246094"/>
       <use xlink:href="#DejaVuSans-30" x="190.869141"/>
       <use xlink:href="#DejaVuSans-30" x="254.492188"/>
      </g>
     </g>
    </g>
    <g id="ytick_3">
     <g id="line2d_3">
      <path d="M 58.418125 235.316376 
L 985.263125 235.316376 
" clip-path="url(#p051fa0bb76)" style="fill: none; stroke: #dedede; stroke-linecap: square"/>
     </g>
     <g id="text_10">
      <!-- 40000 -->
      <g transform="translate(25.968125 238.355751)scale(0.08 -0.08)">
       <use xlink:href="#DejaVuSans-34"/>
       <use xlink:href="#DejaVuSans-30" x="63.623047"/>
       <use xlink:href="#DejaVuSans-30" x="127.246094"/>
       <use xlink:href="#DejaVuSans-30" x="190.869141"/>
       <use xlink:href="#DejaVuSans-30" x="254.492188"/>
      </g>
     </g>
    </g>
    <g id="ytick_4">
     <g id="line2d_4">
      <path d="M 58.418125 176.362614 
L 985.263125 176.362614 
" clip-path="url(#p051fa0bb76)" style="fill: none; stroke: #dedede; stroke-linecap: square"/>
     </g>
     <g id="text_11">
      <!-- 60000 -->
      <g transform="translate(25.968125 179.401989)scale(0.08 -0.08)">
       <use xlink:href="#DejaVuSans-36"/>
       <use xlink:href="#DejaVuSans-30" x="63.623047"/>
       <use xlink:href="#DejaVuSans-30" x="127.246094"/>
       <use xlink:href="#DejaVuSans-30" x="190.869141"/>
       <use xlink:href="#DejaVuSans-30" x="254.492188"/>
      </g>
     </g>
    </g>
    <g id="ytick_5">
     <g id="line2d_5">
      <path d="M 58.418125 117.408852 
L 985.263125 117.408852 
" clip-path="url(#p051fa0bb76)" style="fill: none; stroke: #dedede; stroke-linecap: square"/>
     </g>
     <g id="text_12">
      <!-- 80000 -->
      <g transform="translate(25.968125 120.448227)scale(0.08 -0.08)">
       <use xlink:href="#DejaVuSans-38"/>
       <use xlink:href="#DejaVuSans-30" x="63.623047"/>
       <use xlink:href="#DejaVuSans-30" x="127.246094"/>
       <use xlink:href="#DejaVuSans-30" x="190.869141"/>
       <use xlink:href="#DejaVuSans-30" x="254.492188"/>
      </g>
     </g>
    </g>
    <g id="ytick_6">
     <g id="line2d_6">
      <path d="M 58.418125 58.45509 
L 985.263125 58.45509 
" clip-path="url(#p051fa0bb76)" style="fill: none; stroke: #dedede; stroke-linecap: square"/>
     </g>
     <g id="text_13">
      <!-- 100000 -->
      <g transform="translate(20.878125 61.494465)scale(0.08 -0.08)">
       <use xlink:href="#DejaVuSans-31"/>
       <use xlink:href="#DejaVuSans-30" x="63.623047"/>
       <use xlink:href="#DejaVuSans-30" x="127.246094"/>
       <use xlink:href="#DejaVuSans-30" x="190.869141"/>
       <use xlink:href="#DejaVuSans-30" x="254.492188"/>
       <use xlink:href="#DejaVuSans-30" x="318.115234"/>
      </g>
     </g>
    </g>
    <g id="text_14">
     <!-- Number of Junctions -->
     <g transform="translate(14.798438 245.067244)rotate(-90)scale(0.1 -0.1)">
      <defs>
       <path id="DejaVuSans-4e" d="M 628 4666 
L 1478 4666 
L 3547 763 
L 3547 4666 
L 4159 4666 
L 4159 0 
L 3309 0 
L 1241 3903 
L 1241 0 
L 628 0 
L 628 4666 
z
" transform="scale(0.015625)"/>
       <path id="DejaVuSans-75" d="M 544 1381 
L 544 3500 
L 1119 3500 
L 1119 1403 
Q 1119 906 1312 657 
Q 1506 409 1894 409 
Q 2359 409 2629 706 
Q 2900 1003 2900 1516 
L 2900 3500 
L 3475 3500 
L 3475 0 
L 2900 0 
L 2900 538 
Q 2691 219 2414 64 
Q 2138 -91 1772 -91 
Q 1169 -91 856 284 
Q 544 659 544 1381 
z
M 1991 3584 
L 1991 3584 
z
" transform="scale(0.015625)"/>
       <path id="DejaVuSans-6d" d="M 3328 2828 
Q 3544 3216 3844 3400 
Q 4144 3584 4550 3584 
Q 5097 3584 5394 3201 
Q 5691 2819 5691 2113 
L 5691 0 
L 5113 0 
L 5113 2094 
Q 5113 2597 4934 2840 
Q 4756 3084 4391 3084 
Q 3944 3084 3684 2787 
Q 3425 2491 3425 1978 
L 3425 0 
L 2847 0 
L 2847 2094 
Q 2847 2600 2669 2842 
Q 2491 3084 2119 3084 
Q 1678 3084 1418 2786 
Q 1159 2488 1159 1978 
L 1159 0 
L 581 0 
L 581 3500 
L 1159 3500 
L 1159 2956 
Q 1356 3278 1631 3431 
Q 1906 3584 2284 3584 
Q 2666 3584 2933 3390 
Q 3200 3197 3328 2828 
z
" transform="scale(0.015625)"/>
       <path id="DejaVuSans-62" d="M 3116 1747 
Q 3116 2381 2855 2742 
Q 2594 3103 2138 3103 
Q 1681 3103 1420 2742 
Q 1159 2381 1159 1747 
Q 1159 1113 1420 752 
Q 1681 391 2138 391 
Q 2594 391 2855 752 
Q 3116 1113 3116 1747 
z
M 1159 2969 
Q 1341 3281 1617 3432 
Q 1894 3584 2278 3584 
Q 2916 3584 3314 3078 
Q 3713 2572 3713 1747 
Q 3713 922 3314 415 
Q 2916 -91 2278 -91 
Q 1894 -91 1617 61 
Q 1341 213 1159 525 
L 1159 0 
L 581 0 
L 581 4863 
L 1159 4863 
L 1159 2969 
z
" transform="scale(0.015625)"/>
       <path id="DejaVuSans-4a" d="M 628 4666 
L 1259 4666 
L 1259 325 
Q 1259 -519 939 -900 
Q 619 -1281 -91 -1281 
L -331 -1281 
L -331 -750 
L -134 -750 
Q 284 -750 456 -515 
Q 628 -281 628 325 
L 628 4666 
z
" transform="scale(0.015625)"/>
       <path id="DejaVuSans-69" d="M 603 3500 
L 1178 3500 
L 1178 0 
L 603 0 
L 603 3500 
z
M 603 4863 
L 1178 4863 
L 1178 4134 
L 603 4134 
L 603 4863 
z
" transform="scale(0.015625)"/>
      </defs>
      <use xlink:href="#DejaVuSans-4e"/>
      <use xlink:href="#DejaVuSans-75" x="74.804688"/>
      <use xlink:href="#DejaVuSans-6d" x="138.183594"/>
      <use xlink:href="#DejaVuSans-62" x="235.595703"/>
      <use xlink:href="#DejaVuSans-65" x="299.072266"/>
      <use xlink:href="#DejaVuSans-72" x="360.595703"/>
      <use xlink:href="#DejaVuSans-20" x="401.708984"/>
      <use xlink:href="#DejaVuSans-6f" x="433.496094"/>
      <use xlink:href="#DejaVuSans-66" x="494.677734"/>
      <use xlink:href="#DejaVuSans-20" x="529.882812"/>
      <use xlink:href="#DejaVuSans-4a" x="561.669922"/>
      <use xlink:href="#DejaVuSans-75" x="591.162109"/>
      <use xlink:href="#DejaVuSans-6e" x="654.541016"/>
      <use xlink:href="#DejaVuSans-63" x="717.919922"/>
      <use xlink:href="#DejaVuSans-74" x="772.900391"/>
      <use xlink:href="#DejaVuSans-69" x="812.109375"/>
      <use xlink:href="#DejaVuSans-6f" x="839.892578"/>
      <use xlink:href="#DejaVuSans-6e" x="901.074219"/>
      <use xlink:href="#DejaVuSans-73" x="964.453125"/>
     </g>
    </g>
   </g>
   <g id="line2d_7">
    <path d="M 104.760375 212.9729 
L 151.102625 177.355985 
L 197.444875 156.98746 
L 243.787125 142.903406 
L 290.129375 132.580602 
L 336.471625 124.583525 
L 382.813875 117.774365 
L 429.156125 112.444945 
L 475.498375 107.404398 
L 521.840625 103.507555 
L 568.182875 99.7522 
L 614.525125 96.657127 
L 660.867375 93.821452 
L 707.209625 91.407295 
L 753.551875 89.084517 
L 799.894125 86.923861 
L 846.236375 84.972492 
L 892.578625 83.262833 
L 938.920875 81.777198 
L 985.263125 80.371151 
" clip-path="url(#p051fa0bb76)" style="fill: none; stroke: #7cb5ec; stroke-linecap: square"/>
   </g>
   <g id="line2d_8">
    <path d="M 104.760375 215.737831 
L 151.102625 180.515906 
L 197.444875 160.050108 
L 243.787125 146.089857 
L 290.129375 135.619669 
L 336.471625 127.033053 
L 382.813875 120.0883 
L 429.156125 114.257773 
L 475.498375 109.246703 
L 521.840625 104.807485 
L 568.182875 100.943066 
L 614.525125 97.668185 
L 660.867375 94.637961 
L 707.209625 92.023362 
L 753.551875 89.455925 
L 799.894125 87.124304 
L 846.236375 85.075661 
L 892.578625 83.277571 
L 938.920875 81.361574 
L 985.263125 79.675496 
" clip-path="url(#p051fa0bb76)" style="fill: none; stroke: #434348; stroke-linecap: square"/>
   </g>
   <g id="line2d_9">
    <path d="M 104.760375 207.077524 
L 151.102625 170.393545 
L 197.444875 149.771519 
L 243.787125 135.339638 
L 290.129375 124.335919 
L 336.471625 115.708036 
L 382.813875 108.598212 
L 429.156125 102.776528 
L 475.498375 97.570911 
L 521.840625 93.329188 
L 568.182875 89.473612 
L 614.525125 86.304847 
L 660.867375 83.17735 
L 707.209625 80.338726 
L 753.551875 77.77129 
L 799.894125 75.469145 
L 846.236375 73.337967 
L 892.578625 71.407231 
L 938.920875 69.73884 
L 985.263125 68.070448 
" clip-path="url(#p051fa0bb76)" style="fill: none; stroke: #90ed7d; stroke-linecap: square"/>
   </g>
   <g id="line2d_10">
    <path d="M 104.760375 202.685469 
L 151.102625 168.365536 
L 197.444875 148.418531 
L 243.787125 134.440594 
L 290.129375 123.982196 
L 336.471625 116.038177 
L 382.813875 109.211331 
L 429.156125 103.699154 
L 475.498375 98.738195 
L 521.840625 94.596694 
L 568.182875 90.85313 
L 614.525125 87.536981 
L 660.867375 84.66888 
L 707.209625 81.968798 
L 753.551875 79.421995 
L 799.894125 77.270183 
L 846.236375 75.280493 
L 892.578625 73.396921 
L 938.920875 71.536929 
L 985.263125 69.8538 
" clip-path="url(#p051fa0bb76)" style="fill: none; stroke: #f7a35c; stroke-linecap: square"/>
   </g>
   <g id="line2d_11">
    <path d="M 104.760375 217.182199 
L 151.102625 184.978706 
L 197.444875 165.842315 
L 243.787125 153.011029 
L 290.129375 143.092058 
L 336.471625 135.3249 
L 382.813875 128.509845 
L 429.156125 122.658684 
L 475.498375 117.694777 
L 521.840625 113.42063 
L 568.182875 109.871613 
L 614.525125 106.658633 
L 660.867375 103.59009 
L 707.209625 100.813368 
L 753.551875 98.207611 
L 799.894125 95.784612 
L 846.236375 93.694701 
L 892.578625 91.707959 
L 938.920875 89.974719 
L 985.263125 88.094094 
" clip-path="url(#p051fa0bb76)" style="fill: none; stroke: #8085e9; stroke-linecap: square"/>
   </g>
   <g id="line2d_12">
    <path d="M 104.760375 199.758414 
L 151.102625 164.495222 
L 197.444875 144.215127 
L 243.787125 130.278458 
L 290.129375 119.867224 
L 336.471625 111.643174 
L 382.813875 104.895916 
L 429.156125 99.00054 
L 475.498375 94.024842 
L 521.840625 89.668159 
L 568.182875 85.986497 
L 614.525125 82.679191 
L 660.867375 79.713816 
L 707.209625 76.851611 
L 753.551875 74.351972 
L 799.894125 72.05867 
L 846.236375 70.012975 
L 892.578625 68.046867 
L 938.920875 66.228143 
L 985.263125 64.645235 
" clip-path="url(#p051fa0bb76)" style="fill: none; stroke: #f15c80; stroke-linecap: square"/>
   </g>
   <g id="line2d_13">
    <path d="M 104.760375 209.471047 
L 151.102625 172.14742 
L 197.444875 150.667617 
L 243.787125 135.64325 
L 290.129375 124.394873 
L 336.471625 115.719826 
L 382.813875 108.828132 
L 429.156125 102.979918 
L 475.498375 97.948215 
L 521.840625 93.562055 
L 568.182875 89.694688 
L 614.525125 86.210521 
L 660.867375 82.988698 
L 707.209625 80.120597 
L 753.551875 77.597376 
L 799.894125 75.439669 
L 846.236375 73.214164 
L 892.578625 71.318801 
L 938.920875 69.479443 
L 985.263125 67.66072 
" clip-path="url(#p051fa0bb76)" style="fill: none; stroke: #e4d354; stroke-linecap: square"/>
   </g>
   <g id="line2d_14">
    <path d="M 104.760375 203.991294 
L 151.102625 167.551974 
L 197.444875 146.57033 
L 243.787125 132.285834 
L 290.129375 121.461923 
L 336.471625 112.816354 
L 382.813875 105.868653 
L 429.156125 99.870108 
L 475.498375 94.717549 
L 521.840625 90.466982 
L 568.182875 86.705732 
L 614.525125 83.448537 
L 660.867375 80.506744 
L 707.209625 77.80961 
L 753.551875 75.333552 
L 799.894125 73.172896 
L 846.236375 71.127201 
L 892.578625 69.311425 
L 938.920875 67.504492 
L 985.263125 65.892107 
" clip-path="url(#p051fa0bb76)" style="fill: none; stroke: #2b908f; stroke-linecap: square"/>
   </g>
   <g id="line2d_15">
    <path d="M 104.760375 201.214572 
L 151.102625 164.50996 
L 197.444875 143.882039 
L 243.787125 129.809776 
L 290.129375 119.587193 
L 336.471625 111.318928 
L 382.813875 104.922445 
L 429.156125 99.245198 
L 475.498375 94.475838 
L 521.840625 90.322546 
L 568.182875 86.690994 
L 614.525125 83.454432 
L 660.867375 80.660024 
L 707.209625 78.027739 
L 753.551875 75.878874 
L 799.894125 73.7418 
L 846.236375 71.811064 
L 892.578625 69.98055 
L 938.920875 68.306263 
L 985.263125 66.708616 
" clip-path="url(#p051fa0bb76)" style="fill: none; stroke: #f45b5b; stroke-linecap: square"/>
   </g>
   <g id="line2d_16">
    <path d="M 104.760375 205.524092 
L 151.102625 171.360387 
L 197.444875 152.120827 
L 243.787125 138.988876 
L 290.129375 129.223186 
L 336.471625 121.753744 
L 382.813875 115.604867 
L 429.156125 110.172277 
L 475.498375 105.435343 
L 521.840625 101.517865 
L 568.182875 97.951163 
L 614.525125 94.797136 
L 660.867375 91.943774 
L 707.209625 89.476559 
L 753.551875 87.112513 
L 799.894125 84.901747 
L 846.236375 82.897319 
L 892.578625 81.11102 
L 938.920875 79.448524 
L 985.263125 77.794871 
" clip-path="url(#p051fa0bb76)" style="fill: none; stroke: #91e8e1; stroke-linecap: square"/>
   </g>
   <g id="line2d_17">
    <path d="M 104.760375 218.594141 
L 151.102625 184.76942 
L 197.444875 165.933693 
L 243.787125 152.568875 
L 290.129375 142.531997 
L 336.471625 134.523129 
L 382.813875 128.04411 
L 429.156125 122.393392 
L 475.498375 117.426538 
L 521.840625 113.402944 
L 568.182875 109.665275 
L 614.525125 106.422818 
L 660.867375 103.595985 
L 707.209625 100.88706 
L 753.551875 98.555439 
L 799.894125 96.188445 
L 846.236375 94.15454 
L 892.578625 92.380032 
L 938.920875 90.543622 
L 985.263125 88.848702 
" clip-path="url(#p051fa0bb76)" style="fill: none; stroke: #7cb5ec; stroke-linecap: square"/>
   </g>
   <g id="line2d_18">
    <path d="M 104.760375 206.791598 
L 151.102625 168.772317 
L 197.444875 147.604969 
L 243.787125 133.120029 
L 290.129375 121.898181 
L 336.471625 113.226082 
L 382.813875 106.225323 
L 429.156125 100.209092 
L 475.498375 95.156754 
L 521.840625 90.835443 
L 568.182875 86.953338 
L 614.525125 83.598869 
L 660.867375 80.730769 
L 707.209625 78.08964 
L 753.551875 75.637164 
L 799.894125 73.476508 
L 846.236375 71.43376 
L 892.578625 69.594403 
L 938.920875 67.937802 
L 985.263125 66.393214 
" clip-path="url(#p051fa0bb76)" style="fill: none; stroke: #434348; stroke-linecap: square"/>
   </g>
   <g id="line2d_19">
    <path d="M 104.760375 207.546206 
L 151.102625 172.395026 
L 197.444875 152.079559 
L 243.787125 138.160576 
L 290.129375 127.52237 
L 336.471625 119.360221 
L 382.813875 112.64244 
L 429.156125 106.982879 
L 475.498375 101.904012 
L 521.840625 97.550277 
L 568.182875 93.886301 
L 614.525125 90.511198 
L 660.867375 87.628359 
L 707.209625 85.172935 
L 753.551875 82.746987 
L 799.894125 80.341674 
L 846.236375 78.275344 
L 892.578625 76.377033 
L 938.920875 74.602525 
L 985.263125 73.075623 
" clip-path="url(#p051fa0bb76)" style="fill: none; stroke: #90ed7d; stroke-linecap: square"/>
   </g>
   <g id="line2d_20">
    <path d="M 104.760375 203.440077 
L 151.102625 165.995595 
L 197.444875 144.975631 
L 243.787125 130.387522 
L 290.129375 119.534135 
L 336.471625 110.87088 
L 382.813875 103.893702 
L 429.156125 97.965901 
L 475.498375 93.161169 
L 521.840625 89.007877 
L 568.182875 85.317371 
L 614.525125 82.181031 
L 660.867375 79.168494 
L 707.209625 76.742547 
L 753.551875 74.313652 
L 799.894125 72.164787 
L 846.236375 70.163307 
L 892.578625 68.303316 
L 938.920875 66.558284 
L 985.263125 65.069702 
" clip-path="url(#p051fa0bb76)" style="fill: none; stroke: #f7a35c; stroke-linecap: square"/>
   </g>
   <g id="line2d_21">
    <path d="M 104.760375 195.218975 
L 151.102625 158.166535 
L 197.444875 137.302799 
L 243.787125 123.336653 
L 290.129375 113.010901 
L 336.471625 105.060986 
L 382.813875 98.534805 
L 429.156125 93.063896 
L 475.498375 88.182524 
L 521.840625 83.96733 
L 568.182875 80.344622 
L 614.525125 77.149328 
L 660.867375 74.245855 
L 707.209625 71.525139 
L 753.551875 69.03729 
L 799.894125 66.991594 
L 846.236375 65.099179 
L 892.578625 63.298141 
L 938.920875 61.620907 
L 985.263125 60.229598 
" clip-path="url(#p051fa0bb76)" style="fill: none; stroke: #8085e9; stroke-linecap: square"/>
   </g>
   <g id="line2d_22">
    <path d="M 104.760375 200.840216 
L 151.102625 161.485632 
L 197.444875 138.558514 
L 243.787125 123.177477 
L 290.129375 111.472208 
L 336.471625 102.534818 
L 382.813875 95.165597 
L 429.156125 89.370443 
L 475.498375 84.276837 
L 521.840625 79.923102 
L 568.182875 75.799286 
L 614.525125 72.44187 
L 660.867375 69.296687 
L 707.209625 66.61429 
L 753.551875 63.887679 
L 799.894125 61.632697 
L 846.236375 59.5251 
L 892.578625 57.582574 
L 938.920875 55.84049 
L 985.263125 54.266425 
" clip-path="url(#p051fa0bb76)" style="fill: none; stroke: #f15c80; stroke-linecap: square"/>
   </g>
   <g id="line2d_23">
    <path d="M 104.760375 198.231512 
L 151.102625 161.927785 
L 197.444875 140.707379 
L 243.787125 126.455307 
L 290.129375 115.858368 
L 336.471625 107.519358 
L 382.813875 100.816315 
L 429.156125 95.050637 
L 475.498375 90.042515 
L 521.840625 85.794897 
L 568.182875 82.216403 
L 614.525125 78.82951 
L 660.867375 76.008572 
L 707.209625 73.379235 
L 753.551875 71.035823 
L 799.894125 68.780841 
L 846.236375 66.749884 
L 892.578625 64.816201 
L 938.920875 63.068222 
L 985.263125 61.482365 
" clip-path="url(#p051fa0bb76)" style="fill: none; stroke: #e4d354; stroke-linecap: square"/>
   </g>
   <g id="line2d_24">
    <path d="M 104.760375 203.036243 
L 151.102625 164.975695 
L 197.444875 142.697068 
L 243.787125 127.805348 
L 290.129375 116.40369 
L 336.471625 107.507567 
L 382.813875 100.518599 
L 429.156125 94.764712 
L 475.498375 89.915765 
L 521.840625 85.61214 
L 568.182875 81.508958 
L 614.525125 78.048373 
L 660.867375 75.009306 
L 707.209625 72.150049 
L 753.551875 69.650409 
L 799.894125 67.377742 
L 846.236375 65.55607 
L 892.578625 63.672498 
L 938.920875 61.942205 
L 985.263125 60.376982 
" clip-path="url(#p051fa0bb76)" style="fill: none; stroke: #2b908f; stroke-linecap: square"/>
   </g>
   <g id="line2d_25">
    <path d="M 104.760375 222.723852 
L 151.102625 186.187258 
L 197.444875 165.043491 
L 243.787125 150.602767 
L 290.129375 139.498826 
L 336.471625 130.632181 
L 382.813875 123.946824 
L 429.156125 118.030814 
L 475.498375 113.099332 
L 521.840625 108.95783 
L 568.182875 105.282063 
L 614.525125 102.02192 
L 660.867375 98.979906 
L 707.209625 96.38594 
L 753.551875 94.060214 
L 799.894125 91.793442 
L 846.236375 89.791962 
L 892.578625 87.896598 
L 938.920875 86.281265 
L 985.263125 84.660037 
" clip-path="url(#p051fa0bb76)" style="fill: none; stroke: #f45b5b; stroke-linecap: square"/>
   </g>
   <g id="line2d_26">
    <path d="M 104.760375 204.964031 
L 151.102625 167.961703 
L 197.444875 146.814988 
L 243.787125 132.297624 
L 290.129375 121.397074 
L 336.471625 112.7574 
L 382.813875 105.792013 
L 429.156125 100.055812 
L 475.498375 95.203917 
L 521.840625 90.90324 
L 568.182875 87.003449 
L 614.525125 83.522229 
L 660.867375 80.6276 
L 707.209625 78.015948 
L 753.551875 75.50157 
L 799.894125 73.187635 
L 846.236375 71.059404 
L 892.578625 69.105087 
L 938.920875 67.250991 
L 985.263125 65.682821 
" clip-path="url(#p051fa0bb76)" style="fill: none; stroke: #91e8e1; stroke-linecap: square"/>
   </g>
   <g id="line2d_27">
    <path d="M 104.760375 201.229311 
L 151.102625 163.979376 
L 197.444875 142.753074 
L 243.787125 128.571747 
L 290.129375 117.733097 
L 336.471625 109.028574 
L 382.813875 102.027815 
L 429.156125 96.179602 
L 475.498375 91.416138 
L 521.840625 87.124304 
L 568.182875 83.422008 
L 614.525125 80.035114 
L 660.867375 76.898774 
L 707.209625 74.145633 
L 753.551875 71.601779 
L 799.894125 69.39396 
L 846.236375 67.401323 
L 892.578625 65.609129 
L 938.920875 63.940737 
L 985.263125 62.38141 
" clip-path="url(#p051fa0bb76)" style="fill: none; stroke: #7cb5ec; stroke-linecap: square"/>
   </g>
   <g id="line2d_28">
    <path d="M 104.760375 201.697993 
L 151.102625 165.916007 
L 197.444875 145.898257 
L 243.787125 132.002856 
L 290.129375 121.862808 
L 336.471625 113.697712 
L 382.813875 107.059519 
L 429.156125 101.55029 
L 475.498375 96.707238 
L 521.840625 92.518573 
L 568.182875 88.913551 
L 614.525125 85.665199 
L 660.867375 82.611394 
L 707.209625 80.105859 
L 753.551875 77.715284 
L 799.894125 75.640111 
L 846.236375 73.644526 
L 892.578625 71.902443 
L 938.920875 70.216365 
L 985.263125 68.715992 
" clip-path="url(#p051fa0bb76)" style="fill: none; stroke: #434348; stroke-linecap: square"/>
   </g>
   <g id="line2d_29">
    <path d="M 104.760375 212.766562 
L 151.102625 176.834244 
L 197.444875 156.645528 
L 243.787125 142.499573 
L 290.129375 132.274043 
L 336.471625 123.902609 
L 382.813875 117.052181 
L 429.156125 111.377882 
L 475.498375 106.48472 
L 521.840625 102.207624 
L 568.182875 98.5407 
L 614.525125 95.274662 
L 660.867375 92.150112 
L 707.209625 89.367495 
L 753.551875 86.729314 
L 799.894125 84.683618 
L 846.236375 82.620237 
L 892.578625 80.801513 
L 938.920875 79.024057 
L 985.263125 77.529579 
" clip-path="url(#p051fa0bb76)" style="fill: none; stroke: #90ed7d; stroke-linecap: square"/>
   </g>
   <g id="line2d_30">
    <path d="M 104.760375 209.264708 
L 151.102625 174.561576 
L 197.444875 153.93955 
L 243.787125 139.507669 
L 290.129375 128.981475 
L 336.471625 120.235685 
L 382.813875 113.488427 
L 429.156125 107.749278 
L 475.498375 102.676307 
L 521.840625 98.528909 
L 568.182875 94.755869 
L 614.525125 91.380766 
L 660.867375 88.374124 
L 707.209625 85.544343 
L 753.551875 82.988698 
L 799.894125 80.574541 
L 846.236375 78.508212 
L 892.578625 76.630535 
L 938.920875 74.779386 
L 985.263125 72.95182 
" clip-path="url(#p051fa0bb76)" style="fill: none; stroke: #f7a35c; stroke-linecap: square"/>
   </g>
   <g id="line2d_31">
    <path d="M 104.760375 207.445985 
L 151.102625 172.412712 
L 197.444875 152.427386 
L 243.787125 138.449449 
L 290.129375 127.805348 
L 336.471625 119.949759 
L 382.813875 113.453054 
L 429.156125 107.758121 
L 475.498375 103.047715 
L 521.840625 99.086022 
L 568.182875 95.678495 
L 614.525125 92.66301 
L 660.867375 90.001248 
L 707.209625 87.781639 
L 753.551875 85.567925 
L 799.894125 83.560549 
L 846.236375 81.715297 
L 892.578625 80.073434 
L 938.920875 78.534741 
L 985.263125 77.119851 
" clip-path="url(#p051fa0bb76)" style="fill: none; stroke: #8085e9; stroke-linecap: square"/>
   </g>
   <g id="line2d_32">
    <path d="M 104.760375 199.316261 
L 151.102625 165.158451 
L 197.444875 146.210712 
L 243.787125 133.2851 
L 290.129375 123.038936 
L 336.471625 115.15387 
L 382.813875 108.792759 
L 429.156125 103.566508 
L 475.498375 98.817783 
L 521.840625 94.829561 
L 568.182875 91.254015 
L 614.525125 88.158943 
L 660.867375 85.231888 
L 707.209625 82.623184 
L 753.551875 80.444843 
L 799.894125 78.405043 
L 846.236375 76.377033 
L 892.578625 74.564205 
L 938.920875 72.895814 
L 985.263125 71.457342 
" clip-path="url(#p051fa0bb76)" style="fill: none; stroke: #f15c80; stroke-linecap: square"/>
   </g>
   <g id="line2d_33">
    <path d="M 104.760375 196.539539 
L 151.102625 162.399415 
L 197.444875 142.912249 
L 243.787125 129.341093 
L 290.129375 119.557716 
L 336.471625 111.678546 
L 382.813875 105.264377 
L 429.156125 100.123609 
L 475.498375 95.542901 
L 521.840625 91.584156 
L 568.182875 88.076407 
L 614.525125 84.951858 
L 660.867375 82.186927 
L 707.209625 79.760979 
L 753.551875 77.42641 
L 799.894125 75.318813 
L 846.236375 73.449979 
L 892.578625 71.713791 
L 938.920875 70.080772 
L 985.263125 68.654091 
" clip-path="url(#p051fa0bb76)" style="fill: none; stroke: #e4d354; stroke-linecap: square"/>
   </g>
   <g id="line2d_34">
    <path d="M 104.760375 210.794559 
L 151.102625 176.144485 
L 197.444875 156.141473 
L 243.787125 142.37577 
L 290.129375 131.943902 
L 336.471625 123.610788 
L 382.813875 116.881216 
L 429.156125 111.109642 
L 475.498375 106.107416 
L 521.840625 101.662302 
L 568.182875 97.965901 
L 614.525125 94.635013 
L 660.867375 91.48983 
L 707.209625 88.742585 
L 753.551875 86.166306 
L 799.894125 83.861213 
L 846.236375 81.591494 
L 892.578625 79.781613 
L 938.920875 78.024791 
L 985.263125 76.335766 
" clip-path="url(#p051fa0bb76)" style="fill: none; stroke: #2b908f; stroke-linecap: square"/>
   </g>
   <g id="line2d_35">
    <path d="M 104.760375 219.578669 
L 151.102625 186.225578 
L 197.444875 167.717045 
L 243.787125 154.349279 
L 290.129375 144.41557 
L 336.471625 136.223945 
L 382.813875 129.576908 
L 429.156125 124.103051 
L 475.498375 119.54003 
L 521.840625 115.342522 
L 568.182875 111.554743 
L 614.525125 108.138373 
L 660.867375 105.178894 
L 707.209625 102.502393 
L 753.551875 100.002753 
L 799.894125 97.7124 
L 846.236375 95.631332 
L 892.578625 93.774289 
L 938.920875 92.052839 
L 985.263125 90.466982 
" clip-path="url(#p051fa0bb76)" style="fill: none; stroke: #f45b5b; stroke-linecap: square"/>
   </g>
   <g id="line2d_36">
    <path d="M 104.760375 213.647921 
L 151.102625 178.490845 
L 197.444875 157.907139 
L 243.787125 143.887934 
L 290.129375 133.096448 
L 336.471625 124.5511 
L 382.813875 117.61519 
L 429.156125 112.076484 
L 475.498375 107.088996 
L 521.840625 102.738208 
L 568.182875 98.971063 
L 614.525125 95.575326 
L 660.867375 92.668905 
L 707.209625 90.07494 
L 753.551875 87.775743 
L 799.894125 85.626879 
L 846.236375 83.666666 
L 892.578625 81.827309 
L 938.920875 80.058696 
L 985.263125 78.508212 
" clip-path="url(#p051fa0bb76)" style="fill: none; stroke: #91e8e1; stroke-linecap: square"/>
   </g>
   <g id="line2d_37">
    <path d="M 104.760375 198.532176 
L 151.102625 159.811345 
L 197.444875 137.529771 
L 243.787125 122.558463 
L 290.129375 111.436836 
L 336.471625 103.027081 
L 382.813875 95.887781 
L 429.156125 90.030725 
L 475.498375 85.17883 
L 521.840625 80.972479 
L 568.182875 77.270183 
L 614.525125 73.945191 
L 660.867375 71.056456 
L 707.209625 68.506706 
L 753.551875 66.222248 
L 799.894125 64.114651 
L 846.236375 62.089589 
L 892.578625 60.294447 
L 938.920875 58.578893 
L 985.263125 57.01367 
" clip-path="url(#p051fa0bb76)" style="fill: none; stroke: #7cb5ec; stroke-linecap: square"/>
   </g>
   <g id="line2d_38">
    <path d="M 104.760375 216.221252 
L 151.102625 182.555707 
L 197.444875 163.457635 
L 243.787125 150.667617 
L 290.129375 140.97267 
L 336.471625 133.17014 
L 382.813875 126.496574 
L 429.156125 120.946077 
L 475.498375 116.468539 
L 521.840625 112.403677 
L 568.182875 108.946039 
L 614.525125 105.662315 
L 660.867375 102.770633 
L 707.209625 100.206144 
L 753.551875 97.836203 
L 799.894125 95.796403 
L 846.236375 93.827347 
L 892.578625 91.982094 
L 938.920875 90.413924 
L 985.263125 88.866388 
" clip-path="url(#p051fa0bb76)" style="fill: none; stroke: #434348; stroke-linecap: square"/>
   </g>
   <g id="line2d_39">
    <path d="M 104.760375 211.855726 
L 151.102625 176.353771 
L 197.444875 156.43919 
L 243.787125 142.237229 
L 290.129375 131.976326 
L 336.471625 123.873132 
L 382.813875 117.175984 
L 429.156125 111.575377 
L 475.498375 106.570203 
L 521.840625 102.284264 
L 568.182875 98.581968 
L 614.525125 95.17444 
L 660.867375 92.15306 
L 707.209625 89.414658 
L 753.551875 87.1302 
L 799.894125 84.984283 
L 846.236375 82.891424 
L 892.578625 81.078596 
L 938.920875 79.265768 
L 985.263125 77.682859 
" clip-path="url(#p051fa0bb76)" style="fill: none; stroke: #90ed7d; stroke-linecap: square"/>
   </g>
   <g id="line2d_40">
    <path d="M 104.760375 218.393698 
L 151.102625 184.510024 
L 197.444875 164.993381 
L 243.787125 151.386853 
L 290.129375 140.73096 
L 336.471625 132.677876 
L 382.813875 125.809763 
L 429.156125 120.185574 
L 475.498375 115.342522 
L 521.840625 111.242288 
L 568.182875 107.54294 
L 614.525125 104.324064 
L 660.867375 101.308579 
L 707.209625 98.643869 
L 753.551875 96.167811 
L 799.894125 94.086743 
L 846.236375 92.014519 
L 892.578625 90.042515 
L 938.920875 88.403601 
L 985.263125 86.829535 
" clip-path="url(#p051fa0bb76)" style="fill: none; stroke: #f7a35c; stroke-linecap: square"/>
   </g>
   <g id="line2d_41">
    <path d="M 104.760375 211.699499 
L 151.102625 174.868136 
L 197.444875 153.420757 
L 243.787125 138.511351 
L 290.129375 127.49584 
L 336.471625 118.932806 
L 382.813875 111.616645 
L 429.156125 105.659367 
L 475.498375 100.309313 
L 521.840625 95.852409 
L 568.182875 91.817024 
L 614.525125 88.270955 
L 660.867375 85.069766 
L 707.209625 82.281253 
L 753.551875 79.666653 
L 799.894125 77.31145 
L 846.236375 75.065312 
L 892.578625 73.093309 
L 938.920875 71.168468 
L 985.263125 69.514815 
" clip-path="url(#p051fa0bb76)" style="fill: none; stroke: #8085e9; stroke-linecap: square"/>
   </g>
   <g id="line2d_42">
    <path d="M 104.760375 205.350179 
L 151.102625 169.488605 
L 197.444875 148.80173 
L 243.787125 134.649879 
L 290.129375 123.955667 
L 336.471625 115.731617 
L 382.813875 108.630637 
L 429.156125 102.682202 
L 475.498375 97.806726 
L 521.840625 93.523735 
L 568.182875 89.688793 
L 614.525125 86.251788 
L 660.867375 83.186193 
L 707.209625 80.438948 
L 753.551875 77.853825 
L 799.894125 75.622425 
L 846.236375 73.656317 
L 892.578625 71.746215 
L 938.920875 70.051295 
L 985.263125 68.41238 
" clip-path="url(#p051fa0bb76)" style="fill: none; stroke: #f15c80; stroke-linecap: square"/>
   </g>
   <g id="line2d_43">
    <path d="M 104.760375 196.571963 
L 151.102625 156.996303 
L 197.444875 134.694095 
L 243.787125 119.740473 
L 290.129375 108.624741 
L 336.471625 99.964434 
L 382.813875 92.763232 
L 429.156125 86.882594 
L 475.498375 81.88921 
L 521.840625 77.33798 
L 568.182875 73.391025 
L 614.525125 70.13383 
L 660.867375 67.221514 
L 707.209625 64.636392 
L 753.551875 62.154438 
L 799.894125 59.917143 
L 846.236375 57.892081 
L 892.578625 56.058619 
L 938.920875 54.301797 
L 985.263125 52.656987 
" clip-path="url(#p051fa0bb76)" style="fill: none; stroke: #e4d354; stroke-linecap: square"/>
   </g>
   <g id="line2d_44">
    <path d="M 104.760375 197.040646 
L 151.102625 159.663961 
L 197.444875 138.791381 
L 243.787125 124.527519 
L 290.129375 113.467793 
L 336.471625 105.226057 
L 382.813875 98.602602 
L 429.156125 92.916511 
L 475.498375 88.03514 
L 521.840625 83.990912 
L 568.182875 80.232609 
L 614.525125 76.710122 
L 660.867375 73.850865 
L 707.209625 71.065299 
L 753.551875 68.836847 
L 799.894125 66.687983 
L 846.236375 64.733665 
L 892.578625 62.832407 
L 938.920875 61.140434 
L 985.263125 59.501519 
" clip-path="url(#p051fa0bb76)" style="fill: none; stroke: #2b908f; stroke-linecap: square"/>
   </g>
   <g id="line2d_45">
    <path d="M 104.760375 214.402529 
L 151.102625 180.061962 
L 197.444875 160.00884 
L 243.787125 146.007322 
L 290.129375 135.66978 
L 336.471625 127.436887 
L 382.813875 120.58646 
L 429.156125 114.638025 
L 475.498375 109.738967 
L 521.840625 105.511983 
L 568.182875 101.682936 
L 614.525125 98.219402 
L 660.867375 95.206865 
L 707.209625 92.539207 
L 753.551875 89.918712 
L 799.894125 87.604777 
L 846.236375 85.317371 
L 892.578625 83.374845 
L 938.920875 81.550226 
L 985.263125 79.937841 
" clip-path="url(#p051fa0bb76)" style="fill: none; stroke: #f45b5b; stroke-linecap: square"/>
   </g>
   <g id="line2d_46">
    <path d="M 104.760375 199.050969 
L 151.102625 162.101699 
L 197.444875 141.258596 
L 243.787125 126.567319 
L 290.129375 115.822996 
L 336.471625 107.003513 
L 382.813875 100.102975 
L 429.156125 94.021894 
L 475.498375 89.099255 
L 521.840625 85.016707 
L 568.182875 81.140497 
L 614.525125 77.912779 
L 660.867375 74.882555 
L 707.209625 72.335753 
L 753.551875 69.965812 
L 799.894125 67.687249 
L 846.236375 65.732932 
L 892.578625 63.890627 
L 938.920875 62.242869 
L 985.263125 60.833874 
" clip-path="url(#p051fa0bb76)" style="fill: none; stroke: #91e8e1; stroke-linecap: square"/>
   </g>
   <g id="line2d_47">
    <path d="M 104.760375 202.629462 
L 151.102625 165.948432 
L 197.444875 144.654333 
L 243.787125 130.216557 
L 290.129375 119.457495 
L 336.471625 111.11259 
L 382.813875 104.120674 
L 429.156125 98.228245 
L 475.498375 93.299711 
L 521.840625 89.01672 
L 568.182875 85.488337 
L 614.525125 82.054281 
L 660.867375 79.2245 
L 707.209625 76.748442 
L 753.551875 74.263541 
L 799.894125 72.085199 
L 846.236375 70.033609 
L 892.578625 68.09403 
L 938.920875 66.348998 
L 985.263125 64.721875 
" clip-path="url(#p051fa0bb76)" style="fill: none; stroke: #7cb5ec; stroke-linecap: square"/>
   </g>
   <g id="line2d_48">
    <path d="M 104.760375 202.078245 
L 151.102625 166.655877 
L 197.444875 146.473056 
L 243.787125 132.592393 
L 290.129375 122.296119 
L 336.471625 114.366838 
L 382.813875 107.537044 
L 429.156125 101.856849 
L 475.498375 97.016745 
L 521.840625 92.713121 
L 568.182875 88.948923 
L 614.525125 85.559082 
L 660.867375 82.561283 
L 707.209625 79.911311 
L 753.551875 77.42641 
L 799.894125 75.091841 
L 846.236375 73.046146 
L 892.578625 71.351225 
L 938.920875 69.73884 
L 985.263125 68.194251 
" clip-path="url(#p051fa0bb76)" style="fill: none; stroke: #434348; stroke-linecap: square"/>
   </g>
   <g id="line2d_49">
    <path d="M 104.760375 200.984653 
L 151.102625 166.369951 
L 197.444875 146.599807 
L 243.787125 133.332263 
L 290.129375 123.628474 
L 336.471625 115.8171 
L 382.813875 109.211331 
L 429.156125 103.593038 
L 475.498375 98.714614 
L 521.840625 94.705758 
L 568.182875 91.112526 
L 614.525125 87.92018 
L 660.867375 84.884061 
L 707.209625 82.198717 
L 753.551875 79.775718 
L 799.894125 77.706441 
L 846.236375 75.793391 
L 892.578625 73.97172 
L 938.920875 72.341648 
L 985.263125 70.761688 
" clip-path="url(#p051fa0bb76)" style="fill: none; stroke: #90ed7d; stroke-linecap: square"/>
   </g>
   <g id="line2d_50">
    <path d="M 104.760375 198.296361 
L 151.102625 162.222554 
L 197.444875 141.774442 
L 243.787125 127.45752 
L 290.129375 116.969646 
L 336.471625 108.683695 
L 382.813875 101.853902 
L 429.156125 95.923153 
L 475.498375 91.041782 
L 521.840625 86.679203 
L 568.182875 82.923849 
L 614.525125 79.56938 
L 660.867375 76.459569 
L 707.209625 73.623893 
L 753.551875 71.26869 
L 799.894125 69.161093 
L 846.236375 67.183194 
L 892.578625 65.293726 
L 938.920875 63.616492 
L 985.263125 62.02474 
" clip-path="url(#p051fa0bb76)" style="fill: none; stroke: #f7a35c; stroke-linecap: square"/>
   </g>
   <g id="line2d_51">
    <path d="M 104.760375 192.510049 
L 151.102625 156.787017 
L 197.444875 136.489237 
L 243.787125 122.809016 
L 290.129375 112.892994 
L 336.471625 104.742636 
L 382.813875 98.29899 
L 429.156125 92.77797 
L 475.498375 88.170733 
L 521.840625 84.064604 
L 568.182875 80.533274 
L 614.525125 77.237758 
L 660.867375 74.449245 
L 707.209625 71.881809 
L 753.551875 69.441123 
L 799.894125 67.492701 
L 846.236375 65.567861 
L 892.578625 63.831673 
L 938.920875 62.213392 
L 985.263125 60.65996 
" clip-path="url(#p051fa0bb76)" style="fill: none; stroke: #8085e9; stroke-linecap: square"/>
   </g>
   <g id="line2d_52">
    <path d="M 104.760375 205.415028 
L 151.102625 169.824642 
L 197.444875 149.093551 
L 243.787125 134.711781 
L 290.129375 123.705114 
L 336.471625 115.044806 
L 382.813875 107.946773 
L 429.156125 102.207624 
L 475.498375 97.158234 
L 521.840625 92.813342 
L 568.182875 89.046197 
L 614.525125 85.629826 
L 660.867375 82.570126 
L 707.209625 79.84941 
L 753.551875 77.523684 
L 799.894125 75.171429 
L 846.236375 73.131629 
L 892.578625 71.295219 
L 938.920875 69.441123 
L 985.263125 67.813999 
" clip-path="url(#p051fa0bb76)" style="fill: none; stroke: #f15c80; stroke-linecap: square"/>
   </g>
   <g id="line2d_53">
    <path d="M 104.760375 200.91096 
L 151.102625 163.009587 
L 197.444875 141.627057 
L 243.787125 127.236444 
L 290.129375 116.088287 
L 336.471625 107.136159 
L 382.813875 99.805258 
L 429.156125 93.903987 
L 475.498375 88.913551 
L 521.840625 84.556868 
L 568.182875 80.766141 
L 614.525125 77.367457 
L 660.867375 74.416821 
L 707.209625 71.648942 
L 753.551875 69.161093 
L 799.894125 66.938536 
L 846.236375 64.945899 
L 892.578625 63.183181 
L 938.920875 61.479418 
L 985.263125 60.014417 
" clip-path="url(#p051fa0bb76)" style="fill: none; stroke: #e4d354; stroke-linecap: square"/>
   </g>
   <g id="line2d_54">
    <path d="M 104.760375 206.611789 
L 151.102625 171.52251 
L 197.444875 151.103874 
L 243.787125 137.099408 
L 290.129375 126.281393 
L 336.471625 117.747836 
L 382.813875 110.873827 
L 429.156125 104.984346 
L 475.498375 100.038126 
L 521.840625 95.719763 
L 568.182875 91.890716 
L 614.525125 88.477293 
L 660.867375 85.470651 
L 707.209625 82.87079 
L 753.551875 80.288615 
L 799.894125 77.786028 
L 846.236375 75.628321 
L 892.578625 73.750643 
L 938.920875 71.990873 
L 985.263125 70.242894 
" clip-path="url(#p051fa0bb76)" style="fill: none; stroke: #2b908f; stroke-linecap: square"/>
   </g>
   <g id="line2d_55">
    <path d="M 104.760375 223.731962 
L 151.102625 190.278649 
L 197.444875 171.095095 
L 243.787125 157.302863 
L 290.129375 146.994797 
L 336.471625 138.950556 
L 382.813875 132.439113 
L 429.156125 126.655749 
L 475.498375 121.898181 
L 521.840625 117.736045 
L 568.182875 114.051435 
L 614.525125 110.587901 
L 660.867375 107.58126 
L 707.209625 104.695473 
L 753.551875 102.337322 
L 799.894125 100.026335 
L 846.236375 97.936424 
L 892.578625 96.117701 
L 938.920875 94.360878 
L 985.263125 92.639429 
" clip-path="url(#p051fa0bb76)" style="fill: none; stroke: #f45b5b; stroke-linecap: square"/>
   </g>
   <g id="line2d_56">
    <path d="M 104.760375 214.526332 
L 151.102625 179.599175 
L 197.444875 159.501838 
L 243.787125 145.011003 
L 290.129375 134.617455 
L 336.471625 126.136956 
L 382.813875 119.059557 
L 429.156125 113.308618 
L 475.498375 108.327025 
L 521.840625 103.8318 
L 568.182875 99.793468 
L 614.525125 96.433103 
L 660.867375 93.52963 
L 707.209625 90.859025 
L 753.551875 88.338752 
L 799.894125 86.186939 
L 846.236375 83.979121 
L 892.578625 81.883315 
L 938.920875 80.07933 
L 985.263125 78.3962 
" clip-path="url(#p051fa0bb76)" style="fill: none; stroke: #91e8e1; stroke-linecap: square"/>
   </g>
   <g id="line2d_57">
    <path d="M 104.760375 231.979593 
L 151.102625 201.176252 
L 197.444875 183.106924 
L 243.787125 170.564511 
L 290.129375 160.831245 
L 336.471625 153.45613 
L 382.813875 147.062594 
L 429.156125 141.868768 
L 475.498375 137.285113 
L 521.840625 133.117082 
L 568.182875 129.694816 
L 614.525125 126.381614 
L 660.867375 123.425083 
L 707.209625 120.766268 
L 753.551875 118.287263 
L 799.894125 116.08534 
L 846.236375 114.098598 
L 892.578625 112.212078 
L 938.920875 110.416936 
L 985.263125 108.828132 
" clip-path="url(#p051fa0bb76)" style="fill: none; stroke: #7cb5ec; stroke-linecap: square"/>
   </g>
   <g id="line2d_58">
    <path d="M 104.760375 234.493971 
L 151.102625 204.156365 
L 197.444875 186.199049 
L 243.787125 173.812864 
L 290.129375 164.147394 
L 336.471625 156.409713 
L 382.813875 150.025021 
L 429.156125 144.795822 
L 475.498375 140.288807 
L 521.840625 136.120776 
L 568.182875 132.38016 
L 614.525125 129.173075 
L 660.867375 126.210648 
L 707.209625 123.525305 
L 753.551875 121.090514 
L 799.894125 118.982917 
L 846.236375 116.934274 
L 892.578625 115.097864 
L 938.920875 113.302722 
L 985.263125 111.690337 
" clip-path="url(#p051fa0bb76)" style="fill: none; stroke: #434348; stroke-linecap: square"/>
   </g>
   <g id="line2d_59">
    <path d="M 104.760375 205.642 
L 151.102625 170.676523 
L 197.444875 150.641087 
L 243.787125 136.943181 
L 290.129375 126.455307 
L 336.471625 118.390432 
L 382.813875 111.828878 
L 429.156125 106.184055 
L 475.498375 101.338056 
L 521.840625 97.332148 
L 568.182875 93.570898 
L 614.525125 90.237063 
L 660.867375 87.307061 
L 707.209625 84.7072 
L 753.551875 82.381474 
L 799.894125 80.194289 
L 846.236375 78.172175 
L 892.578625 76.262074 
L 938.920875 74.343129 
L 985.263125 72.713057 
" clip-path="url(#p051fa0bb76)" style="fill: none; stroke: #90ed7d; stroke-linecap: square"/>
   </g>
   <g id="line2d_60">
    <path d="M 104.760375 206.526306 
L 151.102625 168.663252 
L 197.444875 146.788459 
L 243.787125 131.917373 
L 290.129375 120.822275 
L 336.471625 112.014583 
L 382.813875 104.660101 
L 429.156125 99.006435 
L 475.498375 93.615113 
L 521.840625 89.052092 
L 568.182875 85.14051 
L 614.525125 81.771303 
L 660.867375 78.82951 
L 707.209625 76.108794 
L 753.551875 73.476508 
L 799.894125 71.168468 
L 846.236375 69.049081 
L 892.578625 67.194985 
L 938.920875 65.417529 
L 985.263125 63.763876 
" clip-path="url(#p051fa0bb76)" style="fill: none; stroke: #f7a35c; stroke-linecap: square"/>
   </g>
   <g id="line2d_61">
    <path d="M 104.760375 208.784235 
L 151.102625 172.433346 
L 197.444875 151.846692 
L 243.787125 137.688946 
L 290.129375 126.93578 
L 336.471625 118.543712 
L 382.813875 111.336614 
L 429.156125 105.547355 
L 475.498375 100.409534 
L 521.840625 95.929049 
L 568.182875 92.043996 
L 614.525125 88.642364 
L 660.867375 85.503076 
L 707.209625 82.779412 
L 753.551875 80.094068 
L 799.894125 77.830244 
L 846.236375 75.725594 
L 892.578625 73.912766 
L 938.920875 72.088147 
L 985.263125 70.519977 
" clip-path="url(#p051fa0bb76)" style="fill: none; stroke: #8085e9; stroke-linecap: square"/>
   </g>
   <g id="line2d_62">
    <path d="M 104.760375 215.99428 
L 151.102625 179.840886 
L 197.444875 158.661747 
L 243.787125 143.831928 
L 290.129375 132.792836 
L 336.471625 123.993987 
L 382.813875 116.842896 
L 429.156125 110.67928 
L 475.498375 105.447133 
L 521.840625 100.660088 
L 568.182875 96.707238 
L 614.525125 93.170012 
L 660.867375 89.8067 
L 707.209625 86.935652 
L 753.551875 84.306314 
L 799.894125 81.727087 
L 846.236375 79.557589 
L 892.578625 77.562004 
L 938.920875 75.740333 
L 985.263125 73.97172 
" clip-path="url(#p051fa0bb76)" style="fill: none; stroke: #f15c80; stroke-linecap: square"/>
   </g>
   <g id="line2d_63">
    <path d="M 104.760375 219.124725 
L 151.102625 185.880699 
L 197.444875 166.502597 
L 243.787125 153.170204 
L 290.129375 143.54895 
L 336.471625 135.398592 
L 382.813875 128.857672 
L 429.156125 123.17453 
L 475.498375 118.52013 
L 521.840625 114.299041 
L 568.182875 110.676332 
L 614.525125 107.534097 
L 660.867375 104.64831 
L 707.209625 101.833268 
L 753.551875 99.419111 
L 799.894125 97.193607 
L 846.236375 95.312982 
L 892.578625 93.308554 
L 938.920875 91.575313 
L 985.263125 90.045463 
" clip-path="url(#p051fa0bb76)" style="fill: none; stroke: #e4d354; stroke-linecap: square"/>
   </g>
   <g id="line2d_64">
    <path d="M 104.760375 208.574949 
L 151.102625 174.800339 
L 197.444875 155.602046 
L 243.787125 142.172379 
L 290.129375 132.135502 
L 336.471625 124.026412 
L 382.813875 117.290944 
L 429.156125 111.675598 
L 475.498375 107.133211 
L 521.840625 103.124355 
L 568.182875 99.566496 
L 614.525125 96.551011 
L 660.867375 93.789027 
L 707.209625 91.192114 
L 753.551875 88.898812 
L 799.894125 86.717523 
L 846.236375 84.74552 
L 892.578625 83.047652 
L 938.920875 81.432318 
L 985.263125 79.908364 
" clip-path="url(#p051fa0bb76)" style="fill: none; stroke: #2b908f; stroke-linecap: square"/>
   </g>
   <g id="line2d_65">
    <path d="M 104.760375 191.955884 
L 151.102625 152.84301 
L 197.444875 130.882734 
L 243.787125 116.094183 
L 290.129375 105.243743 
L 336.471625 96.710186 
L 382.813875 90.033672 
L 429.156125 84.489071 
L 475.498375 79.672549 
L 521.840625 75.551681 
L 568.182875 72.052775 
L 614.525125 68.612823 
L 660.867375 65.933374 
L 707.209625 63.304037 
L 753.551875 60.925252 
L 799.894125 58.752806 
L 846.236375 56.928187 
L 892.578625 55.171365 
L 938.920875 53.502974 
L 985.263125 52.085136 
" clip-path="url(#p051fa0bb76)" style="fill: none; stroke: #f45b5b; stroke-linecap: square"/>
   </g>
   <g id="line2d_66">
    <path d="M 104.760375 204.067934 
L 151.102625 167.056762 
L 197.444875 145.149544 
L 243.787125 130.470058 
L 290.129375 119.687415 
L 336.471625 111.009421 
L 382.813875 103.893702 
L 429.156125 97.644603 
L 475.498375 92.527416 
L 521.840625 88.011558 
L 568.182875 84.111767 
L 614.525125 80.71603 
L 660.867375 77.659278 
L 707.209625 74.861922 
L 753.551875 72.300381 
L 799.894125 69.998236 
L 846.236375 67.784523 
L 892.578625 65.871473 
L 938.920875 64.088122 
L 985.263125 62.463945 
" clip-path="url(#p051fa0bb76)" style="fill: none; stroke: #91e8e1; stroke-linecap: square"/>
   </g>
   <g id="line2d_67">
    <path d="M 104.760375 211.118804 
L 151.102625 176.26534 
L 197.444875 155.949874 
L 243.787125 141.968989 
L 290.129375 131.106758 
L 336.471625 122.788383 
L 382.813875 115.884897 
L 429.156125 110.098585 
L 475.498375 105.155312 
L 521.840625 100.931275 
L 568.182875 96.954844 
L 614.525125 93.600375 
L 660.867375 90.614367 
L 707.209625 87.875965 
L 753.551875 85.349796 
L 799.894125 83.021122 
L 846.236375 81.116916 
L 892.578625 79.259872 
L 938.920875 77.553161 
L 985.263125 75.81992 
" clip-path="url(#p051fa0bb76)" style="fill: none; stroke: #7cb5ec; stroke-linecap: square"/>
   </g>
   <g id="line2d_68">
    <path d="M 104.760375 206.555783 
L 151.102625 168.963917 
L 197.444875 147.065542 
L 243.787125 132.350683 
L 290.129375 121.385283 
L 336.471625 113.158285 
L 382.813875 106.048462 
L 429.156125 100.306365 
L 475.498375 95.422046 
L 521.840625 91.142003 
L 568.182875 87.551719 
L 614.525125 84.217884 
L 660.867375 81.14934 
L 707.209625 78.372618 
L 753.551875 75.987939 
L 799.894125 73.691689 
L 846.236375 71.678419 
L 892.578625 69.712311 
L 938.920875 67.926012 
L 985.263125 66.192771 
" clip-path="url(#p051fa0bb76)" style="fill: none; stroke: #434348; stroke-linecap: square"/>
   </g>
   <g id="line2d_69">
    <path d="M 104.760375 207.006779 
L 151.102625 169.297005 
L 197.444875 147.54012 
L 243.787125 132.483329 
L 290.129375 121.2998 
L 336.471625 112.391887 
L 382.813875 105.220161 
L 429.156125 99.209825 
L 475.498375 93.983574 
L 521.840625 89.76838 
L 568.182875 85.827321 
L 614.525125 82.225247 
L 660.867375 79.083011 
L 707.209625 76.332818 
L 753.551875 73.81844 
L 799.894125 71.554616 
L 846.236375 69.505972 
L 892.578625 67.598818 
L 938.920875 65.765356 
L 985.263125 64.091069 
" clip-path="url(#p051fa0bb76)" style="fill: none; stroke: #90ed7d; stroke-linecap: square"/>
   </g>
   <g id="line2d_70">
    <path d="M 104.760375 205.703901 
L 151.102625 170.0693 
L 197.444875 150.12819 
L 243.787125 136.3448 
L 290.129375 125.845135 
L 336.471625 117.414747 
L 382.813875 110.726443 
L 429.156125 104.892968 
L 475.498375 100.067603 
L 521.840625 95.911362 
L 568.182875 92.223805 
L 614.525125 89.007877 
L 660.867375 86.340219 
L 707.209625 83.542863 
L 753.551875 81.102177 
L 799.894125 78.646753 
L 846.236375 76.642325 
L 892.578625 74.758753 
L 938.920875 73.034355 
L 985.263125 71.42197 
" clip-path="url(#p051fa0bb76)" style="fill: none; stroke: #f7a35c; stroke-linecap: square"/>
   </g>
   <g id="line2d_71">
    <path d="M 104.760375 208.044366 
L 151.102625 171.0892 
L 197.444875 149.635926 
L 243.787125 134.729467 
L 290.129375 123.73459 
L 336.471625 114.853206 
L 382.813875 107.93793 
L 429.156125 102.018972 
L 475.498375 96.907681 
L 521.840625 92.54805 
L 568.182875 88.648259 
L 614.525125 85.199464 
L 660.867375 82.225247 
L 707.209625 79.433786 
L 753.551875 76.937094 
L 799.894125 74.552414 
L 846.236375 72.447765 
L 892.578625 70.558297 
L 938.920875 68.633457 
L 985.263125 66.947379 
" clip-path="url(#p051fa0bb76)" style="fill: none; stroke: #8085e9; stroke-linecap: square"/>
   </g>
   <g id="line2d_72">
    <path d="M 104.760375 207.988359 
L 151.102625 172.960982 
L 197.444875 153.35296 
L 243.787125 139.828967 
L 290.129375 129.933578 
L 336.471625 121.756692 
L 382.813875 115.183347 
L 429.156125 109.585688 
L 475.498375 104.778008 
L 521.840625 100.686617 
L 568.182875 96.833989 
L 614.525125 93.438252 
L 660.867375 90.487616 
L 707.209625 87.873017 
L 753.551875 85.402854 
L 799.894125 83.10071 
L 846.236375 81.06091 
L 892.578625 79.200919 
L 938.920875 77.508946 
L 985.263125 75.796339 
" clip-path="url(#p051fa0bb76)" style="fill: none; stroke: #f15c80; stroke-linecap: square"/>
   </g>
   <g id="line2d_73">
    <path d="M 104.760375 208.966992 
L 151.102625 172.07078 
L 197.444875 151.115665 
L 243.787125 136.515766 
L 290.129375 125.792077 
L 336.471625 117.473701 
L 382.813875 110.523052 
L 429.156125 104.604095 
L 475.498375 99.401425 
L 521.840625 94.956311 
L 568.182875 91.103683 
L 614.525125 87.587091 
L 660.867375 84.494966 
L 707.209625 81.635709 
L 753.551875 79.256925 
L 799.894125 76.951833 
L 846.236375 74.853079 
L 892.578625 72.940029 
L 938.920875 71.253951 
L 985.263125 69.703467 
" clip-path="url(#p051fa0bb76)" style="fill: none; stroke: #e4d354; stroke-linecap: square"/>
   </g>
   <g id="line2d_74">
    <path d="M 104.760375 218.113668 
L 151.102625 183.43117 
L 197.444875 163.186448 
L 243.787125 149.03165 
L 290.129375 138.487769 
L 336.471625 130.243086 
L 382.813875 123.481089 
L 429.156125 117.694777 
L 475.498375 112.645388 
L 521.840625 108.483252 
L 568.182875 104.657153 
L 614.525125 101.276155 
L 660.867375 98.287199 
L 707.209625 95.72271 
L 753.551875 93.340978 
L 799.894125 91.071259 
L 846.236375 88.943028 
L 892.578625 87.177363 
L 938.920875 85.340953 
L 985.263125 83.628346 
" clip-path="url(#p051fa0bb76)" style="fill: none; stroke: #2b908f; stroke-linecap: square"/>
   </g>
   <g id="line2d_75">
    <path d="M 104.760375 209.376721 
L 151.102625 174.084051 
L 197.444875 152.966813 
L 243.787125 138.502508 
L 290.129375 127.631434 
L 336.471625 119.083139 
L 382.813875 112.147228 
L 429.156125 106.313754 
L 475.498375 101.388167 
L 521.840625 97.004955 
L 568.182875 93.32624 
L 614.525125 90.119155 
L 660.867375 87.041769 
L 707.209625 84.279785 
L 753.551875 81.756564 
L 799.894125 79.528112 
L 846.236375 77.514841 
L 892.578625 75.560524 
L 938.920875 73.827283 
L 985.263125 72.194264 
" clip-path="url(#p051fa0bb76)" style="fill: none; stroke: #f45b5b; stroke-linecap: square"/>
   </g>
   <g id="line2d_76">
    <path d="M 104.760375 218.877119 
L 151.102625 187.938185 
L 197.444875 170.14594 
L 243.787125 157.635951 
L 290.129375 148.076599 
L 336.471625 140.633686 
L 382.813875 134.4966 
L 429.156125 129.114121 
L 475.498375 124.624792 
L 521.840625 120.565826 
L 568.182875 117.117031 
L 614.525125 113.983638 
L 660.867375 111.080165 
L 707.209625 108.385978 
L 753.551875 105.915816 
L 799.894125 103.731579 
L 846.236375 101.688831 
L 892.578625 99.852421 
L 938.920875 98.10739 
L 985.263125 96.515638 
" clip-path="url(#p051fa0bb76)" style="fill: none; stroke: #91e8e1; stroke-linecap: square"/>
   </g>
   <g id="line2d_77">
    <path d="M 104.760375 200.616192 
L 151.102625 162.803249 
L 197.444875 141.161322 
L 243.787125 126.405196 
L 290.129375 115.554756 
L 336.471625 107.168583 
L 382.813875 100.288679 
L 429.156125 94.475838 
L 475.498375 89.721217 
L 521.840625 85.391064 
L 568.182875 81.62097 
L 614.525125 78.216391 
L 660.867375 75.289336 
L 707.209625 72.716005 
L 753.551875 70.405017 
L 799.894125 68.350479 
L 846.236375 66.316574 
L 892.578625 64.742508 
L 938.920875 63.012215 
L 985.263125 61.423412 
" clip-path="url(#p051fa0bb76)" style="fill: none; stroke: #7cb5ec; stroke-linecap: square"/>
   </g>
   <g id="line2d_78">
    <path d="M 104.760375 206.213851 
L 151.102625 170.352278 
L 197.444875 149.347052 
L 243.787125 134.932858 
L 290.129375 123.946824 
L 336.471625 115.504645 
L 382.813875 108.344711 
L 429.156125 102.555451 
L 475.498375 97.7124 
L 521.840625 93.426461 
L 568.182875 89.591519 
L 614.525125 86.284213 
L 660.867375 83.256937 
L 707.209625 80.456634 
L 753.551875 77.989419 
L 799.894125 75.811077 
L 846.236375 73.635683 
L 892.578625 71.802221 
L 938.920875 70.101405 
L 985.263125 68.465438 
" clip-path="url(#p051fa0bb76)" style="fill: none; stroke: #434348; stroke-linecap: square"/>
   </g>
   <g id="line2d_79">
    <path d="M 104.760375 190.219696 
L 151.102625 151.714046 
L 197.444875 129.789142 
L 243.787125 115.289464 
L 290.129375 104.601147 
L 336.471625 96.273928 
L 382.813875 89.464769 
L 429.156125 83.819946 
L 475.498375 79.080063 
L 521.840625 74.938562 
L 568.182875 71.321748 
L 614.525125 68.332793 
L 660.867375 65.455849 
L 707.209625 63.059378 
L 753.551875 60.751339 
L 799.894125 58.708591 
L 846.236375 56.931135 
L 892.578625 55.239162 
L 938.920875 53.656253 
L 985.263125 52.167671 
" clip-path="url(#p051fa0bb76)" style="fill: none; stroke: #90ed7d; stroke-linecap: square"/>
   </g>
   <g id="line2d_80">
    <path d="M 104.760375 213.037749 
L 151.102625 175.466517 
L 197.444875 153.476763 
L 243.787125 138.414077 
L 290.129375 127.009472 
L 336.471625 118.243047 
L 382.813875 111.097852 
L 429.156125 104.769165 
L 475.498375 99.731566 
L 521.840625 95.177388 
L 568.182875 91.189166 
L 614.525125 87.619516 
L 660.867375 84.574554 
L 707.209625 81.85089 
L 753.551875 79.436734 
L 799.894125 77.034368 
L 846.236375 74.9533 
L 892.578625 72.972454 
L 938.920875 71.251004 
L 985.263125 69.579665 
" clip-path="url(#p051fa0bb76)" style="fill: none; stroke: #f7a35c; stroke-linecap: square"/>
   </g>
   <g id="line2d_81">
    <path d="M 104.760375 214.022277 
L 151.102625 178.561589 
L 197.444875 158.004412 
L 243.787125 143.469362 
L 290.129375 132.963802 
L 336.471625 124.409611 
L 382.813875 117.523812 
L 429.156125 111.486946 
L 475.498375 106.422818 
L 521.840625 101.977705 
L 568.182875 97.94232 
L 614.525125 94.322559 
L 660.867375 91.153794 
L 707.209625 88.492031 
L 753.551875 85.780158 
L 799.894125 83.321787 
L 846.236375 81.14934 
L 892.578625 79.333565 
L 938.920875 77.679911 
L 985.263125 75.867083 
" clip-path="url(#p051fa0bb76)" style="fill: none; stroke: #8085e9; stroke-linecap: square"/>
   </g>
   <g id="line2d_82">
    <path d="M 104.760375 207.419456 
L 151.102625 172.333124 
L 197.444875 151.994076 
L 243.787125 138.275536 
L 290.129375 128.135489 
L 336.471625 120.061771 
L 382.813875 113.621073 
L 429.156125 107.78465 
L 475.498375 103.103721 
L 521.840625 98.965167 
L 568.182875 95.380779 
L 614.525125 91.914297 
L 660.867375 89.004929 
L 707.209625 86.254736 
L 753.551875 83.96733 
L 799.894125 81.750669 
L 846.236375 79.722659 
L 892.578625 77.954046 
L 938.920875 76.344609 
L 985.263125 74.873712 
" clip-path="url(#p051fa0bb76)" style="fill: none; stroke: #f15c80; stroke-linecap: square"/>
   </g>
   <g id="line2d_83">
    <path d="M 104.760375 209.756972 
L 151.102625 174.764967 
L 197.444875 154.529088 
L 243.787125 140.406714 
L 290.129375 130.083911 
L 336.471625 121.718372 
L 382.813875 114.791305 
L 429.156125 108.901824 
L 475.498375 103.861277 
L 521.840625 99.590077 
L 568.182875 95.846513 
L 614.525125 92.377084 
L 660.867375 89.396972 
L 707.209625 86.511185 
L 753.551875 83.91722 
L 799.894125 81.674029 
L 846.236375 79.525164 
L 892.578625 77.553161 
L 938.920875 75.766862 
L 985.263125 74.110261 
" clip-path="url(#p051fa0bb76)" style="fill: none; stroke: #e4d354; stroke-linecap: square"/>
   </g>
   <g id="line2d_84">
    <path d="M 104.760375 214.272831 
L 151.102625 180.857838 
L 197.444875 161.65365 
L 243.787125 148.17682 
L 290.129375 138.172367 
L 336.471625 130.128126 
L 382.813875 123.864289 
L 429.156125 118.027866 
L 475.498375 113.394101 
L 521.840625 109.249651 
L 568.182875 105.674105 
L 614.525125 102.319636 
L 660.867375 99.448588 
L 707.209625 96.80746 
L 753.551875 94.357931 
L 799.894125 91.843553 
L 846.236375 89.75659 
L 892.578625 87.817011 
L 938.920875 85.998287 
L 985.263125 84.359373 
" clip-path="url(#p051fa0bb76)" style="fill: none; stroke: #2b908f; stroke-linecap: square"/>
   </g>
   <g id="line2d_85">
    <path d="M 104.760375 209.783502 
L 151.102625 173.249855 
L 197.444875 152.103141 
L 243.787125 137.730214 
L 290.129375 126.988838 
L 336.471625 118.369798 
L 382.813875 111.180387 
L 429.156125 105.305644 
L 475.498375 100.250359 
L 521.840625 95.663757 
L 568.182875 91.787547 
L 614.525125 88.471398 
L 660.867375 85.488337 
L 707.209625 82.634975 
L 753.551875 80.12944 
L 799.894125 77.812557 
L 846.236375 75.775705 
L 892.578625 73.812545 
L 938.920875 72.017403 
L 985.263125 70.387331 
" clip-path="url(#p051fa0bb76)" style="fill: none; stroke: #f45b5b; stroke-linecap: square"/>
   </g>
   <g id="line2d_86">
    <path d="M 104.760375 199.560919 
L 151.102625 163.510694 
L 197.444875 143.321978 
L 243.787125 129.296878 
L 290.129375 118.86501 
L 336.471625 110.661594 
L 382.813875 103.943812 
L 429.156125 98.346153 
L 475.498375 93.264338 
L 521.840625 89.128732 
L 568.182875 85.376325 
L 614.525125 81.995327 
L 660.867375 79.097749 
L 707.209625 76.379981 
L 753.551875 73.788963 
L 799.894125 71.504505 
L 846.236375 69.473548 
L 892.578625 67.557551 
L 938.920875 65.759461 
L 985.263125 64.21782 
" clip-path="url(#p051fa0bb76)" style="fill: none; stroke: #91e8e1; stroke-linecap: square"/>
   </g>
   <g id="line2d_87">
    <path d="M 104.760375 182.776783 
L 151.102625 143.746445 
L 197.444875 122.216531 
L 243.787125 107.31302 
L 290.129375 96.506795 
L 336.471625 88.35349 
L 382.813875 81.447057 
L 429.156125 75.758019 
L 475.498375 71.248056 
L 521.840625 67.374794 
L 568.182875 63.867045 
L 614.525125 60.875142 
L 660.867375 58.216327 
L 707.209625 55.75206 
L 753.551875 53.567823 
L 799.894125 51.507389 
L 846.236375 49.617921 
L 892.578625 47.946582 
L 938.920875 46.455051 
L 985.263125 45.001841 
" clip-path="url(#p051fa0bb76)" style="fill: none; stroke: #7cb5ec; stroke-linecap: square"/>
   </g>
   <g id="line2d_88">
    <path d="M 104.760375 222.17853 
L 151.102625 187.310327 
L 197.444875 167.239519 
L 243.787125 153.824591 
L 290.129375 143.095006 
L 336.471625 134.944648 
L 382.813875 127.893778 
L 429.156125 122.284328 
L 475.498375 117.223147 
L 521.840625 112.754452 
L 568.182875 108.872347 
L 614.525125 105.391127 
L 660.867375 102.478812 
L 707.209625 99.716828 
L 753.551875 97.226031 
L 799.894125 94.973998 
L 846.236375 92.910616 
L 892.578625 90.994619 
L 938.920875 89.178843 
L 985.263125 87.436759 
" clip-path="url(#p051fa0bb76)" style="fill: none; stroke: #434348; stroke-linecap: square"/>
   </g>
   <g id="line2d_89">
    <path d="M 104.760375 216.073868 
L 151.102625 181.217456 
L 197.444875 160.465732 
L 243.787125 146.0987 
L 290.129375 135.425121 
L 336.471625 126.811977 
L 382.813875 119.867224 
L 429.156125 113.803829 
L 475.498375 108.707276 
L 521.840625 104.105935 
L 568.182875 100.135399 
L 614.525125 96.406574 
L 660.867375 93.40288 
L 707.209625 90.573099 
L 753.551875 87.949657 
L 799.894125 85.576768 
L 846.236375 83.392531 
L 892.578625 81.361574 
L 938.920875 79.545798 
L 985.263125 77.738865 
" clip-path="url(#p051fa0bb76)" style="fill: none; stroke: #90ed7d; stroke-linecap: square"/>
   </g>
   <g id="line2d_90">
    <path d="M 104.760375 227.50795 
L 151.102625 194.258028 
L 197.444875 175.030259 
L 243.787125 161.509213 
L 290.129375 151.375062 
L 336.471625 143.398618 
L 382.813875 137.140676 
L 429.156125 131.719877 
L 475.498375 126.971152 
L 521.840625 122.735324 
L 568.182875 119.000603 
L 614.525125 115.646134 
L 660.867375 112.651283 
L 707.209625 110.045527 
L 753.551875 107.587155 
L 799.894125 105.364598 
L 846.236375 103.292373 
L 892.578625 101.39701 
L 938.920875 99.666717 
L 985.263125 97.936424 
" clip-path="url(#p051fa0bb76)" style="fill: none; stroke: #f7a35c; stroke-linecap: square"/>
   </g>
   <g id="line2d_91">
    <path d="M 104.760375 214.941956 
L 151.102625 180.692768 
L 197.444875 160.586587 
L 243.787125 147.292514 
L 290.129375 136.831169 
L 336.471625 128.604171 
L 382.813875 121.942396 
L 429.156125 116.217986 
L 475.498375 111.377882 
L 521.840625 107.195112 
L 568.182875 103.572404 
L 614.525125 100.33879 
L 660.867375 97.402893 
L 707.209625 94.679229 
L 753.551875 92.197275 
L 799.894125 89.915765 
L 846.236375 87.787534 
L 892.578625 85.862694 
L 938.920875 83.920167 
L 985.263125 82.343154 
" clip-path="url(#p051fa0bb76)" style="fill: none; stroke: #8085e9; stroke-linecap: square"/>
   </g>
   <g id="line2d_92">
    <path d="M 104.760375 239.920665 
L 151.102625 207.410613 
L 197.444875 188.174 
L 243.787125 174.42893 
L 290.129375 163.634497 
L 336.471625 155.183475 
L 382.813875 148.02354 
L 429.156125 142.151746 
L 475.498375 137.040455 
L 521.840625 132.804627 
L 568.182875 128.960841 
L 614.525125 125.585739 
L 660.867375 122.478875 
L 707.209625 119.563612 
L 753.551875 116.898902 
L 799.894125 114.349151 
L 846.236375 112.17081 
L 892.578625 110.166382 
L 938.920875 108.347659 
L 985.263125 106.599679 
" clip-path="url(#p051fa0bb76)" style="fill: none; stroke: #f15c80; stroke-linecap: square"/>
   </g>
   <g id="line2d_93">
    <path d="M 104.760375 204.365651 
L 151.102625 169.184993 
L 197.444875 148.807625 
L 243.787125 134.773682 
L 290.129375 124.04115 
L 336.471625 115.840682 
L 382.813875 109.329239 
L 429.156125 103.460392 
L 475.498375 98.864946 
L 521.840625 94.696915 
L 568.182875 91.012305 
L 614.525125 87.646045 
L 660.867375 84.66888 
L 707.209625 82.166293 
L 753.551875 79.766875 
L 799.894125 77.517789 
L 846.236375 75.46325 
L 892.578625 73.491247 
L 938.920875 71.610622 
L 985.263125 69.915701 
" clip-path="url(#p051fa0bb76)" style="fill: none; stroke: #e4d354; stroke-linecap: square"/>
   </g>
   <g id="line2d_94">
    <path d="M 104.760375 205.591889 
L 151.102625 169.703786 
L 197.444875 149.406006 
L 243.787125 135.195202 
L 290.129375 124.105999 
L 336.471625 115.548861 
L 382.813875 108.57463 
L 429.156125 102.617353 
L 475.498375 97.55912 
L 521.840625 93.320345 
L 568.182875 89.391076 
L 614.525125 85.906909 
L 660.867375 82.858999 
L 707.209625 80.253243 
L 753.551875 77.892145 
L 799.894125 75.507465 
L 846.236375 73.408711 
L 892.578625 71.616517 
L 938.920875 69.830218 
L 985.263125 68.117611 
" clip-path="url(#p051fa0bb76)" style="fill: none; stroke: #2b908f; stroke-linecap: square"/>
   </g>
   <g id="line2d_95">
    <path d="M 104.760375 203.899916 
L 151.102625 166.349317 
L 197.444875 145.061114 
L 243.787125 130.18708 
L 290.129375 119.050714 
L 336.471625 110.387459 
L 382.813875 103.295321 
L 429.156125 97.432369 
L 475.498375 92.247386 
L 521.840625 87.846488 
L 568.182875 84.064604 
L 614.525125 80.662972 
L 660.867375 77.511893 
L 707.209625 74.68506 
L 753.551875 72.117624 
L 799.894125 69.771264 
L 846.236375 67.648929 
L 892.578625 65.63271 
L 938.920875 63.858202 
L 985.263125 62.284137 
" clip-path="url(#p051fa0bb76)" style="fill: none; stroke: #f45b5b; stroke-linecap: square"/>
   </g>
   <g id="line2d_96">
    <path d="M 104.760375 222.865341 
L 151.102625 189.037673 
L 197.444875 169.450285 
L 243.787125 155.89092 
L 290.129375 145.482633 
L 336.471625 137.391229 
L 382.813875 130.664605 
L 429.156125 125.140638 
L 475.498375 120.200312 
L 521.840625 116.070601 
L 568.182875 112.232711 
L 614.525125 108.975516 
L 660.867375 105.998351 
L 707.209625 103.189204 
L 753.551875 100.751466 
L 799.894125 98.390368 
L 846.236375 96.344673 
L 892.578625 94.357931 
L 938.920875 92.54805 
L 985.263125 90.879659 
" clip-path="url(#p051fa0bb76)" style="fill: none; stroke: #91e8e1; stroke-linecap: square"/>
   </g>
   <g id="line2d_97">
    <path d="M 104.760375 216.144612 
L 151.102625 184.498233 
L 197.444875 166.629348 
L 243.787125 154.181261 
L 290.129375 144.984474 
L 336.471625 137.635888 
L 382.813875 131.543016 
L 429.156125 126.523103 
L 475.498375 122.07799 
L 521.840625 118.299054 
L 568.182875 114.87384 
L 614.525125 111.77582 
L 660.867375 109.320396 
L 707.209625 106.915082 
L 753.551875 104.598199 
L 799.894125 102.496498 
L 846.236375 100.565762 
L 892.578625 98.88558 
L 938.920875 97.27909 
L 985.263125 95.814089 
" clip-path="url(#p051fa0bb76)" style="fill: none; stroke: #7cb5ec; stroke-linecap: square"/>
   </g>
   <g id="line2d_98">
    <path d="M 104.760375 191.684697 
L 151.102625 151.460545 
L 197.444875 129.099383 
L 243.787125 113.871626 
L 290.129375 102.45523 
L 336.471625 93.868615 
L 382.813875 86.906175 
L 429.156125 80.98427 
L 475.498375 76.055735 
L 521.840625 71.890652 
L 568.182875 68.147088 
L 614.525125 64.998957 
L 660.867375 62.204549 
L 707.209625 59.634165 
L 753.551875 57.361497 
L 799.894125 55.262743 
L 846.236375 53.066716 
L 892.578625 51.259783 
L 938.920875 49.532438 
L 985.263125 47.987849 
" clip-path="url(#p051fa0bb76)" style="fill: none; stroke: #434348; stroke-linecap: square"/>
   </g>
   <g id="line2d_99">
    <path d="M 104.760375 210.258079 
L 151.102625 175.761285 
L 197.444875 155.513616 
L 243.787125 141.591685 
L 290.129375 131.374998 
L 336.471625 123.035988 
L 382.813875 116.312312 
L 429.156125 110.744129 
L 475.498375 105.771379 
L 521.840625 101.450068 
L 568.182875 97.735981 
L 614.525125 94.425728 
L 660.867375 91.578261 
L 707.209625 88.842806 
L 753.551875 86.410964 
L 799.894125 84.111767 
L 846.236375 82.030699 
L 892.578625 80.182499 
L 938.920875 78.475787 
L 985.263125 76.951833 
" clip-path="url(#p051fa0bb76)" style="fill: none; stroke: #90ed7d; stroke-linecap: square"/>
   </g>
   <g id="line2d_100">
    <path d="M 104.760375 221.792383 
L 151.102625 188.825439 
L 197.444875 169.341221 
L 243.787125 156.235799 
L 290.129375 145.848147 
L 336.471625 137.768533 
L 382.813875 131.059595 
L 429.156125 125.458988 
L 475.498375 120.748582 
L 521.840625 116.636557 
L 568.182875 112.98732 
L 614.525125 109.553263 
L 660.867375 106.599679 
L 707.209625 103.817062 
L 753.551875 101.32037 
L 799.894125 99.018226 
L 846.236375 96.84578 
L 892.578625 94.81777 
L 938.920875 92.960727 
L 985.263125 91.312969 
" clip-path="url(#p051fa0bb76)" style="fill: none; stroke: #f7a35c; stroke-linecap: square"/>
   </g>
   <g id="line2d_101">
    <path d="M 104.760375 218.909544 
L 151.102625 184.837217 
L 197.444875 165.294045 
L 243.787125 151.982286 
L 290.129375 141.500307 
L 336.471625 133.332263 
L 382.813875 126.66754 
L 429.156125 120.907758 
L 475.498375 115.937955 
L 521.840625 111.578325 
L 568.182875 107.787598 
L 614.525125 104.344698 
L 660.867375 101.246678 
L 707.209625 98.431636 
L 753.551875 96.020427 
L 799.894125 93.75955 
L 846.236375 91.716802 
L 892.578625 89.901026 
L 938.920875 88.135361 
L 985.263125 86.531819 
" clip-path="url(#p051fa0bb76)" style="fill: none; stroke: #8085e9; stroke-linecap: square"/>
   </g>
   <g id="line2d_102">
    <path d="M 104.760375 210.700233 
L 151.102625 174.075208 
L 197.444875 152.627829 
L 243.787125 137.942447 
L 290.129375 126.870931 
L 336.471625 118.299054 
L 382.813875 111.360196 
L 429.156125 105.38818 
L 475.498375 100.577553 
L 521.840625 95.979159 
L 568.182875 92.032205 
L 614.525125 88.604044 
L 660.867375 85.508971 
L 707.209625 82.735197 
L 753.551875 80.430104 
L 799.894125 78.195757 
L 846.236375 76.102898 
L 892.578625 74.101418 
L 938.920875 72.385864 
L 985.263125 70.676205 
" clip-path="url(#p051fa0bb76)" style="fill: none; stroke: #f15c80; stroke-linecap: square"/>
   </g>
   <g id="line2d_103">
    <path d="M 104.760375 209.076056 
L 151.102625 175.958781 
L 197.444875 156.280015 
L 243.787125 142.496625 
L 290.129375 132.309415 
L 336.471625 123.881975 
L 382.813875 117.285049 
L 429.156125 111.666755 
L 475.498375 106.820756 
L 521.840625 102.708731 
L 568.182875 98.985801 
L 614.525125 95.560588 
L 660.867375 92.506783 
L 707.209625 89.84502 
L 753.551875 87.413178 
L 799.894125 85.276104 
L 846.236375 83.17735 
L 892.578625 81.4559 
L 938.920875 79.646019 
L 985.263125 77.995314 
" clip-path="url(#p051fa0bb76)" style="fill: none; stroke: #e4d354; stroke-linecap: square"/>
   </g>
   <g id="line2d_104">
    <path d="M 104.760375 217.273577 
L 151.102625 183.242518 
L 197.444875 163.823149 
L 243.787125 150.222516 
L 290.129375 140.044149 
L 336.471625 132.041175 
L 382.813875 125.373505 
L 429.156125 119.537083 
L 475.498375 114.484745 
L 521.840625 110.251865 
L 568.182875 106.655686 
L 614.525125 103.348379 
L 660.867375 100.49207 
L 707.209625 97.650498 
L 753.551875 95.133173 
L 799.894125 93.111059 
L 846.236375 91.103683 
L 892.578625 89.066831 
L 938.920875 87.183258 
L 985.263125 85.44707 
" clip-path="url(#p051fa0bb76)" style="fill: none; stroke: #2b908f; stroke-linecap: square"/>
   </g>
   <g id="line2d_105">
    <path d="M 104.760375 197.524067 
L 151.102625 159.100952 
L 197.444875 137.058141 
L 243.787125 122.036722 
L 290.129375 111.280608 
L 336.471625 102.841377 
L 382.813875 95.920205 
L 429.156125 90.139789 
L 475.498375 85.007864 
L 521.840625 80.822147 
L 568.182875 77.037315 
L 614.525125 73.656317 
L 660.867375 70.552402 
L 707.209625 67.734412 
L 753.551875 65.261302 
L 799.894125 62.970948 
L 846.236375 60.937043 
L 892.578625 59.124215 
L 938.920875 57.517725 
L 985.263125 55.852281 
" clip-path="url(#p051fa0bb76)" style="fill: none; stroke: #f45b5b; stroke-linecap: square"/>
   </g>
   <g id="line2d_106">
    <path d="M 104.760375 196.619126 
L 151.102625 161.01695 
L 197.444875 140.890135 
L 243.787125 127.030106 
L 290.129375 116.745622 
L 336.471625 108.618846 
L 382.813875 101.700622 
L 429.156125 95.976212 
L 475.498375 91.368975 
L 521.840625 87.106618 
L 568.182875 83.587078 
L 614.525125 80.291563 
L 660.867375 77.50305 
L 707.209625 74.885503 
L 753.551875 72.55683 
L 799.894125 70.519977 
L 846.236375 68.530288 
L 892.578625 66.708616 
L 938.920875 65.119812 
L 985.263125 63.469107 
" clip-path="url(#p051fa0bb76)" style="fill: none; stroke: #91e8e1; stroke-linecap: square"/>
   </g>
   <g id="line2d_107">
    <path d="M 104.760375 201.518184 
L 151.102625 166.367003 
L 197.444875 145.842251 
L 243.787125 131.746407 
L 290.129375 121.335172 
L 336.471625 112.866464 
L 382.813875 105.945293 
L 429.156125 100.26215 
L 475.498375 95.534058 
L 521.840625 91.307074 
L 568.182875 87.69026 
L 614.525125 84.374111 
L 660.867375 81.385155 
L 707.209625 78.746975 
L 753.551875 76.179538 
L 799.894125 73.992354 
L 846.236375 71.958449 
L 892.578625 70.124987 
L 938.920875 68.318054 
L 985.263125 66.629029 
" clip-path="url(#p051fa0bb76)" style="fill: none; stroke: #7cb5ec; stroke-linecap: square"/>
   </g>
   <g id="line2d_108">
    <path d="M 104.760375 191.357503 
L 151.102625 157.323496 
L 197.444875 137.665364 
L 243.787125 124.30939 
L 290.129375 114.225349 
L 336.471625 106.275434 
L 382.813875 99.781677 
L 429.156125 94.128011 
L 475.498375 89.464769 
L 521.840625 85.376325 
L 568.182875 81.69761 
L 614.525125 78.340194 
L 660.867375 75.566419 
L 707.209625 73.046146 
L 753.551875 70.729263 
L 799.894125 68.657038 
L 846.236375 66.708616 
L 892.578625 64.93116 
L 938.920875 63.330566 
L 985.263125 61.788925 
" clip-path="url(#p051fa0bb76)" style="fill: none; stroke: #434348; stroke-linecap: square"/>
   </g>
   <g id="line2d_109">
    <path d="M 104.760375 199.145295 
L 151.102625 162.655864 
L 197.444875 142.09574 
L 243.787125 128.14728 
L 290.129375 117.479596 
L 336.471625 108.937196 
L 382.813875 102.092664 
L 429.156125 96.164864 
L 475.498375 91.227486 
L 521.840625 86.897332 
L 568.182875 83.25399 
L 614.525125 79.88773 
L 660.867375 76.9931 
L 707.209625 74.29007 
L 753.551875 71.77864 
L 799.894125 69.570822 
L 846.236375 67.554603 
L 892.578625 65.738827 
L 938.920875 64.035063 
L 985.263125 62.487527 
" clip-path="url(#p051fa0bb76)" style="fill: none; stroke: #90ed7d; stroke-linecap: square"/>
   </g>
   <g id="line2d_110">
    <path d="M 104.760375 199.734833 
L 151.102625 161.070008 
L 197.444875 139.584309 
L 243.787125 124.692589 
L 290.129375 113.394101 
L 336.471625 104.49503 
L 382.813875 97.261404 
L 429.156125 91.513412 
L 475.498375 86.531819 
L 521.840625 82.16924 
L 568.182875 78.422729 
L 614.525125 74.897294 
L 660.867375 71.914234 
L 707.209625 69.252471 
L 753.551875 67.08592 
L 799.894125 64.913474 
L 846.236375 62.847145 
L 892.578625 60.931148 
L 938.920875 59.32171 
L 985.263125 57.688691 
" clip-path="url(#p051fa0bb76)" style="fill: none; stroke: #f7a35c; stroke-linecap: square"/>
   </g>
   <g id="line2d_111">
    <path d="M 58.418125 353.2239 
L 985.263125 353.2239 
" clip-path="url(#p051fa0bb76)" style="fill: none; stroke: #dedede; stroke-width: 2; stroke-linecap: square"/>
   </g>
   <g id="text_15">
    <!-- RSeQC: Junction Saturation -->
    <g transform="translate(412.691875 19.3575)scale(0.16 -0.16)">
     <defs>
      <path id="DejaVuSans-52" d="M 2841 2188 
Q 3044 2119 3236 1894 
Q 3428 1669 3622 1275 
L 4263 0 
L 3584 0 
L 2988 1197 
Q 2756 1666 2539 1819 
Q 2322 1972 1947 1972 
L 1259 1972 
L 1259 0 
L 628 0 
L 628 4666 
L 2053 4666 
Q 2853 4666 3247 4331 
Q 3641 3997 3641 3322 
Q 3641 2881 3436 2590 
Q 3231 2300 2841 2188 
z
M 1259 4147 
L 1259 2491 
L 2053 2491 
Q 2509 2491 2742 2702 
Q 2975 2913 2975 3322 
Q 2975 3731 2742 3939 
Q 2509 4147 2053 4147 
L 1259 4147 
z
" transform="scale(0.015625)"/>
      <path id="DejaVuSans-53" d="M 3425 4513 
L 3425 3897 
Q 3066 4069 2747 4153 
Q 2428 4238 2131 4238 
Q 1616 4238 1336 4038 
Q 1056 3838 1056 3469 
Q 1056 3159 1242 3001 
Q 1428 2844 1947 2747 
L 2328 2669 
Q 3034 2534 3370 2195 
Q 3706 1856 3706 1288 
Q 3706 609 3251 259 
Q 2797 -91 1919 -91 
Q 1588 -91 1214 -16 
Q 841 59 441 206 
L 441 856 
Q 825 641 1194 531 
Q 1563 422 1919 422 
Q 2459 422 2753 634 
Q 3047 847 3047 1241 
Q 3047 1584 2836 1778 
Q 2625 1972 2144 2069 
L 1759 2144 
Q 1053 2284 737 2584 
Q 422 2884 422 3419 
Q 422 4038 858 4394 
Q 1294 4750 2059 4750 
Q 2388 4750 2728 4690 
Q 3069 4631 3425 4513 
z
" transform="scale(0.015625)"/>
      <path id="DejaVuSans-51" d="M 2522 4238 
Q 1834 4238 1429 3725 
Q 1025 3213 1025 2328 
Q 1025 1447 1429 934 
Q 1834 422 2522 422 
Q 3209 422 3611 934 
Q 4013 1447 4013 2328 
Q 4013 3213 3611 3725 
Q 3209 4238 2522 4238 
z
M 3406 84 
L 4238 -825 
L 3475 -825 
L 2784 -78 
Q 2681 -84 2626 -87 
Q 2572 -91 2522 -91 
Q 1538 -91 948 567 
Q 359 1225 359 2328 
Q 359 3434 948 4092 
Q 1538 4750 2522 4750 
Q 3503 4750 4090 4092 
Q 4678 3434 4678 2328 
Q 4678 1516 4351 937 
Q 4025 359 3406 84 
z
" transform="scale(0.015625)"/>
      <path id="DejaVuSans-43" d="M 4122 4306 
L 4122 3641 
Q 3803 3938 3442 4084 
Q 3081 4231 2675 4231 
Q 1875 4231 1450 3742 
Q 1025 3253 1025 2328 
Q 1025 1406 1450 917 
Q 1875 428 2675 428 
Q 3081 428 3442 575 
Q 3803 722 4122 1019 
L 4122 359 
Q 3791 134 3420 21 
Q 3050 -91 2638 -91 
Q 1578 -91 968 557 
Q 359 1206 359 2328 
Q 359 3453 968 4101 
Q 1578 4750 2638 4750 
Q 3056 4750 3426 4639 
Q 3797 4528 4122 4306 
z
" transform="scale(0.015625)"/>
      <path id="DejaVuSans-3a" d="M 750 794 
L 1409 794 
L 1409 0 
L 750 0 
L 750 794 
z
M 750 3309 
L 1409 3309 
L 1409 2516 
L 750 2516 
L 750 3309 
z
" transform="scale(0.015625)"/>
     </defs>
     <use xlink:href="#DejaVuSans-52"/>
     <use xlink:href="#DejaVuSans-53" x="69.482422"/>
     <use xlink:href="#DejaVuSans-65" x="132.958984"/>
     <use xlink:href="#DejaVuSans-51" x="194.482422"/>
     <use xlink:href="#DejaVuSans-43" x="273.193359"/>
     <use xlink:href="#DejaVuSans-3a" x="343.017578"/>
     <use xlink:href="#DejaVuSans-20" x="376.708984"/>
     <use xlink:href="#DejaVuSans-4a" x="408.496094"/>
     <use xlink:href="#DejaVuSans-75" x="437.988281"/>
     <use xlink:href="#DejaVuSans-6e" x="501.367188"/>
     <use xlink:href="#DejaVuSans-63" x="564.746094"/>
     <use xlink:href="#DejaVuSans-74" x="619.726562"/>
     <use xlink:href="#DejaVuSans-69" x="658.935547"/>
     <use xlink:href="#DejaVuSans-6f" x="686.71875"/>
     <use xlink:href="#DejaVuSans-6e" x="747.900391"/>
     <use xlink:href="#DejaVuSans-20" x="811.279297"/>
     <use xlink:href="#DejaVuSans-53" x="843.066406"/>
     <use xlink:href="#DejaVuSans-61" x="906.542969"/>
     <use xlink:href="#DejaVuSans-74" x="967.822266"/>
     <use xlink:href="#DejaVuSans-75" x="1007.03125"/>
     <use xlink:href="#DejaVuSans-72" x="1070.410156"/>
     <use xlink:href="#DejaVuSans-61" x="1111.523438"/>
     <use xlink:href="#DejaVuSans-74" x="1172.802734"/>
     <use xlink:href="#DejaVuSans-69" x="1212.011719"/>
     <use xlink:href="#DejaVuSans-6f" x="1239.794922"/>
     <use xlink:href="#DejaVuSans-6e" x="1300.976562"/>
    </g>
   </g>
  </g>
 </g>
 <defs>
  <clipPath id="p051fa0bb76">
   <rect x="58.418125" y="35.2559" width="926.845" height="317.968"/>
  </clipPath>
 </defs>
</svg>
