<?xml version="1.0" encoding="utf-8" standalone="no"?>
<!DOCTYPE svg PUBLIC "-//W3C//DTD SVG 1.1//EN"
  "http://www.w3.org/Graphics/SVG/1.1/DTD/svg11.dtd">
<svg xmlns:xlink="http://www.w3.org/1999/xlink" width="1000.138125pt" height="388.844525pt" viewBox="0 0 1000.138125 388.844525" xmlns="http://www.w3.org/2000/svg" version="1.1">
 <metadata>
  <rdf:RDF xmlns:dc="http://purl.org/dc/elements/1.1/" xmlns:cc="http://creativecommons.org/ns#" xmlns:rdf="http://www.w3.org/1999/02/22-rdf-syntax-ns#">
   <cc:Work>
    <dc:type rdf:resource="http://purl.org/dc/dcmitype/StillImage"/>
    <dc:date>2023-02-14T10:05:17.197675</dc:date>
    <dc:format>image/svg+xml</dc:format>
    <dc:creator>
     <cc:Agent>
      <dc:title>Matplotlib v3.5.3, https://matplotlib.org/</dc:title>
     </cc:Agent>
    </dc:creator>
   </cc:Work>
  </rdf:RDF>
 </metadata>
 <defs>
  <style type="text/css">*{stroke-linejoin: round; stroke-linecap: butt}</style>
 </defs>
 <g id="figure_1">
  <g id="axes_1">
   <g id="patch_1">
    <path d="M 53.328125 353.2239 
L 985.303125 353.2239 
L 985.303125 35.2559 
L 53.328125 35.2559 
z
" style="fill: #ffffff"/>
   </g>
   <g id="matplotlib.axis_1">
    <g id="xtick_1">
     <g id="text_1">
      <!-- 0 -->
      <g transform="translate(50.783125 366.30265)scale(0.08 -0.08)">
       <defs>
        <path id="DejaVuSans-30" d="M 2034 4250 
Q 1547 4250 1301 3770 
Q 1056 3291 1056 2328 
Q 1056 1369 1301 889 
Q 1547 409 2034 409 
Q 2525 409 2770 889 
Q 3016 1369 3016 2328 
Q 3016 3291 2770 3770 
Q 2525 4250 2034 4250 
z
M 2034 4750 
Q 2819 4750 3233 4129 
Q 3647 3509 3647 2328 
Q 3647 1150 3233 529 
Q 2819 -91 2034 -91 
Q 1250 -91 836 529 
Q 422 1150 422 2328 
Q 422 3509 836 4129 
Q 1250 4750 2034 4750 
z
" transform="scale(0.015625)"/>
       </defs>
       <use xlink:href="#DejaVuSans-30"/>
      </g>
     </g>
    </g>
    <g id="xtick_2">
     <g id="text_2">
      <!-- 20 -->
      <g transform="translate(234.633125 366.30265)scale(0.08 -0.08)">
       <defs>
        <path id="DejaVuSans-32" d="M 1228 531 
L 3431 531 
L 3431 0 
L 469 0 
L 469 531 
Q 828 903 1448 1529 
Q 2069 2156 2228 2338 
Q 2531 2678 2651 2914 
Q 2772 3150 2772 3378 
Q 2772 3750 2511 3984 
Q 2250 4219 1831 4219 
Q 1534 4219 1204 4116 
Q 875 4013 500 3803 
L 500 4441 
Q 881 4594 1212 4672 
Q 1544 4750 1819 4750 
Q 2544 4750 2975 4387 
Q 3406 4025 3406 3419 
Q 3406 3131 3298 2873 
Q 3191 2616 2906 2266 
Q 2828 2175 2409 1742 
Q 1991 1309 1228 531 
z
" transform="scale(0.015625)"/>
       </defs>
       <use xlink:href="#DejaVuSans-32"/>
       <use xlink:href="#DejaVuSans-30" x="63.623047"/>
      </g>
     </g>
    </g>
    <g id="xtick_3">
     <g id="text_3">
      <!-- 40 -->
      <g transform="translate(421.028125 366.30265)scale(0.08 -0.08)">
       <defs>
        <path id="DejaVuSans-34" d="M 2419 4116 
L 825 1625 
L 2419 1625 
L 2419 4116 
z
M 2253 4666 
L 3047 4666 
L 3047 1625 
L 3713 1625 
L 3713 1100 
L 3047 1100 
L 3047 0 
L 2419 0 
L 2419 1100 
L 313 1100 
L 313 1709 
L 2253 4666 
z
" transform="scale(0.015625)"/>
       </defs>
       <use xlink:href="#DejaVuSans-34"/>
       <use xlink:href="#DejaVuSans-30" x="63.623047"/>
      </g>
     </g>
    </g>
    <g id="xtick_4">
     <g id="text_4">
      <!-- 60 -->
      <g transform="translate(607.423125 366.30265)scale(0.08 -0.08)">
       <defs>
        <path id="DejaVuSans-36" d="M 2113 2584 
Q 1688 2584 1439 2293 
Q 1191 2003 1191 1497 
Q 1191 994 1439 701 
Q 1688 409 2113 409 
Q 2538 409 2786 701 
Q 3034 994 3034 1497 
Q 3034 2003 2786 2293 
Q 2538 2584 2113 2584 
z
M 3366 4563 
L 3366 3988 
Q 3128 4100 2886 4159 
Q 2644 4219 2406 4219 
Q 1781 4219 1451 3797 
Q 1122 3375 1075 2522 
Q 1259 2794 1537 2939 
Q 1816 3084 2150 3084 
Q 2853 3084 3261 2657 
Q 3669 2231 3669 1497 
Q 3669 778 3244 343 
Q 2819 -91 2113 -91 
Q 1303 -91 875 529 
Q 447 1150 447 2328 
Q 447 3434 972 4092 
Q 1497 4750 2381 4750 
Q 2619 4750 2861 4703 
Q 3103 4656 3366 4563 
z
" transform="scale(0.015625)"/>
       </defs>
       <use xlink:href="#DejaVuSans-36"/>
       <use xlink:href="#DejaVuSans-30" x="63.623047"/>
      </g>
     </g>
    </g>
    <g id="xtick_5">
     <g id="text_5">
      <!-- 80 -->
      <g transform="translate(793.818125 366.30265)scale(0.08 -0.08)">
       <defs>
        <path id="DejaVuSans-38" d="M 2034 2216 
Q 1584 2216 1326 1975 
Q 1069 1734 1069 1313 
Q 1069 891 1326 650 
Q 1584 409 2034 409 
Q 2484 409 2743 651 
Q 3003 894 3003 1313 
Q 3003 1734 2745 1975 
Q 2488 2216 2034 2216 
z
M 1403 2484 
Q 997 2584 770 2862 
Q 544 3141 544 3541 
Q 544 4100 942 4425 
Q 1341 4750 2034 4750 
Q 2731 4750 3128 4425 
Q 3525 4100 3525 3541 
Q 3525 3141 3298 2862 
Q 3072 2584 2669 2484 
Q 3125 2378 3379 2068 
Q 3634 1759 3634 1313 
Q 3634 634 3220 271 
Q 2806 -91 2034 -91 
Q 1263 -91 848 271 
Q 434 634 434 1313 
Q 434 1759 690 2068 
Q 947 2378 1403 2484 
z
M 1172 3481 
Q 1172 3119 1398 2916 
Q 1625 2713 2034 2713 
Q 2441 2713 2670 2916 
Q 2900 3119 2900 3481 
Q 2900 3844 2670 4047 
Q 2441 4250 2034 4250 
Q 1625 4250 1398 4047 
Q 1172 3844 1172 3481 
z
" transform="scale(0.015625)"/>
       </defs>
       <use xlink:href="#DejaVuSans-38"/>
       <use xlink:href="#DejaVuSans-30" x="63.623047"/>
      </g>
     </g>
    </g>
    <g id="xtick_6">
     <g id="text_6">
      <!-- 100 -->
      <g transform="translate(977.668125 366.30265)scale(0.08 -0.08)">
       <defs>
        <path id="DejaVuSans-31" d="M 794 531 
L 1825 531 
L 1825 4091 
L 703 3866 
L 703 4441 
L 1819 4666 
L 2450 4666 
L 2450 531 
L 3481 531 
L 3481 0 
L 794 0 
L 794 531 
z
" transform="scale(0.015625)"/>
       </defs>
       <use xlink:href="#DejaVuSans-31"/>
       <use xlink:href="#DejaVuSans-30" x="63.623047"/>
       <use xlink:href="#DejaVuSans-30" x="127.246094"/>
      </g>
     </g>
    </g>
    <g id="text_7">
     <!-- Percent of reads -->
     <g transform="translate(478.647656 379.564837)scale(0.1 -0.1)">
      <defs>
       <path id="DejaVuSans-50" d="M 1259 4147 
L 1259 2394 
L 2053 2394 
Q 2494 2394 2734 2622 
Q 2975 2850 2975 3272 
Q 2975 3691 2734 3919 
Q 2494 4147 2053 4147 
L 1259 4147 
z
M 628 4666 
L 2053 4666 
Q 2838 4666 3239 4311 
Q 3641 3956 3641 3272 
Q 3641 2581 3239 2228 
Q 2838 1875 2053 1875 
L 1259 1875 
L 1259 0 
L 628 0 
L 628 4666 
z
" transform="scale(0.015625)"/>
       <path id="DejaVuSans-65" d="M 3597 1894 
L 3597 1613 
L 953 1613 
Q 991 1019 1311 708 
Q 1631 397 2203 397 
Q 2534 397 2845 478 
Q 3156 559 3463 722 
L 3463 178 
Q 3153 47 2828 -22 
Q 2503 -91 2169 -91 
Q 1331 -91 842 396 
Q 353 884 353 1716 
Q 353 2575 817 3079 
Q 1281 3584 2069 3584 
Q 2775 3584 3186 3129 
Q 3597 2675 3597 1894 
z
M 3022 2063 
Q 3016 2534 2758 2815 
Q 2500 3097 2075 3097 
Q 1594 3097 1305 2825 
Q 1016 2553 972 2059 
L 3022 2063 
z
" transform="scale(0.015625)"/>
       <path id="DejaVuSans-72" d="M 2631 2963 
Q 2534 3019 2420 3045 
Q 2306 3072 2169 3072 
Q 1681 3072 1420 2755 
Q 1159 2438 1159 1844 
L 1159 0 
L 581 0 
L 581 3500 
L 1159 3500 
L 1159 2956 
Q 1341 3275 1631 3429 
Q 1922 3584 2338 3584 
Q 2397 3584 2469 3576 
Q 2541 3569 2628 3553 
L 2631 2963 
z
" transform="scale(0.015625)"/>
       <path id="DejaVuSans-63" d="M 3122 3366 
L 3122 2828 
Q 2878 2963 2633 3030 
Q 2388 3097 2138 3097 
Q 1578 3097 1268 2742 
Q 959 2388 959 1747 
Q 959 1106 1268 751 
Q 1578 397 2138 397 
Q 2388 397 2633 464 
Q 2878 531 3122 666 
L 3122 134 
Q 2881 22 2623 -34 
Q 2366 -91 2075 -91 
Q 1284 -91 818 406 
Q 353 903 353 1747 
Q 353 2603 823 3093 
Q 1294 3584 2113 3584 
Q 2378 3584 2631 3529 
Q 2884 3475 3122 3366 
z
" transform="scale(0.015625)"/>
       <path id="DejaVuSans-6e" d="M 3513 2113 
L 3513 0 
L 2938 0 
L 2938 2094 
Q 2938 2591 2744 2837 
Q 2550 3084 2163 3084 
Q 1697 3084 1428 2787 
Q 1159 2491 1159 1978 
L 1159 0 
L 581 0 
L 581 3500 
L 1159 3500 
L 1159 2956 
Q 1366 3272 1645 3428 
Q 1925 3584 2291 3584 
Q 2894 3584 3203 3211 
Q 3513 2838 3513 2113 
z
" transform="scale(0.015625)"/>
       <path id="DejaVuSans-74" d="M 1172 4494 
L 1172 3500 
L 2356 3500 
L 2356 3053 
L 1172 3053 
L 1172 1153 
Q 1172 725 1289 603 
Q 1406 481 1766 481 
L 2356 481 
L 2356 0 
L 1766 0 
Q 1100 0 847 248 
Q 594 497 594 1153 
L 594 3053 
L 172 3053 
L 172 3500 
L 594 3500 
L 594 4494 
L 1172 4494 
z
" transform="scale(0.015625)"/>
       <path id="DejaVuSans-20" transform="scale(0.015625)"/>
       <path id="DejaVuSans-6f" d="M 1959 3097 
Q 1497 3097 1228 2736 
Q 959 2375 959 1747 
Q 959 1119 1226 758 
Q 1494 397 1959 397 
Q 2419 397 2687 759 
Q 2956 1122 2956 1747 
Q 2956 2369 2687 2733 
Q 2419 3097 1959 3097 
z
M 1959 3584 
Q 2709 3584 3137 3096 
Q 3566 2609 3566 1747 
Q 3566 888 3137 398 
Q 2709 -91 1959 -91 
Q 1206 -91 779 398 
Q 353 888 353 1747 
Q 353 2609 779 3096 
Q 1206 3584 1959 3584 
z
" transform="scale(0.015625)"/>
       <path id="DejaVuSans-66" d="M 2375 4863 
L 2375 4384 
L 1825 4384 
Q 1516 4384 1395 4259 
Q 1275 4134 1275 3809 
L 1275 3500 
L 2222 3500 
L 2222 3053 
L 1275 3053 
L 1275 0 
L 697 0 
L 697 3053 
L 147 3053 
L 147 3500 
L 697 3500 
L 697 3744 
Q 697 4328 969 4595 
Q 1241 4863 1831 4863 
L 2375 4863 
z
" transform="scale(0.015625)"/>
       <path id="DejaVuSans-61" d="M 2194 1759 
Q 1497 1759 1228 1600 
Q 959 1441 959 1056 
Q 959 750 1161 570 
Q 1363 391 1709 391 
Q 2188 391 2477 730 
Q 2766 1069 2766 1631 
L 2766 1759 
L 2194 1759 
z
M 3341 1997 
L 3341 0 
L 2766 0 
L 2766 531 
Q 2569 213 2275 61 
Q 1981 -91 1556 -91 
Q 1019 -91 701 211 
Q 384 513 384 1019 
Q 384 1609 779 1909 
Q 1175 2209 1959 2209 
L 2766 2209 
L 2766 2266 
Q 2766 2663 2505 2880 
Q 2244 3097 1772 3097 
Q 1472 3097 1187 3025 
Q 903 2953 641 2809 
L 641 3341 
Q 956 3463 1253 3523 
Q 1550 3584 1831 3584 
Q 2591 3584 2966 3190 
Q 3341 2797 3341 1997 
z
" transform="scale(0.015625)"/>
       <path id="DejaVuSans-64" d="M 2906 2969 
L 2906 4863 
L 3481 4863 
L 3481 0 
L 2906 0 
L 2906 525 
Q 2725 213 2448 61 
Q 2172 -91 1784 -91 
Q 1150 -91 751 415 
Q 353 922 353 1747 
Q 353 2572 751 3078 
Q 1150 3584 1784 3584 
Q 2172 3584 2448 3432 
Q 2725 3281 2906 2969 
z
M 947 1747 
Q 947 1113 1208 752 
Q 1469 391 1925 391 
Q 2381 391 2643 752 
Q 2906 1113 2906 1747 
Q 2906 2381 2643 2742 
Q 2381 3103 1925 3103 
Q 1469 3103 1208 2742 
Q 947 2381 947 1747 
z
" transform="scale(0.015625)"/>
       <path id="DejaVuSans-73" d="M 2834 3397 
L 2834 2853 
Q 2591 2978 2328 3040 
Q 2066 3103 1784 3103 
Q 1356 3103 1142 2972 
Q 928 2841 928 2578 
Q 928 2378 1081 2264 
Q 1234 2150 1697 2047 
L 1894 2003 
Q 2506 1872 2764 1633 
Q 3022 1394 3022 966 
Q 3022 478 2636 193 
Q 2250 -91 1575 -91 
Q 1294 -91 989 -36 
Q 684 19 347 128 
L 347 722 
Q 666 556 975 473 
Q 1284 391 1588 391 
Q 1994 391 2212 530 
Q 2431 669 2431 922 
Q 2431 1156 2273 1281 
Q 2116 1406 1581 1522 
L 1381 1569 
Q 847 1681 609 1914 
Q 372 2147 372 2553 
Q 372 3047 722 3315 
Q 1072 3584 1716 3584 
Q 2034 3584 2315 3537 
Q 2597 3491 2834 3397 
z
" transform="scale(0.015625)"/>
      </defs>
      <use xlink:href="#DejaVuSans-50"/>
      <use xlink:href="#DejaVuSans-65" x="56.677734"/>
      <use xlink:href="#DejaVuSans-72" x="118.201172"/>
      <use xlink:href="#DejaVuSans-63" x="157.064453"/>
      <use xlink:href="#DejaVuSans-65" x="212.044922"/>
      <use xlink:href="#DejaVuSans-6e" x="273.568359"/>
      <use xlink:href="#DejaVuSans-74" x="336.947266"/>
      <use xlink:href="#DejaVuSans-20" x="376.15625"/>
      <use xlink:href="#DejaVuSans-6f" x="407.943359"/>
      <use xlink:href="#DejaVuSans-66" x="469.125"/>
      <use xlink:href="#DejaVuSans-20" x="504.330078"/>
      <use xlink:href="#DejaVuSans-72" x="536.117188"/>
      <use xlink:href="#DejaVuSans-65" x="574.980469"/>
      <use xlink:href="#DejaVuSans-61" x="636.503906"/>
      <use xlink:href="#DejaVuSans-64" x="697.783203"/>
      <use xlink:href="#DejaVuSans-73" x="761.259766"/>
     </g>
    </g>
   </g>
   <g id="matplotlib.axis_2">
    <g id="ytick_1">
     <g id="line2d_1">
      <path d="M 53.328125 353.2239 
L 985.303125 353.2239 
" clip-path="url(#p373560c196)" style="fill: none; stroke: #dedede; stroke-linecap: square"/>
     </g>
     <g id="text_8">
      <!-- 0 -->
      <g transform="translate(41.238125 356.263275)scale(0.08 -0.08)">
       <use xlink:href="#DejaVuSans-30"/>
      </g>
     </g>
    </g>
    <g id="ytick_2">
     <g id="line2d_2">
      <path d="M 53.328125 284.195711 
L 985.303125 284.195711 
" clip-path="url(#p373560c196)" style="fill: none; stroke: #dedede; stroke-linecap: square"/>
     </g>
     <g id="text_9">
      <!-- 10000 -->
      <g transform="translate(20.878125 287.235086)scale(0.08 -0.08)">
       <use xlink:href="#DejaVuSans-31"/>
       <use xlink:href="#DejaVuSans-30" x="63.623047"/>
       <use xlink:href="#DejaVuSans-30" x="127.246094"/>
       <use xlink:href="#DejaVuSans-30" x="190.869141"/>
       <use xlink:href="#DejaVuSans-30" x="254.492188"/>
      </g>
     </g>
    </g>
    <g id="ytick_3">
     <g id="line2d_3">
      <path d="M 53.328125 215.167521 
L 985.303125 215.167521 
" clip-path="url(#p373560c196)" style="fill: none; stroke: #dedede; stroke-linecap: square"/>
     </g>
     <g id="text_10">
      <!-- 20000 -->
      <g transform="translate(20.878125 218.206896)scale(0.08 -0.08)">
       <use xlink:href="#DejaVuSans-32"/>
       <use xlink:href="#DejaVuSans-30" x="63.623047"/>
       <use xlink:href="#DejaVuSans-30" x="127.246094"/>
       <use xlink:href="#DejaVuSans-30" x="190.869141"/>
       <use xlink:href="#DejaVuSans-30" x="254.492188"/>
      </g>
     </g>
    </g>
    <g id="ytick_4">
     <g id="line2d_4">
      <path d="M 53.328125 146.139332 
L 985.303125 146.139332 
" clip-path="url(#p373560c196)" style="fill: none; stroke: #dedede; stroke-linecap: square"/>
     </g>
     <g id="text_11">
      <!-- 30000 -->
      <g transform="translate(20.878125 149.178707)scale(0.08 -0.08)">
       <defs>
        <path id="DejaVuSans-33" d="M 2597 2516 
Q 3050 2419 3304 2112 
Q 3559 1806 3559 1356 
Q 3559 666 3084 287 
Q 2609 -91 1734 -91 
Q 1441 -91 1130 -33 
Q 819 25 488 141 
L 488 750 
Q 750 597 1062 519 
Q 1375 441 1716 441 
Q 2309 441 2620 675 
Q 2931 909 2931 1356 
Q 2931 1769 2642 2001 
Q 2353 2234 1838 2234 
L 1294 2234 
L 1294 2753 
L 1863 2753 
Q 2328 2753 2575 2939 
Q 2822 3125 2822 3475 
Q 2822 3834 2567 4026 
Q 2313 4219 1838 4219 
Q 1578 4219 1281 4162 
Q 984 4106 628 3988 
L 628 4550 
Q 988 4650 1302 4700 
Q 1616 4750 1894 4750 
Q 2613 4750 3031 4423 
Q 3450 4097 3450 3541 
Q 3450 3153 3228 2886 
Q 3006 2619 2597 2516 
z
" transform="scale(0.015625)"/>
       </defs>
       <use xlink:href="#DejaVuSans-33"/>
       <use xlink:href="#DejaVuSans-30" x="63.623047"/>
       <use xlink:href="#DejaVuSans-30" x="127.246094"/>
       <use xlink:href="#DejaVuSans-30" x="190.869141"/>
       <use xlink:href="#DejaVuSans-30" x="254.492188"/>
      </g>
     </g>
    </g>
    <g id="ytick_5">
     <g id="line2d_5">
      <path d="M 53.328125 77.111143 
L 985.303125 77.111143 
" clip-path="url(#p373560c196)" style="fill: none; stroke: #dedede; stroke-linecap: square"/>
     </g>
     <g id="text_12">
      <!-- 40000 -->
      <g transform="translate(20.878125 80.150518)scale(0.08 -0.08)">
       <use xlink:href="#DejaVuSans-34"/>
       <use xlink:href="#DejaVuSans-30" x="63.623047"/>
       <use xlink:href="#DejaVuSans-30" x="127.246094"/>
       <use xlink:href="#DejaVuSans-30" x="190.869141"/>
       <use xlink:href="#DejaVuSans-30" x="254.492188"/>
      </g>
     </g>
    </g>
    <g id="text_13">
     <!-- Number of Junctions -->
     <g transform="translate(14.798438 245.067244)rotate(-90)scale(0.1 -0.1)">
      <defs>
       <path id="DejaVuSans-4e" d="M 628 4666 
L 1478 4666 
L 3547 763 
L 3547 4666 
L 4159 4666 
L 4159 0 
L 3309 0 
L 1241 3903 
L 1241 0 
L 628 0 
L 628 4666 
z
" transform="scale(0.015625)"/>
       <path id="DejaVuSans-75" d="M 544 1381 
L 544 3500 
L 1119 3500 
L 1119 1403 
Q 1119 906 1312 657 
Q 1506 409 1894 409 
Q 2359 409 2629 706 
Q 2900 1003 2900 1516 
L 2900 3500 
L 3475 3500 
L 3475 0 
L 2900 0 
L 2900 538 
Q 2691 219 2414 64 
Q 2138 -91 1772 -91 
Q 1169 -91 856 284 
Q 544 659 544 1381 
z
M 1991 3584 
L 1991 3584 
z
" transform="scale(0.015625)"/>
       <path id="DejaVuSans-6d" d="M 3328 2828 
Q 3544 3216 3844 3400 
Q 4144 3584 4550 3584 
Q 5097 3584 5394 3201 
Q 5691 2819 5691 2113 
L 5691 0 
L 5113 0 
L 5113 2094 
Q 5113 2597 4934 2840 
Q 4756 3084 4391 3084 
Q 3944 3084 3684 2787 
Q 3425 2491 3425 1978 
L 3425 0 
L 2847 0 
L 2847 2094 
Q 2847 2600 2669 2842 
Q 2491 3084 2119 3084 
Q 1678 3084 1418 2786 
Q 1159 2488 1159 1978 
L 1159 0 
L 581 0 
L 581 3500 
L 1159 3500 
L 1159 2956 
Q 1356 3278 1631 3431 
Q 1906 3584 2284 3584 
Q 2666 3584 2933 3390 
Q 3200 3197 3328 2828 
z
" transform="scale(0.015625)"/>
       <path id="DejaVuSans-62" d="M 3116 1747 
Q 3116 2381 2855 2742 
Q 2594 3103 2138 3103 
Q 1681 3103 1420 2742 
Q 1159 2381 1159 1747 
Q 1159 1113 1420 752 
Q 1681 391 2138 391 
Q 2594 391 2855 752 
Q 3116 1113 3116 1747 
z
M 1159 2969 
Q 1341 3281 1617 3432 
Q 1894 3584 2278 3584 
Q 2916 3584 3314 3078 
Q 3713 2572 3713 1747 
Q 3713 922 3314 415 
Q 2916 -91 2278 -91 
Q 1894 -91 1617 61 
Q 1341 213 1159 525 
L 1159 0 
L 581 0 
L 581 4863 
L 1159 4863 
L 1159 2969 
z
" transform="scale(0.015625)"/>
       <path id="DejaVuSans-4a" d="M 628 4666 
L 1259 4666 
L 1259 325 
Q 1259 -519 939 -900 
Q 619 -1281 -91 -1281 
L -331 -1281 
L -331 -750 
L -134 -750 
Q 284 -750 456 -515 
Q 628 -281 628 325 
L 628 4666 
z
" transform="scale(0.015625)"/>
       <path id="DejaVuSans-69" d="M 603 3500 
L 1178 3500 
L 1178 0 
L 603 0 
L 603 3500 
z
M 603 4863 
L 1178 4863 
L 1178 4134 
L 603 4134 
L 603 4863 
z
" transform="scale(0.015625)"/>
      </defs>
      <use xlink:href="#DejaVuSans-4e"/>
      <use xlink:href="#DejaVuSans-75" x="74.804688"/>
      <use xlink:href="#DejaVuSans-6d" x="138.183594"/>
      <use xlink:href="#DejaVuSans-62" x="235.595703"/>
      <use xlink:href="#DejaVuSans-65" x="299.072266"/>
      <use xlink:href="#DejaVuSans-72" x="360.595703"/>
      <use xlink:href="#DejaVuSans-20" x="401.708984"/>
      <use xlink:href="#DejaVuSans-6f" x="433.496094"/>
      <use xlink:href="#DejaVuSans-66" x="494.677734"/>
      <use xlink:href="#DejaVuSans-20" x="529.882812"/>
      <use xlink:href="#DejaVuSans-4a" x="561.669922"/>
      <use xlink:href="#DejaVuSans-75" x="591.162109"/>
      <use xlink:href="#DejaVuSans-6e" x="654.541016"/>
      <use xlink:href="#DejaVuSans-63" x="717.919922"/>
      <use xlink:href="#DejaVuSans-74" x="772.900391"/>
      <use xlink:href="#DejaVuSans-69" x="812.109375"/>
      <use xlink:href="#DejaVuSans-6f" x="839.892578"/>
      <use xlink:href="#DejaVuSans-6e" x="901.074219"/>
      <use xlink:href="#DejaVuSans-73" x="964.453125"/>
     </g>
    </g>
   </g>
   <g id="line2d_6">
    <path d="M 99.926875 322.851497 
L 146.525625 301.942858 
L 193.124375 284.789353 
L 239.723125 270.003515 
L 286.321875 256.722491 
L 332.920625 245.498508 
L 379.519375 235.006223 
L 426.118125 225.701223 
L 472.716875 217.500674 
L 519.315625 209.665975 
L 565.914375 202.30757 
L 612.513125 195.777503 
L 659.111875 189.661605 
L 705.710625 183.704473 
L 752.309375 178.140801 
L 798.908125 173.136257 
L 845.506875 168.255964 
L 892.105625 163.762229 
L 938.704375 159.537704 
L 985.303125 155.409818 
" clip-path="url(#p373560c196)" style="fill: none; stroke: #7cb5ec; stroke-linecap: square"/>
   </g>
   <g id="line2d_7">
    <path d="M 99.926875 322.637509 
L 146.525625 301.521786 
L 193.124375 283.788444 
L 239.723125 268.319227 
L 286.321875 254.306505 
L 332.920625 242.178252 
L 379.519375 230.685058 
L 426.118125 220.213482 
L 472.716875 210.673786 
L 519.315625 202.183319 
L 565.914375 194.017284 
L 612.513125 186.73481 
L 659.111875 179.783671 
L 705.710625 173.274313 
L 752.309375 166.709732 
L 798.908125 160.904462 
L 845.506875 155.285567 
L 892.105625 150.004911 
L 938.704375 144.813991 
L 985.303125 140.133879 
" clip-path="url(#p373560c196)" style="fill: none; stroke: #434348; stroke-linecap: square"/>
   </g>
   <g id="line2d_8">
    <path d="M 99.926875 319.765937 
L 146.525625 296.406797 
L 193.124375 276.913237 
L 239.723125 260.698515 
L 286.321875 245.767718 
L 332.920625 232.293415 
L 379.519375 219.895952 
L 426.118125 208.810025 
L 472.716875 198.607659 
L 519.315625 188.833267 
L 565.914375 180.011464 
L 612.513125 171.859235 
L 659.111875 163.776034 
L 705.710625 156.017266 
L 752.309375 148.838334 
L 798.908125 142.066669 
L 845.506875 135.792006 
L 892.105625 129.448316 
L 938.704375 123.698268 
L 985.303125 118.307166 
" clip-path="url(#p373560c196)" style="fill: none; stroke: #90ed7d; stroke-linecap: square"/>
   </g>
   <g id="line2d_9">
    <path d="M 99.926875 317.536326 
L 146.525625 292.154661 
L 193.124375 270.942298 
L 239.723125 253.443652 
L 286.321875 237.304862 
L 332.920625 223.706308 
L 379.519375 210.770426 
L 426.118125 198.876869 
L 472.716875 187.894484 
L 519.315625 177.857785 
L 565.914375 168.545882 
L 612.513125 159.144243 
L 659.111875 150.971305 
L 705.710625 143.488649 
L 752.309375 135.895549 
L 798.908125 128.958216 
L 845.506875 122.372926 
L 892.105625 116.457211 
L 938.704375 110.465564 
L 985.303125 105.033045 
" clip-path="url(#p373560c196)" style="fill: none; stroke: #f7a35c; stroke-linecap: square"/>
   </g>
   <g id="line2d_10">
    <path d="M 99.926875 324.742869 
L 146.525625 304.883459 
L 193.124375 287.923233 
L 239.723125 272.902699 
L 286.321875 260.180804 
L 332.920625 248.342469 
L 379.519375 237.484335 
L 426.118125 227.709943 
L 472.716875 218.011483 
L 519.315625 209.093041 
L 565.914375 200.96152 
L 612.513125 193.547892 
L 659.111875 186.576045 
L 705.710625 180.080493 
L 752.309375 173.598746 
L 798.908125 167.558779 
L 845.506875 161.788022 
L 892.105625 156.597103 
L 938.704375 151.13007 
L 985.303125 146.16004 
" clip-path="url(#p373560c196)" style="fill: none; stroke: #8085e9; stroke-linecap: square"/>
   </g>
   <g id="line2d_11">
    <path d="M 99.926875 314.913255 
L 146.525625 288.420236 
L 193.124375 266.662551 
L 239.723125 248.722124 
L 286.321875 232.327929 
L 332.920625 217.51448 
L 379.519375 203.881412 
L 426.118125 192.14662 
L 472.716875 180.867414 
L 519.315625 170.271587 
L 565.914375 160.172763 
L 612.513125 150.90918 
L 659.111875 142.473935 
L 705.710625 134.521888 
L 752.309375 126.749314 
L 798.908125 119.929328 
L 845.506875 113.261205 
L 892.105625 106.675916 
L 938.704375 100.180363 
L 985.303125 94.306065 
" clip-path="url(#p373560c196)" style="fill: none; stroke: #f15c80; stroke-linecap: square"/>
   </g>
   <g id="line2d_12">
    <path d="M 99.926875 324.604813 
L 146.525625 303.530506 
L 193.124375 286.024958 
L 239.723125 271.225314 
L 286.321875 257.751011 
L 332.920625 246.016219 
L 379.519375 235.137376 
L 426.118125 225.466527 
L 472.716875 215.988957 
L 519.315625 207.698671 
L 565.914375 199.739721 
L 612.513125 192.353705 
L 659.111875 184.9953 
L 705.710625 178.837985 
L 752.309375 173.012006 
L 798.908125 167.110096 
L 845.506875 161.387659 
L 892.105625 156.314087 
L 938.704375 151.08175 
L 985.303125 146.028887 
" clip-path="url(#p373560c196)" style="fill: none; stroke: #e4d354; stroke-linecap: square"/>
   </g>
   <g id="line2d_13">
    <path d="M 99.926875 323.61771 
L 146.525625 301.577009 
L 193.124375 283.04294 
L 239.723125 267.974086 
L 286.321875 253.802599 
L 332.920625 241.336108 
L 379.519375 230.146638 
L 426.118125 219.447269 
L 472.716875 210.301034 
L 519.315625 201.617288 
L 565.914375 193.485767 
L 612.513125 185.713193 
L 659.111875 178.258148 
L 705.710625 171.072314 
L 752.309375 164.521539 
L 798.908125 158.15714 
L 845.506875 152.172396 
L 892.105625 146.69846 
L 938.704375 141.852681 
L 985.303125 137.069028 
" clip-path="url(#p373560c196)" style="fill: none; stroke: #2b908f; stroke-linecap: square"/>
   </g>
   <g id="line2d_14">
    <path d="M 99.926875 326.261489 
L 146.525625 307.175195 
L 193.124375 290.746486 
L 239.723125 276.65093 
L 286.321875 264.681442 
L 332.920625 253.747376 
L 379.519375 243.86254 
L 426.118125 234.24001 
L 472.716875 225.935919 
L 519.315625 218.121928 
L 565.914375 210.784231 
L 612.513125 204.081594 
L 659.111875 197.496305 
L 705.710625 191.477047 
L 752.309375 185.671776 
L 798.908125 180.253063 
L 845.506875 175.110463 
L 892.105625 170.616728 
L 938.704375 165.998742 
L 985.303125 161.539521 
" clip-path="url(#p373560c196)" style="fill: none; stroke: #f45b5b; stroke-linecap: square"/>
   </g>
   <g id="line2d_15">
    <path d="M 99.926875 322.513259 
L 146.525625 301.452758 
L 193.124375 283.712513 
L 239.723125 269.168274 
L 286.321875 256.418767 
L 332.920625 244.677072 
L 379.519375 233.984606 
L 426.118125 224.030741 
L 472.716875 214.760255 
L 519.315625 206.511386 
L 565.914375 198.794035 
L 612.513125 191.546075 
L 659.111875 184.940077 
L 705.710625 178.423816 
L 752.309375 172.549517 
L 798.908125 166.771858 
L 845.506875 161.429076 
L 892.105625 156.507366 
L 938.704375 151.585656 
L 985.303125 147.050504 
" clip-path="url(#p373560c196)" style="fill: none; stroke: #91e8e1; stroke-linecap: square"/>
   </g>
   <g id="line2d_16">
    <path d="M 99.926875 328.739601 
L 146.525625 310.502354 
L 193.124375 295.16429 
L 239.723125 281.903975 
L 286.321875 269.789528 
L 332.920625 259.469813 
L 379.519375 249.76445 
L 426.118125 240.866716 
L 472.716875 232.638556 
L 519.315625 225.397499 
L 565.914375 218.108122 
L 612.513125 211.667792 
L 659.111875 205.406935 
L 705.710625 200.091765 
L 752.309375 194.341717 
L 798.908125 188.84017 
L 845.506875 183.952974 
L 892.105625 179.362599 
L 938.704375 174.820545 
L 985.303125 170.340615 
" clip-path="url(#p373560c196)" style="fill: none; stroke: #7cb5ec; stroke-linecap: square"/>
   </g>
   <g id="line2d_17">
    <path d="M 99.926875 320.1663 
L 146.525625 296.386089 
L 193.124375 276.630221 
L 239.723125 260.022039 
L 286.321875 245.132658 
L 332.920625 231.506494 
L 379.519375 219.122837 
L 426.118125 208.147354 
L 472.716875 197.482499 
L 519.315625 188.356973 
L 565.914375 179.452336 
L 612.513125 170.685756 
L 659.111875 163.410185 
L 705.710625 155.982752 
L 752.309375 149.086836 
L 798.908125 142.53606 
L 845.506875 136.012897 
L 892.105625 130.380196 
L 938.704375 124.623245 
L 985.303125 118.921517 
" clip-path="url(#p373560c196)" style="fill: none; stroke: #434348; stroke-linecap: square"/>
   </g>
   <g id="line2d_18">
    <path d="M 99.926875 316.072928 
L 146.525625 290.19426 
L 193.124375 268.402061 
L 239.723125 249.805867 
L 286.321875 234.136468 
L 332.920625 220.116842 
L 379.519375 207.077418 
L 426.118125 195.004387 
L 472.716875 183.780404 
L 519.315625 173.308827 
L 565.914375 163.679395 
L 612.513125 154.58148 
L 659.111875 146.47757 
L 705.710625 138.4703 
L 752.309375 130.918616 
L 798.908125 124.11934 
L 845.506875 117.540953 
L 892.105625 111.231777 
L 938.704375 105.295352 
L 985.303125 99.386539 
" clip-path="url(#p373560c196)" style="fill: none; stroke: #90ed7d; stroke-linecap: square"/>
   </g>
   <g id="line2d_19">
    <path d="M 99.926875 326.151044 
L 146.525625 305.67038 
L 193.124375 288.99317 
L 239.723125 274.54557 
L 286.321875 262.072176 
L 332.920625 250.461635 
L 379.519375 240.135017 
L 426.118125 230.740281 
L 472.716875 221.808033 
L 519.315625 213.531553 
L 565.914375 205.993675 
L 612.513125 199.118467 
L 659.111875 192.553886 
L 705.710625 186.396572 
L 752.309375 180.618913 
L 798.908125 175.082852 
L 845.506875 169.712459 
L 892.105625 164.604373 
L 938.704375 159.758594 
L 985.303125 155.540971 
" clip-path="url(#p373560c196)" style="fill: none; stroke: #f7a35c; stroke-linecap: square"/>
   </g>
   <g id="line2d_20">
    <path d="M 99.926875 321.774657 
L 146.525625 299.568288 
L 193.124375 281.420777 
L 239.723125 265.50978 
L 286.321875 251.124305 
L 332.920625 239.134109 
L 379.519375 227.592595 
L 426.118125 216.499765 
L 472.716875 206.81511 
L 519.315625 198.083044 
L 565.914375 189.495938 
L 612.513125 181.999476 
L 659.111875 174.751516 
L 705.710625 167.959143 
L 752.309375 161.14606 
L 798.908125 154.795467 
L 845.506875 148.762403 
L 892.105625 143.336787 
L 938.704375 138.214896 
L 985.303125 133.072296 
" clip-path="url(#p373560c196)" style="fill: none; stroke: #8085e9; stroke-linecap: square"/>
   </g>
   <g id="line2d_21">
    <path d="M 99.926875 323.976656 
L 146.525625 302.888544 
L 193.124375 285.093077 
L 239.723125 269.651471 
L 286.321875 255.466178 
L 332.920625 243.213675 
L 379.519375 231.91376 
L 426.118125 221.110848 
L 472.716875 211.350262 
L 519.315625 202.30757 
L 565.914375 194.044895 
L 612.513125 186.092848 
L 659.111875 178.575678 
L 705.710625 171.741887 
L 752.309375 165.322266 
L 798.908125 159.033798 
L 845.506875 153.221624 
L 892.105625 147.492284 
L 938.704375 142.384198 
L 985.303125 136.806721 
" clip-path="url(#p373560c196)" style="fill: none; stroke: #f15c80; stroke-linecap: square"/>
   </g>
   <g id="line2d_22">
    <path d="M 99.926875 314.243681 
L 146.525625 287.364105 
L 193.124375 265.364821 
L 239.723125 246.692695 
L 286.321875 229.870526 
L 332.920625 214.504851 
L 379.519375 200.69231 
L 426.118125 188.467418 
L 472.716875 176.491027 
L 519.315625 165.777852 
L 565.914375 155.389109 
L 612.513125 146.132429 
L 659.111875 137.552225 
L 705.710625 129.834874 
L 752.309375 122.131328 
L 798.908125 114.49681 
L 845.506875 107.593991 
L 892.105625 101.091536 
L 938.704375 95.065375 
L 985.303125 89.122048 
" clip-path="url(#p373560c196)" style="fill: none; stroke: #e4d354; stroke-linecap: square"/>
   </g>
   <g id="line2d_23">
    <path d="M 99.926875 319.869479 
L 146.525625 295.978823 
L 193.124375 276.409331 
L 239.723125 259.497425 
L 286.321875 244.014402 
L 332.920625 230.415848 
L 379.519375 218.0529 
L 426.118125 207.174057 
L 472.716875 196.48159 
L 519.315625 186.51392 
L 565.914375 177.809465 
L 612.513125 169.47086 
L 659.111875 161.484298 
L 705.710625 154.339881 
L 752.309375 147.243783 
L 798.908125 140.84487 
L 845.506875 134.604722 
L 892.105625 128.72352 
L 938.704375 123.449766 
L 985.303125 118.051762 
" clip-path="url(#p373560c196)" style="fill: none; stroke: #2b908f; stroke-linecap: square"/>
   </g>
   <g id="line2d_24">
    <path d="M 99.926875 327.24169 
L 146.525625 309.432417 
L 193.124375 293.873463 
L 239.723125 281.130859 
L 286.321875 270.396976 
L 332.920625 260.180804 
L 379.519375 251.448738 
L 426.118125 242.889242 
L 472.716875 235.592963 
L 519.315625 228.3381 
L 565.914375 222.208397 
L 612.513125 216.078693 
L 659.111875 210.011116 
L 705.710625 204.958252 
L 752.309375 200.354072 
L 798.908125 195.736086 
L 845.506875 191.200934 
L 892.105625 187.024729 
L 938.704375 183.304109 
L 985.303125 179.334988 
" clip-path="url(#p373560c196)" style="fill: none; stroke: #f45b5b; stroke-linecap: square"/>
   </g>
   <g id="line2d_25">
    <path d="M 99.926875 319.296545 
L 146.525625 294.18409 
L 193.124375 274.614598 
L 239.723125 257.053827 
L 286.321875 241.840014 
L 332.920625 228.469253 
L 379.519375 216.313389 
L 426.118125 205.158434 
L 472.716875 194.659246 
L 519.315625 184.781312 
L 565.914375 175.37277 
L 612.513125 167.206735 
L 659.111875 158.902644 
L 705.710625 151.102459 
L 752.309375 143.819985 
L 798.908125 137.110445 
L 845.506875 130.628698 
L 892.105625 124.436869 
L 938.704375 118.590182 
L 985.303125 113.054121 
" clip-path="url(#p373560c196)" style="fill: none; stroke: #91e8e1; stroke-linecap: square"/>
   </g>
   <g id="line2d_26">
    <path d="M 99.926875 320.43551 
L 146.525625 297.628596 
L 193.124375 278.70797 
L 239.723125 262.3759 
L 286.321875 248.24583 
L 332.920625 235.80695 
L 379.519375 224.154992 
L 426.118125 213.531553 
L 472.716875 203.626008 
L 519.315625 194.314105 
L 565.914375 185.858152 
L 612.513125 177.402199 
L 659.111875 169.746973 
L 705.710625 162.678486 
L 752.309375 155.948238 
L 798.908125 149.362948 
L 845.506875 143.675026 
L 892.105625 138.24941 
L 938.704375 132.934239 
L 985.303125 127.446498 
" clip-path="url(#p373560c196)" style="fill: none; stroke: #7cb5ec; stroke-linecap: square"/>
   </g>
   <g id="line2d_27">
    <path d="M 99.926875 322.168118 
L 146.525625 300.458752 
L 193.124375 282.221504 
L 239.723125 266.752287 
L 286.321875 253.478166 
L 332.920625 241.108315 
L 379.519375 229.628927 
L 426.118125 219.129739 
L 472.716875 209.672877 
L 519.315625 200.616379 
L 565.914375 192.112106 
L 612.513125 184.463783 
L 659.111875 177.395296 
L 705.710625 170.071405 
L 752.309375 163.61727 
L 798.908125 157.680845 
L 845.506875 152.061951 
L 892.105625 146.443056 
L 938.704375 141.141691 
L 985.303125 136.433969 
" clip-path="url(#p373560c196)" style="fill: none; stroke: #434348; stroke-linecap: square"/>
   </g>
   <g id="line2d_28">
    <path d="M 99.926875 324.273477 
L 146.525625 304.220788 
L 193.124375 288.081998 
L 239.723125 273.724134 
L 286.321875 260.850377 
L 332.920625 249.253641 
L 379.519375 238.6233 
L 426.118125 228.8282 
L 472.716875 220.268704 
L 519.315625 212.213115 
L 565.914375 204.523375 
L 612.513125 197.572236 
L 659.111875 190.745348 
L 705.710625 184.180767 
L 752.309375 178.182217 
L 798.908125 172.584031 
L 845.506875 167.261958 
L 892.105625 162.76132 
L 938.704375 157.88793 
L 985.303125 153.076665 
" clip-path="url(#p373560c196)" style="fill: none; stroke: #90ed7d; stroke-linecap: square"/>
   </g>
   <g id="line2d_29">
    <path d="M 99.926875 323.155221 
L 146.525625 301.866927 
L 193.124375 283.905792 
L 239.723125 268.222588 
L 286.321875 254.658548 
L 332.920625 242.495781 
L 379.519375 231.368437 
L 426.118125 220.889958 
L 472.716875 211.819654 
L 519.315625 202.839087 
L 565.914375 194.624732 
L 612.513125 187.218007 
L 659.111875 179.887214 
L 705.710625 173.163868 
L 752.309375 166.716635 
L 798.908125 160.511001 
L 845.506875 154.843787 
L 892.105625 149.211086 
L 938.704375 144.330793 
L 985.303125 139.284833 
" clip-path="url(#p373560c196)" style="fill: none; stroke: #f7a35c; stroke-linecap: square"/>
   </g>
   <g id="line2d_30">
    <path d="M 99.926875 320.649497 
L 146.525625 298.215336 
L 193.124375 279.812421 
L 239.723125 264.743567 
L 286.321875 251.786976 
L 332.920625 240.114309 
L 379.519375 229.863623 
L 426.118125 220.386052 
L 472.716875 211.633278 
L 519.315625 203.833093 
L 565.914375 196.329728 
L 612.513125 189.723731 
L 659.111875 183.628542 
L 705.710625 177.581672 
L 752.309375 171.948972 
L 798.908125 166.806372 
L 845.506875 162.367859 
L 892.105625 158.10882 
L 938.704375 154.056865 
L 985.303125 149.998008 
" clip-path="url(#p373560c196)" style="fill: none; stroke: #8085e9; stroke-linecap: square"/>
   </g>
   <g id="line2d_31">
    <path d="M 99.926875 308.610981 
L 146.525625 278.204064 
L 193.124375 253.146831 
L 239.723125 232.307221 
L 286.321875 212.81366 
L 332.920625 195.653252 
L 379.519375 180.135715 
L 426.118125 166.378397 
L 472.716875 153.083568 
L 519.315625 140.74823 
L 565.914375 129.399996 
L 612.513125 118.617793 
L 659.111875 108.353301 
L 705.710625 98.744577 
L 752.309375 89.922775 
L 798.908125 81.625586 
L 845.506875 73.963457 
L 892.105625 66.542927 
L 938.704375 59.660816 
L 985.303125 53.068624 
" clip-path="url(#p373560c196)" style="fill: none; stroke: #f15c80; stroke-linecap: square"/>
   </g>
   <g id="line2d_32">
    <path d="M 99.926875 314.319612 
L 146.525625 286.390807 
L 193.124375 263.770269 
L 239.723125 244.048916 
L 286.321875 226.481242 
L 332.920625 210.162978 
L 379.519375 196.150255 
L 426.118125 183.152247 
L 472.716875 171.224176 
L 519.315625 160.683571 
L 565.914375 150.067036 
L 612.513125 141.176205 
L 659.111875 132.575293 
L 705.710625 124.347133 
L 752.309375 116.132778 
L 798.908125 108.732956 
L 845.506875 101.588539 
L 892.105625 94.85829 
L 938.704375 88.866643 
L 985.303125 82.978539 
" clip-path="url(#p373560c196)" style="fill: none; stroke: #e4d354; stroke-linecap: square"/>
   </g>
   <g id="line2d_33">
    <path d="M 99.926875 320.173203 
L 146.525625 296.786452 
L 193.124375 277.272183 
L 239.723125 260.891794 
L 286.321875 246.237109 
L 332.920625 232.293415 
L 379.519375 220.510303 
L 426.118125 209.41057 
L 472.716875 198.85616 
L 519.315625 188.909198 
L 565.914375 180.004562 
L 612.513125 171.548608 
L 659.111875 163.748423 
L 705.710625 155.713542 
L 752.309375 148.451776 
L 798.908125 141.60418 
L 845.506875 134.853223 
L 892.105625 128.744228 
L 938.704375 123.139139 
L 985.303125 117.568564 
" clip-path="url(#p373560c196)" style="fill: none; stroke: #2b908f; stroke-linecap: square"/>
   </g>
   <g id="line2d_34">
    <path d="M 99.926875 325.032787 
L 146.525625 304.37265 
L 193.124375 286.597892 
L 239.723125 271.321953 
L 286.321875 257.28162 
L 332.920625 244.835837 
L 379.519375 233.535922 
L 426.118125 222.92629 
L 472.716875 213.193315 
L 519.315625 204.626917 
L 565.914375 196.426368 
L 612.513125 188.212013 
L 659.111875 180.687941 
L 705.710625 173.426175 
L 752.309375 166.992748 
L 798.908125 160.773308 
L 845.506875 154.97494 
L 892.105625 149.045419 
L 938.704375 143.868305 
L 985.303125 138.601454 
" clip-path="url(#p373560c196)" style="fill: none; stroke: #f45b5b; stroke-linecap: square"/>
   </g>
   <g id="line2d_35">
    <path d="M 99.926875 319.814256 
L 146.525625 296.130685 
L 193.124375 277.927951 
L 239.723125 261.602784 
L 286.321875 246.768626 
L 332.920625 233.901772 
L 379.519375 222.401676 
L 426.118125 211.902488 
L 472.716875 202.390403 
L 519.315625 193.71356 
L 565.914375 185.720096 
L 612.513125 177.988939 
L 659.111875 170.76859 
L 705.710625 164.197106 
L 752.309375 157.915541 
L 798.908125 151.923894 
L 845.506875 146.52589 
L 892.105625 141.307359 
L 938.704375 136.551316 
L 985.303125 131.636509 
" clip-path="url(#p373560c196)" style="fill: none; stroke: #91e8e1; stroke-linecap: square"/>
   </g>
   <g id="line2d_36">
    <path d="M 99.926875 321.933422 
L 146.525625 300.327599 
L 193.124375 281.482903 
L 239.723125 265.896338 
L 286.321875 252.201145 
L 332.920625 239.693237 
L 379.519375 228.503767 
L 426.118125 217.797495 
L 472.716875 208.409662 
L 519.315625 199.194398 
L 565.914375 191.21474 
L 612.513125 183.511194 
L 659.111875 175.780036 
L 705.710625 169.174039 
L 752.309375 162.989113 
L 798.908125 156.528074 
L 845.506875 150.791832 
L 892.105625 145.166034 
L 938.704375 140.327158 
L 985.303125 135.38474 
" clip-path="url(#p373560c196)" style="fill: none; stroke: #7cb5ec; stroke-linecap: square"/>
   </g>
   <g id="line2d_37">
    <path d="M 99.926875 315.527606 
L 146.525625 289.966467 
L 193.124375 269.016412 
L 239.723125 250.848192 
L 286.321875 234.488512 
L 332.920625 220.227288 
L 379.519375 207.381142 
L 426.118125 195.418556 
L 472.716875 184.491394 
L 519.315625 174.489209 
L 565.914375 165.046153 
L 612.513125 156.1001 
L 659.111875 147.816717 
L 705.710625 140.189102 
L 752.309375 132.899725 
L 798.908125 126.183282 
L 845.506875 119.929328 
L 892.105625 114.041224 
L 938.704375 108.249759 
L 985.303125 102.803435 
" clip-path="url(#p373560c196)" style="fill: none; stroke: #434348; stroke-linecap: square"/>
   </g>
   <g id="line2d_38">
    <path d="M 99.926875 315.417161 
L 146.525625 289.034587 
L 193.124375 267.691071 
L 239.723125 249.529754 
L 286.321875 233.135559 
L 332.920625 219.046906 
L 379.519375 205.979869 
L 426.118125 193.865422 
L 472.716875 182.972774 
L 519.315625 172.487392 
L 565.914375 163.382574 
L 612.513125 154.153505 
L 659.111875 145.932247 
L 705.710625 138.311535 
L 752.309375 131.056673 
L 798.908125 124.215979 
L 845.506875 117.423605 
L 892.105625 110.990178 
L 938.704375 105.391992 
L 985.303125 99.669555 
" clip-path="url(#p373560c196)" style="fill: none; stroke: #90ed7d; stroke-linecap: square"/>
   </g>
   <g id="line2d_39">
    <path d="M 99.926875 315.534509 
L 146.525625 289.21406 
L 193.124375 267.152651 
L 239.723125 248.24583 
L 286.321875 232.369346 
L 332.920625 217.693953 
L 379.519375 204.523375 
L 426.118125 192.588401 
L 472.716875 181.833809 
L 519.315625 171.562414 
L 565.914375 161.891565 
L 612.513125 153.062859 
L 659.111875 144.889922 
L 705.710625 137.510808 
L 752.309375 130.028153 
L 798.908125 122.849221 
L 845.506875 116.691906 
L 892.105625 110.70026 
L 938.704375 105.074462 
L 985.303125 99.759292 
" clip-path="url(#p373560c196)" style="fill: none; stroke: #f7a35c; stroke-linecap: square"/>
   </g>
   <g id="line2d_40">
    <path d="M 99.926875 324.653132 
L 146.525625 304.586638 
L 193.124375 287.170826 
L 239.723125 272.177903 
L 286.321875 259.041838 
L 332.920625 246.533931 
L 379.519375 236.193508 
L 426.118125 226.080878 
L 472.716875 216.872518 
L 519.315625 208.547718 
L 565.914375 200.174599 
L 612.513125 192.51247 
L 659.111875 184.77441 
L 705.710625 178.06487 
L 752.309375 171.590025 
L 798.908125 165.715726 
L 845.506875 159.986387 
L 892.105625 154.574577 
L 938.704375 149.280115 
L 985.303125 144.165126 
" clip-path="url(#p373560c196)" style="fill: none; stroke: #8085e9; stroke-linecap: square"/>
   </g>
   <g id="line2d_41">
    <path d="M 99.926875 320.048952 
L 146.525625 296.820966 
L 193.124375 277.210058 
L 239.723125 260.525945 
L 286.321875 245.691787 
L 332.920625 232.590236 
L 379.519375 220.275607 
L 426.118125 208.92047 
L 472.716875 198.63527 
L 519.315625 189.240533 
L 565.914375 180.377314 
L 612.513125 172.28721 
L 659.111875 164.383482 
L 705.710625 156.831798 
L 752.309375 150.004911 
L 798.908125 143.288468 
L 845.506875 136.827429 
L 892.105625 130.904811 
L 938.704375 125.292819 
L 985.303125 120.17783 
" clip-path="url(#p373560c196)" style="fill: none; stroke: #f15c80; stroke-linecap: square"/>
   </g>
   <g id="line2d_42">
    <path d="M 99.926875 321.526155 
L 146.525625 298.857298 
L 193.124375 279.632947 
L 239.723125 263.72195 
L 286.321875 249.467629 
L 332.920625 236.945915 
L 379.519375 224.948816 
L 426.118125 213.84218 
L 472.716875 204.102303 
L 519.315625 194.755886 
L 565.914375 186.375864 
L 612.513125 178.271954 
L 659.111875 169.974766 
L 705.710625 162.844154 
L 752.309375 156.044877 
L 798.908125 149.742603 
L 845.506875 143.281565 
L 892.105625 137.593642 
L 938.704375 132.009262 
L 985.303125 126.942593 
" clip-path="url(#p373560c196)" style="fill: none; stroke: #e4d354; stroke-linecap: square"/>
   </g>
   <g id="line2d_43">
    <path d="M 99.926875 317.191185 
L 146.525625 291.636949 
L 193.124375 270.521226 
L 239.723125 252.083797 
L 286.321875 236.497232 
L 332.920625 222.035826 
L 379.519375 209.265611 
L 426.118125 197.220192 
L 472.716875 186.279224 
L 519.315625 176.097566 
L 565.914375 167.075582 
L 612.513125 158.619629 
L 659.111875 150.391468 
L 705.710625 142.542963 
L 752.309375 135.246684 
L 798.908125 128.744228 
L 845.506875 122.428149 
L 892.105625 116.270834 
L 938.704375 110.534592 
L 985.303125 105.012337 
" clip-path="url(#p373560c196)" style="fill: none; stroke: #2b908f; stroke-linecap: square"/>
   </g>
   <g id="line2d_44">
    <path d="M 99.926875 321.691823 
L 146.525625 299.789179 
L 193.124375 280.799524 
L 239.723125 264.65383 
L 286.321875 250.185522 
L 332.920625 237.346279 
L 379.519375 225.47343 
L 426.118125 215.402217 
L 472.716875 205.634728 
L 519.315625 196.412562 
L 565.914375 188.018734 
L 612.513125 180.12191 
L 659.111875 172.563323 
L 705.710625 165.142792 
L 752.309375 158.5506 
L 798.908125 152.358772 
L 845.506875 146.394736 
L 892.105625 140.596368 
L 938.704375 135.087919 
L 985.303125 129.883193 
" clip-path="url(#p373560c196)" style="fill: none; stroke: #f45b5b; stroke-linecap: square"/>
   </g>
   <g id="line2d_45">
    <path d="M 99.926875 311.917431 
L 146.525625 283.539943 
L 193.124375 260.995336 
L 239.723125 242.095418 
L 286.321875 225.570069 
L 332.920625 210.639272 
L 379.519375 197.330637 
L 426.118125 185.133356 
L 472.716875 174.033623 
L 519.315625 163.707006 
L 565.914375 154.698827 
L 612.513125 145.752774 
L 659.111875 137.566031 
L 705.710625 129.876291 
L 752.309375 122.510983 
L 798.908125 115.663386 
L 845.506875 109.250668 
L 892.105625 103.114062 
L 938.704375 97.13622 
L 985.303125 91.289533 
" clip-path="url(#p373560c196)" style="fill: none; stroke: #91e8e1; stroke-linecap: square"/>
   </g>
   <g id="line2d_46">
    <path d="M 99.926875 320.552858 
L 146.525625 297.787361 
L 193.124375 278.673456 
L 239.723125 262.589887 
L 286.321875 248.508137 
L 332.920625 235.793144 
L 379.519375 224.776245 
L 426.118125 214.346086 
L 472.716875 204.751168 
L 519.315625 196.03981 
L 565.914375 187.625274 
L 612.513125 179.631809 
L 659.111875 172.273404 
L 705.710625 165.032347 
L 752.309375 158.91645 
L 798.908125 152.910997 
L 845.506875 147.257589 
L 892.105625 141.77675 
L 938.704375 136.661762 
L 985.303125 131.822885 
" clip-path="url(#p373560c196)" style="fill: none; stroke: #7cb5ec; stroke-linecap: square"/>
   </g>
   <g id="line2d_47">
    <path d="M 99.926875 321.263848 
L 146.525625 297.718333 
L 193.124375 279.563919 
L 239.723125 263.866909 
L 286.321875 249.605685 
L 332.920625 237.070166 
L 379.519375 225.335374 
L 426.118125 215.008756 
L 472.716875 205.448352 
L 519.315625 196.336631 
L 565.914375 187.645982 
L 612.513125 179.562781 
L 659.111875 171.776401 
L 705.710625 164.445608 
L 752.309375 157.818902 
L 798.908125 151.640879 
L 845.506875 145.787288 
L 892.105625 139.781836 
L 938.704375 134.066302 
L 985.303125 128.72352 
" clip-path="url(#p373560c196)" style="fill: none; stroke: #434348; stroke-linecap: square"/>
   </g>
   <g id="line2d_48">
    <path d="M 99.926875 320.614983 
L 146.525625 298.29817 
L 193.124375 279.356835 
L 239.723125 262.866 
L 286.321875 247.893786 
L 332.920625 234.861264 
L 379.519375 223.154083 
L 426.118125 212.551353 
L 472.716875 202.977143 
L 519.315625 193.975867 
L 565.914375 185.409469 
L 612.513125 177.692117 
L 659.111875 170.706465 
L 705.710625 164.10737 
L 752.309375 157.232162 
L 798.908125 150.633067 
L 845.506875 144.544781 
L 892.105625 138.725704 
L 938.704375 133.424339 
L 985.303125 127.729514 
" clip-path="url(#p373560c196)" style="fill: none; stroke: #90ed7d; stroke-linecap: square"/>
   </g>
   <g id="line2d_49">
    <path d="M 99.926875 315.085825 
L 146.525625 287.688537 
L 193.124375 265.889435 
L 239.723125 247.258727 
L 286.321875 230.326112 
L 332.920625 214.953534 
L 379.519375 201.741538 
L 426.118125 189.268145 
L 472.716875 177.899202 
L 519.315625 167.441431 
L 565.914375 158.115723 
L 612.513125 148.686472 
L 659.111875 140.044143 
L 705.710625 131.940233 
L 752.309375 124.34023 
L 798.908125 116.947311 
L 845.506875 109.706254 
L 892.105625 103.217604 
L 938.704375 97.046484 
L 985.303125 91.317144 
" clip-path="url(#p373560c196)" style="fill: none; stroke: #f7a35c; stroke-linecap: square"/>
   </g>
   <g id="line2d_50">
    <path d="M 99.926875 312.69745 
L 146.525625 285.09998 
L 193.124375 262.921223 
L 239.723125 243.213675 
L 286.321875 225.611486 
L 332.920625 210.818745 
L 379.519375 197.447985 
L 426.118125 185.009105 
L 472.716875 173.729899 
L 519.315625 162.961502 
L 565.914375 153.318264 
L 612.513125 144.296279 
L 659.111875 135.771298 
L 705.710625 127.819251 
L 752.309375 120.61961 
L 798.908125 113.288817 
L 845.506875 106.275553 
L 892.105625 99.855931 
L 938.704375 94.168008 
L 985.303125 88.445571 
" clip-path="url(#p373560c196)" style="fill: none; stroke: #8085e9; stroke-linecap: square"/>
   </g>
   <g id="line2d_51">
    <path d="M 99.926875 312.027877 
L 146.525625 283.719416 
L 193.124375 260.836571 
L 239.723125 241.273983 
L 286.321875 224.044546 
L 332.920625 208.043812 
L 379.519375 193.437447 
L 426.118125 180.681038 
L 472.716875 169.146427 
L 519.315625 158.585114 
L 565.914375 148.251595 
L 612.513125 138.649773 
L 659.111875 129.579469 
L 705.710625 120.819792 
L 752.309375 112.619243 
L 798.908125 104.894989 
L 845.506875 97.709154 
L 892.105625 90.951295 
L 938.704375 84.655924 
L 985.303125 78.553832 
" clip-path="url(#p373560c196)" style="fill: none; stroke: #f15c80; stroke-linecap: square"/>
   </g>
   <g id="line2d_52">
    <path d="M 99.926875 317.405173 
L 146.525625 292.375551 
L 193.124375 271.377176 
L 239.723125 253.188248 
L 286.321875 236.897595 
L 332.920625 222.698497 
L 379.519375 209.403667 
L 426.118125 196.909565 
L 472.716875 185.940986 
L 519.315625 175.64198 
L 565.914375 166.495745 
L 612.513125 157.439247 
L 659.111875 149.038516 
L 705.710625 141.293553 
L 752.309375 133.555493 
L 798.908125 126.493909 
L 845.506875 120.025968 
L 892.105625 113.51661 
L 938.704375 107.117697 
L 985.303125 101.29862 
" clip-path="url(#p373560c196)" style="fill: none; stroke: #e4d354; stroke-linecap: square"/>
   </g>
   <g id="line2d_53">
    <path d="M 99.926875 315.451675 
L 146.525625 288.937947 
L 193.124375 267.339027 
L 239.723125 248.618582 
L 286.321875 232.093233 
L 332.920625 217.604216 
L 379.519375 204.792584 
L 426.118125 192.284677 
L 472.716875 180.78458 
L 519.315625 170.27849 
L 565.914375 160.248694 
L 612.513125 151.185293 
L 659.111875 142.798368 
L 705.710625 134.818709 
L 752.309375 126.990912 
L 798.908125 119.646313 
L 845.506875 112.681369 
L 892.105625 106.165108 
L 938.704375 100.387448 
L 985.303125 94.506246 
" clip-path="url(#p373560c196)" style="fill: none; stroke: #2b908f; stroke-linecap: square"/>
   </g>
   <g id="line2d_54">
    <path d="M 99.926875 324.735966 
L 146.525625 303.88255 
L 193.124375 287.177728 
L 239.723125 272.868185 
L 286.321875 259.718315 
L 332.920625 248.156093 
L 379.519375 237.208222 
L 426.118125 227.233649 
L 472.716875 218.045997 
L 519.315625 209.596946 
L 565.914375 202.300667 
L 612.513125 194.824914 
L 659.111875 187.583857 
L 705.710625 181.157332 
L 752.309375 175.034532 
L 798.908125 169.532985 
L 845.506875 163.920994 
L 892.105625 159.095923 
L 938.704375 154.298464 
L 985.303125 149.604547 
" clip-path="url(#p373560c196)" style="fill: none; stroke: #f45b5b; stroke-linecap: square"/>
   </g>
   <g id="line2d_55">
    <path d="M 99.926875 324.073296 
L 146.525625 302.798808 
L 193.124375 285.921415 
L 239.723125 271.087257 
L 286.321875 258.462002 
L 332.920625 246.89978 
L 379.519375 236.490329 
L 426.118125 226.840188 
L 472.716875 217.321201 
L 519.315625 208.789317 
L 565.914375 200.899395 
L 612.513125 193.644532 
L 659.111875 186.907381 
L 705.710625 180.363508 
L 752.309375 173.874858 
L 798.908125 168.249061 
L 845.506875 162.733709 
L 892.105625 157.183842 
L 938.704375 152.082659 
L 985.303125 147.526799 
" clip-path="url(#p373560c196)" style="fill: none; stroke: #91e8e1; stroke-linecap: square"/>
   </g>
   <g id="line2d_56">
    <path d="M 99.926875 325.930154 
L 146.525625 305.580644 
L 193.124375 288.72396 
L 239.723125 273.931219 
L 286.321875 260.802057 
L 332.920625 249.087974 
L 379.519375 239.327388 
L 426.118125 230.084513 
L 472.716875 221.621657 
L 519.315625 213.66961 
L 565.914375 205.876327 
L 612.513125 198.462699 
L 659.111875 191.994758 
L 705.710625 185.796027 
L 752.309375 179.562781 
L 798.908125 173.943887 
L 845.506875 168.61491 
L 892.105625 163.61727 
L 938.704375 158.757685 
L 985.303125 154.091379 
" clip-path="url(#p373560c196)" style="fill: none; stroke: #7cb5ec; stroke-linecap: square"/>
   </g>
   <g id="line2d_57">
    <path d="M 99.926875 325.62643 
L 146.525625 305.187183 
L 193.124375 288.35811 
L 239.723125 273.951927 
L 286.321875 261.188615 
L 332.920625 249.916312 
L 379.519375 239.458541 
L 426.118125 229.884331 
L 472.716875 221.421475 
L 519.315625 213.517748 
L 565.914375 205.779688 
L 612.513125 198.787132 
L 659.111875 192.519372 
L 705.710625 186.334447 
L 752.309375 180.280674 
L 798.908125 174.530626 
L 845.506875 169.298289 
L 892.105625 164.521539 
L 938.704375 160.027804 
L 985.303125 155.858501 
" clip-path="url(#p373560c196)" style="fill: none; stroke: #434348; stroke-linecap: square"/>
   </g>
   <g id="line2d_58">
    <path d="M 99.926875 319.99373 
L 146.525625 296.358478 
L 193.124375 276.968459 
L 239.723125 260.208415 
L 286.321875 245.457091 
L 332.920625 232.031108 
L 379.519375 220.358441 
L 426.118125 209.106846 
L 472.716875 199.014925 
L 519.315625 188.881587 
L 565.914375 179.590393 
L 612.513125 171.376038 
L 659.111875 163.465407 
L 705.710625 155.837793 
L 752.309375 149.079933 
L 798.908125 142.736242 
L 845.506875 136.63415 
L 892.105625 130.697726 
L 938.704375 124.78201 
L 985.303125 119.363297 
" clip-path="url(#p373560c196)" style="fill: none; stroke: #90ed7d; stroke-linecap: square"/>
   </g>
   <g id="line2d_59">
    <path d="M 99.926875 324.363214 
L 146.525625 303.21988 
L 193.124375 286.584086 
L 239.723125 271.915596 
L 286.321875 258.43439 
L 332.920625 245.878163 
L 379.519375 234.819847 
L 426.118125 224.852176 
L 472.716875 215.498857 
L 519.315625 206.635637 
L 565.914375 198.614561 
L 612.513125 191.028363 
L 659.111875 184.035808 
L 705.710625 177.139892 
L 752.309375 170.609825 
L 798.908125 164.631984 
L 845.506875 159.08902 
L 892.105625 153.739336 
L 938.704375 148.327526 
L 985.303125 143.654317 
" clip-path="url(#p373560c196)" style="fill: none; stroke: #f7a35c; stroke-linecap: square"/>
   </g>
   <g id="line2d_60">
    <path d="M 99.926875 322.58919 
L 146.525625 300.596808 
L 193.124375 282.338852 
L 239.723125 266.959372 
L 286.321875 252.739565 
L 332.920625 240.314491 
L 379.519375 228.441642 
L 426.118125 217.762981 
L 472.716875 207.477781 
L 519.315625 198.186587 
L 565.914375 189.55116 
L 612.513125 181.564599 
L 659.111875 174.109554 
L 705.710625 166.999651 
L 752.309375 160.448876 
L 798.908125 153.974031 
L 845.506875 148.016899 
L 892.105625 142.073572 
L 938.704375 136.572025 
L 985.303125 131.505356 
" clip-path="url(#p373560c196)" style="fill: none; stroke: #8085e9; stroke-linecap: square"/>
   </g>
   <g id="line2d_61">
    <path d="M 99.926875 323.03097 
L 146.525625 302.101623 
L 193.124375 284.678908 
L 239.723125 269.050926 
L 286.321875 255.293608 
L 332.920625 242.820214 
L 379.519375 231.803315 
L 426.118125 221.732102 
L 472.716875 212.061253 
L 519.315625 202.928823 
L 565.914375 194.355522 
L 612.513125 186.389669 
L 659.111875 178.45833 
L 705.710625 171.769499 
L 752.309375 164.977125 
L 798.908125 158.460864 
L 845.506875 152.779844 
L 892.105625 147.098824 
L 938.704375 141.473026 
L 985.303125 136.123342 
" clip-path="url(#p373560c196)" style="fill: none; stroke: #f15c80; stroke-linecap: square"/>
   </g>
   <g id="line2d_62">
    <path d="M 99.926875 322.741052 
L 146.525625 300.52778 
L 193.124375 281.565737 
L 239.723125 265.212959 
L 286.321875 250.737747 
L 332.920625 237.180611 
L 379.519375 225.597681 
L 426.118125 215.063979 
L 472.716875 205.172239 
L 519.315625 195.894851 
L 565.914375 187.155882 
L 612.513125 179.031264 
L 659.111875 171.410552 
L 705.710625 164.342065 
L 752.309375 157.694651 
L 798.908125 151.57185 
L 845.506875 146.139332 
L 892.105625 140.589466 
L 938.704375 135.453768 
L 985.303125 130.380196 
" clip-path="url(#p373560c196)" style="fill: none; stroke: #e4d354; stroke-linecap: square"/>
   </g>
   <g id="line2d_63">
    <path d="M 99.926875 318.59936 
L 146.525625 294.618967 
L 193.124375 275.567187 
L 239.723125 259.055644 
L 286.321875 244.849643 
L 332.920625 231.568619 
L 379.519375 220.310121 
L 426.118125 210.280325 
L 472.716875 200.809658 
L 519.315625 192.153523 
L 565.914375 183.766598 
L 612.513125 175.931898 
L 659.111875 168.870315 
L 705.710625 162.243609 
L 752.309375 156.065586 
L 798.908125 149.949688 
L 845.506875 144.330793 
L 892.105625 139.346958 
L 938.704375 134.763486 
L 985.303125 130.110986 
" clip-path="url(#p373560c196)" style="fill: none; stroke: #2b908f; stroke-linecap: square"/>
   </g>
   <g id="line2d_64">
    <path d="M 99.926875 318.806445 
L 146.525625 294.874372 
L 193.124375 274.656015 
L 239.723125 257.654372 
L 286.321875 241.909042 
L 332.920625 227.765166 
L 379.519375 215.747358 
L 426.118125 204.682139 
L 472.716875 194.69376 
L 519.315625 185.043619 
L 565.914375 176.270137 
L 612.513125 167.862503 
L 659.111875 159.751691 
L 705.710625 152.082659 
L 752.309375 145.393828 
L 798.908125 139.084651 
L 845.506875 132.899725 
L 892.105625 127.32915 
L 938.704375 121.938049 
L 985.303125 116.760935 
" clip-path="url(#p373560c196)" style="fill: none; stroke: #f45b5b; stroke-linecap: square"/>
   </g>
   <g id="line2d_65">
    <path d="M 99.926875 318.357762 
L 146.525625 293.659475 
L 193.124375 272.937213 
L 239.723125 254.63784 
L 286.321875 238.878704 
L 332.920625 224.790051 
L 379.519375 211.24672 
L 426.118125 199.339357 
L 472.716875 188.046346 
L 519.315625 177.823271 
L 565.914375 168.525174 
L 612.513125 159.57912 
L 659.111875 151.39928 
L 705.710625 143.267759 
L 752.309375 135.722978 
L 798.908125 128.647589 
L 845.506875 122.041591 
L 892.105625 115.79454 
L 938.704375 109.934047 
L 985.303125 104.128776 
" clip-path="url(#p373560c196)" style="fill: none; stroke: #91e8e1; stroke-linecap: square"/>
   </g>
   <g id="line2d_66">
    <path d="M 99.926875 323.659127 
L 146.525625 303.116337 
L 193.124375 286.066375 
L 239.723125 270.252016 
L 286.321875 256.584435 
L 332.920625 245.360451 
L 379.519375 234.881972 
L 426.118125 225.25254 
L 472.716875 216.023471 
L 519.315625 207.429461 
L 565.914375 199.215107 
L 612.513125 191.808382 
L 659.111875 185.098842 
L 705.710625 178.596387 
L 752.309375 172.687574 
L 798.908125 166.764955 
L 845.506875 161.056324 
L 892.105625 155.748056 
L 938.704375 150.681387 
L 985.303125 146.063401 
" clip-path="url(#p373560c196)" style="fill: none; stroke: #7cb5ec; stroke-linecap: square"/>
   </g>
   <g id="line2d_67">
    <path d="M 99.926875 321.850588 
L 146.525625 299.492357 
L 193.124375 281.068734 
L 239.723125 264.38462 
L 286.321875 250.213133 
L 332.920625 236.994235 
L 379.519375 225.590778 
L 426.118125 214.953534 
L 472.716875 205.324102 
L 519.315625 196.170964 
L 565.914375 187.694302 
L 612.513125 179.611101 
L 659.111875 172.639254 
L 705.710625 165.115181 
L 752.309375 158.32971 
L 798.908125 151.613267 
L 845.506875 145.614718 
L 892.105625 139.802544 
L 938.704375 134.342414 
L 985.303125 129.068661 
" clip-path="url(#p373560c196)" style="fill: none; stroke: #434348; stroke-linecap: square"/>
   </g>
   <g id="line2d_68">
    <path d="M 99.926875 323.424431 
L 146.525625 302.0464 
L 193.124375 284.29235 
L 239.723125 268.892161 
L 286.321875 255.279802 
L 332.920625 243.358634 
L 379.519375 232.169164 
L 426.118125 222.001312 
L 472.716875 212.509936 
L 519.315625 203.853801 
L 565.914375 195.418556 
L 612.513125 187.894484 
L 659.111875 180.556787 
L 705.710625 173.653968 
L 752.309375 167.662321 
L 798.908125 161.449784 
L 845.506875 155.540971 
L 892.105625 150.308635 
L 938.704375 145.373119 
L 985.303125 140.08556 
" clip-path="url(#p373560c196)" style="fill: none; stroke: #90ed7d; stroke-linecap: square"/>
   </g>
   <g id="line2d_69">
    <path d="M 99.926875 320.566664 
L 146.525625 297.290358 
L 193.124375 278.355926 
L 239.723125 261.526853 
L 286.321875 246.547736 
L 332.920625 233.715396 
L 379.519375 222.408578 
L 426.118125 211.529736 
L 472.716875 201.382592 
L 519.315625 191.566783 
L 565.914375 182.39984 
L 612.513125 174.012915 
L 659.111875 166.16441 
L 705.710625 159.447967 
L 752.309375 152.862678 
L 798.908125 146.436153 
L 845.506875 140.437604 
L 892.105625 134.708264 
L 938.704375 129.110078 
L 985.303125 123.822518 
" clip-path="url(#p373560c196)" style="fill: none; stroke: #f7a35c; stroke-linecap: square"/>
   </g>
   <g id="line2d_70">
    <path d="M 99.926875 322.181923 
L 146.525625 300.382821 
L 193.124375 282.01442 
L 239.723125 266.310507 
L 286.321875 251.904324 
L 332.920625 239.47925 
L 379.519375 227.896319 
L 426.118125 217.02438 
L 472.716875 207.305211 
L 519.315625 198.152073 
L 565.914375 189.716828 
L 612.513125 181.792392 
L 659.111875 174.592752 
L 705.710625 167.662321 
L 752.309375 160.97349 
L 798.908125 154.671216 
L 845.506875 148.58293 
L 892.105625 142.90191 
L 938.704375 137.200181 
L 985.303125 132.161124 
" clip-path="url(#p373560c196)" style="fill: none; stroke: #8085e9; stroke-linecap: square"/>
   </g>
   <g id="line2d_71">
    <path d="M 99.926875 319.779742 
L 146.525625 296.358478 
L 193.124375 277.14103 
L 239.723125 259.697606 
L 286.321875 244.932477 
L 332.920625 231.078519 
L 379.519375 218.708667 
L 426.118125 207.760797 
L 472.716875 197.634361 
L 519.315625 187.977318 
L 565.914375 178.941528 
L 612.513125 170.561505 
L 659.111875 162.816543 
L 705.710625 155.51336 
L 752.309375 148.479388 
L 798.908125 141.949321 
L 845.506875 135.785104 
L 892.105625 129.676109 
L 938.704375 123.884644 
L 985.303125 118.210527 
" clip-path="url(#p373560c196)" style="fill: none; stroke: #f15c80; stroke-linecap: square"/>
   </g>
   <g id="line2d_72">
    <path d="M 99.926875 323.169026 
L 146.525625 301.404438 
L 193.124375 283.602068 
L 239.723125 268.59534 
L 286.321875 255.34883 
L 332.920625 243.2758 
L 379.519375 232.300318 
L 426.118125 221.966798 
L 472.716875 213.124287 
L 519.315625 204.682139 
L 565.914375 196.764606 
L 612.513125 189.240533 
L 659.111875 182.275589 
L 705.710625 175.724814 
L 752.309375 169.339706 
L 798.908125 163.334254 
L 845.506875 158.012181 
L 892.105625 152.531342 
L 938.704375 147.499187 
L 985.303125 143.053772 
" clip-path="url(#p373560c196)" style="fill: none; stroke: #e4d354; stroke-linecap: square"/>
   </g>
   <g id="line2d_73">
    <path d="M 99.926875 323.562487 
L 146.525625 301.411341 
L 193.124375 283.394984 
L 239.723125 268.250199 
L 286.321875 254.451464 
L 332.920625 242.205863 
L 379.519375 231.347729 
L 426.118125 220.889958 
L 472.716875 211.474513 
L 519.315625 202.507751 
L 565.914375 194.107021 
L 612.513125 186.921186 
L 659.111875 179.901019 
L 705.710625 173.14316 
L 752.309375 166.937525 
L 798.908125 161.208186 
L 845.506875 155.658319 
L 892.105625 150.446691 
L 938.704375 145.573301 
L 985.303125 140.561854 
" clip-path="url(#p373560c196)" style="fill: none; stroke: #2b908f; stroke-linecap: square"/>
   </g>
   <g id="line2d_74">
    <path d="M 99.926875 319.855673 
L 146.525625 296.931412 
L 193.124375 277.41024 
L 239.723125 260.933211 
L 286.321875 246.768626 
L 332.920625 234.315941 
L 379.519375 222.208397 
L 426.118125 211.177692 
L 472.716875 201.037451 
L 519.315625 191.539172 
L 565.914375 182.530993 
L 612.513125 174.551335 
L 659.111875 167.158416 
L 705.710625 160.538612 
L 752.309375 154.070671 
L 798.908125 147.609632 
L 845.506875 141.33497 
L 892.105625 135.861035 
L 938.704375 130.338779 
L 985.303125 125.134054 
" clip-path="url(#p373560c196)" style="fill: none; stroke: #f45b5b; stroke-linecap: square"/>
   </g>
   <g id="line2d_75">
    <path d="M 99.926875 322.658218 
L 146.525625 300.458752 
L 193.124375 282.407881 
L 239.723125 266.655648 
L 286.321875 253.360818 
L 332.920625 241.101412 
L 379.519375 230.257083 
L 426.118125 219.675062 
L 472.716875 209.914476 
L 519.315625 200.9132 
L 565.914375 192.581498 
L 612.513125 184.732993 
L 659.111875 176.974224 
L 705.710625 170.078308 
L 752.309375 164.017633 
L 798.908125 157.956958 
L 845.506875 152.386383 
L 892.105625 146.629432 
L 938.704375 141.617986 
L 985.303125 136.744595 
" clip-path="url(#p373560c196)" style="fill: none; stroke: #91e8e1; stroke-linecap: square"/>
   </g>
   <g id="line2d_76">
    <path d="M 99.926875 318.309442 
L 146.525625 293.907977 
L 193.124375 273.613689 
L 239.723125 256.832936 
L 286.321875 242.330114 
L 332.920625 229.194049 
L 379.519375 217.265978 
L 426.118125 206.435455 
L 472.716875 195.881045 
L 519.315625 186.210196 
L 565.914375 177.174406 
L 612.513125 169.125719 
L 659.111875 161.387659 
L 705.710625 153.780753 
L 752.309375 146.74678 
L 798.908125 140.30645 
L 845.506875 134.03869 
L 892.105625 128.129877 
L 938.704375 122.849221 
L 985.303125 117.810163 
" clip-path="url(#p373560c196)" style="fill: none; stroke: #7cb5ec; stroke-linecap: square"/>
   </g>
   <g id="line2d_77">
    <path d="M 99.926875 323.541779 
L 146.525625 302.343222 
L 193.124375 284.161197 
L 239.723125 268.609145 
L 286.321875 254.492881 
L 332.920625 241.984973 
L 379.519375 231.05781 
L 426.118125 221.062529 
L 472.716875 211.598764 
L 519.315625 202.549168 
L 565.914375 194.341717 
L 612.513125 186.555337 
L 659.111875 179.687032 
L 705.710625 172.87395 
L 752.309375 166.481939 
L 798.908125 160.262499 
L 845.506875 154.70573 
L 892.105625 149.404365 
L 938.704375 144.089195 
L 985.303125 138.891372 
" clip-path="url(#p373560c196)" style="fill: none; stroke: #434348; stroke-linecap: square"/>
   </g>
   <g id="line2d_78">
    <path d="M 99.926875 314.285098 
L 146.525625 286.963741 
L 193.124375 264.992068 
L 239.723125 246.244012 
L 286.321875 229.628927 
L 332.920625 215.222744 
L 379.519375 201.907206 
L 426.118125 189.385493 
L 472.716875 178.28576 
L 519.315625 167.931531 
L 565.914375 158.101917 
L 612.513125 149.017807 
L 659.111875 140.851773 
L 705.710625 133.168935 
L 752.309375 125.782919 
L 798.908125 119.163116 
L 845.506875 112.888453 
L 892.105625 106.765653 
L 938.704375 101.153661 
L 985.303125 95.741851 
" clip-path="url(#p373560c196)" style="fill: none; stroke: #90ed7d; stroke-linecap: square"/>
   </g>
   <g id="line2d_79">
    <path d="M 99.926875 324.860217 
L 146.525625 304.766111 
L 193.124375 287.757565 
L 239.723125 272.322862 
L 286.321875 259.380077 
L 332.920625 247.583159 
L 379.519375 236.669802 
L 426.118125 226.888508 
L 472.716875 217.680147 
L 519.315625 208.892859 
L 565.914375 200.940811 
L 612.513125 193.478864 
L 659.111875 186.072139 
L 705.710625 179.721546 
L 752.309375 173.578037 
L 798.908125 167.386209 
L 845.506875 161.615452 
L 892.105625 155.982752 
L 938.704375 150.356954 
L 985.303125 145.338605 
" clip-path="url(#p373560c196)" style="fill: none; stroke: #f7a35c; stroke-linecap: square"/>
   </g>
   <g id="line2d_80">
    <path d="M 99.926875 320.690914 
L 146.525625 297.297261 
L 193.124375 277.479268 
L 239.723125 261.140295 
L 286.321875 246.823849 
L 332.920625 233.101045 
L 379.519375 221.290322 
L 426.118125 209.541724 
L 472.716875 199.159884 
L 519.315625 189.247436 
L 565.914375 180.080493 
L 612.513125 171.382941 
L 659.111875 163.886479 
L 705.710625 156.755867 
L 752.309375 149.521713 
L 798.908125 143.07448 
L 845.506875 136.972388 
L 892.105625 131.132604 
L 938.704375 125.251402 
L 985.303125 119.556576 
" clip-path="url(#p373560c196)" style="fill: none; stroke: #8085e9; stroke-linecap: square"/>
   </g>
   <g id="line2d_81">
    <path d="M 99.926875 313.684553 
L 146.525625 287.191534 
L 193.124375 265.516683 
L 239.723125 247.679798 
L 286.321875 231.237284 
L 332.920625 217.134825 
L 379.519375 204.226553 
L 426.118125 192.19494 
L 472.716875 181.76478 
L 519.315625 171.990389 
L 565.914375 162.692292 
L 612.513125 154.284658 
L 659.111875 146.422348 
L 705.710625 138.9604 
L 752.309375 132.050679 
L 798.908125 125.071929 
L 845.506875 118.921517 
L 892.105625 112.750397 
L 938.704375 107.048668 
L 985.303125 101.471191 
" clip-path="url(#p373560c196)" style="fill: none; stroke: #f15c80; stroke-linecap: square"/>
   </g>
   <g id="line2d_82">
    <path d="M 99.926875 313.242773 
L 146.525625 285.251842 
L 193.124375 262.776263 
L 239.723125 242.944465 
L 286.321875 225.597681 
L 332.920625 209.445084 
L 379.519375 194.928456 
L 426.118125 182.185852 
L 472.716875 170.119725 
L 519.315625 158.792199 
L 565.914375 148.31372 
L 612.513125 138.573842 
L 659.111875 129.324065 
L 705.710625 120.695541 
L 752.309375 112.363839 
L 798.908125 104.908794 
L 845.506875 97.902433 
L 892.105625 90.668279 
L 938.704375 84.165824 
L 985.303125 77.621951 
" clip-path="url(#p373560c196)" style="fill: none; stroke: #e4d354; stroke-linecap: square"/>
   </g>
   <g id="line2d_83">
    <path d="M 99.926875 318.2059 
L 146.525625 293.576642 
L 193.124375 273.496341 
L 239.723125 255.852736 
L 286.321875 240.148823 
L 332.920625 227.026564 
L 379.519375 214.877603 
L 426.118125 202.852892 
L 472.716875 191.808382 
L 519.315625 181.488668 
L 565.914375 172.466683 
L 612.513125 163.527533 
L 659.111875 155.754959 
L 705.710625 147.830523 
L 752.309375 140.409992 
L 798.908125 133.162032 
L 845.506875 126.714799 
L 892.105625 120.426331 
L 938.704375 114.172377 
L 985.303125 108.256662 
" clip-path="url(#p373560c196)" style="fill: none; stroke: #2b908f; stroke-linecap: square"/>
   </g>
   <g id="line2d_84">
    <path d="M 99.926875 322.27166 
L 146.525625 300.431141 
L 193.124375 281.855655 
L 239.723125 266.386438 
L 286.321875 252.256367 
L 332.920625 239.527569 
L 379.519375 228.234558 
L 426.118125 217.673245 
L 472.716875 208.451078 
L 519.315625 199.560248 
L 565.914375 191.463241 
L 612.513125 183.545708 
L 659.111875 176.573861 
L 705.710625 169.546791 
L 752.309375 163.686298 
L 798.908125 157.798193 
L 845.506875 152.137882 
L 892.105625 146.843419 
L 938.704375 141.680111 
L 985.303125 136.834332 
" clip-path="url(#p373560c196)" style="fill: none; stroke: #f45b5b; stroke-linecap: square"/>
   </g>
   <g id="line2d_85">
    <path d="M 99.926875 315.044408 
L 146.525625 287.923233 
L 193.124375 266.262187 
L 239.723125 247.086156 
L 286.321875 231.016394 
L 332.920625 215.781872 
L 379.519375 202.141902 
L 426.118125 190.061969 
L 472.716875 178.541164 
L 519.315625 168.366409 
L 565.914375 157.908638 
L 612.513125 148.769306 
L 659.111875 139.636877 
L 705.710625 131.836691 
L 752.309375 124.347133 
L 798.908125 117.437411 
L 845.506875 110.865927 
L 892.105625 104.501528 
L 938.704375 98.302797 
L 985.303125 92.352567 
" clip-path="url(#p373560c196)" style="fill: none; stroke: #91e8e1; stroke-linecap: square"/>
   </g>
   <g id="line2d_86">
    <path d="M 99.926875 313.608622 
L 146.525625 286.742851 
L 193.124375 264.11541 
L 239.723125 245.574439 
L 286.321875 228.959354 
L 332.920625 214.339183 
L 379.519375 200.871783 
L 426.118125 188.681405 
L 472.716875 177.733534 
L 519.315625 167.227444 
L 565.914375 157.446149 
L 612.513125 148.596735 
L 659.111875 139.857767 
L 705.710625 132.085193 
L 752.309375 124.278104 
L 798.908125 117.04395 
L 845.506875 110.196354 
L 892.105625 103.907886 
L 938.704375 97.812697 
L 985.303125 91.648479 
" clip-path="url(#p373560c196)" style="fill: none; stroke: #7cb5ec; stroke-linecap: square"/>
   </g>
   <g id="line2d_87">
    <path d="M 99.926875 324.673841 
L 146.525625 303.730688 
L 193.124375 286.411516 
L 239.723125 271.011326 
L 286.321875 257.516315 
L 332.920625 245.125755 
L 379.519375 233.832744 
L 426.118125 223.630377 
L 472.716875 214.422017 
L 519.315625 205.455255 
L 565.914375 197.061427 
L 612.513125 188.971323 
L 659.111875 181.688849 
L 705.710625 174.723905 
L 752.309375 168.069588 
L 798.908125 161.850148 
L 845.506875 155.679028 
L 892.105625 149.818534 
L 938.704375 144.46885 
L 985.303125 139.588557 
" clip-path="url(#p373560c196)" style="fill: none; stroke: #434348; stroke-linecap: square"/>
   </g>
   <g id="line2d_88">
    <path d="M 99.926875 319.593366 
L 146.525625 295.723418 
L 193.124375 276.354108 
L 239.723125 259.739023 
L 286.321875 245.139561 
L 332.920625 231.320118 
L 379.519375 219.550811 
L 426.118125 208.623649 
L 472.716875 198.407477 
L 519.315625 188.750433 
L 565.914375 179.8527 
L 612.513125 171.721179 
L 659.111875 163.782937 
L 705.710625 156.617811 
L 752.309375 149.356046 
L 798.908125 142.653408 
L 845.506875 136.675567 
L 892.105625 130.566572 
L 938.704375 124.809621 
L 985.303125 119.487548 
" clip-path="url(#p373560c196)" style="fill: none; stroke: #90ed7d; stroke-linecap: square"/>
   </g>
   <g id="line2d_89">
    <path d="M 99.926875 325.391734 
L 146.525625 305.283822 
L 193.124375 289.248574 
L 239.723125 274.876905 
L 286.321875 261.844383 
L 332.920625 250.537566 
L 379.519375 240.673437 
L 426.118125 231.147547 
L 472.716875 221.980604 
L 519.315625 213.600581 
L 565.914375 205.234365 
L 612.513125 197.993308 
L 659.111875 191.083586 
L 705.710625 184.953883 
L 752.309375 178.768957 
L 798.908125 172.942978 
L 845.506875 167.58639 
L 892.105625 162.291928 
L 938.704375 157.018175 
L 985.303125 152.227618 
" clip-path="url(#p373560c196)" style="fill: none; stroke: #f7a35c; stroke-linecap: square"/>
   </g>
   <g id="line2d_90">
    <path d="M 99.926875 318.42679 
L 146.525625 293.148667 
L 193.124375 271.984624 
L 239.723125 254.182254 
L 286.321875 239.327388 
L 332.920625 225.293957 
L 379.519375 212.820563 
L 426.118125 201.23073 
L 472.716875 190.84889 
L 519.315625 181.039984 
L 565.914375 171.562414 
L 612.513125 162.871765 
L 659.111875 154.70573 
L 705.710625 147.243783 
L 752.309375 139.581654 
L 798.908125 132.706446 
L 845.506875 126.273019 
L 892.105625 120.633416 
L 938.704375 114.634866 
L 985.303125 109.105708 
" clip-path="url(#p373560c196)" style="fill: none; stroke: #8085e9; stroke-linecap: square"/>
   </g>
   <g id="line2d_91">
    <path d="M 99.926875 329.450592 
L 146.525625 312.352309 
L 193.124375 298.512157 
L 239.723125 285.769553 
L 286.321875 274.566278 
L 332.920625 264.156827 
L 379.519375 254.68616 
L 426.118125 246.174984 
L 472.716875 238.395507 
L 519.315625 231.244187 
L 565.914375 224.079061 
L 612.513125 217.431646 
L 659.111875 211.405485 
L 705.710625 206.007481 
L 752.309375 200.664699 
L 798.908125 195.591127 
L 845.506875 190.628 
L 892.105625 185.982403 
L 938.704375 181.661238 
L 985.303125 177.498838 
" clip-path="url(#p373560c196)" style="fill: none; stroke: #f15c80; stroke-linecap: square"/>
   </g>
   <g id="line2d_92">
    <path d="M 99.926875 322.326882 
L 146.525625 299.409524 
L 193.124375 281.041122 
L 239.723125 264.771178 
L 286.321875 250.565177 
L 332.920625 237.601683 
L 379.519375 225.708126 
L 426.118125 215.422926 
L 472.716875 205.213656 
L 519.315625 195.984587 
L 565.914375 187.369869 
L 612.513125 179.010556 
L 659.111875 171.741887 
L 705.710625 164.569859 
L 752.309375 157.673942 
L 798.908125 151.13007 
L 845.506875 145.552592 
L 892.105625 139.623071 
L 938.704375 134.3079 
L 985.303125 129.289551 
" clip-path="url(#p373560c196)" style="fill: none; stroke: #e4d354; stroke-linecap: square"/>
   </g>
   <g id="line2d_93">
    <path d="M 99.926875 317.915981 
L 146.525625 292.403162 
L 193.124375 271.85347 
L 239.723125 254.844925 
L 286.321875 239.196234 
L 332.920625 225.749543 
L 379.519375 213.849083 
L 426.118125 202.245444 
L 472.716875 191.601297 
L 519.315625 181.930448 
L 565.914375 173.288119 
L 612.513125 164.942611 
L 659.111875 157.059592 
L 705.710625 149.652867 
L 752.309375 142.763853 
L 798.908125 136.46158 
L 845.506875 130.200723 
L 892.105625 124.050311 
L 938.704375 118.238138 
L 985.303125 113.136955 
" clip-path="url(#p373560c196)" style="fill: none; stroke: #2b908f; stroke-linecap: square"/>
   </g>
   <g id="line2d_94">
    <path d="M 99.926875 319.255128 
L 146.525625 295.323055 
L 193.124375 274.697432 
L 239.723125 257.385162 
L 286.321875 242.005681 
L 332.920625 227.675429 
L 379.519375 215.105396 
L 426.118125 203.474146 
L 472.716875 192.712651 
L 519.315625 182.199658 
L 565.914375 173.081034 
L 612.513125 164.176398 
L 659.111875 156.700645 
L 705.710625 148.80382 
L 752.309375 141.279747 
L 798.908125 134.300997 
L 845.506875 127.487915 
L 892.105625 121.372018 
L 938.704375 115.387274 
L 985.303125 109.768379 
" clip-path="url(#p373560c196)" style="fill: none; stroke: #f45b5b; stroke-linecap: square"/>
   </g>
   <g id="line2d_95">
    <path d="M 99.926875 325.861126 
L 146.525625 306.298537 
L 193.124375 289.731771 
L 239.723125 275.070184 
L 286.321875 262.016953 
L 332.920625 250.226939 
L 379.519375 239.886516 
L 426.118125 230.422751 
L 472.716875 221.594046 
L 519.315625 213.448719 
L 565.914375 205.669242 
L 612.513125 198.441991 
L 659.111875 191.691034 
L 705.710625 185.078134 
L 752.309375 178.879402 
L 798.908125 172.949881 
L 845.506875 167.703738 
L 892.105625 162.250511 
L 938.704375 157.308093 
L 985.303125 152.717718 
" clip-path="url(#p373560c196)" style="fill: none; stroke: #91e8e1; stroke-linecap: square"/>
   </g>
   <g id="line2d_96">
    <path d="M 99.926875 319.779742 
L 146.525625 295.447306 
L 193.124375 274.531764 
L 239.723125 256.853645 
L 286.321875 241.053092 
L 332.920625 227.316483 
L 379.519375 214.463434 
L 426.118125 202.52846 
L 472.716875 191.311379 
L 519.315625 180.770775 
L 565.914375 170.996383 
L 612.513125 162.188386 
L 659.111875 153.663405 
L 705.710625 145.559495 
L 752.309375 138.132062 
L 798.908125 131.146409 
L 845.506875 124.091728 
L 892.105625 117.244132 
L 938.704375 111.121332 
L 985.303125 105.433409 
" clip-path="url(#p373560c196)" style="fill: none; stroke: #7cb5ec; stroke-linecap: square"/>
   </g>
   <g id="line2d_97">
    <path d="M 99.926875 321.878199 
L 146.525625 299.692539 
L 193.124375 281.117053 
L 239.723125 265.178444 
L 286.321875 250.503051 
L 332.920625 237.491238 
L 379.519375 226.308671 
L 426.118125 215.498857 
L 472.716875 205.627826 
L 519.315625 196.888857 
L 565.914375 188.729725 
L 612.513125 180.605107 
L 659.111875 172.977492 
L 705.710625 165.881394 
L 752.309375 159.530801 
L 798.908125 152.980026 
L 845.506875 147.154046 
L 892.105625 141.410901 
L 938.704375 136.040508 
L 985.303125 130.994547 
" clip-path="url(#p373560c196)" style="fill: none; stroke: #434348; stroke-linecap: square"/>
   </g>
   <g id="line2d_98">
    <path d="M 99.926875 315.976289 
L 146.525625 290.028593 
L 193.124375 268.691979 
L 239.723125 250.20623 
L 286.321875 234.205496 
L 332.920625 220.303219 
L 379.519375 207.526101 
L 426.118125 195.922462 
L 472.716875 185.209287 
L 519.315625 175.283034 
L 565.914375 165.84688 
L 612.513125 157.763679 
L 659.111875 149.963494 
L 705.710625 142.529158 
L 752.309375 135.025793 
L 798.908125 128.164391 
L 845.506875 121.910437 
L 892.105625 115.47701 
L 938.704375 109.713156 
L 985.303125 104.301346 
" clip-path="url(#p373560c196)" style="fill: none; stroke: #90ed7d; stroke-linecap: square"/>
   </g>
   <g id="line2d_99">
    <path d="M 99.926875 321.505447 
L 146.525625 299.085091 
L 193.124375 280.440577 
L 239.723125 264.38462 
L 286.321875 249.964632 
L 332.920625 236.980429 
L 379.519375 224.928107 
L 426.118125 213.745541 
L 472.716875 203.55698 
L 519.315625 194.065604 
L 565.914375 185.305927 
L 612.513125 177.574769 
L 659.111875 170.085211 
L 705.710625 162.76132 
L 752.309375 155.948238 
L 798.908125 149.756409 
L 845.506875 143.357496 
L 892.105625 137.4901 
L 938.704375 131.53987 
L 985.303125 126.273019 
" clip-path="url(#p373560c196)" style="fill: none; stroke: #f7a35c; stroke-linecap: square"/>
   </g>
   <g id="line2d_100">
    <path d="M 99.926875 324.639327 
L 146.525625 303.137046 
L 193.124375 285.631497 
L 239.723125 270.645477 
L 286.321875 257.074535 
L 332.920625 245.11195 
L 379.519375 233.729201 
L 426.118125 223.305945 
L 472.716875 214.228738 
L 519.315625 205.745173 
L 565.914375 197.661972 
L 612.513125 189.923912 
L 659.111875 182.627633 
L 705.710625 176.201108 
L 752.309375 169.664139 
L 798.908125 163.61727 
L 845.506875 158.10882 
L 892.105625 152.814358 
L 938.704375 147.706272 
L 985.303125 142.618894 
" clip-path="url(#p373560c196)" style="fill: none; stroke: #8085e9; stroke-linecap: square"/>
   </g>
   <g id="line2d_101">
    <path d="M 99.926875 324.252769 
L 146.525625 303.468381 
L 193.124375 287.212243 
L 239.723125 272.778448 
L 286.321875 260.132484 
L 332.920625 248.425303 
L 379.519375 238.098686 
L 426.118125 228.648727 
L 472.716875 219.930466 
L 519.315625 211.509027 
L 565.914375 204.226553 
L 612.513125 197.372054 
L 659.111875 190.628 
L 705.710625 184.346435 
L 752.309375 178.389302 
L 798.908125 172.639254 
L 845.506875 167.344792 
L 892.105625 162.291928 
L 938.704375 157.5704 
L 985.303125 152.766038 
" clip-path="url(#p373560c196)" style="fill: none; stroke: #f15c80; stroke-linecap: square"/>
   </g>
   <g id="line2d_102">
    <path d="M 99.926875 322.886011 
L 146.525625 301.397535 
L 193.124375 283.21551 
L 239.723125 268.353741 
L 286.321875 254.893244 
L 332.920625 242.992784 
L 379.519375 232.203678 
L 426.118125 222.125563 
L 472.716875 213.027647 
L 519.315625 204.323193 
L 565.914375 196.557521 
L 612.513125 189.1577 
L 659.111875 182.392937 
L 705.710625 175.724814 
L 752.309375 169.767681 
L 798.908125 163.941702 
L 845.506875 158.212362 
L 892.105625 153.194013 
L 938.704375 148.148052 
L 985.303125 143.488649 
" clip-path="url(#p373560c196)" style="fill: none; stroke: #e4d354; stroke-linecap: square"/>
   </g>
   <g id="line2d_103">
    <path d="M 99.926875 322.49255 
L 146.525625 301.507981 
L 193.124375 284.24403 
L 239.723125 269.154468 
L 286.321875 255.914861 
L 332.920625 244.690878 
L 379.519375 233.618756 
L 426.118125 223.713211 
L 472.716875 214.794769 
L 519.315625 206.221468 
L 565.914375 198.41438 
L 612.513125 191.449435 
L 659.111875 184.429269 
L 705.710625 178.044161 
L 752.309375 171.824721 
L 798.908125 166.074673 
L 845.506875 160.932073 
L 892.105625 155.83089 
L 938.704375 150.867763 
L 985.303125 146.091012 
" clip-path="url(#p373560c196)" style="fill: none; stroke: #2b908f; stroke-linecap: square"/>
   </g>
   <g id="line2d_104">
    <path d="M 99.926875 316.411167 
L 146.525625 291.830228 
L 193.124375 271.252925 
L 239.723125 254.030392 
L 286.321875 238.091783 
L 332.920625 224.355173 
L 379.519375 212.233823 
L 426.118125 200.20221 
L 472.716875 189.682314 
L 519.315625 179.659421 
L 565.914375 170.188753 
L 612.513125 161.946787 
L 659.111875 154.201824 
L 705.710625 146.808905 
L 752.309375 139.754224 
L 798.908125 132.775475 
L 845.506875 126.521521 
L 892.105625 120.529874 
L 938.704375 115.124966 
L 985.303125 109.692448 
" clip-path="url(#p373560c196)" style="fill: none; stroke: #f45b5b; stroke-linecap: square"/>
   </g>
   <g id="line2d_105">
    <path d="M 99.926875 318.564846 
L 146.525625 293.997714 
L 193.124375 273.882899 
L 239.723125 257.323037 
L 286.321875 242.24728 
L 332.920625 228.959354 
L 379.519375 217.010574 
L 426.118125 206.269788 
L 472.716875 196.177866 
L 519.315625 187.00402 
L 565.914375 178.693026 
L 612.513125 170.699562 
L 659.111875 163.092655 
L 705.710625 156.037974 
L 752.309375 149.217989 
L 798.908125 142.729339 
L 845.506875 136.661762 
L 892.105625 131.042867 
L 938.704375 125.603446 
L 985.303125 120.391817 
" clip-path="url(#p373560c196)" style="fill: none; stroke: #91e8e1; stroke-linecap: square"/>
   </g>
   <g id="line2d_106">
    <path d="M 99.926875 318.564846 
L 146.525625 294.329049 
L 193.124375 274.435125 
L 239.723125 257.088341 
L 286.321875 241.777888 
L 332.920625 227.371705 
L 379.519375 215.146813 
L 426.118125 204.129914 
L 472.716875 193.748074 
L 519.315625 184.601839 
L 565.914375 175.255422 
L 612.513125 166.626899 
L 659.111875 158.826713 
L 705.710625 151.288835 
L 752.309375 144.537878 
L 798.908125 138.014714 
L 845.506875 131.905719 
L 892.105625 125.817433 
L 938.704375 120.074288 
L 985.303125 114.565838 
" clip-path="url(#p373560c196)" style="fill: none; stroke: #7cb5ec; stroke-linecap: square"/>
   </g>
   <g id="line2d_107">
    <path d="M 99.926875 306.636775 
L 146.525625 274.980447 
L 193.124375 248.970626 
L 239.723125 227.330288 
L 286.321875 208.402759 
L 332.920625 190.40711 
L 379.519375 174.56514 
L 426.118125 160.393653 
L 472.716875 147.133338 
L 519.315625 135.38474 
L 565.914375 123.574017 
L 612.513125 113.454484 
L 659.111875 103.562745 
L 705.710625 94.388898 
L 752.309375 85.815597 
L 798.908125 77.677174 
L 845.506875 70.063364 
L 892.105625 62.746376 
L 938.704375 55.746918 
L 985.303125 49.265171 
" clip-path="url(#p373560c196)" style="fill: none; stroke: #434348; stroke-linecap: square"/>
   </g>
   <g id="line2d_108">
    <path d="M 99.926875 320.187009 
L 146.525625 295.543945 
L 193.124375 274.711237 
L 239.723125 258.116861 
L 286.321875 243.165355 
L 332.920625 229.470162 
L 379.519375 217.404035 
L 426.118125 205.979869 
L 472.716875 195.542807 
L 519.315625 185.982403 
L 565.914375 176.525541 
L 612.513125 167.821086 
L 659.111875 160.013998 
L 705.710625 152.130979 
L 752.309375 145.021075 
L 798.908125 137.9802 
L 845.506875 131.422522 
L 892.105625 125.106443 
L 938.704375 119.390909 
L 985.303125 113.772014 
" clip-path="url(#p373560c196)" style="fill: none; stroke: #90ed7d; stroke-linecap: square"/>
   </g>
   <g id="line2d_109">
    <path d="M 99.926875 323.175929 
L 146.525625 302.0464 
L 193.124375 283.353567 
L 239.723125 267.960281 
L 286.321875 254.361727 
L 332.920625 241.722666 
L 379.519375 230.429654 
L 426.118125 220.310121 
L 472.716875 211.032733 
L 519.315625 202.231639 
L 565.914375 194.334814 
L 612.513125 186.603657 
L 659.111875 179.100292 
L 705.710625 172.432169 
L 752.309375 165.853783 
L 798.908125 160.276305 
L 845.506875 154.58148 
L 892.105625 149.211086 
L 938.704375 144.123709 
L 985.303125 139.636877 
" clip-path="url(#p373560c196)" style="fill: none; stroke: #f7a35c; stroke-linecap: square"/>
   </g>
   <g id="line2d_110">
    <path d="M 53.328125 353.2239 
L 985.303125 353.2239 
" clip-path="url(#p373560c196)" style="fill: none; stroke: #dedede; stroke-width: 2; stroke-linecap: square"/>
   </g>
   <g id="text_14">
    <!-- RSeQC: Junction Saturation -->
    <g transform="translate(410.166875 19.3575)scale(0.16 -0.16)">
     <defs>
      <path id="DejaVuSans-52" d="M 2841 2188 
Q 3044 2119 3236 1894 
Q 3428 1669 3622 1275 
L 4263 0 
L 3584 0 
L 2988 1197 
Q 2756 1666 2539 1819 
Q 2322 1972 1947 1972 
L 1259 1972 
L 1259 0 
L 628 0 
L 628 4666 
L 2053 4666 
Q 2853 4666 3247 4331 
Q 3641 3997 3641 3322 
Q 3641 2881 3436 2590 
Q 3231 2300 2841 2188 
z
M 1259 4147 
L 1259 2491 
L 2053 2491 
Q 2509 2491 2742 2702 
Q 2975 2913 2975 3322 
Q 2975 3731 2742 3939 
Q 2509 4147 2053 4147 
L 1259 4147 
z
" transform="scale(0.015625)"/>
      <path id="DejaVuSans-53" d="M 3425 4513 
L 3425 3897 
Q 3066 4069 2747 4153 
Q 2428 4238 2131 4238 
Q 1616 4238 1336 4038 
Q 1056 3838 1056 3469 
Q 1056 3159 1242 3001 
Q 1428 2844 1947 2747 
L 2328 2669 
Q 3034 2534 3370 2195 
Q 3706 1856 3706 1288 
Q 3706 609 3251 259 
Q 2797 -91 1919 -91 
Q 1588 -91 1214 -16 
Q 841 59 441 206 
L 441 856 
Q 825 641 1194 531 
Q 1563 422 1919 422 
Q 2459 422 2753 634 
Q 3047 847 3047 1241 
Q 3047 1584 2836 1778 
Q 2625 1972 2144 2069 
L 1759 2144 
Q 1053 2284 737 2584 
Q 422 2884 422 3419 
Q 422 4038 858 4394 
Q 1294 4750 2059 4750 
Q 2388 4750 2728 4690 
Q 3069 4631 3425 4513 
z
" transform="scale(0.015625)"/>
      <path id="DejaVuSans-51" d="M 2522 4238 
Q 1834 4238 1429 3725 
Q 1025 3213 1025 2328 
Q 1025 1447 1429 934 
Q 1834 422 2522 422 
Q 3209 422 3611 934 
Q 4013 1447 4013 2328 
Q 4013 3213 3611 3725 
Q 3209 4238 2522 4238 
z
M 3406 84 
L 4238 -825 
L 3475 -825 
L 2784 -78 
Q 2681 -84 2626 -87 
Q 2572 -91 2522 -91 
Q 1538 -91 948 567 
Q 359 1225 359 2328 
Q 359 3434 948 4092 
Q 1538 4750 2522 4750 
Q 3503 4750 4090 4092 
Q 4678 3434 4678 2328 
Q 4678 1516 4351 937 
Q 4025 359 3406 84 
z
" transform="scale(0.015625)"/>
      <path id="DejaVuSans-43" d="M 4122 4306 
L 4122 3641 
Q 3803 3938 3442 4084 
Q 3081 4231 2675 4231 
Q 1875 4231 1450 3742 
Q 1025 3253 1025 2328 
Q 1025 1406 1450 917 
Q 1875 428 2675 428 
Q 3081 428 3442 575 
Q 3803 722 4122 1019 
L 4122 359 
Q 3791 134 3420 21 
Q 3050 -91 2638 -91 
Q 1578 -91 968 557 
Q 359 1206 359 2328 
Q 359 3453 968 4101 
Q 1578 4750 2638 4750 
Q 3056 4750 3426 4639 
Q 3797 4528 4122 4306 
z
" transform="scale(0.015625)"/>
      <path id="DejaVuSans-3a" d="M 750 794 
L 1409 794 
L 1409 0 
L 750 0 
L 750 794 
z
M 750 3309 
L 1409 3309 
L 1409 2516 
L 750 2516 
L 750 3309 
z
" transform="scale(0.015625)"/>
     </defs>
     <use xlink:href="#DejaVuSans-52"/>
     <use xlink:href="#DejaVuSans-53" x="69.482422"/>
     <use xlink:href="#DejaVuSans-65" x="132.958984"/>
     <use xlink:href="#DejaVuSans-51" x="194.482422"/>
     <use xlink:href="#DejaVuSans-43" x="273.193359"/>
     <use xlink:href="#DejaVuSans-3a" x="343.017578"/>
     <use xlink:href="#DejaVuSans-20" x="376.708984"/>
     <use xlink:href="#DejaVuSans-4a" x="408.496094"/>
     <use xlink:href="#DejaVuSans-75" x="437.988281"/>
     <use xlink:href="#DejaVuSans-6e" x="501.367188"/>
     <use xlink:href="#DejaVuSans-63" x="564.746094"/>
     <use xlink:href="#DejaVuSans-74" x="619.726562"/>
     <use xlink:href="#DejaVuSans-69" x="658.935547"/>
     <use xlink:href="#DejaVuSans-6f" x="686.71875"/>
     <use xlink:href="#DejaVuSans-6e" x="747.900391"/>
     <use xlink:href="#DejaVuSans-20" x="811.279297"/>
     <use xlink:href="#DejaVuSans-53" x="843.066406"/>
     <use xlink:href="#DejaVuSans-61" x="906.542969"/>
     <use xlink:href="#DejaVuSans-74" x="967.822266"/>
     <use xlink:href="#DejaVuSans-75" x="1007.03125"/>
     <use xlink:href="#DejaVuSans-72" x="1070.410156"/>
     <use xlink:href="#DejaVuSans-61" x="1111.523438"/>
     <use xlink:href="#DejaVuSans-74" x="1172.802734"/>
     <use xlink:href="#DejaVuSans-69" x="1212.011719"/>
     <use xlink:href="#DejaVuSans-6f" x="1239.794922"/>
     <use xlink:href="#DejaVuSans-6e" x="1300.976562"/>
    </g>
   </g>
  </g>
 </g>
 <defs>
  <clipPath id="p373560c196">
   <rect x="53.328125" y="35.2559" width="931.975" height="317.968"/>
  </clipPath>
 </defs>
</svg>
