<?xml version="1.0" encoding="utf-8" standalone="no"?>
<!DOCTYPE svg PUBLIC "-//W3C//DTD SVG 1.1//EN"
  "http://www.w3.org/Graphics/SVG/1.1/DTD/svg11.dtd">
<svg xmlns:xlink="http://www.w3.org/1999/xlink" width="1000.358125pt" height="388.844525pt" viewBox="0 0 1000.358125 388.844525" xmlns="http://www.w3.org/2000/svg" version="1.1">
 <metadata>
  <rdf:RDF xmlns:dc="http://purl.org/dc/elements/1.1/" xmlns:cc="http://creativecommons.org/ns#" xmlns:rdf="http://www.w3.org/1999/02/22-rdf-syntax-ns#">
   <cc:Work>
    <dc:type rdf:resource="http://purl.org/dc/dcmitype/StillImage"/>
    <dc:date>2023-02-14T10:05:00.810131</dc:date>
    <dc:format>image/svg+xml</dc:format>
    <dc:creator>
     <cc:Agent>
      <dc:title>Matplotlib v3.5.3, https://matplotlib.org/</dc:title>
     </cc:Agent>
    </dc:creator>
   </cc:Work>
  </rdf:RDF>
 </metadata>
 <defs>
  <style type="text/css">*{stroke-linejoin: round; stroke-linecap: butt}</style>
 </defs>
 <g id="figure_1">
  <g id="axes_1">
   <g id="patch_1">
    <path d="M 32.968125 353.2239 
L 993.158125 353.2239 
L 993.158125 35.2559 
L 32.968125 35.2559 
z
" style="fill: #ffffff"/>
   </g>
   <g id="matplotlib.axis_1">
    <g id="xtick_1">
     <g id="text_1">
      <!-- 0 -->
      <g transform="translate(72.318826 366.30265)scale(0.08 -0.08)">
       <defs>
        <path id="DejaVuSans-30" d="M 2034 4250 
Q 1547 4250 1301 3770 
Q 1056 3291 1056 2328 
Q 1056 1369 1301 889 
Q 1547 409 2034 409 
Q 2525 409 2770 889 
Q 3016 1369 3016 2328 
Q 3016 3291 2770 3770 
Q 2525 4250 2034 4250 
z
M 2034 4750 
Q 2819 4750 3233 4129 
Q 3647 3509 3647 2328 
Q 3647 1150 3233 529 
Q 2819 -91 2034 -91 
Q 1250 -91 836 529 
Q 422 1150 422 2328 
Q 422 3509 836 4129 
Q 1250 4750 2034 4750 
z
" transform="scale(0.015625)"/>
       </defs>
       <use xlink:href="#DejaVuSans-30"/>
      </g>
     </g>
    </g>
    <g id="xtick_2">
     <g id="text_2">
      <!-- 100 -->
      <g transform="translate(242.158686 366.30265)scale(0.08 -0.08)">
       <defs>
        <path id="DejaVuSans-31" d="M 794 531 
L 1825 531 
L 1825 4091 
L 703 3866 
L 703 4441 
L 1819 4666 
L 2450 4666 
L 2450 531 
L 3481 531 
L 3481 0 
L 794 0 
L 794 531 
z
" transform="scale(0.015625)"/>
       </defs>
       <use xlink:href="#DejaVuSans-31"/>
       <use xlink:href="#DejaVuSans-30" x="63.623047"/>
       <use xlink:href="#DejaVuSans-30" x="127.246094"/>
      </g>
     </g>
    </g>
    <g id="xtick_3">
     <g id="text_3">
      <!-- 200 -->
      <g transform="translate(417.088546 366.30265)scale(0.08 -0.08)">
       <defs>
        <path id="DejaVuSans-32" d="M 1228 531 
L 3431 531 
L 3431 0 
L 469 0 
L 469 531 
Q 828 903 1448 1529 
Q 2069 2156 2228 2338 
Q 2531 2678 2651 2914 
Q 2772 3150 2772 3378 
Q 2772 3750 2511 3984 
Q 2250 4219 1831 4219 
Q 1534 4219 1204 4116 
Q 875 4013 500 3803 
L 500 4441 
Q 881 4594 1212 4672 
Q 1544 4750 1819 4750 
Q 2544 4750 2975 4387 
Q 3406 4025 3406 3419 
Q 3406 3131 3298 2873 
Q 3191 2616 2906 2266 
Q 2828 2175 2409 1742 
Q 1991 1309 1228 531 
z
" transform="scale(0.015625)"/>
       </defs>
       <use xlink:href="#DejaVuSans-32"/>
       <use xlink:href="#DejaVuSans-30" x="63.623047"/>
       <use xlink:href="#DejaVuSans-30" x="127.246094"/>
      </g>
     </g>
    </g>
    <g id="xtick_4">
     <g id="text_4">
      <!-- 300 -->
      <g transform="translate(592.018406 366.30265)scale(0.08 -0.08)">
       <defs>
        <path id="DejaVuSans-33" d="M 2597 2516 
Q 3050 2419 3304 2112 
Q 3559 1806 3559 1356 
Q 3559 666 3084 287 
Q 2609 -91 1734 -91 
Q 1441 -91 1130 -33 
Q 819 25 488 141 
L 488 750 
Q 750 597 1062 519 
Q 1375 441 1716 441 
Q 2309 441 2620 675 
Q 2931 909 2931 1356 
Q 2931 1769 2642 2001 
Q 2353 2234 1838 2234 
L 1294 2234 
L 1294 2753 
L 1863 2753 
Q 2328 2753 2575 2939 
Q 2822 3125 2822 3475 
Q 2822 3834 2567 4026 
Q 2313 4219 1838 4219 
Q 1578 4219 1281 4162 
Q 984 4106 628 3988 
L 628 4550 
Q 988 4650 1302 4700 
Q 1616 4750 1894 4750 
Q 2613 4750 3031 4423 
Q 3450 4097 3450 3541 
Q 3450 3153 3228 2886 
Q 3006 2619 2597 2516 
z
" transform="scale(0.015625)"/>
       </defs>
       <use xlink:href="#DejaVuSans-33"/>
       <use xlink:href="#DejaVuSans-30" x="63.623047"/>
       <use xlink:href="#DejaVuSans-30" x="127.246094"/>
      </g>
     </g>
    </g>
    <g id="xtick_5">
     <g id="text_5">
      <!-- 400 -->
      <g transform="translate(766.948265 366.30265)scale(0.08 -0.08)">
       <defs>
        <path id="DejaVuSans-34" d="M 2419 4116 
L 825 1625 
L 2419 1625 
L 2419 4116 
z
M 2253 4666 
L 3047 4666 
L 3047 1625 
L 3713 1625 
L 3713 1100 
L 3047 1100 
L 3047 0 
L 2419 0 
L 2419 1100 
L 313 1100 
L 313 1709 
L 2253 4666 
z
" transform="scale(0.015625)"/>
       </defs>
       <use xlink:href="#DejaVuSans-34"/>
       <use xlink:href="#DejaVuSans-30" x="63.623047"/>
       <use xlink:href="#DejaVuSans-30" x="127.246094"/>
      </g>
     </g>
    </g>
    <g id="xtick_6">
     <g id="text_6">
      <!-- 500 -->
      <g transform="translate(941.878125 366.30265)scale(0.08 -0.08)">
       <defs>
        <path id="DejaVuSans-35" d="M 691 4666 
L 3169 4666 
L 3169 4134 
L 1269 4134 
L 1269 2991 
Q 1406 3038 1543 3061 
Q 1681 3084 1819 3084 
Q 2600 3084 3056 2656 
Q 3513 2228 3513 1497 
Q 3513 744 3044 326 
Q 2575 -91 1722 -91 
Q 1428 -91 1123 -41 
Q 819 9 494 109 
L 494 744 
Q 775 591 1075 516 
Q 1375 441 1709 441 
Q 2250 441 2565 725 
Q 2881 1009 2881 1497 
Q 2881 1984 2565 2268 
Q 2250 2553 1709 2553 
Q 1456 2553 1204 2497 
Q 953 2441 691 2322 
L 691 4666 
z
" transform="scale(0.015625)"/>
       </defs>
       <use xlink:href="#DejaVuSans-35"/>
       <use xlink:href="#DejaVuSans-30" x="63.623047"/>
       <use xlink:href="#DejaVuSans-30" x="127.246094"/>
      </g>
     </g>
    </g>
    <g id="text_7">
     <!-- Occurrence of read -->
     <g transform="translate(465.2225 379.564837)scale(0.1 -0.1)">
      <defs>
       <path id="DejaVuSans-4f" d="M 2522 4238 
Q 1834 4238 1429 3725 
Q 1025 3213 1025 2328 
Q 1025 1447 1429 934 
Q 1834 422 2522 422 
Q 3209 422 3611 934 
Q 4013 1447 4013 2328 
Q 4013 3213 3611 3725 
Q 3209 4238 2522 4238 
z
M 2522 4750 
Q 3503 4750 4090 4092 
Q 4678 3434 4678 2328 
Q 4678 1225 4090 567 
Q 3503 -91 2522 -91 
Q 1538 -91 948 565 
Q 359 1222 359 2328 
Q 359 3434 948 4092 
Q 1538 4750 2522 4750 
z
" transform="scale(0.015625)"/>
       <path id="DejaVuSans-63" d="M 3122 3366 
L 3122 2828 
Q 2878 2963 2633 3030 
Q 2388 3097 2138 3097 
Q 1578 3097 1268 2742 
Q 959 2388 959 1747 
Q 959 1106 1268 751 
Q 1578 397 2138 397 
Q 2388 397 2633 464 
Q 2878 531 3122 666 
L 3122 134 
Q 2881 22 2623 -34 
Q 2366 -91 2075 -91 
Q 1284 -91 818 406 
Q 353 903 353 1747 
Q 353 2603 823 3093 
Q 1294 3584 2113 3584 
Q 2378 3584 2631 3529 
Q 2884 3475 3122 3366 
z
" transform="scale(0.015625)"/>
       <path id="DejaVuSans-75" d="M 544 1381 
L 544 3500 
L 1119 3500 
L 1119 1403 
Q 1119 906 1312 657 
Q 1506 409 1894 409 
Q 2359 409 2629 706 
Q 2900 1003 2900 1516 
L 2900 3500 
L 3475 3500 
L 3475 0 
L 2900 0 
L 2900 538 
Q 2691 219 2414 64 
Q 2138 -91 1772 -91 
Q 1169 -91 856 284 
Q 544 659 544 1381 
z
M 1991 3584 
L 1991 3584 
z
" transform="scale(0.015625)"/>
       <path id="DejaVuSans-72" d="M 2631 2963 
Q 2534 3019 2420 3045 
Q 2306 3072 2169 3072 
Q 1681 3072 1420 2755 
Q 1159 2438 1159 1844 
L 1159 0 
L 581 0 
L 581 3500 
L 1159 3500 
L 1159 2956 
Q 1341 3275 1631 3429 
Q 1922 3584 2338 3584 
Q 2397 3584 2469 3576 
Q 2541 3569 2628 3553 
L 2631 2963 
z
" transform="scale(0.015625)"/>
       <path id="DejaVuSans-65" d="M 3597 1894 
L 3597 1613 
L 953 1613 
Q 991 1019 1311 708 
Q 1631 397 2203 397 
Q 2534 397 2845 478 
Q 3156 559 3463 722 
L 3463 178 
Q 3153 47 2828 -22 
Q 2503 -91 2169 -91 
Q 1331 -91 842 396 
Q 353 884 353 1716 
Q 353 2575 817 3079 
Q 1281 3584 2069 3584 
Q 2775 3584 3186 3129 
Q 3597 2675 3597 1894 
z
M 3022 2063 
Q 3016 2534 2758 2815 
Q 2500 3097 2075 3097 
Q 1594 3097 1305 2825 
Q 1016 2553 972 2059 
L 3022 2063 
z
" transform="scale(0.015625)"/>
       <path id="DejaVuSans-6e" d="M 3513 2113 
L 3513 0 
L 2938 0 
L 2938 2094 
Q 2938 2591 2744 2837 
Q 2550 3084 2163 3084 
Q 1697 3084 1428 2787 
Q 1159 2491 1159 1978 
L 1159 0 
L 581 0 
L 581 3500 
L 1159 3500 
L 1159 2956 
Q 1366 3272 1645 3428 
Q 1925 3584 2291 3584 
Q 2894 3584 3203 3211 
Q 3513 2838 3513 2113 
z
" transform="scale(0.015625)"/>
       <path id="DejaVuSans-20" transform="scale(0.015625)"/>
       <path id="DejaVuSans-6f" d="M 1959 3097 
Q 1497 3097 1228 2736 
Q 959 2375 959 1747 
Q 959 1119 1226 758 
Q 1494 397 1959 397 
Q 2419 397 2687 759 
Q 2956 1122 2956 1747 
Q 2956 2369 2687 2733 
Q 2419 3097 1959 3097 
z
M 1959 3584 
Q 2709 3584 3137 3096 
Q 3566 2609 3566 1747 
Q 3566 888 3137 398 
Q 2709 -91 1959 -91 
Q 1206 -91 779 398 
Q 353 888 353 1747 
Q 353 2609 779 3096 
Q 1206 3584 1959 3584 
z
" transform="scale(0.015625)"/>
       <path id="DejaVuSans-66" d="M 2375 4863 
L 2375 4384 
L 1825 4384 
Q 1516 4384 1395 4259 
Q 1275 4134 1275 3809 
L 1275 3500 
L 2222 3500 
L 2222 3053 
L 1275 3053 
L 1275 0 
L 697 0 
L 697 3053 
L 147 3053 
L 147 3500 
L 697 3500 
L 697 3744 
Q 697 4328 969 4595 
Q 1241 4863 1831 4863 
L 2375 4863 
z
" transform="scale(0.015625)"/>
       <path id="DejaVuSans-61" d="M 2194 1759 
Q 1497 1759 1228 1600 
Q 959 1441 959 1056 
Q 959 750 1161 570 
Q 1363 391 1709 391 
Q 2188 391 2477 730 
Q 2766 1069 2766 1631 
L 2766 1759 
L 2194 1759 
z
M 3341 1997 
L 3341 0 
L 2766 0 
L 2766 531 
Q 2569 213 2275 61 
Q 1981 -91 1556 -91 
Q 1019 -91 701 211 
Q 384 513 384 1019 
Q 384 1609 779 1909 
Q 1175 2209 1959 2209 
L 2766 2209 
L 2766 2266 
Q 2766 2663 2505 2880 
Q 2244 3097 1772 3097 
Q 1472 3097 1187 3025 
Q 903 2953 641 2809 
L 641 3341 
Q 956 3463 1253 3523 
Q 1550 3584 1831 3584 
Q 2591 3584 2966 3190 
Q 3341 2797 3341 1997 
z
" transform="scale(0.015625)"/>
       <path id="DejaVuSans-64" d="M 2906 2969 
L 2906 4863 
L 3481 4863 
L 3481 0 
L 2906 0 
L 2906 525 
Q 2725 213 2448 61 
Q 2172 -91 1784 -91 
Q 1150 -91 751 415 
Q 353 922 353 1747 
Q 353 2572 751 3078 
Q 1150 3584 1784 3584 
Q 2172 3584 2448 3432 
Q 2725 3281 2906 2969 
z
M 947 1747 
Q 947 1113 1208 752 
Q 1469 391 1925 391 
Q 2381 391 2643 752 
Q 2906 1113 2906 1747 
Q 2906 2381 2643 2742 
Q 2381 3103 1925 3103 
Q 1469 3103 1208 2742 
Q 947 2381 947 1747 
z
" transform="scale(0.015625)"/>
      </defs>
      <use xlink:href="#DejaVuSans-4f"/>
      <use xlink:href="#DejaVuSans-63" x="78.710938"/>
      <use xlink:href="#DejaVuSans-63" x="133.691406"/>
      <use xlink:href="#DejaVuSans-75" x="188.671875"/>
      <use xlink:href="#DejaVuSans-72" x="252.050781"/>
      <use xlink:href="#DejaVuSans-72" x="291.414062"/>
      <use xlink:href="#DejaVuSans-65" x="330.277344"/>
      <use xlink:href="#DejaVuSans-6e" x="391.800781"/>
      <use xlink:href="#DejaVuSans-63" x="455.179688"/>
      <use xlink:href="#DejaVuSans-65" x="510.160156"/>
      <use xlink:href="#DejaVuSans-20" x="571.683594"/>
      <use xlink:href="#DejaVuSans-6f" x="603.470703"/>
      <use xlink:href="#DejaVuSans-66" x="664.652344"/>
      <use xlink:href="#DejaVuSans-20" x="699.857422"/>
      <use xlink:href="#DejaVuSans-72" x="731.644531"/>
      <use xlink:href="#DejaVuSans-65" x="770.507812"/>
      <use xlink:href="#DejaVuSans-61" x="832.03125"/>
      <use xlink:href="#DejaVuSans-64" x="893.310547"/>
     </g>
    </g>
   </g>
   <g id="matplotlib.axis_2">
    <g id="ytick_1">
     <g id="line2d_1">
      <path d="M 32.968125 338.770848 
L 993.158125 338.770848 
" clip-path="url(#p4bae9c436a)" style="fill: none; stroke: #dedede; stroke-linecap: square"/>
     </g>
     <g id="text_8">
      <!-- 0 -->
      <g transform="translate(20.878125 341.810223)scale(0.08 -0.08)">
       <use xlink:href="#DejaVuSans-30"/>
      </g>
     </g>
    </g>
    <g id="ytick_2">
     <g id="line2d_2">
      <path d="M 32.968125 299.714093 
L 993.158125 299.714093 
" clip-path="url(#p4bae9c436a)" style="fill: none; stroke: #dedede; stroke-linecap: square"/>
     </g>
     <g id="text_9">
      <!-- 1 -->
      <g transform="translate(20.878125 302.753468)scale(0.08 -0.08)">
       <use xlink:href="#DejaVuSans-31"/>
      </g>
     </g>
    </g>
    <g id="ytick_3">
     <g id="line2d_3">
      <path d="M 32.968125 260.657338 
L 993.158125 260.657338 
" clip-path="url(#p4bae9c436a)" style="fill: none; stroke: #dedede; stroke-linecap: square"/>
     </g>
     <g id="text_10">
      <!-- 2 -->
      <g transform="translate(20.878125 263.696713)scale(0.08 -0.08)">
       <use xlink:href="#DejaVuSans-32"/>
      </g>
     </g>
    </g>
    <g id="ytick_4">
     <g id="line2d_4">
      <path d="M 32.968125 221.600583 
L 993.158125 221.600583 
" clip-path="url(#p4bae9c436a)" style="fill: none; stroke: #dedede; stroke-linecap: square"/>
     </g>
     <g id="text_11">
      <!-- 3 -->
      <g transform="translate(20.878125 224.639958)scale(0.08 -0.08)">
       <use xlink:href="#DejaVuSans-33"/>
      </g>
     </g>
    </g>
    <g id="ytick_5">
     <g id="line2d_5">
      <path d="M 32.968125 182.543827 
L 993.158125 182.543827 
" clip-path="url(#p4bae9c436a)" style="fill: none; stroke: #dedede; stroke-linecap: square"/>
     </g>
     <g id="text_12">
      <!-- 4 -->
      <g transform="translate(20.878125 185.583202)scale(0.08 -0.08)">
       <use xlink:href="#DejaVuSans-34"/>
      </g>
     </g>
    </g>
    <g id="ytick_6">
     <g id="line2d_6">
      <path d="M 32.968125 143.487072 
L 993.158125 143.487072 
" clip-path="url(#p4bae9c436a)" style="fill: none; stroke: #dedede; stroke-linecap: square"/>
     </g>
     <g id="text_13">
      <!-- 5 -->
      <g transform="translate(20.878125 146.526447)scale(0.08 -0.08)">
       <use xlink:href="#DejaVuSans-35"/>
      </g>
     </g>
    </g>
    <g id="ytick_7">
     <g id="line2d_7">
      <path d="M 32.968125 104.430317 
L 993.158125 104.430317 
" clip-path="url(#p4bae9c436a)" style="fill: none; stroke: #dedede; stroke-linecap: square"/>
     </g>
     <g id="text_14">
      <!-- 6 -->
      <g transform="translate(20.878125 107.469692)scale(0.08 -0.08)">
       <defs>
        <path id="DejaVuSans-36" d="M 2113 2584 
Q 1688 2584 1439 2293 
Q 1191 2003 1191 1497 
Q 1191 994 1439 701 
Q 1688 409 2113 409 
Q 2538 409 2786 701 
Q 3034 994 3034 1497 
Q 3034 2003 2786 2293 
Q 2538 2584 2113 2584 
z
M 3366 4563 
L 3366 3988 
Q 3128 4100 2886 4159 
Q 2644 4219 2406 4219 
Q 1781 4219 1451 3797 
Q 1122 3375 1075 2522 
Q 1259 2794 1537 2939 
Q 1816 3084 2150 3084 
Q 2853 3084 3261 2657 
Q 3669 2231 3669 1497 
Q 3669 778 3244 343 
Q 2819 -91 2113 -91 
Q 1303 -91 875 529 
Q 447 1150 447 2328 
Q 447 3434 972 4092 
Q 1497 4750 2381 4750 
Q 2619 4750 2861 4703 
Q 3103 4656 3366 4563 
z
" transform="scale(0.015625)"/>
       </defs>
       <use xlink:href="#DejaVuSans-36"/>
      </g>
     </g>
    </g>
    <g id="ytick_8">
     <g id="line2d_8">
      <path d="M 32.968125 65.373562 
L 993.158125 65.373562 
" clip-path="url(#p4bae9c436a)" style="fill: none; stroke: #dedede; stroke-linecap: square"/>
     </g>
     <g id="text_15">
      <!-- 7 -->
      <g transform="translate(20.878125 68.412937)scale(0.08 -0.08)">
       <defs>
        <path id="DejaVuSans-37" d="M 525 4666 
L 3525 4666 
L 3525 4397 
L 1831 0 
L 1172 0 
L 2766 4134 
L 525 4134 
L 525 4666 
z
" transform="scale(0.015625)"/>
       </defs>
       <use xlink:href="#DejaVuSans-37"/>
      </g>
     </g>
    </g>
    <g id="text_16">
     <!-- Number of Reads (log10) -->
     <g transform="translate(14.798438 256.968025)rotate(-90)scale(0.1 -0.1)">
      <defs>
       <path id="DejaVuSans-4e" d="M 628 4666 
L 1478 4666 
L 3547 763 
L 3547 4666 
L 4159 4666 
L 4159 0 
L 3309 0 
L 1241 3903 
L 1241 0 
L 628 0 
L 628 4666 
z
" transform="scale(0.015625)"/>
       <path id="DejaVuSans-6d" d="M 3328 2828 
Q 3544 3216 3844 3400 
Q 4144 3584 4550 3584 
Q 5097 3584 5394 3201 
Q 5691 2819 5691 2113 
L 5691 0 
L 5113 0 
L 5113 2094 
Q 5113 2597 4934 2840 
Q 4756 3084 4391 3084 
Q 3944 3084 3684 2787 
Q 3425 2491 3425 1978 
L 3425 0 
L 2847 0 
L 2847 2094 
Q 2847 2600 2669 2842 
Q 2491 3084 2119 3084 
Q 1678 3084 1418 2786 
Q 1159 2488 1159 1978 
L 1159 0 
L 581 0 
L 581 3500 
L 1159 3500 
L 1159 2956 
Q 1356 3278 1631 3431 
Q 1906 3584 2284 3584 
Q 2666 3584 2933 3390 
Q 3200 3197 3328 2828 
z
" transform="scale(0.015625)"/>
       <path id="DejaVuSans-62" d="M 3116 1747 
Q 3116 2381 2855 2742 
Q 2594 3103 2138 3103 
Q 1681 3103 1420 2742 
Q 1159 2381 1159 1747 
Q 1159 1113 1420 752 
Q 1681 391 2138 391 
Q 2594 391 2855 752 
Q 3116 1113 3116 1747 
z
M 1159 2969 
Q 1341 3281 1617 3432 
Q 1894 3584 2278 3584 
Q 2916 3584 3314 3078 
Q 3713 2572 3713 1747 
Q 3713 922 3314 415 
Q 2916 -91 2278 -91 
Q 1894 -91 1617 61 
Q 1341 213 1159 525 
L 1159 0 
L 581 0 
L 581 4863 
L 1159 4863 
L 1159 2969 
z
" transform="scale(0.015625)"/>
       <path id="DejaVuSans-52" d="M 2841 2188 
Q 3044 2119 3236 1894 
Q 3428 1669 3622 1275 
L 4263 0 
L 3584 0 
L 2988 1197 
Q 2756 1666 2539 1819 
Q 2322 1972 1947 1972 
L 1259 1972 
L 1259 0 
L 628 0 
L 628 4666 
L 2053 4666 
Q 2853 4666 3247 4331 
Q 3641 3997 3641 3322 
Q 3641 2881 3436 2590 
Q 3231 2300 2841 2188 
z
M 1259 4147 
L 1259 2491 
L 2053 2491 
Q 2509 2491 2742 2702 
Q 2975 2913 2975 3322 
Q 2975 3731 2742 3939 
Q 2509 4147 2053 4147 
L 1259 4147 
z
" transform="scale(0.015625)"/>
       <path id="DejaVuSans-73" d="M 2834 3397 
L 2834 2853 
Q 2591 2978 2328 3040 
Q 2066 3103 1784 3103 
Q 1356 3103 1142 2972 
Q 928 2841 928 2578 
Q 928 2378 1081 2264 
Q 1234 2150 1697 2047 
L 1894 2003 
Q 2506 1872 2764 1633 
Q 3022 1394 3022 966 
Q 3022 478 2636 193 
Q 2250 -91 1575 -91 
Q 1294 -91 989 -36 
Q 684 19 347 128 
L 347 722 
Q 666 556 975 473 
Q 1284 391 1588 391 
Q 1994 391 2212 530 
Q 2431 669 2431 922 
Q 2431 1156 2273 1281 
Q 2116 1406 1581 1522 
L 1381 1569 
Q 847 1681 609 1914 
Q 372 2147 372 2553 
Q 372 3047 722 3315 
Q 1072 3584 1716 3584 
Q 2034 3584 2315 3537 
Q 2597 3491 2834 3397 
z
" transform="scale(0.015625)"/>
       <path id="DejaVuSans-28" d="M 1984 4856 
Q 1566 4138 1362 3434 
Q 1159 2731 1159 2009 
Q 1159 1288 1364 580 
Q 1569 -128 1984 -844 
L 1484 -844 
Q 1016 -109 783 600 
Q 550 1309 550 2009 
Q 550 2706 781 3412 
Q 1013 4119 1484 4856 
L 1984 4856 
z
" transform="scale(0.015625)"/>
       <path id="DejaVuSans-6c" d="M 603 4863 
L 1178 4863 
L 1178 0 
L 603 0 
L 603 4863 
z
" transform="scale(0.015625)"/>
       <path id="DejaVuSans-67" d="M 2906 1791 
Q 2906 2416 2648 2759 
Q 2391 3103 1925 3103 
Q 1463 3103 1205 2759 
Q 947 2416 947 1791 
Q 947 1169 1205 825 
Q 1463 481 1925 481 
Q 2391 481 2648 825 
Q 2906 1169 2906 1791 
z
M 3481 434 
Q 3481 -459 3084 -895 
Q 2688 -1331 1869 -1331 
Q 1566 -1331 1297 -1286 
Q 1028 -1241 775 -1147 
L 775 -588 
Q 1028 -725 1275 -790 
Q 1522 -856 1778 -856 
Q 2344 -856 2625 -561 
Q 2906 -266 2906 331 
L 2906 616 
Q 2728 306 2450 153 
Q 2172 0 1784 0 
Q 1141 0 747 490 
Q 353 981 353 1791 
Q 353 2603 747 3093 
Q 1141 3584 1784 3584 
Q 2172 3584 2450 3431 
Q 2728 3278 2906 2969 
L 2906 3500 
L 3481 3500 
L 3481 434 
z
" transform="scale(0.015625)"/>
       <path id="DejaVuSans-29" d="M 513 4856 
L 1013 4856 
Q 1481 4119 1714 3412 
Q 1947 2706 1947 2009 
Q 1947 1309 1714 600 
Q 1481 -109 1013 -844 
L 513 -844 
Q 928 -128 1133 580 
Q 1338 1288 1338 2009 
Q 1338 2731 1133 3434 
Q 928 4138 513 4856 
z
" transform="scale(0.015625)"/>
      </defs>
      <use xlink:href="#DejaVuSans-4e"/>
      <use xlink:href="#DejaVuSans-75" x="74.804688"/>
      <use xlink:href="#DejaVuSans-6d" x="138.183594"/>
      <use xlink:href="#DejaVuSans-62" x="235.595703"/>
      <use xlink:href="#DejaVuSans-65" x="299.072266"/>
      <use xlink:href="#DejaVuSans-72" x="360.595703"/>
      <use xlink:href="#DejaVuSans-20" x="401.708984"/>
      <use xlink:href="#DejaVuSans-6f" x="433.496094"/>
      <use xlink:href="#DejaVuSans-66" x="494.677734"/>
      <use xlink:href="#DejaVuSans-20" x="529.882812"/>
      <use xlink:href="#DejaVuSans-52" x="561.669922"/>
      <use xlink:href="#DejaVuSans-65" x="626.652344"/>
      <use xlink:href="#DejaVuSans-61" x="688.175781"/>
      <use xlink:href="#DejaVuSans-64" x="749.455078"/>
      <use xlink:href="#DejaVuSans-73" x="812.931641"/>
      <use xlink:href="#DejaVuSans-20" x="865.03125"/>
      <use xlink:href="#DejaVuSans-28" x="896.818359"/>
      <use xlink:href="#DejaVuSans-6c" x="935.832031"/>
      <use xlink:href="#DejaVuSans-6f" x="963.615234"/>
      <use xlink:href="#DejaVuSans-67" x="1024.796875"/>
      <use xlink:href="#DejaVuSans-31" x="1088.273438"/>
      <use xlink:href="#DejaVuSans-30" x="1151.896484"/>
      <use xlink:href="#DejaVuSans-29" x="1215.519531"/>
     </g>
    </g>
    <g id="text_17">
     <!-- 1e6 -->
     <g transform="translate(32.968125 32.2559)scale(0.1 -0.1)">
      <use xlink:href="#DejaVuSans-31"/>
      <use xlink:href="#DejaVuSans-65" x="63.623047"/>
      <use xlink:href="#DejaVuSans-36" x="125.146484"/>
     </g>
    </g>
   </g>
   <g id="line2d_9">
    <path d="M 76.613125 153.66331 
L 81.861021 309.150244 
L 85.359618 326.379038 
L 90.607514 333.786034 
L 94.106111 335.553275 
L 99.354007 336.860035 
L 102.852604 337.347425 
L 111.599097 337.992291 
L 125.593486 338.393482 
L 146.585069 338.597319 
L 199.064027 338.722691 
L 445.715129 338.767841 
L 949.513125 338.770536 
L 949.513125 338.770536 
" clip-path="url(#p4bae9c436a)" style="fill: none; stroke: #7cb5ec; stroke-linecap: square"/>
   </g>
   <g id="line2d_10">
    <path d="M 76.613125 117.866544 
L 81.861021 311.830709 
L 85.359618 327.735713 
L 90.607514 334.195701 
L 94.106111 335.789255 
L 99.354007 337.004819 
L 102.852604 337.453932 
L 111.599097 338.049275 
L 125.593486 338.420275 
L 146.585069 338.610598 
L 186.818937 338.713982 
L 295.27545 338.760186 
L 757.090279 338.770262 
L 949.513125 338.770731 
L 949.513125 338.770731 
" clip-path="url(#p4bae9c436a)" style="fill: none; stroke: #434348; stroke-linecap: square"/>
   </g>
   <g id="line2d_11">
    <path d="M 76.613125 94.577196 
L 81.861021 310.082099 
L 85.359618 326.812217 
L 90.607514 333.746782 
L 94.106111 335.481176 
L 99.354007 336.796803 
L 102.852604 337.291925 
L 108.1005 337.754318 
L 116.846993 338.152423 
L 129.092083 338.421837 
L 155.331562 338.625948 
L 216.557013 338.732651 
L 466.706712 338.767802 
L 949.513125 338.770614 
L 949.513125 338.770614 
" clip-path="url(#p4bae9c436a)" style="fill: none; stroke: #90ed7d; stroke-linecap: square"/>
   </g>
   <g id="line2d_12">
    <path d="M 76.613125 82.083565 
L 81.861021 307.139016 
L 85.359618 325.048648 
L 90.607514 332.839885 
L 94.106111 334.838497 
L 99.354007 336.42592 
L 102.852604 336.979627 
L 108.1005 337.526851 
L 116.846993 338.021505 
L 129.092083 338.346223 
L 151.832965 338.584743 
L 190.317534 338.698749 
L 330.261422 338.760537 
L 949.513125 338.770497 
L 949.513125 338.770497 
" clip-path="url(#p4bae9c436a)" style="fill: none; stroke: #f7a35c; stroke-linecap: square"/>
   </g>
   <g id="line2d_13">
    <path d="M 76.613125 103.470771 
L 81.861021 312.389221 
L 85.359618 327.491453 
L 90.607514 333.955463 
L 94.106111 335.638418 
L 99.354007 336.905537 
L 102.852604 337.355666 
L 111.599097 338.006625 
L 120.34559 338.300136 
L 137.838576 338.550841 
L 169.325951 338.687462 
L 265.537373 338.757295 
L 949.513125 338.770497 
L 949.513125 338.770497 
" clip-path="url(#p4bae9c436a)" style="fill: none; stroke: #8085e9; stroke-linecap: square"/>
   </g>
   <g id="line2d_14">
    <path d="M 76.613125 73.384688 
L 81.861021 305.912048 
L 85.359618 324.506892 
L 90.607514 332.524345 
L 94.106111 334.63341 
L 99.354007 336.260397 
L 102.852604 336.866128 
L 108.1005 337.458346 
L 116.846993 337.965146 
L 129.092083 338.308143 
L 146.585069 338.523228 
L 172.824548 338.64946 
L 239.297895 338.737298 
L 949.513125 338.770419 
L 949.513125 338.770419 
" clip-path="url(#p4bae9c436a)" style="fill: none; stroke: #f15c80; stroke-linecap: square"/>
   </g>
   <g id="line2d_15">
    <path d="M 76.613125 108.289203 
L 81.861021 311.778022 
L 85.359618 327.688845 
L 90.607514 334.198982 
L 94.106111 335.819603 
L 99.354007 337.021848 
L 102.852604 337.471664 
L 111.599097 338.055485 
L 125.593486 338.42461 
L 146.585069 338.61509 
L 190.317534 338.721988 
L 554.171642 338.769911 
L 949.513125 338.770497 
L 949.513125 338.770497 
" clip-path="url(#p4bae9c436a)" style="fill: none; stroke: #e4d354; stroke-linecap: square"/>
   </g>
   <g id="line2d_16">
    <path d="M 76.613125 104.422857 
L 81.861021 309.651069 
L 85.359618 326.631345 
L 90.607514 333.765725 
L 94.106111 335.496759 
L 99.354007 336.821486 
L 102.852604 337.313562 
L 108.1005 337.780447 
L 116.846993 338.17203 
L 129.092083 338.439139 
L 155.331562 338.638211 
L 225.303506 338.741477 
L 949.513125 338.770614 
L 949.513125 338.770614 
" clip-path="url(#p4bae9c436a)" style="fill: none; stroke: #2b908f; stroke-linecap: square"/>
   </g>
   <g id="line2d_17">
    <path d="M 76.613125 122.530506 
L 81.861021 310.710366 
L 85.359618 326.92138 
L 90.607514 333.836379 
L 94.106111 335.551986 
L 99.354007 336.864019 
L 102.852604 337.355392 
L 111.599097 337.990689 
L 120.34559 338.281194 
L 134.339979 338.510496 
L 160.579458 338.659927 
L 277.782464 338.757256 
L 949.513125 338.770497 
L 949.513125 338.770497 
" clip-path="url(#p4bae9c436a)" style="fill: none; stroke: #f45b5b; stroke-linecap: square"/>
   </g>
   <g id="line2d_18">
    <path d="M 76.613125 118.870068 
L 81.861021 309.640914 
L 85.359618 326.214726 
L 90.607514 333.358793 
L 94.106111 335.226409 
L 99.354007 336.640224 
L 102.852604 337.165264 
L 111.599097 337.884846 
L 120.34559 338.212961 
L 137.838576 338.498818 
L 169.325951 338.667192 
L 286.528957 338.756514 
L 725.602905 338.769989 
L 949.513125 338.770458 
L 949.513125 338.770458 
" clip-path="url(#p4bae9c436a)" style="fill: none; stroke: #91e8e1; stroke-linecap: square"/>
   </g>
   <g id="line2d_19">
    <path d="M 76.613125 133.108482 
L 81.861021 314.52543 
L 85.359618 328.722209 
L 90.607514 334.609859 
L 94.106111 336.066637 
L 99.354007 337.196939 
L 102.852604 337.594771 
L 111.599097 338.126412 
L 120.34559 338.373016 
L 137.838576 338.587008 
L 195.56543 338.732299 
L 457.960219 338.768817 
L 949.513125 338.770692 
L 949.513125 338.770692 
" clip-path="url(#p4bae9c436a)" style="fill: none; stroke: #7cb5ec; stroke-linecap: square"/>
   </g>
   <g id="line2d_20">
    <path d="M 76.613125 118.242231 
L 81.861021 311.114799 
L 85.359618 327.433961 
L 90.607514 334.153871 
L 94.106111 335.792107 
L 99.354007 337.01966 
L 102.852604 337.467876 
L 111.599097 338.050954 
L 120.34559 338.324937 
L 137.838576 338.556778 
L 172.824548 338.692344 
L 269.035971 338.755343 
L 949.513125 338.770419 
L 949.513125 338.770419 
" clip-path="url(#p4bae9c436a)" style="fill: none; stroke: #434348; stroke-linecap: square"/>
   </g>
   <g id="line2d_21">
    <path d="M 76.613125 107.236896 
L 81.861021 309.808468 
L 85.359618 326.580024 
L 90.607514 333.649726 
L 94.106111 335.440908 
L 99.354007 336.754035 
L 102.852604 337.262515 
L 111.599097 337.94304 
L 120.34559 338.249987 
L 137.838576 338.518151 
L 172.824548 338.679533 
L 291.776852 338.756866 
L 559.419538 338.769442 
L 949.513125 338.770458 
L 949.513125 338.770458 
" clip-path="url(#p4bae9c436a)" style="fill: none; stroke: #90ed7d; stroke-linecap: square"/>
   </g>
   <g id="line2d_22">
    <path d="M 76.613125 117.874707 
L 81.861021 310.606358 
L 85.359618 327.077998 
L 90.607514 334.011743 
L 94.106111 335.681224 
L 99.354007 336.939438 
L 102.852604 337.422453 
L 111.599097 338.035292 
L 120.34559 338.316345 
L 137.838576 338.55506 
L 164.078055 338.675979 
L 239.297895 338.747805 
L 559.419538 338.769364 
L 949.513125 338.770536 
L 949.513125 338.770536 
" clip-path="url(#p4bae9c436a)" style="fill: none; stroke: #f7a35c; stroke-linecap: square"/>
   </g>
   <g id="line2d_23">
    <path d="M 76.613125 87.146687 
L 81.861021 307.168231 
L 85.359618 325.569626 
L 90.607514 333.292318 
L 94.106111 335.224104 
L 99.354007 336.656198 
L 102.852604 337.210999 
L 108.1005 337.699209 
L 116.846993 338.136918 
L 129.092083 338.414416 
L 155.331562 338.633915 
L 225.303506 338.739837 
L 466.706712 338.768544 
L 949.513125 338.770614 
L 949.513125 338.770614 
" clip-path="url(#p4bae9c436a)" style="fill: none; stroke: #8085e9; stroke-linecap: square"/>
   </g>
   <g id="line2d_24">
    <path d="M 76.613125 89.911242 
L 81.861021 310.786839 
L 85.359618 327.309682 
L 90.607514 334.069274 
L 94.106111 335.732076 
L 99.354007 336.983806 
L 102.852604 337.431475 
L 111.599097 338.044197 
L 120.34559 338.317165 
L 137.838576 338.551974 
L 169.325951 338.683713 
L 234.049999 338.746633 
L 401.982664 338.767606 
L 687.118335 338.769989 
L 949.513125 338.770575 
L 949.513125 338.770575 
" clip-path="url(#p4bae9c436a)" style="fill: none; stroke: #f15c80; stroke-linecap: square"/>
   </g>
   <g id="line2d_25">
    <path d="M 76.613125 94.963584 
L 81.861021 307.051061 
L 85.359618 325.222685 
L 90.607514 333.067859 
L 94.106111 335.031906 
L 99.354007 336.539458 
L 102.852604 337.10414 
L 108.1005 337.62629 
L 111.599097 337.854186 
L 120.34559 338.197065 
L 137.838576 338.497177 
L 172.824548 338.673284 
L 269.035971 338.75296 
L 949.513125 338.770419 
L 949.513125 338.770419 
" clip-path="url(#p4bae9c436a)" style="fill: none; stroke: #e4d354; stroke-linecap: square"/>
   </g>
   <g id="line2d_26">
    <path d="M 76.613125 116.289315 
L 81.861021 310.242779 
L 85.359618 326.95657 
L 90.607514 333.940621 
L 94.106111 335.662087 
L 99.354007 336.931197 
L 102.852604 337.396246 
L 111.599097 338.023849 
L 120.34559 338.306502 
L 137.838576 338.548693 
L 169.325951 338.684611 
L 242.796492 338.750265 
L 949.513125 338.770223 
L 949.513125 338.770223 
" clip-path="url(#p4bae9c436a)" style="fill: none; stroke: #2b908f; stroke-linecap: square"/>
   </g>
   <g id="line2d_27">
    <path d="M 76.613125 179.136711 
L 81.861021 315.165375 
L 85.359618 329.204755 
L 90.607514 335.049677 
L 94.106111 336.428536 
L 99.354007 337.428272 
L 102.852604 337.775955 
L 111.599097 338.242801 
L 125.593486 338.521588 
L 155.331562 338.688477 
L 239.297895 338.756163 
L 905.78066 338.770536 
L 949.513125 338.770731 
L 949.513125 338.770731 
" clip-path="url(#p4bae9c436a)" style="fill: none; stroke: #f45b5b; stroke-linecap: square"/>
   </g>
   <g id="line2d_28">
    <path d="M 76.613125 110.213958 
L 81.861021 310.575034 
L 85.359618 327.059563 
L 90.607514 333.93613 
L 94.106111 335.62592 
L 99.354007 336.928111 
L 102.852604 337.395269 
L 111.599097 338.000883 
L 120.34559 338.299199 
L 137.838576 338.544905 
L 172.824548 338.690391 
L 265.537373 338.754679 
L 949.513125 338.770614 
L 949.513125 338.770614 
" clip-path="url(#p4bae9c436a)" style="fill: none; stroke: #91e8e1; stroke-linecap: square"/>
   </g>
   <g id="line2d_29">
    <path d="M 76.613125 103.837435 
L 81.861021 308.77401 
L 85.359618 326.110249 
L 90.607514 333.472135 
L 94.106111 335.311787 
L 99.354007 336.716971 
L 102.852604 337.218342 
L 111.599097 337.927027 
L 120.34559 338.249714 
L 137.838576 338.516472 
L 164.078055 338.657115 
L 216.557013 338.734252 
L 615.397093 338.769598 
L 949.513125 338.770536 
L 949.513125 338.770536 
" clip-path="url(#p4bae9c436a)" style="fill: none; stroke: #7cb5ec; stroke-linecap: square"/>
   </g>
   <g id="line2d_30">
    <path d="M 76.613125 110.520007 
L 81.861021 308.194057 
L 85.359618 325.734758 
L 90.607514 333.310714 
L 94.106111 335.228088 
L 99.354007 336.654636 
L 102.852604 337.172177 
L 108.1005 337.680852 
L 116.846993 338.116491 
L 129.092083 338.396567 
L 151.832965 338.60392 
L 207.81052 338.720777 
L 286.528957 338.755421 
L 949.513125 338.770575 
L 949.513125 338.770575 
" clip-path="url(#p4bae9c436a)" style="fill: none; stroke: #434348; stroke-linecap: square"/>
   </g>
   <g id="line2d_31">
    <path d="M 76.613125 132.026453 
L 81.861021 312.276503 
L 85.359618 327.847103 
L 90.607514 334.293655 
L 94.106111 335.900645 
L 99.354007 337.073676 
L 102.852604 337.515486 
L 111.599097 338.090401 
L 120.34559 338.347551 
L 137.838576 338.578103 
L 178.072444 338.709178 
L 256.790881 338.755694 
L 492.946191 338.769247 
L 949.513125 338.770575 
L 949.513125 338.770575 
" clip-path="url(#p4bae9c436a)" style="fill: none; stroke: #90ed7d; stroke-linecap: square"/>
   </g>
   <g id="line2d_32">
    <path d="M 76.613125 107.915898 
L 81.861021 311.462092 
L 85.359618 327.343193 
L 90.607514 333.991512 
L 94.106111 335.665289 
L 99.354007 336.926159 
L 102.852604 337.392418 
L 108.1005 337.835829 
L 116.846993 338.206166 
L 129.092083 338.462612 
L 155.331562 338.646452 
L 204.311923 338.731557 
L 949.513125 338.770731 
L 949.513125 338.770731 
" clip-path="url(#p4bae9c436a)" style="fill: none; stroke: #f7a35c; stroke-linecap: square"/>
   </g>
   <g id="line2d_33">
    <path d="M 76.613125 152.9954 
L 81.861021 307.023448 
L 85.359618 325.376881 
L 90.607514 333.360394 
L 94.106111 335.320535 
L 99.354007 336.738999 
L 102.852604 337.268413 
L 111.599097 337.95007 
L 120.34559 338.263579 
L 134.339979 338.501044 
L 155.331562 338.638602 
L 207.81052 338.731752 
L 414.227754 338.767411 
L 949.513125 338.770419 
L 949.513125 338.770419 
" clip-path="url(#p4bae9c436a)" style="fill: none; stroke: #8085e9; stroke-linecap: square"/>
   </g>
   <g id="line2d_34">
    <path d="M 76.613125 83.457152 
L 81.861021 304.648562 
L 85.359618 324.078048 
L 90.607514 332.539929 
L 94.106111 334.656297 
L 99.354007 336.31121 
L 102.852604 336.908349 
L 108.1005 337.478265 
L 111.599097 337.74471 
L 120.34559 338.12399 
L 137.838576 338.45277 
L 164.078055 338.621378 
L 213.058416 338.715114 
L 304.021943 338.755968 
L 949.513125 338.770497 
L 949.513125 338.770497 
" clip-path="url(#p4bae9c436a)" style="fill: none; stroke: #f15c80; stroke-linecap: square"/>
   </g>
   <g id="line2d_35">
    <path d="M 76.613125 82.547169 
L 81.861021 304.264908 
L 85.359618 324.139524 
L 90.607514 332.613785 
L 94.106111 334.749916 
L 99.354007 336.365069 
L 102.852604 336.967832 
L 108.1005 337.532202 
L 111.599097 337.779705 
L 120.34559 338.145628 
L 134.339979 338.429883 
L 155.331562 338.600326 
L 207.81052 338.719762 
L 554.171642 338.768622 
L 949.513125 338.770379 
L 949.513125 338.770379 
" clip-path="url(#p4bae9c436a)" style="fill: none; stroke: #e4d354; stroke-linecap: square"/>
   </g>
   <g id="line2d_36">
    <path d="M 76.613125 113.182467 
L 81.861021 312.256154 
L 85.359618 327.560427 
L 90.607514 334.055409 
L 94.106111 335.679897 
L 99.354007 336.932525 
L 102.852604 337.372304 
L 108.1005 337.827276 
L 116.846993 338.209681 
L 129.092083 338.455894 
L 151.832965 338.626143 
L 190.317534 338.719489 
L 347.754408 338.765107 
L 949.513125 338.770536 
L 949.513125 338.770536 
" clip-path="url(#p4bae9c436a)" style="fill: none; stroke: #2b908f; stroke-linecap: square"/>
   </g>
   <g id="line2d_37">
    <path d="M 76.613125 121.214176 
L 81.861021 314.557652 
L 85.359618 328.821218 
L 90.607514 334.69715 
L 94.106111 336.139477 
L 99.354007 337.233613 
L 102.852604 337.627657 
L 111.599097 338.145471 
L 120.34559 338.390162 
L 143.086472 338.6213 
L 178.072444 338.71445 
L 373.993887 338.767528 
L 949.513125 338.770614 
L 949.513125 338.770614 
" clip-path="url(#p4bae9c436a)" style="fill: none; stroke: #f45b5b; stroke-linecap: square"/>
   </g>
   <g id="line2d_38">
    <path d="M 76.613125 142.831856 
L 81.861021 310.694314 
L 85.359618 327.12221 
L 90.607514 334.002565 
L 94.106111 335.657087 
L 99.354007 336.930377 
L 102.852604 337.385544 
L 111.599097 338.004359 
L 120.34559 338.28838 
L 137.838576 338.533617 
L 172.824548 338.682853 
L 277.782464 338.756124 
L 949.513125 338.770497 
L 949.513125 338.770497 
" clip-path="url(#p4bae9c436a)" style="fill: none; stroke: #91e8e1; stroke-linecap: square"/>
   </g>
   <g id="line2d_39">
    <path d="M 76.613125 118.68119 
L 81.861021 310.463527 
L 85.359618 327.049525 
L 90.607514 333.920194 
L 94.106111 335.608735 
L 99.354007 336.890539 
L 102.852604 337.377459 
L 111.599097 337.998735 
L 125.593486 338.385202 
L 143.086472 338.574354 
L 195.56543 338.714138 
L 260.289478 338.749133 
L 480.701101 338.767411 
L 949.513125 338.770614 
L 949.513125 338.770614 
" clip-path="url(#p4bae9c436a)" style="fill: none; stroke: #7cb5ec; stroke-linecap: square"/>
   </g>
   <g id="line2d_40">
    <path d="M 76.613125 134.58967 
L 81.861021 310.318705 
L 85.359618 326.899704 
L 90.607514 333.912344 
L 94.106111 335.623303 
L 99.354007 336.894835 
L 102.852604 337.361837 
L 108.1005 337.81595 
L 116.846993 338.189098 
L 129.092083 338.443357 
L 151.832965 338.624463 
L 239.297895 338.746594 
L 949.513125 338.770536 
L 949.513125 338.770536 
" clip-path="url(#p4bae9c436a)" style="fill: none; stroke: #434348; stroke-linecap: square"/>
   </g>
   <g id="line2d_41">
    <path d="M 76.613125 118.535078 
L 81.861021 310.388773 
L 85.359618 326.926809 
L 90.607514 333.862898 
L 94.106111 335.586199 
L 99.354007 336.851834 
L 102.852604 337.344417 
L 108.1005 337.792437 
L 116.846993 338.183552 
L 129.092083 338.438319 
L 160.579458 338.650319 
L 204.311923 338.725035 
L 431.72074 338.767372 
L 949.513125 338.770458 
L 949.513125 338.770458 
" clip-path="url(#p4bae9c436a)" style="fill: none; stroke: #90ed7d; stroke-linecap: square"/>
   </g>
   <g id="line2d_42">
    <path d="M 76.613125 126.131188 
L 81.861021 310.703141 
L 85.359618 327.126701 
L 90.607514 333.976241 
L 94.106111 335.654041 
L 99.354007 336.922214 
L 102.852604 337.385661 
L 111.599097 337.98651 
L 120.34559 338.282014 
L 134.339979 338.500224 
L 160.579458 338.651881 
L 213.058416 338.735658 
L 949.513125 338.770653 
L 949.513125 338.770653 
" clip-path="url(#p4bae9c436a)" style="fill: none; stroke: #f7a35c; stroke-linecap: square"/>
   </g>
   <g id="line2d_43">
    <path d="M 76.613125 122.864715 
L 81.861021 313.883259 
L 85.359618 328.471816 
L 90.607514 334.502804 
L 94.106111 336.013285 
L 99.354007 337.148899 
L 102.852604 337.532866 
L 111.599097 338.110437 
L 125.593486 338.441795 
L 146.585069 338.617238 
L 190.317534 338.718668 
L 335.509317 338.763974 
L 949.513125 338.770575 
L 949.513125 338.770575 
" clip-path="url(#p4bae9c436a)" style="fill: none; stroke: #8085e9; stroke-linecap: square"/>
   </g>
   <g id="line2d_44">
    <path d="M 76.613125 105.753521 
L 81.861021 310.156112 
L 85.359618 326.714106 
L 90.607514 333.70175 
L 94.106111 335.46321 
L 99.354007 336.781414 
L 102.852604 337.277435 
L 111.599097 337.931245 
L 120.34559 338.247097 
L 137.838576 338.515573 
L 172.824548 338.678596 
L 277.782464 338.754757 
L 949.513125 338.770301 
L 949.513125 338.770301 
" clip-path="url(#p4bae9c436a)" style="fill: none; stroke: #f15c80; stroke-linecap: square"/>
   </g>
   <g id="line2d_45">
    <path d="M 76.613125 105.644006 
L 81.861021 310.142989 
L 85.359618 326.998791 
L 90.607514 333.976827 
L 94.106111 335.693996 
L 99.354007 336.93643 
L 102.852604 337.413392 
L 111.599097 338.028653 
L 120.34559 338.309041 
L 137.838576 338.548498 
L 178.072444 338.698281 
L 248.044388 338.750304 
L 949.513125 338.770419 
L 949.513125 338.770419 
" clip-path="url(#p4bae9c436a)" style="fill: none; stroke: #e4d354; stroke-linecap: square"/>
   </g>
   <g id="line2d_46">
    <path d="M 76.613125 89.101166 
L 81.861021 307.274934 
L 85.359618 325.391097 
L 90.607514 333.109259 
L 94.106111 335.074634 
L 99.354007 336.551721 
L 102.852604 337.110858 
L 111.599097 337.853444 
L 120.34559 338.196753 
L 134.339979 338.462104 
L 155.331562 338.615715 
L 199.064027 338.717887 
L 347.754408 338.764091 
L 949.513125 338.770614 
L 949.513125 338.770614 
" clip-path="url(#p4bae9c436a)" style="fill: none; stroke: #2b908f; stroke-linecap: square"/>
   </g>
   <g id="line2d_47">
    <path d="M 76.613125 125.126726 
L 81.861021 312.55447 
L 85.359618 327.732042 
L 90.607514 334.136335 
L 94.106111 335.766603 
L 99.354007 336.985993 
L 102.852604 337.42421 
L 108.1005 337.857975 
L 116.846993 338.214992 
L 129.092083 338.469018 
L 155.331562 338.64614 
L 204.311923 338.731362 
L 300.523345 338.761475 
L 949.513125 338.770692 
L 949.513125 338.770692 
" clip-path="url(#p4bae9c436a)" style="fill: none; stroke: #f45b5b; stroke-linecap: square"/>
   </g>
   <g id="line2d_48">
    <path d="M 76.613125 92.959817 
L 81.861021 305.937045 
L 85.359618 324.794935 
L 90.607514 332.846251 
L 94.106111 334.894348 
L 99.354007 336.42549 
L 102.852604 337.003764 
L 108.1005 337.559464 
L 116.846993 338.038222 
L 129.092083 338.351613 
L 146.585069 338.548303 
L 186.818937 338.693125 
L 300.523345 338.757491 
L 760.588877 338.770067 
L 949.513125 338.770223 
L 949.513125 338.770223 
" clip-path="url(#p4bae9c436a)" style="fill: none; stroke: #91e8e1; stroke-linecap: square"/>
   </g>
   <g id="line2d_49">
    <path d="M 76.613125 93.308633 
L 81.861021 308.586616 
L 85.359618 326.09076 
L 90.607514 333.470534 
L 94.106111 335.334674 
L 99.354007 336.70541 
L 102.852604 337.24783 
L 111.599097 337.927496 
L 120.34559 338.249597 
L 137.838576 338.515456 
L 164.078055 338.657388 
L 256.790881 338.752687 
L 949.513125 338.770575 
L 949.513125 338.770575 
" clip-path="url(#p4bae9c436a)" style="fill: none; stroke: #7cb5ec; stroke-linecap: square"/>
   </g>
   <g id="line2d_50">
    <path d="M 76.613125 73.202996 
L 81.861021 308.040993 
L 85.359618 325.830642 
L 90.607514 333.326336 
L 94.106111 335.247421 
L 99.354007 336.666705 
L 102.852604 337.199009 
L 108.1005 337.709364 
L 116.846993 338.135942 
L 129.092083 338.417111 
L 155.331562 338.629775 
L 207.81052 338.730503 
L 594.40551 338.769598 
L 949.513125 338.770614 
L 949.513125 338.770614 
" clip-path="url(#p4bae9c436a)" style="fill: none; stroke: #434348; stroke-linecap: square"/>
   </g>
   <g id="line2d_51">
    <path d="M 76.613125 81.649879 
L 81.861021 307.870784 
L 85.359618 325.645591 
L 90.607514 333.240373 
L 94.106111 335.143843 
L 99.354007 336.617766 
L 102.852604 337.154523 
L 108.1005 337.667221 
L 111.599097 337.892618 
L 120.34559 338.219093 
L 134.339979 338.475345 
L 160.579458 338.650202 
L 295.27545 338.758584 
L 739.597293 338.770575 
L 949.513125 338.770653 
L 949.513125 338.770653 
" clip-path="url(#p4bae9c436a)" style="fill: none; stroke: #90ed7d; stroke-linecap: square"/>
   </g>
   <g id="line2d_52">
    <path d="M 76.613125 81.34797 
L 81.861021 306.828711 
L 85.359618 325.166755 
L 90.607514 332.994432 
L 94.106111 334.981366 
L 99.354007 336.476381 
L 102.852604 337.031495 
L 108.1005 337.582546 
L 116.846993 338.052985 
L 129.092083 338.363018 
L 151.832965 338.583962 
L 181.571041 338.684728 
L 286.528957 338.754054 
L 874.293285 338.770458 
L 949.513125 338.770653 
L 949.513125 338.770653 
" clip-path="url(#p4bae9c436a)" style="fill: none; stroke: #f7a35c; stroke-linecap: square"/>
   </g>
   <g id="line2d_53">
    <path d="M 76.613125 85.269893 
L 81.861021 303.442841 
L 85.359618 323.639246 
L 90.607514 332.343122 
L 94.106111 334.552758 
L 99.354007 336.229191 
L 102.852604 336.858786 
L 108.1005 337.449792 
L 111.599097 337.706786 
L 120.34559 338.101689 
L 134.339979 338.406956 
L 155.331562 338.584157 
L 199.064027 338.703592 
L 428.222143 338.765732 
L 949.513125 338.770379 
L 949.513125 338.770379 
" clip-path="url(#p4bae9c436a)" style="fill: none; stroke: #8085e9; stroke-linecap: square"/>
   </g>
   <g id="line2d_54">
    <path d="M 76.613125 83.308463 
L 81.861021 306.823399 
L 85.359618 325.440309 
L 90.607514 333.130896 
L 94.106111 335.100763 
L 99.354007 336.561173 
L 102.852604 337.121403 
L 108.1005 337.628868 
L 116.846993 338.07681 
L 125.593486 338.31861 
L 143.086472 338.538968 
L 186.818937 338.699609 
L 463.208115 338.768778 
L 949.513125 338.770458 
L 949.513125 338.770458 
" clip-path="url(#p4bae9c436a)" style="fill: none; stroke: #f15c80; stroke-linecap: square"/>
   </g>
   <g id="line2d_55">
    <path d="M 76.613125 84.088231 
L 81.861021 308.244362 
L 85.359618 325.923285 
L 90.607514 333.400779 
L 94.106111 335.259919 
L 99.354007 336.679203 
L 102.852604 337.204985 
L 111.599097 337.915544 
L 120.34559 338.245535 
L 137.838576 338.515105 
L 169.325951 338.674378 
L 283.030359 338.757569 
L 949.513125 338.770536 
L 949.513125 338.770536 
" clip-path="url(#p4bae9c436a)" style="fill: none; stroke: #e4d354; stroke-linecap: square"/>
   </g>
   <g id="line2d_56">
    <path d="M 76.613125 103.603251 
L 81.861021 310.003283 
L 85.359618 326.47461 
L 90.607514 333.476861 
L 94.106111 335.284994 
L 99.354007 336.675024 
L 102.852604 337.173075 
L 111.599097 337.885197 
L 120.34559 338.216438 
L 137.838576 338.501357 
L 172.824548 338.670785 
L 260.289478 338.750109 
L 949.513125 338.770575 
L 949.513125 338.770575 
" clip-path="url(#p4bae9c436a)" style="fill: none; stroke: #2b908f; stroke-linecap: square"/>
   </g>
   <g id="line2d_57">
    <path d="M 76.613125 132.540557 
L 81.861021 314.213562 
L 85.359618 328.660382 
L 90.607514 334.573692 
L 94.106111 336.053748 
L 99.354007 337.160772 
L 102.852604 337.564971 
L 111.599097 338.100908 
L 120.34559 338.349426 
L 137.838576 338.570331 
L 172.824548 338.697187 
L 242.796492 338.752374 
L 949.513125 338.770614 
L 949.513125 338.770614 
" clip-path="url(#p4bae9c436a)" style="fill: none; stroke: #f45b5b; stroke-linecap: square"/>
   </g>
   <g id="line2d_58">
    <path d="M 76.613125 121.260888 
L 81.861021 312.944061 
L 85.359618 327.77727 
L 90.607514 334.10216 
L 94.106111 335.704893 
L 99.354007 336.932759 
L 102.852604 337.386091 
L 111.599097 338.016076 
L 125.593486 338.399887 
L 146.585069 338.601068 
L 190.317534 338.712771 
L 304.021943 338.760576 
L 669.625349 338.770106 
L 949.513125 338.770653 
L 949.513125 338.770653 
" clip-path="url(#p4bae9c436a)" style="fill: none; stroke: #91e8e1; stroke-linecap: square"/>
   </g>
   <g id="line2d_59">
    <path d="M 76.613125 142.622707 
L 81.861021 315.600702 
L 85.359618 329.188351 
L 90.607514 334.809439 
L 94.106111 336.199078 
L 99.354007 337.245135 
L 102.852604 337.62879 
L 111.599097 338.138715 
L 125.593486 338.461128 
L 146.585069 338.632275 
L 204.311923 338.736713 
L 515.687073 338.769012 
L 949.513125 338.770497 
L 949.513125 338.770497 
" clip-path="url(#p4bae9c436a)" style="fill: none; stroke: #7cb5ec; stroke-linecap: square"/>
   </g>
   <g id="line2d_60">
    <path d="M 76.613125 153.250909 
L 81.861021 316.083443 
L 85.359618 329.356647 
L 90.607514 334.887904 
L 94.106111 336.254343 
L 99.354007 337.260289 
L 102.852604 337.641639 
L 111.599097 338.150432 
L 120.34559 338.379031 
L 137.838576 338.586032 
L 178.072444 338.711248 
L 286.528957 338.760225 
L 949.513125 338.770653 
L 949.513125 338.770653 
" clip-path="url(#p4bae9c436a)" style="fill: none; stroke: #434348; stroke-linecap: square"/>
   </g>
   <g id="line2d_61">
    <path d="M 76.613125 97.669827 
L 81.861021 309.760623 
L 85.359618 326.544561 
L 90.607514 333.657499 
L 94.106111 335.439697 
L 99.354007 336.800201 
L 102.852604 337.301924 
L 111.599097 337.96253 
L 120.34559 338.278069 
L 137.838576 338.539945 
L 169.325951 338.685431 
L 265.537373 338.75546 
L 949.513125 338.770731 
L 949.513125 338.770731 
" clip-path="url(#p4bae9c436a)" style="fill: none; stroke: #90ed7d; stroke-linecap: square"/>
   </g>
   <g id="line2d_62">
    <path d="M 76.613125 111.941439 
L 81.861021 312.936406 
L 85.359618 328.148856 
L 90.607514 334.414965 
L 94.106111 335.965401 
L 99.354007 337.128121 
L 102.852604 337.530874 
L 111.599097 338.088605 
L 120.34559 338.350988 
L 137.838576 338.574979 
L 181.571041 338.71406 
L 304.021943 338.762685 
L 949.513125 338.770575 
L 949.513125 338.770575 
" clip-path="url(#p4bae9c436a)" style="fill: none; stroke: #f7a35c; stroke-linecap: square"/>
   </g>
   <g id="line2d_63">
    <path d="M 76.613125 108.128757 
L 81.861021 312.360553 
L 85.359618 327.923537 
L 90.607514 334.298108 
L 94.106111 335.863932 
L 99.354007 337.057702 
L 102.852604 337.491857 
L 111.599097 338.06767 
L 120.34559 338.330561 
L 137.838576 338.56416 
L 172.824548 338.699687 
L 321.514929 338.763974 
L 949.513125 338.770419 
L 949.513125 338.770419 
" clip-path="url(#p4bae9c436a)" style="fill: none; stroke: #8085e9; stroke-linecap: square"/>
   </g>
   <g id="line2d_64">
    <path d="M 76.613125 115.464788 
L 81.861021 314.395644 
L 85.359618 328.79751 
L 90.607514 334.684027 
L 94.106111 336.129166 
L 99.354007 337.214788 
L 102.852604 337.609886 
L 111.599097 338.139027 
L 125.593486 338.469369 
L 146.585069 338.63372 
L 199.064027 338.73269 
L 304.021943 338.762842 
L 949.513125 338.770653 
L 949.513125 338.770653 
" clip-path="url(#p4bae9c436a)" style="fill: none; stroke: #f15c80; stroke-linecap: square"/>
   </g>
   <g id="line2d_65">
    <path d="M 76.613125 126.976923 
L 81.861021 312.656135 
L 85.359618 327.892956 
L 90.607514 334.244522 
L 94.106111 335.826086 
L 99.354007 337.012747 
L 102.852604 337.459713 
L 111.599097 338.038339 
L 120.34559 338.310916 
L 137.838576 338.54592 
L 172.824548 338.686876 
L 277.782464 338.757569 
L 848.053806 338.770106 
L 949.513125 338.770731 
L 949.513125 338.770731 
" clip-path="url(#p4bae9c436a)" style="fill: none; stroke: #e4d354; stroke-linecap: square"/>
   </g>
   <g id="line2d_66">
    <path d="M 76.613125 131.134866 
L 81.861021 308.009592 
L 85.359618 325.796194 
L 90.607514 333.412144 
L 94.106111 335.323269 
L 99.354007 336.721384 
L 102.852604 337.245408 
L 111.599097 337.939369 
L 120.34559 338.246667 
L 137.838576 338.516393 
L 169.325951 338.669457 
L 242.796492 338.74511 
L 673.123947 338.769755 
L 949.513125 338.770028 
L 949.513125 338.770028 
" clip-path="url(#p4bae9c436a)" style="fill: none; stroke: #2b908f; stroke-linecap: square"/>
   </g>
   <g id="line2d_67">
    <path d="M 76.613125 106.711505 
L 81.861021 307.040437 
L 85.359618 325.642545 
L 90.607514 333.465222 
L 94.106111 335.33815 
L 99.354007 336.774345 
L 102.852604 337.279036 
L 111.599097 337.955265 
L 120.34559 338.272171 
L 137.838576 338.525884 
L 169.325951 338.677893 
L 242.796492 338.746477 
L 519.18567 338.769091 
L 949.513125 338.770614 
L 949.513125 338.770614 
" clip-path="url(#p4bae9c436a)" style="fill: none; stroke: #f45b5b; stroke-linecap: square"/>
   </g>
   <g id="line2d_68">
    <path d="M 76.613125 94.436748 
L 81.861021 310.288866 
L 85.359618 326.881035 
L 90.607514 333.837902 
L 94.106111 335.540659 
L 99.354007 336.855075 
L 102.852604 337.341527 
L 111.599097 337.984167 
L 125.593486 338.384303 
L 146.585069 338.588336 
L 195.56543 338.7182 
L 489.447594 338.768388 
L 949.513125 338.770458 
L 949.513125 338.770458 
" clip-path="url(#p4bae9c436a)" style="fill: none; stroke: #91e8e1; stroke-linecap: square"/>
   </g>
   <g id="line2d_69">
    <path d="M 76.613125 123.133386 
L 81.861021 311.394133 
L 85.359618 327.168844 
L 90.607514 333.868757 
L 94.106111 335.549955 
L 99.354007 336.845194 
L 102.852604 337.33356 
L 108.1005 337.790602 
L 116.846993 338.181091 
L 125.593486 338.393638 
L 146.585069 338.59521 
L 181.571041 338.70203 
L 277.782464 338.757178 
L 853.301702 338.770653 
L 949.513125 338.770653 
L 949.513125 338.770653 
" clip-path="url(#p4bae9c436a)" style="fill: none; stroke: #7cb5ec; stroke-linecap: square"/>
   </g>
   <g id="line2d_70">
    <path d="M 76.613125 110.954396 
L 81.861021 311.237203 
L 85.359618 327.4431 
L 90.607514 334.136139 
L 94.106111 335.785311 
L 99.354007 337.013021 
L 102.852604 337.458268 
L 111.599097 338.049587 
L 120.34559 338.320719 
L 137.838576 338.554278 
L 172.824548 338.694609 
L 256.790881 338.754991 
L 615.397093 338.769833 
L 949.513125 338.770536 
L 949.513125 338.770536 
" clip-path="url(#p4bae9c436a)" style="fill: none; stroke: #434348; stroke-linecap: square"/>
   </g>
   <g id="line2d_71">
    <path d="M 76.613125 103.239633 
L 81.861021 311.280087 
L 85.359618 327.417831 
L 90.607514 334.06529 
L 94.106111 335.742622 
L 99.354007 336.974823 
L 102.852604 337.441161 
L 111.599097 338.03869 
L 120.34559 338.315173 
L 134.339979 338.524595 
L 164.078055 338.673714 
L 225.303506 338.745774 
L 758.839578 338.77034 
L 949.513125 338.770497 
L 949.513125 338.770497 
" clip-path="url(#p4bae9c436a)" style="fill: none; stroke: #90ed7d; stroke-linecap: square"/>
   </g>
   <g id="line2d_72">
    <path d="M 76.613125 99.317671 
L 81.861021 309.530149 
L 85.359618 326.385404 
L 90.607514 333.550991 
L 94.106111 335.358889 
L 99.354007 336.729976 
L 102.852604 337.244237 
L 111.599097 337.93062 
L 120.34559 338.247488 
L 137.838576 338.523267 
L 164.078055 338.661528 
L 242.796492 338.748039 
L 949.513125 338.770497 
L 949.513125 338.770497 
" clip-path="url(#p4bae9c436a)" style="fill: none; stroke: #f7a35c; stroke-linecap: square"/>
   </g>
   <g id="line2d_73">
    <path d="M 76.613125 103.817985 
L 81.861021 311.447484 
L 85.359618 327.394592 
L 90.607514 334.021078 
L 94.106111 335.674429 
L 99.354007 336.914637 
L 102.852604 337.38488 
L 111.599097 338.008382 
L 120.34559 338.292872 
L 137.838576 338.546116 
L 172.824548 338.690391 
L 309.269838 338.762334 
L 510.439177 338.768778 
L 949.513125 338.770614 
L 949.513125 338.770614 
" clip-path="url(#p4bae9c436a)" style="fill: none; stroke: #8085e9; stroke-linecap: square"/>
   </g>
   <g id="line2d_74">
    <path d="M 76.613125 111.299189 
L 81.861021 309.997112 
L 85.359618 326.591663 
L 90.607514 333.661756 
L 94.106111 335.460983 
L 99.354007 336.813167 
L 102.852604 337.296963 
L 108.1005 337.771308 
L 116.846993 338.178396 
L 129.092083 338.434296 
L 155.331562 338.635829 
L 213.058416 338.734799 
L 506.94058 338.769208 
L 949.513125 338.770458 
L 949.513125 338.770458 
" clip-path="url(#p4bae9c436a)" style="fill: none; stroke: #f15c80; stroke-linecap: square"/>
   </g>
   <g id="line2d_75">
    <path d="M 76.613125 124.879067 
L 81.861021 311.710492 
L 85.359618 327.458606 
L 90.607514 334.069196 
L 94.106111 335.715321 
L 99.354007 336.943226 
L 102.852604 337.407728 
L 111.599097 338.012366 
L 120.34559 338.296504 
L 137.838576 338.545764 
L 178.072444 338.699999 
L 335.509317 338.763623 
L 949.513125 338.770497 
L 949.513125 338.770497 
" clip-path="url(#p4bae9c436a)" style="fill: none; stroke: #e4d354; stroke-linecap: square"/>
   </g>
   <g id="line2d_76">
    <path d="M 76.613125 136.850197 
L 81.861021 313.127862 
L 85.359618 328.200411 
L 90.607514 334.441993 
L 94.106111 335.95716 
L 99.354007 337.097227 
L 102.852604 337.53146 
L 111.599097 338.088253 
L 120.34559 338.347629 
L 137.838576 338.571307 
L 172.824548 338.700273 
L 283.030359 338.759014 
L 498.194087 338.769169 
L 949.513125 338.770458 
L 949.513125 338.770458 
" clip-path="url(#p4bae9c436a)" style="fill: none; stroke: #2b908f; stroke-linecap: square"/>
   </g>
   <g id="line2d_77">
    <path d="M 76.613125 106.054531 
L 81.861021 309.391146 
L 85.359618 326.452387 
L 90.607514 333.612701 
L 94.106111 335.432589 
L 99.354007 336.786843 
L 102.852604 337.270873 
L 111.599097 337.944876 
L 120.34559 338.265024 
L 137.838576 338.522721 
L 164.078055 338.664692 
L 242.796492 338.748273 
L 722.104307 338.770145 
L 949.513125 338.770653 
L 949.513125 338.770653 
" clip-path="url(#p4bae9c436a)" style="fill: none; stroke: #f45b5b; stroke-linecap: square"/>
   </g>
   <g id="line2d_78">
    <path d="M 76.613125 119.99295 
L 81.861021 311.84516 
L 85.359618 327.272071 
L 90.607514 333.867116 
L 94.106111 335.557376 
L 99.354007 336.829415 
L 102.852604 337.321296 
L 111.599097 337.963154 
L 120.34559 338.27139 
L 134.339979 338.50741 
L 172.824548 338.685861 
L 274.283866 338.75671 
L 949.513125 338.770497 
L 949.513125 338.770497 
" clip-path="url(#p4bae9c436a)" style="fill: none; stroke: #91e8e1; stroke-linecap: square"/>
   </g>
   <g id="line2d_79">
    <path d="M 76.613125 107.257987 
L 81.861021 309.270305 
L 85.359618 326.422938 
L 90.607514 333.597742 
L 94.106111 335.418333 
L 99.354007 336.782586 
L 102.852604 337.28177 
L 111.599097 337.94843 
L 120.34559 338.267485 
L 137.838576 338.540921 
L 199.064027 338.72191 
L 356.500901 338.765732 
L 949.513125 338.770536 
L 949.513125 338.770536 
" clip-path="url(#p4bae9c436a)" style="fill: none; stroke: #7cb5ec; stroke-linecap: square"/>
   </g>
   <g id="line2d_80">
    <path d="M 76.613125 102.837817 
L 81.861021 310.396819 
L 85.359618 326.762653 
L 90.607514 333.679722 
L 94.106111 335.434659 
L 99.354007 336.779461 
L 102.852604 337.269272 
L 111.599097 337.94222 
L 120.34559 338.258306 
L 137.838576 338.52565 
L 169.325951 338.675315 
L 234.049999 338.742532 
L 422.974247 338.767372 
L 949.513125 338.770575 
L 949.513125 338.770575 
" clip-path="url(#p4bae9c436a)" style="fill: none; stroke: #434348; stroke-linecap: square"/>
   </g>
   <g id="line2d_81">
    <path d="M 76.613125 105.27242 
L 81.861021 304.953596 
L 85.359618 324.585005 
L 90.607514 332.943151 
L 94.106111 334.999918 
L 99.354007 336.531998 
L 102.852604 337.087854 
L 108.1005 337.619689 
L 116.846993 338.082395 
L 129.092083 338.379656 
L 146.585069 338.560606 
L 190.317534 338.700429 
L 309.269838 338.757647 
L 835.808716 338.769989 
L 949.513125 338.770301 
L 949.513125 338.770301 
" clip-path="url(#p4bae9c436a)" style="fill: none; stroke: #90ed7d; stroke-linecap: square"/>
   </g>
   <g id="line2d_82">
    <path d="M 76.613125 120.908206 
L 81.861021 313.941141 
L 85.359618 328.726779 
L 90.607514 334.700119 
L 94.106111 336.143813 
L 99.354007 337.224044 
L 102.852604 337.625938 
L 111.599097 338.144573 
L 125.593486 338.464448 
L 146.585069 338.633681 
L 207.81052 338.739876 
L 457.960219 338.768778 
L 949.513125 338.770692 
L 949.513125 338.770692 
" clip-path="url(#p4bae9c436a)" style="fill: none; stroke: #f7a35c; stroke-linecap: square"/>
   </g>
   <g id="line2d_83">
    <path d="M 76.613125 121.100951 
L 81.861021 312.928907 
L 85.359618 328.166353 
L 90.607514 334.383173 
L 94.106111 335.942866 
L 99.354007 337.09504 
L 102.852604 337.526773 
L 111.599097 338.073998 
L 120.34559 338.33724 
L 137.838576 338.567714 
L 172.824548 338.696875 
L 304.021943 338.762334 
L 655.630961 338.770106 
L 949.513125 338.770497 
L 949.513125 338.770497 
" clip-path="url(#p4bae9c436a)" style="fill: none; stroke: #8085e9; stroke-linecap: square"/>
   </g>
   <g id="line2d_84">
    <path d="M 76.613125 121.817877 
L 81.861021 307.417062 
L 85.359618 325.479561 
L 90.607514 333.261854 
L 94.106111 335.167081 
L 99.354007 336.627648 
L 102.852604 337.166943 
L 111.599097 337.880667 
L 120.34559 338.205658 
L 134.339979 338.461558 
L 164.078055 338.646101 
L 230.551402 338.736791 
L 949.513125 338.770262 
L 949.513125 338.770262 
" clip-path="url(#p4bae9c436a)" style="fill: none; stroke: #f15c80; stroke-linecap: square"/>
   </g>
   <g id="line2d_85">
    <path d="M 76.613125 85.920422 
L 81.861021 308.976949 
L 85.359618 326.351581 
L 90.607514 333.537321 
L 94.106111 335.336978 
L 99.354007 336.745521 
L 102.852604 337.238261 
L 111.599097 337.908123 
L 120.34559 338.225264 
L 137.838576 338.506512 
L 169.325951 338.661997 
L 213.058416 338.728628 
L 506.94058 338.768544 
L 949.513125 338.770497 
L 949.513125 338.770497 
" clip-path="url(#p4bae9c436a)" style="fill: none; stroke: #e4d354; stroke-linecap: square"/>
   </g>
   <g id="line2d_86">
    <path d="M 76.613125 113.614201 
L 81.861021 311.824616 
L 85.359618 327.394982 
L 90.607514 333.957259 
L 94.106111 335.62221 
L 99.354007 336.866792 
L 102.852604 337.348987 
L 111.599097 337.973583 
L 120.34559 338.264985 
L 137.838576 338.527486 
L 172.824548 338.67969 
L 242.796492 338.744485 
L 475.453205 338.767958 
L 949.513125 338.770536 
L 949.513125 338.770536 
" clip-path="url(#p4bae9c436a)" style="fill: none; stroke: #2b908f; stroke-linecap: square"/>
   </g>
   <g id="line2d_87">
    <path d="M 76.613125 104.060215 
L 81.861021 310.721536 
L 85.359618 327.181303 
L 90.607514 333.968547 
L 94.106111 335.673921 
L 99.354007 336.954475 
L 102.852604 337.410462 
L 111.599097 338.021857 
L 120.34559 338.313181 
L 137.838576 338.54881 
L 169.325951 338.690274 
L 489.447594 338.768739 
L 949.513125 338.770614 
L 949.513125 338.770614 
" clip-path="url(#p4bae9c436a)" style="fill: none; stroke: #f45b5b; stroke-linecap: square"/>
   </g>
   <g id="line2d_88">
    <path d="M 76.613125 80.70701 
L 81.861021 306.206224 
L 85.359618 324.841413 
L 90.607514 332.825395 
L 94.106111 334.869156 
L 99.354007 336.424123 
L 102.852604 337.007123 
L 108.1005 337.566924 
L 116.846993 338.049431 
L 129.092083 338.365712 
L 151.832965 338.585368 
L 186.818937 338.693711 
L 248.044388 338.744329 
L 471.954608 338.768231 
L 935.518736 338.770536 
L 949.513125 338.770497 
L 949.513125 338.770497 
" clip-path="url(#p4bae9c436a)" style="fill: none; stroke: #91e8e1; stroke-linecap: square"/>
   </g>
   <g id="line2d_89">
    <path d="M 76.613125 65.707849 
L 81.861021 302.604137 
L 85.359618 323.528988 
L 90.607514 332.368782 
L 94.106111 334.589549 
L 99.354007 336.284456 
L 102.852604 336.904794 
L 108.1005 337.487951 
L 116.846993 338.004359 
L 129.092083 338.340521 
L 146.585069 338.544007 
L 186.818937 338.69332 
L 339.007915 338.762099 
L 949.513125 338.770497 
L 949.513125 338.770497 
" clip-path="url(#p4bae9c436a)" style="fill: none; stroke: #7cb5ec; stroke-linecap: square"/>
   </g>
   <g id="line2d_90">
    <path d="M 76.613125 121.190703 
L 81.861021 314.482975 
L 85.359618 328.913782 
L 90.607514 334.740191 
L 94.106111 336.160021 
L 99.354007 337.228458 
L 102.852604 337.611526 
L 111.599097 338.135356 
L 120.34559 338.379304 
L 137.838576 338.5799 
L 172.824548 338.703241 
L 414.227754 338.768231 
L 949.513125 338.770575 
L 949.513125 338.770575 
" clip-path="url(#p4bae9c436a)" style="fill: none; stroke: #434348; stroke-linecap: square"/>
   </g>
   <g id="line2d_91">
    <path d="M 76.613125 104.490113 
L 81.861021 311.814657 
L 85.359618 327.650218 
L 90.607514 334.154847 
L 94.106111 335.753011 
L 99.354007 336.977245 
L 102.852604 337.420148 
L 111.599097 338.028028 
L 120.34559 338.316696 
L 137.838576 338.556192 
L 169.325951 338.68504 
L 230.551402 338.745188 
L 650.383065 338.770145 
L 949.513125 338.770497 
L 949.513125 338.770497 
" clip-path="url(#p4bae9c436a)" style="fill: none; stroke: #90ed7d; stroke-linecap: square"/>
   </g>
   <g id="line2d_92">
    <path d="M 76.613125 127.779226 
L 81.861021 315.465995 
L 85.359618 329.382346 
L 90.607514 334.912548 
L 94.106111 336.283362 
L 99.354007 337.284778 
L 102.852604 337.65484 
L 111.599097 338.154728 
L 125.593486 338.469369 
L 146.585069 338.634306 
L 199.064027 338.733354 
L 571.664628 338.769325 
L 949.513125 338.770575 
L 949.513125 338.770575 
" clip-path="url(#p4bae9c436a)" style="fill: none; stroke: #f7a35c; stroke-linecap: square"/>
   </g>
   <g id="line2d_93">
    <path d="M 76.613125 122.30097 
L 81.861021 311.551024 
L 85.359618 327.46673 
L 90.607514 334.110674 
L 94.106111 335.744965 
L 99.354007 336.9758 
L 102.852604 337.432764 
L 111.599097 338.03498 
L 120.34559 338.309549 
L 137.838576 338.550881 
L 181.571041 338.708357 
L 304.021943 338.761201 
L 809.569237 338.770536 
L 949.513125 338.770653 
L 949.513125 338.770653 
" clip-path="url(#p4bae9c436a)" style="fill: none; stroke: #8085e9; stroke-linecap: square"/>
   </g>
   <g id="line2d_94">
    <path d="M 76.613125 188.489164 
L 81.861021 321.280686 
L 85.359618 331.756489 
L 90.607514 335.958527 
L 94.106111 336.974589 
L 99.354007 337.729204 
L 102.852604 337.995025 
L 111.599097 338.355089 
L 129.092083 338.599584 
L 155.331562 338.703788 
L 248.044388 338.76042 
L 846.304508 338.770536 
L 949.513125 338.770653 
L 949.513125 338.770653 
" clip-path="url(#p4bae9c436a)" style="fill: none; stroke: #f15c80; stroke-linecap: square"/>
   </g>
   <g id="line2d_95">
    <path d="M 76.613125 107.438078 
L 81.861021 309.606271 
L 85.359618 326.477305 
L 90.607514 333.620785 
L 94.106111 335.407359 
L 99.354007 336.788835 
L 102.852604 337.289308 
L 108.1005 337.759786 
L 116.846993 338.173436 
L 129.092083 338.42832 
L 146.585069 338.594858 
L 186.818937 338.708904 
L 304.021943 338.761631 
L 708.109919 338.770262 
L 949.513125 338.770653 
L 949.513125 338.770653 
" clip-path="url(#p4bae9c436a)" style="fill: none; stroke: #e4d354; stroke-linecap: square"/>
   </g>
   <g id="line2d_96">
    <path d="M 76.613125 109.206333 
L 81.861021 309.743711 
L 85.359618 326.474805 
L 90.607514 333.5945 
L 94.106111 335.390837 
L 99.354007 336.748685 
L 102.852604 337.262047 
L 111.599097 337.939174 
L 120.34559 338.255182 
L 137.838576 338.524049 
L 169.325951 338.671761 
L 216.557013 338.733783 
L 498.194087 338.768739 
L 949.513125 338.770536 
L 949.513125 338.770536 
" clip-path="url(#p4bae9c436a)" style="fill: none; stroke: #2b908f; stroke-linecap: square"/>
   </g>
   <g id="line2d_97">
    <path d="M 76.613125 104.253117 
L 81.861021 310.817577 
L 85.359618 327.120413 
L 90.607514 333.839308 
L 94.106111 335.551947 
L 99.354007 336.857497 
L 102.852604 337.336333 
L 111.599097 337.980183 
L 120.34559 338.275648 
L 137.838576 338.533617 
L 172.824548 338.686017 
L 291.776852 338.757725 
L 716.856412 338.770223 
L 949.513125 338.770692 
L 949.513125 338.770692 
" clip-path="url(#p4bae9c436a)" style="fill: none; stroke: #f45b5b; stroke-linecap: square"/>
   </g>
   <g id="line2d_98">
    <path d="M 76.613125 141.880473 
L 81.861021 315.606521 
L 85.359618 329.248967 
L 90.607514 334.872359 
L 94.106111 336.271177 
L 99.354007 337.29091 
L 102.852604 337.676673 
L 111.599097 338.173592 
L 125.593486 338.483312 
L 146.585069 338.641023 
L 190.317534 338.729721 
L 457.960219 338.768739 
L 949.513125 338.770809 
L 949.513125 338.770809 
" clip-path="url(#p4bae9c436a)" style="fill: none; stroke: #91e8e1; stroke-linecap: square"/>
   </g>
   <g id="line2d_99">
    <path d="M 76.613125 114.199896 
L 81.861021 312.33169 
L 85.359618 327.612138 
L 90.607514 334.03506 
L 94.106111 335.70251 
L 99.354007 336.940883 
L 102.852604 337.387848 
L 108.1005 337.837314 
L 116.846993 338.200541 
L 129.092083 338.452457 
L 151.832965 338.623799 
L 181.571041 338.705428 
L 295.27545 338.759131 
L 949.513125 338.770653 
L 949.513125 338.770653 
" clip-path="url(#p4bae9c436a)" style="fill: none; stroke: #7cb5ec; stroke-linecap: square"/>
   </g>
   <g id="line2d_100">
    <path d="M 76.613125 93.476655 
L 81.861021 308.912545 
L 85.359618 326.254486 
L 90.607514 333.529783 
L 94.106111 335.338814 
L 99.354007 336.732789 
L 102.852604 337.236464 
L 108.1005 337.725494 
L 116.846993 338.138871 
L 129.092083 338.407113 
L 146.585069 338.580681 
L 199.064027 338.718122 
L 730.8508 338.770028 
L 949.513125 338.770262 
L 949.513125 338.770262 
" clip-path="url(#p4bae9c436a)" style="fill: none; stroke: #434348; stroke-linecap: square"/>
   </g>
   <g id="line2d_101">
    <path d="M 76.613125 104.682116 
L 81.861021 308.66223 
L 85.359618 326.151806 
L 90.607514 333.470886 
L 94.106111 335.321043 
L 99.354007 336.725446 
L 102.852604 337.229005 
L 111.599097 337.921403 
L 120.34559 338.243777 
L 137.838576 338.517565 
L 164.078055 338.65899 
L 234.049999 338.743977 
L 669.625349 338.769872 
L 949.513125 338.77034 
L 949.513125 338.77034 
" clip-path="url(#p4bae9c436a)" style="fill: none; stroke: #90ed7d; stroke-linecap: square"/>
   </g>
   <g id="line2d_102">
    <path d="M 76.613125 121.812799 
L 81.861021 313.621188 
L 85.359618 328.258059 
L 90.607514 334.371144 
L 94.106111 335.890373 
L 99.354007 337.050789 
L 102.852604 337.48924 
L 111.599097 338.060835 
L 120.34559 338.327281 
L 137.838576 338.555802 
L 172.824548 338.691836 
L 242.796492 338.749367 
L 949.513125 338.770614 
L 949.513125 338.770614 
" clip-path="url(#p4bae9c436a)" style="fill: none; stroke: #f7a35c; stroke-linecap: square"/>
   </g>
   <g id="line2d_103">
    <path d="M 76.613125 129.694804 
L 81.861021 313.391573 
L 85.359618 328.271416 
L 90.607514 334.424144 
L 94.106111 335.959699 
L 99.354007 337.103711 
L 102.852604 337.519704 
L 111.599097 338.091143 
L 125.593486 338.441326 
L 146.585069 338.616886 
L 186.818937 338.718473 
L 274.283866 338.759053 
L 865.546792 338.770145 
L 949.513125 338.770458 
L 949.513125 338.770458 
" clip-path="url(#p4bae9c436a)" style="fill: none; stroke: #8085e9; stroke-linecap: square"/>
   </g>
   <g id="line2d_104">
    <path d="M 76.613125 119.1387 
L 81.861021 311.969634 
L 85.359618 327.628659 
L 90.607514 334.113994 
L 94.106111 335.740161 
L 99.354007 336.955842 
L 102.852604 337.408509 
L 111.599097 338.015959 
L 120.34559 338.295996 
L 137.838576 338.544202 
L 172.824548 338.684337 
L 260.289478 338.754054 
L 897.034167 338.77034 
L 949.513125 338.770575 
L 949.513125 338.770575 
" clip-path="url(#p4bae9c436a)" style="fill: none; stroke: #f15c80; stroke-linecap: square"/>
   </g>
   <g id="line2d_105">
    <path d="M 76.613125 121.377629 
L 81.861021 309.872091 
L 85.359618 326.283974 
L 90.607514 333.441554 
L 94.106111 335.279409 
L 99.354007 336.673813 
L 102.852604 337.176395 
L 111.599097 337.876644 
L 120.34559 338.213899 
L 137.838576 338.49749 
L 164.078055 338.646804 
L 242.796492 338.741946 
L 484.199698 338.767606 
L 949.513125 338.770575 
L 949.513125 338.770575 
" clip-path="url(#p4bae9c436a)" style="fill: none; stroke: #e4d354; stroke-linecap: square"/>
   </g>
   <g id="line2d_106">
    <path d="M 76.613125 113.514801 
L 81.861021 310.706578 
L 85.359618 327.060891 
L 90.607514 333.851767 
L 94.106111 335.551751 
L 99.354007 336.838281 
L 102.852604 337.322116 
L 111.599097 337.954289 
L 120.34559 338.25651 
L 137.838576 338.517409 
L 164.078055 338.655553 
L 234.049999 338.742259 
L 568.166031 338.76913 
L 949.513125 338.770575 
L 949.513125 338.770575 
" clip-path="url(#p4bae9c436a)" style="fill: none; stroke: #2b908f; stroke-linecap: square"/>
   </g>
   <g id="line2d_107">
    <path d="M 76.613125 89.67819 
L 81.861021 307.250719 
L 85.359618 325.42328 
L 90.607514 333.095511 
L 94.106111 335.062722 
L 99.354007 336.536528 
L 102.852604 337.088205 
L 108.1005 337.598677 
L 116.846993 338.065171 
L 129.092083 338.370595 
L 151.832965 338.58443 
L 204.311923 338.713161 
L 312.768436 338.758897 
L 571.664628 338.768778 
L 949.513125 338.77034 
L 949.513125 338.77034 
" clip-path="url(#p4bae9c436a)" style="fill: none; stroke: #f45b5b; stroke-linecap: square"/>
   </g>
   <g id="line2d_108">
    <path d="M 76.613125 93.455642 
L 81.861021 305.707469 
L 85.359618 324.663079 
L 90.607514 332.777042 
L 94.106111 334.821507 
L 99.354007 336.416624 
L 102.852604 336.993961 
L 108.1005 337.541146 
L 116.846993 338.047478 
L 129.092083 338.354816 
L 155.331562 338.602357 
L 213.058416 338.723043 
L 949.513125 338.770262 
L 949.513125 338.770262 
" clip-path="url(#p4bae9c436a)" style="fill: none; stroke: #91e8e1; stroke-linecap: square"/>
   </g>
   <g id="line2d_109">
    <path d="M 76.613125 87.038969 
L 81.861021 308.22702 
L 85.359618 325.826541 
L 90.607514 333.226937 
L 94.106111 335.1274 
L 99.354007 336.578163 
L 102.852604 337.107187 
L 108.1005 337.631797 
L 116.846993 338.090909 
L 129.092083 338.385749 
L 146.585069 338.569237 
L 190.317534 338.702811 
L 286.528957 338.755733 
L 830.56082 338.770379 
L 949.513125 338.770536 
L 949.513125 338.770536 
" clip-path="url(#p4bae9c436a)" style="fill: none; stroke: #7cb5ec; stroke-linecap: square"/>
   </g>
   <g id="line2d_110">
    <path d="M 76.613125 49.708991 
L 81.861021 302.101632 
L 85.359618 322.851549 
L 90.607514 331.823276 
L 94.106111 334.19738 
L 99.354007 336.007192 
L 102.852604 336.672094 
L 108.1005 337.294932 
L 111.599097 337.590592 
L 120.34559 338.029004 
L 134.339979 338.35216 
L 155.331562 338.561973 
L 207.81052 338.70371 
L 396.734768 338.764091 
L 949.513125 338.770223 
L 949.513125 338.770223 
" clip-path="url(#p4bae9c436a)" style="fill: none; stroke: #434348; stroke-linecap: square"/>
   </g>
   <g id="line2d_111">
    <path d="M 76.613125 74.867361 
L 81.861021 308.748545 
L 85.359618 326.046548 
L 90.607514 333.399646 
L 94.106111 335.272105 
L 99.354007 336.677055 
L 102.852604 337.193424 
L 108.1005 337.690148 
L 116.846993 338.131216 
L 129.092083 338.4068 
L 146.585069 338.581345 
L 195.56543 338.71652 
L 312.768436 338.76085 
L 835.808716 338.770419 
L 949.513125 338.770731 
L 949.513125 338.770731 
" clip-path="url(#p4bae9c436a)" style="fill: none; stroke: #90ed7d; stroke-linecap: square"/>
   </g>
   <g id="line2d_112">
    <path d="M 76.613125 99.969957 
L 81.861021 309.203869 
L 85.359618 326.679228 
L 90.607514 333.795642 
L 94.106111 335.579443 
L 99.354007 336.896436 
L 102.852604 337.373241 
L 111.599097 338.012678 
L 120.34559 338.30041 
L 137.838576 338.548225 
L 169.325951 338.684416 
L 269.035971 338.757764 
L 949.513125 338.770653 
L 949.513125 338.770653 
" clip-path="url(#p4bae9c436a)" style="fill: none; stroke: #f7a35c; stroke-linecap: square"/>
   </g>
   <g id="line2d_113">
    <path d="M 32.968125 338.770848 
L 993.158125 338.770848 
" clip-path="url(#p4bae9c436a)" style="fill: none; stroke: #dedede; stroke-width: 2; stroke-linecap: square"/>
   </g>
   <g id="text_18">
    <!-- RSeQC: Read Duplication -->
    <g transform="translate(412.358125 19.3575)scale(0.16 -0.16)">
     <defs>
      <path id="DejaVuSans-53" d="M 3425 4513 
L 3425 3897 
Q 3066 4069 2747 4153 
Q 2428 4238 2131 4238 
Q 1616 4238 1336 4038 
Q 1056 3838 1056 3469 
Q 1056 3159 1242 3001 
Q 1428 2844 1947 2747 
L 2328 2669 
Q 3034 2534 3370 2195 
Q 3706 1856 3706 1288 
Q 3706 609 3251 259 
Q 2797 -91 1919 -91 
Q 1588 -91 1214 -16 
Q 841 59 441 206 
L 441 856 
Q 825 641 1194 531 
Q 1563 422 1919 422 
Q 2459 422 2753 634 
Q 3047 847 3047 1241 
Q 3047 1584 2836 1778 
Q 2625 1972 2144 2069 
L 1759 2144 
Q 1053 2284 737 2584 
Q 422 2884 422 3419 
Q 422 4038 858 4394 
Q 1294 4750 2059 4750 
Q 2388 4750 2728 4690 
Q 3069 4631 3425 4513 
z
" transform="scale(0.015625)"/>
      <path id="DejaVuSans-51" d="M 2522 4238 
Q 1834 4238 1429 3725 
Q 1025 3213 1025 2328 
Q 1025 1447 1429 934 
Q 1834 422 2522 422 
Q 3209 422 3611 934 
Q 4013 1447 4013 2328 
Q 4013 3213 3611 3725 
Q 3209 4238 2522 4238 
z
M 3406 84 
L 4238 -825 
L 3475 -825 
L 2784 -78 
Q 2681 -84 2626 -87 
Q 2572 -91 2522 -91 
Q 1538 -91 948 567 
Q 359 1225 359 2328 
Q 359 3434 948 4092 
Q 1538 4750 2522 4750 
Q 3503 4750 4090 4092 
Q 4678 3434 4678 2328 
Q 4678 1516 4351 937 
Q 4025 359 3406 84 
z
" transform="scale(0.015625)"/>
      <path id="DejaVuSans-43" d="M 4122 4306 
L 4122 3641 
Q 3803 3938 3442 4084 
Q 3081 4231 2675 4231 
Q 1875 4231 1450 3742 
Q 1025 3253 1025 2328 
Q 1025 1406 1450 917 
Q 1875 428 2675 428 
Q 3081 428 3442 575 
Q 3803 722 4122 1019 
L 4122 359 
Q 3791 134 3420 21 
Q 3050 -91 2638 -91 
Q 1578 -91 968 557 
Q 359 1206 359 2328 
Q 359 3453 968 4101 
Q 1578 4750 2638 4750 
Q 3056 4750 3426 4639 
Q 3797 4528 4122 4306 
z
" transform="scale(0.015625)"/>
      <path id="DejaVuSans-3a" d="M 750 794 
L 1409 794 
L 1409 0 
L 750 0 
L 750 794 
z
M 750 3309 
L 1409 3309 
L 1409 2516 
L 750 2516 
L 750 3309 
z
" transform="scale(0.015625)"/>
      <path id="DejaVuSans-44" d="M 1259 4147 
L 1259 519 
L 2022 519 
Q 2988 519 3436 956 
Q 3884 1394 3884 2338 
Q 3884 3275 3436 3711 
Q 2988 4147 2022 4147 
L 1259 4147 
z
M 628 4666 
L 1925 4666 
Q 3281 4666 3915 4102 
Q 4550 3538 4550 2338 
Q 4550 1131 3912 565 
Q 3275 0 1925 0 
L 628 0 
L 628 4666 
z
" transform="scale(0.015625)"/>
      <path id="DejaVuSans-70" d="M 1159 525 
L 1159 -1331 
L 581 -1331 
L 581 3500 
L 1159 3500 
L 1159 2969 
Q 1341 3281 1617 3432 
Q 1894 3584 2278 3584 
Q 2916 3584 3314 3078 
Q 3713 2572 3713 1747 
Q 3713 922 3314 415 
Q 2916 -91 2278 -91 
Q 1894 -91 1617 61 
Q 1341 213 1159 525 
z
M 3116 1747 
Q 3116 2381 2855 2742 
Q 2594 3103 2138 3103 
Q 1681 3103 1420 2742 
Q 1159 2381 1159 1747 
Q 1159 1113 1420 752 
Q 1681 391 2138 391 
Q 2594 391 2855 752 
Q 3116 1113 3116 1747 
z
" transform="scale(0.015625)"/>
      <path id="DejaVuSans-69" d="M 603 3500 
L 1178 3500 
L 1178 0 
L 603 0 
L 603 3500 
z
M 603 4863 
L 1178 4863 
L 1178 4134 
L 603 4134 
L 603 4863 
z
" transform="scale(0.015625)"/>
      <path id="DejaVuSans-74" d="M 1172 4494 
L 1172 3500 
L 2356 3500 
L 2356 3053 
L 1172 3053 
L 1172 1153 
Q 1172 725 1289 603 
Q 1406 481 1766 481 
L 2356 481 
L 2356 0 
L 1766 0 
Q 1100 0 847 248 
Q 594 497 594 1153 
L 594 3053 
L 172 3053 
L 172 3500 
L 594 3500 
L 594 4494 
L 1172 4494 
z
" transform="scale(0.015625)"/>
     </defs>
     <use xlink:href="#DejaVuSans-52"/>
     <use xlink:href="#DejaVuSans-53" x="69.482422"/>
     <use xlink:href="#DejaVuSans-65" x="132.958984"/>
     <use xlink:href="#DejaVuSans-51" x="194.482422"/>
     <use xlink:href="#DejaVuSans-43" x="273.193359"/>
     <use xlink:href="#DejaVuSans-3a" x="343.017578"/>
     <use xlink:href="#DejaVuSans-20" x="376.708984"/>
     <use xlink:href="#DejaVuSans-52" x="408.496094"/>
     <use xlink:href="#DejaVuSans-65" x="473.478516"/>
     <use xlink:href="#DejaVuSans-61" x="535.001953"/>
     <use xlink:href="#DejaVuSans-64" x="596.28125"/>
     <use xlink:href="#DejaVuSans-20" x="659.757812"/>
     <use xlink:href="#DejaVuSans-44" x="691.544922"/>
     <use xlink:href="#DejaVuSans-75" x="768.546875"/>
     <use xlink:href="#DejaVuSans-70" x="831.925781"/>
     <use xlink:href="#DejaVuSans-6c" x="895.402344"/>
     <use xlink:href="#DejaVuSans-69" x="923.185547"/>
     <use xlink:href="#DejaVuSans-63" x="950.96875"/>
     <use xlink:href="#DejaVuSans-61" x="1005.949219"/>
     <use xlink:href="#DejaVuSans-74" x="1067.228516"/>
     <use xlink:href="#DejaVuSans-69" x="1106.4375"/>
     <use xlink:href="#DejaVuSans-6f" x="1134.220703"/>
     <use xlink:href="#DejaVuSans-6e" x="1195.402344"/>
    </g>
   </g>
  </g>
 </g>
 <defs>
  <clipPath id="p4bae9c436a">
   <rect x="32.968125" y="35.2559" width="960.19" height="317.968"/>
  </clipPath>
 </defs>
</svg>
